<svg id="Layer_5" enable-background="new 0 0 64 64" height="512" viewBox="0 0 64 64" width="512" xmlns="http://www.w3.org/2000/svg"><g><g><g><path d="m36.82 28h-5.82-25v8 16h24v2c0 1.1.9 2 2 2h-28c-1.1 0-2-.9-2-2v-30h31.73c.8 1.51 1.84 2.86 3.09 4z" fill="#aab2bd"/></g><g><path d="m56 29v15h-2-2v-12.86c1.45-.51 2.79-1.24 4-2.14z" fill="#aab2bd"/></g><g><path d="m47 32c-3.93 0-7.51-1.51-10.18-4h-5.82-25v8 16h24c0-.89.59-1.66 1.41-1.91.18-.06.38-.09.59-.09h2 4 4 2c1.1 0 2 .9 2 2 0-1.1.9-2 2-2-1.1 0-2-.9-2-2v-2c0-1.1.9-2 2-2h2 2v-12.86c-1.57.56-3.25.86-5 .86z" fill="#e6e9ed"/></g><g><path d="m50 56h4 4 2c1.1 0 2 .9 2 2v2c0 1.1-.9 2-2 2h-12c-1.1 0-2-.9-2-2v-2c0-1.1.9-2 2-2z" fill="#fcd770"/></g><g><path d="m50 50h4 4 2c1.1 0 2 .9 2 2v2c0 1.1-.9 2-2 2h-2-4-4-2c-1.1 0-2-.9-2-2v-2c0-1.1.9-2 2-2z" fill="#ffeaa7"/></g><g><path d="m50 44h2 2 2 2 2c1.1 0 2 .9 2 2v2c0 1.1-.9 2-2 2h-2-4-4-2c-1.1 0-2-.9-2-2v-2c0-1.1.9-2 2-2z" fill="#fcd770"/></g><g><path d="m56 29c-1.21.9-2.55 1.63-4 2.14-1.57.56-3.25.86-5 .86-3.93 0-7.51-1.51-10.18-4-1.25-1.14-2.29-2.49-3.09-4-1.1-2.09-1.73-4.47-1.73-7 0-.34.01-.67.04-1 .51-7.82 7.02-14 14.96-14 8.28 0 15 6.72 15 15 0 4.9-2.36 9.26-6 12z" fill="#ff826e"/></g><g><path d="m47 6c3.04 0 5.79 1.23 7.78 3.22s3.22 4.74 3.22 7.78-1.23 5.79-3.22 7.78-4.74 3.22-7.78 3.22-5.79-1.23-7.78-3.22-3.22-4.74-3.22-7.78 1.23-5.79 3.22-7.78 4.74-3.22 7.78-3.22z" fill="#69d6f4"/></g><g><path d="m42 56h2c1.1 0 2 .9 2 2v2c0 1.1-.9 2-2 2h-12c-1.1 0-2-.9-2-2v-2c0-1.1.9-2 2-2h2 4z" fill="#ffeaa7"/></g><g><path d="m42 50h2c1.1 0 2 .9 2 2v2c0 1.1-.9 2-2 2h-2-4-4-2c-1.1 0-2-.9-2-2v-2c0-.89.59-1.66 1.41-1.91.18-.06.38-.09.59-.09h2 4z" fill="#fcd770"/></g><g><path d="m33.73 24h-31.73v-6c0-1.1.9-2 2-2h4v2c0 1.1.9 2 2 2h2c1.1 0 2-.9 2-2v-2h6v2c0 1.1.9 2 2 2h2c1.1 0 2-.9 2-2v-2h6.04c-.03.33-.04.66-.04 1 0 2.53.63 4.91 1.73 7z" fill="#b4dd7f"/></g><g><path d="m26 16v2c0 1.1-.9 2-2 2h-2c-1.1 0-2-.9-2-2v-2-2c0-1.1.9-2 2-2h2c1.1 0 2 .9 2 2z" fill="#aab2bd"/></g><g><path d="m14 16v2c0 1.1-.9 2-2 2h-2c-1.1 0-2-.9-2-2v-2-2c0-1.1.9-2 2-2h2c1.1 0 2 .9 2 2z" fill="#aab2bd"/></g></g><g><path d="m60 43h-3v-13.53c3.653-2.935 6-7.431 6-12.47 0-8.822-7.178-16-16-16-8.144 0-14.872 6.12-15.861 14h-4.139v-1c0-1.654-1.346-3-3-3h-2c-1.654 0-3 1.346-3 3v1h-4v-1c0-1.654-1.346-3-3-3h-2c-1.654 0-3 1.346-3 3v1h-3c-1.654 0-3 1.346-3 3v36c0 1.654 1.346 3 3 3h25.184c-.112.314-.184.648-.184 1v2c0 1.654 1.346 3 3 3h12c.771 0 1.468-.301 2-.78.532.48 1.229.78 2 .78h12c1.654 0 3-1.346 3-3v-2c0-.771-.301-1.468-.78-2 .48-.532.78-1.229.78-2v-2c0-.771-.301-1.468-.78-2 .48-.532.78-1.229.78-2v-2c0-1.654-1.346-3-3-3zm1 3v2c0 .551-.449 1-1 1h-12c-.551 0-1-.449-1-1v-2c0-.551.449-1 1-1h1v2h2v-2h2v2h2v-2h2v2h2v-2h1c.551 0 1 .449 1 1zm0 6v2c0 .551-.449 1-1 1h-12c-.551 0-1-.449-1-1v-2c0-.551.449-1 1-1h1v2h2v-2h2v2h2v-2h2v2h2v-2h1c.551 0 1 .449 1 1zm-29 3c-.551 0-1-.449-1-1v-2c0-.551.449-1 1-1h1v2h2v-2h2v2h2v-2h2v2h2v-2h1c.551 0 1 .449 1 1v2c0 .551-.449 1-1 1zm4.453-26c2.819 2.481 6.505 4 10.547 4 1.383 0 2.719-.195 4-.527v10.527h-3c-1.654 0-3 1.346-3 3v2c0 .475.121.919.319 1.319-.4-.198-.844-.319-1.319-.319h-12c-1.302 0-2.402.839-2.816 2h-22.184v-22zm18.547 14h-2v-11.178c.693-.282 1.359-.615 2-.987zm-8-40c7.72 0 14 6.28 14 14s-6.28 14-14 14-14-6.28-14-14 6.28-14 14-14zm-26 11c0-.551.449-1 1-1h2c.551 0 1 .449 1 1v4c0 .551-.449 1-1 1h-2c-.551 0-1-.449-1-1zm-12 0c0-.551.449-1 1-1h2c.551 0 1 .449 1 1v4c0 .551-.449 1-1 1h-2c-.551 0-1-.449-1-1zm-5 3h3v1c0 1.654 1.346 3 3 3h2c1.654 0 3-1.346 3-3v-1h4v1c0 1.654 1.346 3 3 3h2c1.654 0 3-1.346 3-3v-1h4c0 2.122.424 4.145 1.178 6h-29.178v-5c0-.551.449-1 1-1zm-1 37v-29h30.165c.407.701.86 1.371 1.365 2h-29.53v26h24v1c0 .352.072.686.184 1h-25.184c-.551 0-1-.449-1-1zm41 7h-12c-.551 0-1-.449-1-1v-2c0-.551.449-1 1-1h1v2h2v-2h2v2h2v-2h2v2h2v-2h1c.551 0 1 .449 1 1v2c0 .551-.449 1-1 1zm17-1c0 .551-.449 1-1 1h-12c-.551 0-1-.449-1-1v-2c0-.551.449-1 1-1h1v2h2v-2h2v2h2v-2h2v2h2v-2h1c.551 0 1 .449 1 1z"/><path d="m34 47v-4c0-2.206-1.794-4-4-4h-2c-1.103 0-2-.897-2-2v-2h4c1.103 0 2 .897 2 2h2c0-1.474-.81-2.75-2-3.444v-2.556h-2v2h-2v-2h-2v2h-2v4c0 2.206 1.794 4 4 4h2c1.103 0 2 .897 2 2v2h-4c-1.103 0-2-.897-2-2h-2c0 1.474.81 2.75 2 3.444v2.556h2v-2h2v2h2v-2z"/><path d="m47 29c6.617 0 12-5.383 12-12s-5.383-12-12-12-12 5.383-12 12 5.383 12 12 12zm-9.949-13c.2-2.008.998-3.842 2.211-5.324l1.375 1.375 1.414-1.414-1.375-1.375c1.482-1.214 3.316-2.011 5.324-2.211v1.949h2v-1.949c2.008.2 3.842.998 5.324 2.211l-1.375 1.375 1.414 1.414 1.375-1.375c1.213 1.482 2.011 3.316 2.211 5.324h-1.949v2h1.949c-.2 2.008-.998 3.842-2.211 5.324l-1.375-1.375-1.414 1.414 1.375 1.375c-1.482 1.213-3.316 2.011-5.324 2.211v-1.949h-2v1.949c-2.008-.2-3.842-.998-5.324-2.211l1.375-1.375-1.414-1.414-1.375 1.375c-1.213-1.482-2.011-3.316-2.211-5.324h1.949v-2z"/><path d="m51 18v-2h-3.586l-3.707-3.707-1.414 1.414 4.293 4.293z"/><path d="m9 31h13v2h-13z"/><path d="m9 35h13v2h-13z"/><path d="m9 39h13v2h-13z"/><path d="m9 43h13v2h-13z"/><path d="m16 47h2v2h-2z"/><path d="m12 47h2v2h-2z"/><path d="m20 47h2v2h-2z"/><path d="m47 35h2v2h-2z"/><path d="m47 39h2v2h-2z"/></g></g></svg>