<?xml version="1.0" encoding="iso-8859-1"?>
<!-- Generator: Adobe Illustrator 19.0.0, SVG Export Plug-In . SVG Version: 6.00 Build 0)  -->
<svg version="1.1" id="Capa_1" xmlns="http://www.w3.org/2000/svg" xmlns:xlink="http://www.w3.org/1999/xlink" x="0px" y="0px"
	 viewBox="0 0 496 496" style="enable-background:new 0 0 496 496;" xml:space="preserve">
<rect x="8" y="8" style="fill:#ECECEC;" width="480" height="480"/>
<rect x="40" y="216" style="fill:#B6C1CE;" width="256" height="224"/>
<rect x="40" y="344" style="fill:#FCD770;" width="256" height="96"/>
<rect x="328" y="8" style="fill:#B6C1CE;" width="160" height="480"/>
<g>
	<rect x="8" y="8" style="fill:#FB5968;" width="480" height="64"/>
	<circle style="fill:#FB5968;" cx="168" cy="216" r="96"/>
</g>
<path style="fill:#CD2C5A;" d="M168,288c-48.944,0-89.256-36.656-95.168-84C72.336,207.936,72,211.928,72,216
	c0,53.016,42.984,96,96,96s96-42.984,96-96c0-4.072-0.336-8.064-0.832-12C257.256,251.344,216.944,288,168,288z"/>
<polygon style="fill:#ECECEC;" points="136,256 136,176 216,216 "/>
<circle style="fill:#FEA82F;" cx="168" cy="392" r="24"/>
<g>
	<rect x="376" y="104" style="fill:#ECECEC;" width="64" height="64"/>
	<rect x="376" y="232" style="fill:#ECECEC;" width="64" height="64"/>
	<rect x="376" y="360" style="fill:#ECECEC;" width="64" height="64"/>
</g>
<polygon style="fill:#CD2C5A;" points="488,72 488,8 320,8 288,72 "/>
<path d="M0,0v496h496V0H0z M480,16v48H16V16H480z M16,80h304v400H16V80z M336,480V80h144v400H336z"/>
<path d="M271.592,208c-4.104-53.608-48.944-96-103.592-96s-99.488,42.392-103.592,96H32v240h272V208H271.592z M168,128
	c48.52,0,88,39.48,88,88s-39.48,88-88,88s-88-39.48-88-88S119.48,128,168,128z M64.408,224c4.104,53.608,48.944,96,103.592,96
	s99.488-42.392,103.592-96H288v112H48V224H64.408z M48,432v-80h240v80H48z"/>
<path d="M128,163.056v105.888L233.888,216L128,163.056z M144,188.944L198.112,216L144,243.056V188.944z"/>
<path d="M168,368c-10.416,0-19.216,6.712-22.528,16H64v16h81.472c3.312,9.288,12.112,16,22.528,16s19.216-6.712,22.528-16H272v-16
	h-81.472C187.216,374.712,178.416,368,168,368z M168,400c-4.408,0-8-3.592-8-8s3.592-8,8-8s8,3.592,8,8S172.408,400,168,400z"/>
<path d="M368,176h80V96h-80V176z M384,112h48v48h-48V112z"/>
<rect x="368" y="192" width="48" height="16"/>
<path d="M368,304h80v-80h-80V304z M384,240h48v48h-48V240z"/>
<rect x="368" y="320" width="48" height="16"/>
<path d="M368,432h80v-80h-80V432z M384,368h48v48h-48V368z"/>
<rect x="368" y="448" width="48" height="16"/>
<rect x="32" y="32" width="16" height="16"/>
<rect x="64" y="32" width="16" height="16"/>
<rect x="96" y="32" width="16" height="16"/>
<rect x="432" y="192" width="16" height="16"/>
<rect x="432" y="320" width="16" height="16"/>
<rect x="432" y="448" width="16" height="16"/>
<g>
</g>
<g>
</g>
<g>
</g>
<g>
</g>
<g>
</g>
<g>
</g>
<g>
</g>
<g>
</g>
<g>
</g>
<g>
</g>
<g>
</g>
<g>
</g>
<g>
</g>
<g>
</g>
<g>
</g>
</svg>
