<svg id="_x33_0" enable-background="new 0 0 62 62" height="512" viewBox="0 0 62 62" width="512" xmlns="http://www.w3.org/2000/svg"><g><g><g><path d="m52 31c4.97 0 9 4.03 9 9 0 2.48-1.01 4.74-2.64 6.36-1.62 1.63-3.88 2.64-6.36 2.64h-5.06c.04-.33.06-.66.06-1v-3h5c1.38 0 2.63-.56 3.54-1.46.9-.91 1.46-2.16 1.46-3.54 0-2.76-2.24-5-5-5h-5v-4z" fill="#969faa"/></g><g><path d="m46 23h-30c-.55 0-1 .45-1 1v9h3v1.93c0 1.78 2.15 2.67 3.41 1.41l1.37-1.36 4.24 4.24-1.36 1.37c-1.26 1.26-.37 3.41 1.41 3.41h1.93v6h-1.93c-1.78 0-2.67 2.15-1.41 3.41l1.36 1.37-2.22 2.22h13.2c4.63 0 8.45-3.5 8.94-8 .04-.33.06-25 .06-25 0-.55-.45-1-1-1z" fill="#ccd1d9"/></g><g><path d="m43 17v6h-12v-10-.45-10.55c0-.55.45-1 1-1h10c.55 0 1 .45 1 1v3 4 4z" fill="#fcd770"/></g><g><path d="m27 13h4v10h-4z" fill="#b4dd7f"/></g><g><path d="m19 13h4v10h-4z" fill="#b4dd7f"/></g><g><path d="m23 13h4v10h-4z" fill="#ef7385"/></g><g><path d="m30.71 11.52c.19.32.29.67.29 1.03v.45h-4-4-4v-.45c0-.36.1-.71.29-1.03l2.71-4.52h6z" fill="#ccd1d9"/></g><g><path d="m25 2 3 5h-6z" fill="#969faa"/></g><g><path d="m29 44v6h-1.93c-1.78 0-2.67 2.15-1.41 3.41l1.36 1.37-2.22 2.22-2.02 2.02-1.37-1.36c-1.26-1.26-3.41-.37-3.41 1.41v1.93h-6v-1.93c0-1.78-2.15-2.67-3.41-1.41l-1.37 1.36-4.24-4.24 1.36-1.37c1.26-1.26.37-3.41-1.41-3.41h-1.93v-6h1.93c1.78 0 2.67-2.15 1.41-3.41l-1.36-1.37 4.24-4.24 1.37 1.36c1.26 1.26 3.41.37 3.41-1.41v-1.93h3 3v1.93c0 1.78 2.15 2.67 3.41 1.41l1.37-1.36 4.24 4.24-1.36 1.37c-1.26 1.26-.37 3.41 1.41 3.41zm-6 3c0-4.42-3.58-8-8-8s-8 3.58-8 8 3.58 8 8 8 8-3.58 8-8z" fill="#ffc729"/></g><g><path d="m15 39c4.42 0 8 3.58 8 8s-3.58 8-8 8-8-3.58-8-8 3.58-8 8-8zm4 8c0-2.21-1.79-4-4-4s-4 1.79-4 4 1.79 4 4 4 4-1.79 4-4z" fill="#fcd770"/></g></g><g><path d="m15 38c-4.962 0-9 4.038-9 9s4.038 9 9 9 9-4.038 9-9-4.038-9-9-9zm0 16c-3.86 0-7-3.14-7-7s3.14-7 7-7 7 3.14 7 7-3.14 7-7 7z"/><path d="m15 42c-2.757 0-5 2.243-5 5s2.243 5 5 5 5-2.243 5-5-2.243-5-5-5zm0 8c-1.654 0-3-1.346-3-3s1.346-3 3-3 3 1.346 3 3-1.346 3-3 3z"/><path d="m52 30h-4v-6c0-1.103-.897-2-2-2h-2v-20c0-1.103-.897-2-2-2h-10c-1.103 0-2 .897-2 2v6.39l-5-8.334-6.572 10.955c-.28.466-.428 1-.428 1.543v9.446h-2c-1.103 0-2 .897-2 2v8h-3v2.929c0 .62-.472.864-.617.924-.146.06-.651.222-1.09-.217l-2.071-2.071-5.657 5.657 2.071 2.071c.438.438.277.945.217 1.09s-.304.617-.924.617h-2.929v8h2.929c.62 0 .864.473.924.617.06.145.222.651-.217 1.09l-2.071 2.071 5.657 5.657 2.071-2.071c.438-.438.944-.277 1.09-.217.145.06.617.304.617.924v2.929h8v-2.929c0-.62.472-.864.617-.924.145-.061.65-.223 1.09.217l2.071 2.071 2.435-2.435h12.787c4.829 0 8.869-3.441 9.798-8h4.202c5.514 0 10-4.486 10-10s-4.486-10-10-10zm-4 6h4c2.206 0 4 1.794 4 4s-1.794 4-4 4h-4zm-16-34h10v2h-6v2h6v2h-4v2h4v2h-6v2h6v2h-4v2h4v4h-10v-9-.446zm-2.166 10h-9.668l2.4-4h4.868zm-3.834 2v8h-2v-8zm2 0h2v8h-2zm-1.766-8h-2.467l1.233-2.056zm-6.234 8h2v8h-2zm26 10v4h-30v-4zm-23.879 32.95c-.874-.875-2.128-1.124-3.269-.65-1.143.472-1.852 1.534-1.852 2.771v.929h-4v-.929c0-1.236-.709-2.298-1.852-2.771-1.141-.472-2.395-.224-3.269.65l-.657.657-2.829-2.829.657-.657c.875-.874 1.124-2.127.65-3.269-.472-1.143-1.534-1.852-2.771-1.852h-.929v-4h.929c1.236 0 2.298-.709 2.771-1.852.473-1.142.224-2.395-.65-3.269l-.657-.657 2.829-2.829.657.657c.874.875 2.128 1.125 3.269.65 1.143-.472 1.852-1.534 1.852-2.771v-.929h4v.929c0 1.236.709 2.298 1.852 2.771 1.143.475 2.396.225 3.269-.65l.657-.657 2.829 2.829-.657.657c-.875.874-1.124 2.127-.65 3.269.472 1.143 1.534 1.852 2.771 1.852h.929v4h-.929c-1.237 0-2.299.709-2.772 1.852-.473 1.142-.224 2.395.65 3.269l.657.657-2.829 2.829zm15.879-.95h-10.787l1.222-1.222-2.071-2.071c-.438-.438-.277-.945-.217-1.09.06-.144.304-.617.924-.617h2.929v-8h-2.929c-.62 0-.864-.472-.924-.617s-.222-.651.217-1.09l2.071-2.071-5.657-5.657-2.071 2.071c-.439.439-.945.277-1.09.217s-.617-.304-.617-.924v-2.929h-3v-2h30v18c0 4.411-3.589 8-8 8zm14-8h-4v-2h4c3.309 0 6-2.691 6-6s-2.691-6-6-6h-4v-2h4c4.411 0 8 3.589 8 8s-3.589 8-8 8z"/><path d="m54 8h2v-2h2v-2h-2v-2h-2v2h-2v2h2z"/><path d="m54 18h2v-2h2v-2h-2v-2h-2v2h-2v2h2z"/><path d="m54 28h2v-2h2v-2h-2v-2h-2v2h-2v2h2z"/><path d="m6 12h2v-2h2v-2h-2v-2h-2v2h-2v2h2z"/><path d="m6 22h2v-2h2v-2h-2v-2h-2v2h-2v2h2z"/><path d="m6 32h2v-2h2v-2h-2v-2h-2v2h-2v2h2z"/></g></g></svg>