<svg id="Capa_1" enable-background="new 0 0 512 512" height="512" viewBox="0 0 512 512" width="512" xmlns="http://www.w3.org/2000/svg"><g><g><path d="m7.501 427.914v-343.828c0-8.069 6.541-14.61 14.61-14.61h467.779c8.069 0 14.61 6.541 14.61 14.61v343.827c0 8.069-6.541 14.61-14.61 14.61h-467.779c-8.069.001-14.61-6.54-14.61-14.609z" fill="#99e6fc"/></g><g><path d="m504.503 84.091v343.818c0 8.07-6.54 14.611-14.611 14.611h-20.001c8.07 0 14.611-6.54 14.611-14.611v-343.818c0-8.07-6.54-14.611-14.611-14.611h20.001c8.071 0 14.611 6.54 14.611 14.611z" fill="#62dbfb"/></g><g><path d="m472.032 140.521v230.958c0 .773-.605 1.395-1.376 1.45-18.393 1.316-33.04 16.156-34.064 34.629-.043.781-.669 1.4-1.451 1.4h-358.28c-.782 0-1.408-.619-1.451-1.4-1.025-18.473-15.671-33.313-34.064-34.629-.771-.055-1.376-.677-1.376-1.45v-230.958c0-.773.605-1.395 1.376-1.45 18.393-1.316 33.04-16.156 34.064-34.629.043-.781.669-1.4 1.451-1.4h358.279c.782 0 1.408.619 1.451 1.4 1.025 18.473 15.671 33.313 34.064 34.629.771.055 1.377.677 1.377 1.45z" fill="#f8f6f6"/></g><g><path d="m472.032 140.524v230.952c0 .78-.61 1.4-1.38 1.45-18.391 1.32-33.032 16.161-34.062 34.632-.04.78-.67 1.4-1.45 1.4h-20.001c.78 0 1.69-.66 1.45-1.4-7.04-21.541 15.671-49.603 34.062-50.923.77-.05 1.38-.67 1.38-1.45v-201.021c0-.77-.61-1.4-1.38-1.45-18.391-1.32-41.102-29.432-34.062-48.273.28-.73-.67-1.4-1.45-1.4h20.001c.78 0 1.41.62 1.45 1.4 1.03 18.471 15.671 33.312 34.062 34.632.77.051 1.38.671 1.38 1.451z" fill="#ebebeb"/></g><g><path d="m358.562 282.281h-25.23v86.681c0 .694.774 1.108 1.352.723l23.396-15.597c.292-.195.672-.195.964 0l23.396 15.597c.578.385 1.352-.029 1.352-.723v-86.681z" fill="#fe76a8"/></g><g><path d="m383.787 282.281v86.685c0 .69-.77 1.1-1.35.72l-18.651-12.441v-74.964z" fill="#fe5694"/></g><g><circle cx="358.562" cy="263.885" fill="#fee45a" r="50.986"/></g><g><path d="m409.548 263.88c0 28.162-22.831 50.993-50.983 50.993-10.471 0-20.201-3.16-28.301-8.57 2.7.45 5.47.68 8.3.68 28.152 0 50.983-22.821 50.983-50.983 0-17.691-9.01-33.282-22.701-42.422 24.211 3.95 42.702 24.971 42.702 50.302z" fill="#fed402"/></g><g><path d="m330.253 376.341c1.24.664 2.597.992 3.95.992 1.622 0 3.239-.473 4.641-1.408l19.718-13.145 19.717 13.145c2.573 1.715 5.865 1.875 8.593.417 2.727-1.459 4.421-4.287 4.421-7.38v-56.63c15.529-10.526 25.755-28.314 25.755-48.446 0-8.587-1.821-16.864-5.412-24.6-1.744-3.758-6.204-5.391-9.961-3.645-3.757 1.744-5.389 6.203-3.645 9.961 2.666 5.743 4.017 11.895 4.017 18.285 0 23.978-19.507 43.485-43.485 43.485s-43.485-19.507-43.485-43.485 19.507-43.485 43.485-43.485c6.736 0 13.189 1.496 19.18 4.445 3.716 1.833 8.212.3 10.042-3.416 1.83-3.717.301-8.212-3.416-10.042-8.071-3.974-16.753-5.989-25.807-5.989-32.249 0-58.486 26.237-58.486 58.486 0 20.133 10.226 37.921 25.756 48.446v56.63c0 3.092 1.694 5.92 4.422 7.379zm10.579-56.725c5.595 1.784 11.55 2.755 17.729 2.755s12.134-.971 17.73-2.755v36.955l-13.092-8.728c-1.408-.937-3.022-1.406-4.636-1.406-1.615 0-3.232.47-4.644 1.409l-13.087 8.725z"/><path d="m489.89 61.976h-467.779c-12.192 0-22.111 9.919-22.111 22.11v343.827c0 12.192 9.919 22.111 22.111 22.111h467.779c12.192 0 22.11-9.919 22.11-22.111v-343.827c0-12.191-9.918-22.11-22.11-22.11zm7.109 365.937c0 3.92-3.189 7.11-7.109 7.11h-467.779c-3.92 0-7.11-3.19-7.11-7.11v-343.827c0-3.92 3.19-7.11 7.11-7.11h467.779c3.92 0 7.109 3.19 7.109 7.11z"/><path d="m471.191 131.59c-14.642-1.047-26.297-12.897-27.111-27.564-.265-4.757-4.192-8.483-8.94-8.483h-358.279c-4.751 0-8.678 3.729-8.94 8.485-.814 14.666-12.468 26.515-27.111 27.563-4.677.335-8.342 4.258-8.342 8.932v154.551c0 4.142 3.358 7.5 7.5 7.5s7.5-3.358 7.5-7.5v-149.282c17.614-3.554 31.438-17.583 34.744-35.25h347.576c3.304 17.666 17.128 31.696 34.743 35.25v220.415c-17.616 3.555-31.439 17.585-34.744 35.25h-347.575c-3.304-17.666-17.128-31.696-34.744-35.25v-35.989c0-4.142-3.358-7.5-7.5-7.5s-7.5 3.358-7.5 7.5v41.26c0 4.674 3.664 8.597 8.342 8.932 14.642 1.047 26.297 12.897 27.11 27.56.262 4.76 4.189 8.488 8.94 8.488h358.28c4.748 0 8.675-3.726 8.94-8.485.813-14.666 12.468-26.515 27.111-27.563 4.677-.335 8.341-4.258 8.341-8.932v-230.957c0-4.673-3.664-8.597-8.341-8.931z"/><path d="m409.547 133.914h-307.094c-4.142 0-7.5 3.358-7.5 7.5s3.358 7.5 7.5 7.5h307.095c4.142 0 7.5-3.358 7.5-7.5s-3.358-7.5-7.501-7.5z"/><path d="m409.547 169.656h-38.107c-4.142 0-7.5 3.358-7.5 7.5s3.358 7.5 7.5 7.5h38.108c4.142 0 7.5-3.358 7.5-7.5 0-4.141-3.358-7.5-7.501-7.5z"/><path d="m102.453 184.657h234.753c4.142 0 7.5-3.358 7.5-7.5s-3.358-7.5-7.5-7.5h-234.753c-4.142 0-7.5 3.358-7.5 7.5-.001 4.142 3.357 7.5 7.5 7.5z"/><path d="m102.453 220.4h153.405c4.142 0 7.5-3.358 7.5-7.5s-3.358-7.5-7.5-7.5h-153.405c-4.142 0-7.5 3.358-7.5 7.5s3.357 7.5 7.5 7.5z"/><path d="m184.87 324.563c6.224 7.215 17.174 9.725 26.035 5.966 5.545-2.351 9.222-6.567 12.021-11.012 8.263 9.527 21.167 14.982 33.914 13.301 4.107-.542 6.996-4.311 6.454-8.417s-4.305-6.993-8.417-6.454c-10.439 1.383-21.882-5.956-24.991-16.015-.879-2.846-3.36-4.902-6.319-5.238-2.963-.334-5.838 1.111-7.333 3.687-.966 1.664-1.858 3.422-2.721 5.123-2.424 4.777-4.931 9.717-8.462 11.214-2.832 1.201-6.871.307-8.822-1.953-1.727-2.003-1.306-4.921 1.67-11.568 1.161-2.593 2.275-4.983 3.407-7.305 1.133-2.325.989-5.07-.382-7.263s-3.774-3.524-6.36-3.524c0 0-.001 0-.002 0-.965 0-12.869.012-27.465.358l5.784-19.44c1.181-3.97-1.08-8.146-5.05-9.328-3.97-1.183-8.147 1.08-9.328 5.05l-7.204 24.213c-10.051.402-20.033.993-27.688 1.862-11.877 1.349-20.228 5.153-24.821 11.306-3.325 4.453-4.519 9.994-3.452 16.022 2.386 13.486 15.305 21.051 25.642 23.431 2.848.656 5.492.957 7.956.957 22.069 0 29.269-24.189 32.159-33.902l1.5-5.04c7.542-.211 14.665-.332 20.263-.4-2.541 6.281-5.184 16.029 2.012 24.369zm-38.154-23.206c-5.779 19.421-11.42 25.128-22.371 22.606-6.339-1.46-13.199-5.559-14.238-11.427-.443-2.505.142-3.686.701-4.435 1.904-2.551 7.323-4.56 14.493-5.374 5.956-.676 13.53-1.178 21.467-1.55z"/></g></g></svg>