<?xml version="1.0" encoding="utf-8"?>
<!-- Generator: Adobe Illustrator 24.0.0, SVG Export Plug-In . SVG Version: 6.00 Build 0)  -->
<svg version="1.1" id="Capa_1" xmlns="http://www.w3.org/2000/svg" xmlns:xlink="http://www.w3.org/1999/xlink" x="0px" y="0px"
	 viewBox="0 0 358.11 200" style="enable-background:new 0 0 358.11 200;" xml:space="preserve">
<style type="text/css">
	.st0{fill:#FFFFFF;}
	.st1{fill:none;stroke:#FFFFFF;stroke-width:3;stroke-miterlimit:10;}
	.st2{fill:#CCB079;}
	.st3{opacity:0.7;fill:#FFFFFF;}
</style>
<g>
	<g>
		<g>
			<g>
				<path class="st0" d="M-174.21,79.76v29.72h-5.96V90.15l-7.96,19.33h-4.51l-8-19.33v19.33h-5.96V79.76h6.77l9.45,22.1l9.45-22.1
					H-174.21z"/>
				<path class="st0" d="M-160.25,84.57v7.45h10v4.73h-10v7.88h11.28v4.85h-17.24V79.72h17.24v4.85H-160.25z"/>
				<path class="st0" d="M-122.8,81.59c2.37,1.22,4.2,2.96,5.49,5.22c1.29,2.26,1.94,4.87,1.94,7.85c0,2.98-0.65,5.58-1.94,7.81
					c-1.29,2.23-3.12,3.95-5.49,5.17c-2.37,1.22-5.12,1.83-8.24,1.83h-10.39V79.76h10.39C-127.92,79.76-125.17,80.37-122.8,81.59z
					 M-124.02,101.86c1.7-1.7,2.55-4.1,2.55-7.19c0-3.09-0.85-5.51-2.55-7.26c-1.7-1.75-4.12-2.62-7.24-2.62h-4.21v19.63h4.21
					C-128.13,104.41-125.72,103.56-124.02,101.86z"/>
				<path class="st0" d="M-102.82,104.75h9.79v4.73h-15.75V79.76h5.96V104.75z"/>
				<path class="st0" d="M-68.89,103.81h-11.84l-1.96,5.66h-6.26l10.69-29.76h6.94l10.69,29.76h-6.3L-68.89,103.81z M-70.5,99.05
					l-4.3-12.43l-4.3,12.43H-70.5z"/>
				<path class="st0" d="M-33.51,96.75c1.08,1.36,1.62,2.92,1.62,4.68c0,1.59-0.39,2.99-1.17,4.19c-0.78,1.21-1.91,2.15-3.38,2.83
					c-1.48,0.68-3.22,1.02-5.24,1.02H-54.5V79.76h12.26c2.01,0,3.75,0.33,5.22,0.98c1.46,0.65,2.57,1.56,3.32,2.72
					c0.75,1.16,1.13,2.48,1.13,3.96c0,1.73-0.46,3.18-1.38,4.34c-0.92,1.16-2.15,1.99-3.68,2.47
					C-35.96,94.55-34.59,95.38-33.51,96.75z M-48.54,92.02h5.45c1.42,0,2.51-0.32,3.28-0.96c0.77-0.64,1.15-1.55,1.15-2.75
					c0-1.19-0.38-2.11-1.15-2.77c-0.77-0.65-1.86-0.98-3.28-0.98h-5.45V92.02z M-39.15,103.6c0.81-0.68,1.21-1.65,1.21-2.9
					c0-1.28-0.43-2.28-1.28-3c-0.85-0.72-2-1.09-3.45-1.09h-5.87v8h6C-41.09,104.62-39.96,104.28-39.15,103.6z"/>
			</g>
		</g>
	</g>
	<g>
		<g>
			<g>
				<path class="st0" d="M-205.8,117.21c-0.3,0-0.55,0.06-0.75,0.19c-0.2,0.12-0.29,0.31-0.29,0.56c0,0.25,0.1,0.44,0.29,0.58
					c0.2,0.13,0.61,0.28,1.25,0.43c0.64,0.15,1.11,0.37,1.44,0.65c0.32,0.28,0.48,0.69,0.48,1.23c0,0.54-0.2,0.98-0.61,1.32
					c-0.41,0.34-0.94,0.51-1.61,0.51c-0.97,0-1.83-0.33-2.58-1l0.66-0.79c0.63,0.54,1.28,0.82,1.95,0.82c0.34,0,0.6-0.07,0.8-0.22
					c0.2-0.15,0.3-0.34,0.3-0.58s-0.09-0.43-0.28-0.56c-0.19-0.13-0.51-0.25-0.96-0.36c-0.46-0.11-0.8-0.21-1.04-0.3
					c-0.24-0.09-0.45-0.21-0.63-0.36c-0.37-0.28-0.55-0.7-0.55-1.28c0-0.57,0.21-1.02,0.63-1.33c0.42-0.31,0.93-0.47,1.55-0.47
					c0.4,0,0.79,0.06,1.18,0.2c0.39,0.13,0.73,0.31,1.01,0.55l-0.56,0.79c-0.18-0.17-0.43-0.3-0.75-0.41
					C-205.19,117.26-205.5,117.21-205.8,117.21z"/>
				<path class="st0" d="M-199.08,120.43v-2.55h0.99v4.72h-0.99v-0.86c-0.16,0.29-0.38,0.52-0.66,0.68
					c-0.28,0.17-0.58,0.25-0.91,0.25c-0.53,0-0.96-0.16-1.29-0.49c-0.33-0.33-0.49-0.8-0.49-1.41v-2.89h0.99v2.59
					c0,0.87,0.36,1.3,1.08,1.3c0.34,0,0.64-0.11,0.9-0.34C-199.2,121.2-199.08,120.87-199.08,120.43z"/>
				<path class="st0" d="M-192.3,122.66c-0.66,0-1.22-0.22-1.69-0.67c-0.47-0.45-0.71-1.03-0.71-1.75c0-0.72,0.25-1.31,0.74-1.76
					c0.49-0.45,1.1-0.68,1.81-0.68c0.71,0,1.31,0.25,1.8,0.74l-0.59,0.72c-0.41-0.35-0.82-0.53-1.23-0.53
					c-0.41,0-0.77,0.14-1.08,0.41c-0.3,0.27-0.46,0.63-0.46,1.06c0,0.43,0.15,0.8,0.45,1.1c0.3,0.3,0.67,0.45,1.11,0.45
					c0.44,0,0.86-0.2,1.25-0.6l0.59,0.64C-190.89,122.38-191.55,122.66-192.3,122.66z"/>
				<path class="st0" d="M-185.52,121.96c-0.47,0.47-1.06,0.71-1.77,0.71c-0.71,0-1.3-0.24-1.77-0.71
					c-0.47-0.47-0.71-1.05-0.71-1.73c0-0.68,0.24-1.25,0.71-1.72c0.47-0.47,1.06-0.71,1.77-0.71c0.71,0,1.3,0.24,1.77,0.71
					c0.47,0.47,0.71,1.05,0.71,1.72C-184.81,120.91-185.05,121.49-185.52,121.96z M-188.37,121.35c0.28,0.29,0.64,0.43,1.07,0.43
					c0.43,0,0.79-0.14,1.07-0.43c0.28-0.29,0.42-0.66,0.42-1.11c0-0.46-0.14-0.83-0.42-1.11c-0.28-0.29-0.64-0.43-1.07-0.43
					c-0.43,0-0.79,0.14-1.07,0.43c-0.28,0.29-0.42,0.66-0.42,1.11C-188.79,120.69-188.65,121.06-188.37,121.35z"/>
				<path class="st0" d="M-182.78,120.04v2.55h-0.99v-4.72h0.99v0.86c0.16-0.29,0.38-0.52,0.66-0.68c0.28-0.17,0.58-0.25,0.91-0.25
					c0.53,0,0.96,0.16,1.29,0.49c0.33,0.33,0.49,0.8,0.49,1.41v2.89h-0.99V120c0-0.87-0.36-1.3-1.08-1.3c-0.34,0-0.64,0.11-0.9,0.34
					C-182.66,119.27-182.78,119.6-182.78,120.04z"/>
				<path class="st0" d="M-176.96,117.48v0.39h1.24v0.8h-1.24v3.92h-0.99v-3.92h-0.59v-0.8h0.59v-0.36c0-0.5,0.15-0.89,0.45-1.18
					c0.3-0.29,0.66-0.44,1.08-0.44c0.42,0,0.81,0.16,1.16,0.47l-0.41,0.7c-0.2-0.21-0.4-0.31-0.61-0.31c-0.21,0-0.38,0.07-0.5,0.2
					C-176.9,117.08-176.96,117.26-176.96,117.48z"/>
				<path class="st0" d="M-174.78,116.94c-0.12-0.12-0.19-0.27-0.19-0.44c0-0.17,0.06-0.32,0.19-0.44c0.12-0.12,0.27-0.19,0.44-0.19
					c0.17,0,0.32,0.06,0.44,0.19c0.12,0.12,0.19,0.27,0.19,0.44c0,0.17-0.06,0.32-0.19,0.44c-0.12,0.12-0.27,0.19-0.44,0.19
					C-174.51,117.12-174.66,117.06-174.78,116.94z M-173.85,122.59h-0.99v-4.72h0.99V122.59z"/>
				<path class="st0" d="M-168.68,122.59h-0.9v-0.63c-0.39,0.47-0.91,0.7-1.57,0.7c-0.49,0-0.9-0.14-1.22-0.42
					c-0.32-0.28-0.48-0.65-0.48-1.11c0-0.46,0.17-0.81,0.51-1.04c0.34-0.23,0.81-0.35,1.39-0.35h1.29v-0.18
					c0-0.63-0.35-0.94-1.05-0.94c-0.44,0-0.89,0.16-1.37,0.48l-0.44-0.62c0.57-0.46,1.22-0.68,1.95-0.68c0.56,0,1.01,0.14,1.36,0.42
					c0.35,0.28,0.53,0.72,0.53,1.33V122.59z M-169.67,120.84v-0.4h-1.12c-0.72,0-1.07,0.22-1.07,0.67c0,0.23,0.09,0.41,0.27,0.53
					c0.18,0.12,0.42,0.18,0.74,0.18s0.59-0.09,0.83-0.27C-169.79,121.38-169.67,121.14-169.67,120.84z"/>
				<path class="st0" d="M-166.39,120.04v2.55h-0.99v-4.72h0.99v0.86c0.16-0.29,0.38-0.52,0.66-0.68c0.28-0.17,0.58-0.25,0.91-0.25
					c0.53,0,0.96,0.16,1.29,0.49c0.33,0.33,0.49,0.8,0.49,1.41v2.89h-0.99V120c0-0.87-0.36-1.3-1.08-1.3c-0.34,0-0.64,0.11-0.9,0.34
					C-166.27,119.27-166.39,119.6-166.39,120.04z"/>
				<path class="st0" d="M-161.9,118.74v-0.85h3.69v0.9l-2.65,2.94h2.79v0.86h-4.01v-0.97l2.58-2.88H-161.9z"/>
				<path class="st0" d="M-153.21,122.59h-0.9v-0.63c-0.39,0.47-0.91,0.7-1.57,0.7c-0.49,0-0.9-0.14-1.22-0.42
					c-0.32-0.28-0.48-0.65-0.48-1.11c0-0.46,0.17-0.81,0.51-1.04c0.34-0.23,0.81-0.35,1.39-0.35h1.29v-0.18
					c0-0.63-0.35-0.94-1.05-0.94c-0.44,0-0.89,0.16-1.37,0.48l-0.44-0.62c0.57-0.46,1.22-0.68,1.95-0.68c0.56,0,1.01,0.14,1.36,0.42
					c0.35,0.28,0.53,0.72,0.53,1.33V122.59z M-154.21,120.84v-0.4h-1.12c-0.72,0-1.07,0.22-1.07,0.67c0,0.23,0.09,0.41,0.27,0.53
					c0.18,0.12,0.42,0.18,0.74,0.18s0.59-0.09,0.83-0.27C-154.32,121.38-154.21,121.14-154.21,120.84z"/>
				<path class="st0" d="M-145.19,120.67h-3.7c0.02,0.34,0.18,0.62,0.47,0.83c0.29,0.21,0.62,0.31,0.99,0.31
					c0.59,0,1.04-0.19,1.35-0.56l0.57,0.62c-0.51,0.53-1.17,0.79-1.99,0.79c-0.66,0-1.23-0.22-1.69-0.66
					c-0.46-0.44-0.7-1.03-0.7-1.77c0-0.74,0.24-1.33,0.71-1.77c0.47-0.44,1.03-0.66,1.67-0.66c0.64,0,1.19,0.19,1.64,0.58
					c0.45,0.39,0.67,0.92,0.67,1.6V120.67z M-148.88,119.89h2.71c0-0.4-0.12-0.7-0.37-0.91c-0.25-0.21-0.55-0.32-0.92-0.32
					c-0.36,0-0.69,0.11-0.98,0.33C-148.74,119.21-148.88,119.51-148.88,119.89z"/>
				<path class="st0" d="M-140.82,121.18c0,0.45-0.16,0.81-0.49,1.08c-0.33,0.27-0.74,0.4-1.25,0.4c-0.34,0-0.7-0.06-1.07-0.19
					c-0.37-0.12-0.7-0.3-0.98-0.52l0.48-0.77c0.55,0.41,1.08,0.62,1.6,0.62c0.22,0,0.4-0.05,0.53-0.16c0.13-0.1,0.2-0.24,0.2-0.39
					c0-0.24-0.31-0.45-0.94-0.64c-0.05-0.02-0.08-0.03-0.11-0.04c-0.98-0.27-1.47-0.71-1.47-1.33c0-0.44,0.17-0.79,0.51-1.05
					c0.34-0.26,0.78-0.39,1.33-0.39c0.54,0,1.06,0.16,1.54,0.48l-0.37,0.74c-0.38-0.25-0.8-0.38-1.25-0.38
					c-0.24,0-0.43,0.04-0.58,0.13c-0.15,0.09-0.22,0.21-0.22,0.39c0,0.15,0.08,0.27,0.23,0.34c0.11,0.05,0.26,0.1,0.45,0.15
					c0.19,0.05,0.36,0.09,0.51,0.14c0.15,0.05,0.29,0.1,0.43,0.16c0.14,0.06,0.29,0.14,0.45,0.25
					C-140.98,120.4-140.82,120.73-140.82,121.18z"/>
				<path class="st0" d="M-136.45,120.04v2.55h-0.99v-4.72h0.99v0.86c0.16-0.29,0.38-0.52,0.66-0.68c0.28-0.17,0.58-0.25,0.91-0.25
					c0.53,0,0.96,0.16,1.29,0.49c0.33,0.33,0.49,0.8,0.49,1.41v2.89h-0.99V120c0-0.87-0.36-1.3-1.08-1.3c-0.34,0-0.64,0.11-0.9,0.34
					C-136.32,119.27-136.45,119.6-136.45,120.04z"/>
				<path class="st0" d="M-128.5,120.43v-2.55h0.99v4.72h-0.99v-0.86c-0.16,0.29-0.38,0.52-0.66,0.68
					c-0.28,0.17-0.58,0.25-0.91,0.25c-0.53,0-0.96-0.16-1.29-0.49c-0.33-0.33-0.49-0.8-0.49-1.41v-2.89h0.99v2.59
					c0,0.87,0.36,1.3,1.08,1.3c0.34,0,0.64-0.11,0.9-0.34C-128.63,121.2-128.5,120.87-128.5,120.43z"/>
				<path class="st0" d="M-121.77,120.67h-3.7c0.02,0.34,0.18,0.62,0.47,0.83c0.29,0.21,0.62,0.31,0.99,0.31
					c0.59,0,1.04-0.19,1.35-0.56l0.57,0.62c-0.51,0.53-1.17,0.79-1.99,0.79c-0.66,0-1.23-0.22-1.69-0.66
					c-0.46-0.44-0.7-1.03-0.7-1.77c0-0.74,0.24-1.33,0.71-1.77c0.47-0.44,1.03-0.66,1.67-0.66c0.64,0,1.19,0.19,1.64,0.58
					c0.45,0.39,0.67,0.92,0.67,1.6V120.67z M-125.47,119.89h2.71c0-0.4-0.12-0.7-0.37-0.91c-0.25-0.21-0.55-0.32-0.92-0.32
					c-0.36,0-0.69,0.11-0.98,0.33C-125.33,119.21-125.47,119.51-125.47,119.89z"/>
				<path class="st0" d="M-117.41,121.18c0,0.45-0.16,0.81-0.49,1.08c-0.33,0.27-0.74,0.4-1.25,0.4c-0.34,0-0.7-0.06-1.07-0.19
					c-0.37-0.12-0.7-0.3-0.98-0.52l0.48-0.77c0.55,0.41,1.08,0.62,1.6,0.62c0.22,0,0.4-0.05,0.53-0.16c0.13-0.1,0.2-0.24,0.2-0.39
					c0-0.24-0.31-0.45-0.94-0.64c-0.05-0.02-0.08-0.03-0.11-0.04c-0.98-0.27-1.47-0.71-1.47-1.33c0-0.44,0.17-0.79,0.51-1.05
					c0.34-0.26,0.78-0.39,1.33-0.39c0.54,0,1.06,0.16,1.54,0.48l-0.37,0.74c-0.38-0.25-0.8-0.38-1.25-0.38
					c-0.24,0-0.43,0.04-0.58,0.13c-0.15,0.09-0.22,0.21-0.22,0.39c0,0.15,0.08,0.27,0.23,0.34c0.11,0.05,0.26,0.1,0.45,0.15
					c0.19,0.05,0.36,0.09,0.51,0.14c0.15,0.05,0.29,0.1,0.43,0.16c0.14,0.06,0.29,0.14,0.45,0.25
					C-117.57,120.4-117.41,120.73-117.41,121.18z"/>
				<path class="st0" d="M-115.15,118.67v2.39c0,0.22,0.06,0.4,0.18,0.54c0.12,0.13,0.28,0.2,0.5,0.2c0.21,0,0.42-0.1,0.61-0.31
					l0.41,0.7c-0.35,0.31-0.73,0.47-1.16,0.47c-0.42,0-0.78-0.15-1.08-0.44c-0.3-0.29-0.45-0.69-0.45-1.18v-2.37h-0.59v-0.8h0.59
					v-1.48h0.99v1.48h1.24v0.8H-115.15z"/>
				<path class="st0" d="M-110.28,118.81c-0.49,0-0.86,0.16-1.11,0.48c-0.25,0.32-0.37,0.75-0.37,1.29v2.02h-0.99v-4.72h0.99v0.95
					c0.16-0.3,0.38-0.54,0.65-0.73s0.57-0.29,0.87-0.29l0.01,1C-110.24,118.81-110.26,118.81-110.28,118.81z"/>
				<path class="st0" d="M-105.46,121.96c-0.47,0.47-1.06,0.71-1.77,0.71c-0.71,0-1.3-0.24-1.77-0.71
					c-0.47-0.47-0.71-1.05-0.71-1.73c0-0.68,0.24-1.25,0.71-1.72c0.47-0.47,1.06-0.71,1.77-0.71c0.71,0,1.3,0.24,1.77,0.71
					c0.47,0.47,0.71,1.05,0.71,1.72C-104.75,120.91-104.99,121.49-105.46,121.96z M-108.3,121.35c0.28,0.29,0.64,0.43,1.07,0.43
					c0.43,0,0.79-0.14,1.07-0.43c0.28-0.29,0.42-0.66,0.42-1.11c0-0.46-0.14-0.83-0.42-1.11c-0.28-0.29-0.64-0.43-1.07-0.43
					c-0.43,0-0.79,0.14-1.07,0.43c-0.28,0.29-0.42,0.66-0.42,1.11C-108.72,120.69-108.58,121.06-108.3,121.35z"/>
				<path class="st0" d="M-100.38,120.04v2.55h-0.99v-4.72h0.99v0.86c0.14-0.29,0.36-0.52,0.64-0.68c0.29-0.17,0.6-0.25,0.93-0.25
					c0.75,0,1.25,0.31,1.52,0.92c0.47-0.61,1.05-0.92,1.75-0.92c0.53,0,0.96,0.16,1.29,0.49c0.33,0.33,0.49,0.8,0.49,1.41v2.89
					h-0.99V120c0-0.87-0.36-1.3-1.08-1.3c-0.34,0-0.63,0.11-0.88,0.32c-0.25,0.22-0.38,0.53-0.39,0.94v2.63h-0.99V120
					c0-0.45-0.08-0.78-0.24-0.99c-0.16-0.21-0.41-0.32-0.75-0.32s-0.64,0.11-0.9,0.34C-100.25,119.27-100.38,119.6-100.38,120.04z"
					/>
				<path class="st0" d="M-88.08,120.67h-3.7c0.02,0.34,0.18,0.62,0.47,0.83c0.29,0.21,0.62,0.31,0.99,0.31
					c0.59,0,1.04-0.19,1.35-0.56l0.57,0.62c-0.51,0.53-1.17,0.79-1.99,0.79c-0.66,0-1.23-0.22-1.69-0.66
					c-0.46-0.44-0.7-1.03-0.7-1.77c0-0.74,0.24-1.33,0.71-1.77c0.47-0.44,1.03-0.66,1.67-0.66c0.64,0,1.19,0.19,1.64,0.58
					c0.45,0.39,0.67,0.92,0.67,1.6V120.67z M-91.78,119.89h2.71c0-0.4-0.12-0.7-0.37-0.91c-0.25-0.21-0.55-0.32-0.92-0.32
					c-0.36,0-0.69,0.11-0.98,0.33C-91.63,119.21-91.78,119.51-91.78,119.89z"/>
				<path class="st0" d="M-87.07,122.82v-4.94h0.99v4.98c0,0.5-0.15,0.89-0.45,1.18c-0.3,0.29-0.66,0.44-1.08,0.44
					c-0.42,0-0.81-0.16-1.16-0.47l0.46-0.75c0.2,0.19,0.4,0.29,0.61,0.29c0.2,0,0.36-0.06,0.47-0.2
					C-87.13,123.23-87.07,123.05-87.07,122.82z M-87.03,116.94c-0.12-0.12-0.19-0.27-0.19-0.44c0-0.17,0.06-0.32,0.19-0.44
					c0.12-0.12,0.27-0.19,0.44-0.19c0.17,0,0.32,0.06,0.44,0.19c0.12,0.12,0.19,0.27,0.19,0.44c0,0.17-0.06,0.32-0.19,0.44
					c-0.12,0.12-0.27,0.19-0.44,0.19C-86.76,117.12-86.91,117.06-87.03,116.94z"/>
				<path class="st0" d="M-80.79,121.96c-0.47,0.47-1.06,0.71-1.77,0.71c-0.71,0-1.3-0.24-1.77-0.71c-0.47-0.47-0.71-1.05-0.71-1.73
					c0-0.68,0.24-1.25,0.71-1.72c0.47-0.47,1.06-0.71,1.77-0.71c0.71,0,1.3,0.24,1.77,0.71c0.47,0.47,0.71,1.05,0.71,1.72
					C-80.08,120.91-80.31,121.49-80.79,121.96z M-83.63,121.35c0.28,0.29,0.64,0.43,1.07,0.43c0.43,0,0.79-0.14,1.07-0.43
					c0.28-0.29,0.42-0.66,0.42-1.11c0-0.46-0.14-0.83-0.42-1.11c-0.28-0.29-0.64-0.43-1.07-0.43c-0.43,0-0.79,0.14-1.07,0.43
					c-0.28,0.29-0.42,0.66-0.42,1.11C-84.05,120.69-83.91,121.06-83.63,121.35z"/>
				<path class="st0" d="M-76.57,118.81c-0.49,0-0.86,0.16-1.11,0.48c-0.25,0.32-0.37,0.75-0.37,1.29v2.02h-0.99v-4.72h0.99v0.95
					c0.16-0.3,0.38-0.54,0.65-0.73c0.27-0.19,0.57-0.29,0.87-0.29l0.01,1C-76.53,118.81-76.55,118.81-76.57,118.81z"/>
				<path class="st0" d="M-70.79,118.81c-0.49,0-0.86,0.16-1.11,0.48c-0.25,0.32-0.37,0.75-0.37,1.29v2.02h-0.99v-4.72h0.99v0.95
					c0.16-0.3,0.38-0.54,0.65-0.73c0.27-0.19,0.57-0.29,0.87-0.29l0.01,1C-70.76,118.81-70.77,118.81-70.79,118.81z"/>
				<path class="st0" d="M-65.44,120.67h-3.7c0.02,0.34,0.18,0.62,0.47,0.83c0.29,0.21,0.62,0.31,0.99,0.31
					c0.59,0,1.04-0.19,1.35-0.56l0.57,0.62c-0.51,0.53-1.17,0.79-1.99,0.79c-0.66,0-1.23-0.22-1.69-0.66
					c-0.46-0.44-0.7-1.03-0.7-1.77c0-0.74,0.24-1.33,0.71-1.77c0.47-0.44,1.03-0.66,1.67-0.66s1.19,0.19,1.64,0.58
					c0.45,0.39,0.67,0.92,0.67,1.6V120.67z M-69.14,119.89h2.71c0-0.4-0.12-0.7-0.37-0.91c-0.25-0.21-0.55-0.32-0.92-0.32
					c-0.36,0-0.69,0.11-0.98,0.33C-69,119.21-69.14,119.51-69.14,119.89z"/>
				<path class="st0" d="M-61.08,121.18c0,0.45-0.16,0.81-0.49,1.08c-0.33,0.27-0.74,0.4-1.25,0.4c-0.34,0-0.7-0.06-1.07-0.19
					c-0.37-0.12-0.7-0.3-0.98-0.52l0.48-0.77c0.55,0.41,1.08,0.62,1.6,0.62c0.22,0,0.4-0.05,0.53-0.16c0.13-0.1,0.2-0.24,0.2-0.39
					c0-0.24-0.31-0.45-0.94-0.64c-0.05-0.02-0.08-0.03-0.11-0.04c-0.98-0.27-1.47-0.71-1.47-1.33c0-0.44,0.17-0.79,0.51-1.05
					c0.34-0.26,0.78-0.39,1.33-0.39c0.54,0,1.06,0.16,1.54,0.48l-0.37,0.74c-0.38-0.25-0.8-0.38-1.25-0.38
					c-0.24,0-0.43,0.04-0.58,0.13c-0.15,0.09-0.22,0.21-0.22,0.39c0,0.15,0.08,0.27,0.23,0.34c0.11,0.05,0.26,0.1,0.45,0.15
					c0.19,0.05,0.36,0.09,0.51,0.14c0.15,0.05,0.29,0.1,0.43,0.16c0.14,0.06,0.29,0.14,0.45,0.25
					C-61.24,120.4-61.08,120.73-61.08,121.18z"/>
				<path class="st0" d="M-56.74,120.43v-2.55h0.99v4.72h-0.99v-0.86c-0.16,0.29-0.38,0.52-0.66,0.68
					c-0.28,0.17-0.58,0.25-0.91,0.25c-0.53,0-0.96-0.16-1.29-0.49c-0.33-0.33-0.49-0.8-0.49-1.41v-2.89h0.99v2.59
					c0,0.87,0.36,1.3,1.08,1.3c0.34,0,0.64-0.11,0.9-0.34C-56.87,121.2-56.74,120.87-56.74,120.43z"/>
				<path class="st0" d="M-53.41,122.59h-0.99v-6.58h0.99V122.59z"/>
				<path class="st0" d="M-50.84,118.67v2.39c0,0.22,0.06,0.4,0.18,0.54c0.12,0.13,0.28,0.2,0.5,0.2c0.21,0,0.42-0.1,0.61-0.31
					l0.41,0.7c-0.35,0.31-0.73,0.47-1.16,0.47c-0.42,0-0.78-0.15-1.08-0.44c-0.3-0.29-0.45-0.69-0.45-1.18v-2.37h-0.59v-0.8h0.59
					v-1.48h0.99v1.48h1.24v0.8H-50.84z"/>
				<path class="st0" d="M-44.62,122.59h-0.9v-0.63c-0.39,0.47-0.91,0.7-1.57,0.7c-0.49,0-0.9-0.14-1.22-0.42
					c-0.32-0.28-0.48-0.65-0.48-1.11c0-0.46,0.17-0.81,0.51-1.04c0.34-0.23,0.81-0.35,1.39-0.35h1.29v-0.18
					c0-0.63-0.35-0.94-1.05-0.94c-0.44,0-0.89,0.16-1.37,0.48l-0.44-0.62c0.57-0.46,1.22-0.68,1.95-0.68c0.56,0,1.01,0.14,1.36,0.42
					c0.35,0.28,0.53,0.72,0.53,1.33V122.59z M-45.61,120.84v-0.4h-1.12c-0.72,0-1.07,0.22-1.07,0.67c0,0.23,0.09,0.41,0.27,0.53
					c0.18,0.12,0.42,0.18,0.74,0.18c0.32,0,0.59-0.09,0.83-0.27C-45.73,121.38-45.61,121.14-45.61,120.84z"/>
				<path class="st0" d="M-42.96,121.99c-0.44-0.45-0.67-1.04-0.67-1.77c0-0.73,0.23-1.32,0.68-1.76c0.46-0.44,1-0.66,1.63-0.66
					c0.63,0,1.14,0.27,1.52,0.8v-2.59h0.99v6.58h-0.99v-0.71c-0.37,0.52-0.9,0.78-1.61,0.78C-42,122.66-42.52,122.44-42.96,121.99z
					 M-42.63,120.26c0,0.45,0.15,0.82,0.43,1.1c0.29,0.28,0.63,0.43,1.02,0.43c0.39,0,0.72-0.14,0.99-0.43
					c0.27-0.29,0.41-0.65,0.41-1.1c0-0.45-0.14-0.82-0.41-1.13c-0.27-0.3-0.61-0.45-1-0.45c-0.4,0-0.74,0.15-1.02,0.45
					C-42.49,119.43-42.63,119.8-42.63,120.26z"/>
				<path class="st0" d="M-33.5,121.96c-0.47,0.47-1.06,0.71-1.77,0.71c-0.71,0-1.3-0.24-1.77-0.71c-0.47-0.47-0.71-1.05-0.71-1.73
					c0-0.68,0.24-1.25,0.71-1.72c0.47-0.47,1.06-0.71,1.77-0.71c0.71,0,1.3,0.24,1.77,0.71c0.47,0.47,0.71,1.05,0.71,1.72
					C-32.8,120.91-33.03,121.49-33.5,121.96z M-36.35,121.35c0.28,0.29,0.64,0.43,1.07,0.43c0.43,0,0.79-0.14,1.07-0.43
					c0.28-0.29,0.42-0.66,0.42-1.11c0-0.46-0.14-0.83-0.42-1.11c-0.28-0.29-0.64-0.43-1.07-0.43c-0.43,0-0.79,0.14-1.07,0.43
					c-0.28,0.29-0.42,0.66-0.42,1.11C-36.77,120.69-36.63,121.06-36.35,121.35z"/>
			</g>
		</g>
	</g>
</g>
<g>
	<path class="st1" d="M-252.46,119.31c-1.63-4.9-5.48-8.78-10.36-10.47V52c0-9.29-3.77-17.7-9.86-23.79
		c-6.09-6.09-14.5-9.86-23.8-9.86c-18.58,0-33.65,15.06-33.65,33.65v89.74c0,18.58,15.06,33.65,33.65,33.65
		c18.59,0,33.66-15.06,33.66-33.65v-1.4c4.66-1.6,8.38-5.23,10.13-9.82c0.7-1.84,1.08-3.84,1.08-5.93
		C-251.61,122.74-251.91,120.97-252.46,119.31z"/>
	<g>
		<path class="st1" d="M-375,96.87c0,18.58,15.07,33.65,33.66,33.65h11.21v-11.21h-11.21c-12.39,0-22.44-10.05-22.44-22.44
			c0-12.39,10.05-22.44,22.44-22.44h11.21V63.23h-11.21C-359.93,63.23-375,78.29-375,96.87z"/>
		<path class="st1" d="M-251.61,63.23h-11.21v11.21h11.21c12.39,0,22.44,10.05,22.44,22.44c0,6.19-2.51,11.8-6.57,15.86
			c-4.06,4.06-9.67,6.57-15.86,6.57h-0.85c-1.63-4.9-5.48-8.78-10.36-10.47c-1.71-0.59-3.55-0.91-5.45-0.91
			c-2.03,0-3.97,0.36-5.77,1.02c-4.72,1.75-8.44,5.57-10.04,10.36c-0.56,1.66-0.86,3.43-0.86,5.28c0,2.09,0.39,4.09,1.09,5.93
			c1.71,4.49,5.3,8.04,9.81,9.7c1.8,0.67,3.74,1.03,5.77,1.03c1.91,0,3.75-0.32,5.45-0.92c4.66-1.6,8.38-5.23,10.13-9.82h1.08
			c9.3,0,17.7-3.77,23.79-9.86c6.09-6.09,9.86-14.5,9.86-23.79C-217.96,78.29-233.03,63.23-251.61,63.23z M-268.27,130.04
			c-3.01,0-5.45-2.44-5.45-5.45s2.44-5.45,5.45-5.45c3.01,0,5.45,2.44,5.45,5.45S-265.26,130.04-268.27,130.04z"/>
	</g>
	<path class="st1" d="M-283.85,130.52c-0.7-1.84-1.09-3.84-1.09-5.93c0-1.85,0.3-3.62,0.86-5.28c1.59-4.79,5.31-8.61,10.04-10.36V52
		c0-6.19-2.51-11.8-6.56-15.86c-4.06-4.06-9.67-6.57-15.87-6.57c-12.39,0-22.43,10.05-22.43,22.44v89.74
		c0,12.39,10.04,22.43,22.43,22.43c12.4,0,22.44-10.04,22.44-22.43v-1.52C-278.55,138.57-282.15,135.01-283.85,130.52z"/>
	<path class="st1" d="M-274.04,140.23c-4.51-1.66-8.1-5.22-9.81-9.7c-0.7-1.84-1.09-3.84-1.09-5.93c0-1.85,0.3-3.62,0.86-5.28
		c1.59-4.79,5.31-8.61,10.04-10.36c0,0,0,0,0,0V96.87h-44.87v44.87c0,12.39,10.04,22.43,22.43,22.43
		c12.39,0,22.43-10.04,22.43-22.43L-274.04,140.23C-274.04,140.23-274.04,140.23-274.04,140.23z"/>
	<path class="st1" d="M-252.46,119.31c-1.63-4.9-5.48-8.78-10.36-10.47c-1.71-0.59-3.55-0.91-5.45-0.91c-2.03,0-3.97,0.36-5.77,1.02
		c-4.72,1.75-8.44,5.57-10.04,10.36c-0.56,1.66-0.86,3.43-0.86,5.28c0,2.09,0.39,4.09,1.09,5.93c1.71,4.49,5.3,8.04,9.81,9.7
		c1.8,0.67,3.74,1.03,5.77,1.03c1.91,0,3.75-0.32,5.45-0.92c4.66-1.6,8.38-5.23,10.13-9.82c0.7-1.84,1.08-3.84,1.08-5.93
		C-251.61,122.74-251.91,120.97-252.46,119.31z M-268.27,130.04c-3.01,0-5.45-2.44-5.45-5.45c0-3.01,2.44-5.45,5.45-5.45
		c3.01,0,5.45,2.44,5.45,5.45C-262.82,127.6-265.26,130.04-268.27,130.04z"/>
</g>
<g>
	<g>
		<path class="st2" d="M-224.43,484.9l-41.73-31.64c-5.95-4.51-9.5-11.66-9.5-19.12V318.21l51.23-20.04l51.15,20.04v115.93
			c0,7.46-3.55,14.6-9.49,19.11L-224.43,484.9z M-272.49,320.37v113.77c0,6.48,3.08,12.69,8.25,16.6l39.82,30.19l39.76-30.19
			c5.16-3.92,8.24-10.12,8.24-16.6V320.37l-47.99-18.8L-272.49,320.37z"/>
	</g>
	<g>
		<path class="st0" d="M-265.51,347.1 M-258.93,418.2v10.25c0,4.69,2.03,9.16,5.43,11.99l28.9,20.24l28.86-20.24
			c3.4-2.83,5.42-7.31,5.42-11.99V418.2h6.5l0.09,10.26c0,6.68-2.96,13.09-7.92,17.16l-0.2,0.15l-32.74,22.96l-32.99-23.11
			c-4.97-4.07-7.93-10.48-7.93-17.17V418.2H-258.93z M-265.51,347.1v-19.07l40.92-16.67l40.86,16.67l0,19.07h-6.59v-14.64
			l-34.27-13.98l-34.33,13.98v14.64L-265.51,347.1"/>
	</g>
	<g>
		<rect x="-251.77" y="324.57" class="st0" width="6.59" height="22.53"/>
	</g>
	<g>
		<rect x="-227.79" y="314.92" class="st0" width="6.59" height="32.18"/>
	</g>
	<g>
		<rect x="-227.79" y="444.23" class="st0" width="6.59" height="16.27"/>
	</g>
	<g>
		<g>
			<rect x="-221.11" y="384.77" class="st2" width="6.85" height="22.43"/>
		</g>
	</g>
	<g>
		<g>
			<rect x="-221.11" y="355.51" class="st2" width="6.85" height="7.2"/>
		</g>
	</g>
	<g>
		<g>
			<g>
				<rect x="-265.52" y="356.92" class="st0" width="6.75" height="58.22"/>
			</g>
		</g>
		<g>
			<g>
				<polygon class="st0" points="-251.67,383.05 -257.93,383.05 -251.63,397.61 				"/>
			</g>
		</g>
		<g>
			<g>
				<polygon class="st0" points="-265.52,356.92 -245.18,356.92 -251.79,350.21 -258.89,350.21 				"/>
			</g>
		</g>
		<g>
			<polygon class="st0" points="-248.95,387.3 -245.18,383.6 -245.18,356.92 -251.83,356.92 -251.83,415.14 -245.18,415.14 
				-245.18,396.16 			"/>
		</g>
	</g>
	<g>
		<rect x="-241.51" y="423.6" width="34.06" height="2.11"/>
	</g>
	<g>
		<rect x="-241.51" y="442.62" width="34.06" height="2.11"/>
	</g>
	<g>
		<path class="st0" d="M-224.43,484.9l-41.73-31.64c-5.95-4.51-9.5-11.66-9.5-19.12V318.21l51.23-20.04l51.15,20.04v115.93
			c0,7.46-3.55,14.6-9.49,19.11L-224.43,484.9z M-272.49,320.37v113.77c0,6.48,3.08,12.69,8.25,16.6l39.82,30.19l39.76-30.19
			c5.16-3.92,8.24-10.12,8.24-16.6V320.37l-47.99-18.8L-272.49,320.37z"/>
	</g>
	<g>
		<g>
			<rect x="-251.77" y="418.2" class="st0" width="6.59" height="29.39"/>
		</g>
		<g>
			<rect x="-203.59" y="418.2" class="st0" width="6.59" height="29.61"/>
		</g>
		<g>
			<rect x="-203.59" y="324.57" class="st0" width="6.59" height="22.53"/>
		</g>
		<g>
			<rect x="-227.79" y="444.23" class="st0" width="6.59" height="16.27"/>
		</g>
	</g>
	<g>
		<g>
			<g>
				<rect x="-234.7" y="401.35" class="st0" width="6.85" height="7.2"/>
			</g>
		</g>
		<g>
			<g>
				<rect x="-221.11" y="386.11" class="st0" width="6.85" height="22.43"/>
			</g>
		</g>
		<g>
			<g>
				<rect x="-221.11" y="357.17" class="st0" width="6.85" height="7.06"/>
			</g>
		</g>
		<g>
			<g>
				<rect x="-234.7" y="357.17" class="st0" width="6.85" height="18.18"/>
			</g>
		</g>
		<g>
			<g>
				<polygon class="st0" points="-214.27,386.11 -227.86,372.44 -234.81,375.35 -220.99,389.13 				"/>
			</g>
		</g>
		<g>
			<g>
				<polygon class="st0" points="-234.7,408.54 -214.26,408.54 -220.77,415.17 -228.03,415.24 				"/>
			</g>
		</g>
		<g>
			<g>
				<polygon class="st0" points="-234.7,357.18 -214.26,357.18 -220.78,350.49 -228.04,350.42 				"/>
			</g>
		</g>
	</g>
	<g>
		<g>
			<rect x="-203.59" y="357.18" class="st0" width="6.59" height="51.27"/>
		</g>
		<g>
			<g>
				<rect x="-190.33" y="357.18" class="st0" width="6.59" height="7.02"/>
			</g>
		</g>
		<g>
			<g>
				<rect x="-190.33" y="401.44" class="st0" width="6.59" height="7.02"/>
			</g>
		</g>
		<g>
			<g>
				<polygon class="st0" points="-203.59,408.48 -183.74,408.48 -190.07,415.16 -197.12,415.24 				"/>
			</g>
		</g>
		<g>
			<g>
				<polygon class="st0" points="-203.61,357.17 -183.74,357.17 -190.07,350.49 -197.13,350.42 				"/>
			</g>
		</g>
	</g>
	<g>
		<g>
			<g>
				<path class="st0" d="M-237.97,437.84v0.71h-2.71v-9.25h0.66v8.54H-237.97z"/>
			</g>
			<g>
				<polygon class="st0" points="-237.58,438.95 -241.08,438.95 -241.08,428.91 -239.63,428.91 -239.63,437.45 -237.58,437.45 				
					"/>
			</g>
		</g>
		<g>
			<g>
				<path class="st0" d="M-234.57,430.02v3.55h1.53v0.73h-1.53v3.55h2.17v0.71h-2.82v-9.25h2.72v0.71H-234.57z"/>
			</g>
			<g>
				<polygon class="st0" points="-232.01,438.95 -235.62,438.95 -235.62,428.91 -232.11,428.91 -232.11,430.41 -234.17,430.41 
					-234.17,433.17 -232.65,433.17 -232.65,434.69 -234.17,434.69 -234.17,437.45 -232.01,437.45 				"/>
			</g>
		</g>
		<g>
			<g>
				<path class="st0" d="M-229.75,430.95c0-0.99,0.73-1.78,1.64-1.78c0.91,0,1.64,0.79,1.64,1.78v5.96c0,0.99-0.73,1.78-1.64,1.78
					c-0.91,0-1.64-0.79-1.64-1.78V430.95z M-229.1,436.91c0,0.59,0.44,1.07,0.98,1.07c0.54,0,0.98-0.48,0.98-1.07v-5.96
					c0-0.59-0.44-1.07-0.98-1.07c-0.54,0-0.98,0.48-0.98,1.07V436.91z"/>
			</g>
			<g>
				<path class="st0" d="M-228.11,439.09c-1.12,0-2.03-0.98-2.03-2.18v-5.96c0-1.2,0.91-2.18,2.03-2.18c1.12,0,2.03,0.98,2.03,2.18
					v5.96C-226.08,438.11-226.99,439.09-228.11,439.09z M-228.11,430.28c-0.32,0-0.59,0.3-0.59,0.67v5.96
					c0,0.37,0.26,0.67,0.59,0.67c0.32,0,0.59-0.3,0.59-0.67v-5.96C-227.53,430.58-227.79,430.28-228.11,430.28z"/>
			</g>
		</g>
		<g>
			<g>
				<path class="st0" d="M-223.39,429.31h0.79l2,7.02h0.03v-7.02h0.66v9.25h-0.66l-2.14-7.4h-0.03v7.4h-0.66V429.31z"/>
			</g>
			<g>
				<path class="st0" d="M-219.51,438.95h-1.35l-1.48-5.1v5.1h-1.45v-10.04h1.49l1.34,4.68v-4.68h1.45V438.95z M-220.69,436.72
					l0.38,1.32v-1.32H-220.69z M-222.99,430.76h0.4l-0.3-1.06h-0.1V430.76z"/>
			</g>
		</g>
		<g>
			<g>
				<path class="st0" d="M-216.1,430.02v3.55h1.53v0.73h-1.53v3.55h2.17v0.71h-2.82v-9.25h2.72v0.71H-216.1z"/>
			</g>
			<g>
				<polygon class="st0" points="-213.54,438.95 -217.15,438.95 -217.15,428.91 -213.64,428.91 -213.64,430.41 -215.71,430.41 
					-215.71,433.17 -214.18,433.17 -214.18,434.69 -215.71,434.69 -215.71,437.45 -213.54,437.45 				"/>
			</g>
		</g>
		<g>
			<g>
				<path class="st0" d="M-210.97,432.72c0,0-0.38-0.49-0.38-1.15v-0.62c0-0.99,0.73-1.78,1.64-1.78c0.91,0,1.64,0.79,1.64,1.78
					v1.15l-0.66,0.08v-1.23c0-0.59-0.44-1.07-0.98-1.07c-0.54,0-0.98,0.48-0.98,1.07v0.62c0,0.4,0.23,0.69,0.23,0.69l2,2.59
					c0,0,0.39,0.51,0.39,1.18v0.89c0,0.99-0.73,1.78-1.64,1.78c-0.91,0-1.64-0.79-1.64-1.78v-1.36l0.66-0.08v1.44
					c0,0.59,0.44,1.07,0.98,1.07c0.54,0,0.98-0.48,0.98-1.07v-0.89c0-0.4-0.24-0.71-0.24-0.71L-210.97,432.72z"/>
			</g>
			<g>
				<path class="st0" d="M-209.71,439.09c-1.12,0-2.03-0.98-2.03-2.18v-1.71l1.45-0.18v1.89c0,0.37,0.26,0.67,0.59,0.67
					c0.32,0,0.59-0.3,0.59-0.67v-0.89c0-0.25-0.16-0.47-0.16-0.48l-2-2.59c-0.02-0.02-0.46-0.61-0.46-1.39v-0.62
					c0-1.2,0.91-2.18,2.03-2.18s2.03,0.98,2.03,2.18v1.5l-1.45,0.18v-1.68c0-0.37-0.26-0.67-0.59-0.67c-0.32,0-0.59,0.3-0.59,0.67
					v0.62c0,0.25,0.14,0.44,0.14,0.44l2.01,2.59c0.02,0.03,0.47,0.62,0.47,1.42v0.89C-207.68,438.11-208.59,439.09-209.71,439.09z"
					/>
			</g>
		</g>
	</g>
	<g>
		<g>
			<rect x="-241.51" y="423.6" class="st0" width="34.06" height="2.11"/>
		</g>
	</g>
	<g>
		<g>
			<rect x="-241.51" y="442.62" class="st0" width="34.06" height="2.11"/>
		</g>
	</g>
	<g>
		<path class="st0" d="M-151.63,355.27h-2.66v4.58h-4.88V342.6h7.89c1.56,0,2.92,0.26,4.07,0.78c1.15,0.52,2.04,1.26,2.66,2.22
			c0.62,0.96,0.94,2.09,0.94,3.39c0,1.25-0.29,2.34-0.88,3.27s-1.42,1.66-2.5,2.18l3.72,5.42h-5.22L-151.63,355.27z M-149.31,347.11
			c-0.51-0.44-1.26-0.67-2.27-0.67h-2.71v5.05h2.71c1,0,1.76-0.22,2.27-0.65c0.51-0.44,0.76-1.06,0.76-1.86
			C-148.55,348.18-148.81,347.55-149.31,347.11z"/>
		<path class="st0" d="M-140.94,342.6h4.88v17.25h-4.88V342.6z"/>
		<path class="st0" d="M-128.8,359.04c-1.45-0.77-2.6-1.84-3.42-3.2c-0.83-1.36-1.24-2.9-1.24-4.61s0.42-3.24,1.24-4.61
			c0.83-1.36,1.97-2.43,3.42-3.2c1.45-0.77,3.09-1.16,4.92-1.16s3.46,0.39,4.92,1.16c1.45,0.77,2.6,1.84,3.42,3.2
			c0.83,1.36,1.24,2.9,1.24,4.61s-0.42,3.24-1.24,4.61c-0.83,1.36-1.97,2.43-3.42,3.2s-3.09,1.16-4.92,1.16
			S-127.35,359.81-128.8,359.04z M-121.52,355.54c0.71-0.41,1.27-0.99,1.68-1.74c0.41-0.75,0.62-1.61,0.62-2.57
			s-0.21-1.83-0.62-2.58c-0.41-0.75-0.97-1.33-1.68-1.74c-0.71-0.41-1.49-0.62-2.37-0.62s-1.66,0.21-2.37,0.62
			c-0.71,0.41-1.27,0.99-1.68,1.74c-0.41,0.75-0.62,1.61-0.62,2.58s0.21,1.83,0.62,2.57c0.41,0.75,0.97,1.33,1.68,1.74
			c0.71,0.41,1.49,0.62,2.37,0.62S-122.23,355.95-121.52,355.54z"/>
		<path class="st0" d="M-96.17,352.47c0.56,0.73,0.84,1.61,0.84,2.65c0,1.51-0.61,2.68-1.82,3.5c-1.22,0.82-2.97,1.23-5.27,1.23
			h-9.31V342.6h8.82c2.2,0,3.88,0.41,5.03,1.22c1.15,0.81,1.72,1.91,1.72,3.29c0,0.82-0.2,1.56-0.6,2.21
			c-0.4,0.65-0.97,1.16-1.71,1.54C-97.5,351.2-96.72,351.74-96.17,352.47z M-106.91,346.12v3.33h3.35c1.64,0,2.46-0.56,2.46-1.68
			c0-1.1-0.82-1.65-2.46-1.65H-106.91z M-100.26,354.58c0-1.17-0.85-1.75-2.56-1.75h-4.09v3.5h4.09
			C-101.11,356.33-100.26,355.74-100.26,354.58z"/>
		<path class="st0" d="M-81.23,356.5h-7.29l-1.35,3.35h-4.98l7.61-17.25h4.81l7.64,17.25h-5.08L-81.23,356.5z M-82.66,352.9
			l-2.22-5.52l-2.22,5.52H-82.66z"/>
		<path class="st0" d="M-57.85,359.85l-0.05-9.14l-4.43,7.44h-2.17l-4.41-7.2v8.9h-4.51V342.6h4.02l6.06,9.96l5.91-9.96h4.02
			l0.05,17.25H-57.85z"/>
		<path class="st0" d="M-34.34,352.47c0.56,0.73,0.84,1.61,0.84,2.65c0,1.51-0.61,2.68-1.82,3.5c-1.22,0.82-2.97,1.23-5.27,1.23
			h-9.31V342.6h8.82c2.2,0,3.88,0.41,5.03,1.22c1.15,0.81,1.72,1.91,1.72,3.29c0,0.82-0.2,1.56-0.6,2.21
			c-0.4,0.65-0.97,1.16-1.71,1.54C-35.67,351.2-34.9,351.74-34.34,352.47z M-45.09,346.12v3.33h3.35c1.64,0,2.46-0.56,2.46-1.68
			c0-1.1-0.82-1.65-2.46-1.65H-45.09z M-38.43,354.58c0-1.17-0.85-1.75-2.56-1.75h-4.09v3.5H-41
			C-39.29,356.33-38.43,355.74-38.43,354.58z"/>
		<path class="st0" d="M-19.41,356.5h-7.29l-1.35,3.35h-4.98l7.61-17.25h4.81l7.64,17.25h-5.08L-19.41,356.5z M-20.84,352.9
			l-2.22-5.52l-2.22,5.52H-20.84z"/>
		<path class="st0" d="M-157.17,389.25c-1.31-0.34-2.38-0.8-3.2-1.38l1.6-3.6c0.77,0.51,1.67,0.92,2.69,1.23
			c1.02,0.31,2.02,0.47,3.01,0.47c1.87,0,2.81-0.47,2.81-1.41c0-0.49-0.27-0.86-0.8-1.1c-0.53-0.24-1.39-0.49-2.58-0.75
			c-1.3-0.28-2.38-0.58-3.25-0.9c-0.87-0.32-1.62-0.83-2.24-1.54c-0.62-0.71-0.94-1.66-0.94-2.86c0-1.05,0.29-2,0.86-2.85
			c0.57-0.85,1.43-1.52,2.58-2.01c1.14-0.49,2.54-0.74,4.2-0.74c1.13,0,2.25,0.13,3.35,0.38c1.1,0.25,2.07,0.63,2.91,1.12l-1.5,3.62
			c-1.64-0.89-3.24-1.33-4.78-1.33c-0.97,0-1.67,0.14-2.12,0.43c-0.44,0.29-0.67,0.66-0.67,1.12c0,0.46,0.26,0.81,0.79,1.04
			c0.53,0.23,1.37,0.47,2.54,0.71c1.31,0.28,2.4,0.58,3.27,0.9s1.61,0.83,2.24,1.53c0.63,0.7,0.95,1.65,0.95,2.85
			c0,1.04-0.29,1.97-0.86,2.81s-1.44,1.51-2.59,2.01c-1.15,0.5-2.55,0.75-4.19,0.75C-154.51,389.76-155.86,389.59-157.17,389.25z"/>
		<path class="st0" d="M-131.28,372.95c1.15,0.52,2.04,1.26,2.66,2.22c0.62,0.96,0.94,2.09,0.94,3.39c0,1.3-0.31,2.42-0.94,3.38
			c-0.63,0.95-1.51,1.69-2.66,2.21c-1.15,0.52-2.51,0.78-4.07,0.78h-3.01v4.51h-4.88v-17.25h7.89
			C-133.78,372.17-132.43,372.43-131.28,372.95z M-133.37,380.41c0.51-0.44,0.76-1.06,0.76-1.86c0-0.8-0.25-1.43-0.76-1.87
			c-0.51-0.44-1.26-0.67-2.27-0.67h-2.71v5.05h2.71C-134.64,381.07-133.88,380.85-133.37,380.41z"/>
		<path class="st0" d="M-121.29,388.61c-1.45-0.77-2.6-1.84-3.42-3.2c-0.83-1.36-1.24-2.9-1.24-4.61c0-1.71,0.42-3.24,1.24-4.61
			c0.83-1.36,1.97-2.43,3.42-3.2c1.45-0.77,3.09-1.16,4.92-1.16s3.46,0.39,4.92,1.16c1.45,0.77,2.6,1.84,3.42,3.2
			c0.83,1.36,1.24,2.9,1.24,4.61c0,1.71-0.42,3.24-1.24,4.61c-0.83,1.36-1.97,2.43-3.42,3.2c-1.45,0.77-3.09,1.16-4.92,1.16
			S-119.83,389.38-121.29,388.61z M-114,385.11c0.71-0.41,1.27-0.99,1.68-1.74c0.41-0.75,0.62-1.61,0.62-2.58
			c0-0.97-0.21-1.83-0.62-2.58c-0.41-0.75-0.97-1.33-1.68-1.74c-0.71-0.41-1.49-0.62-2.37-0.62s-1.66,0.21-2.37,0.62
			c-0.71,0.41-1.27,0.99-1.68,1.74c-0.41,0.75-0.62,1.61-0.62,2.58c0,0.97,0.21,1.83,0.62,2.58c0.41,0.75,0.97,1.33,1.68,1.74
			c0.71,0.41,1.49,0.62,2.37,0.62S-114.71,385.52-114,385.11z"/>
		<path class="st0" d="M-96.68,384.84h-2.66v4.58h-4.88v-17.25h7.89c1.56,0,2.92,0.26,4.07,0.78c1.15,0.52,2.04,1.26,2.66,2.22
			c0.62,0.96,0.94,2.09,0.94,3.39c0,1.25-0.29,2.34-0.88,3.27c-0.58,0.93-1.42,1.66-2.5,2.18l3.72,5.42h-5.22L-96.68,384.84z
			 M-94.37,376.68c-0.51-0.44-1.26-0.67-2.27-0.67h-2.71v5.05h2.71c1,0,1.76-0.22,2.27-0.65c0.51-0.44,0.76-1.06,0.76-1.86
			C-93.6,377.75-93.86,377.12-94.37,376.68z"/>
		<path class="st0" d="M-82.56,376.04h-5.3v-3.87h15.45v3.87h-5.27v13.38h-4.88V376.04z"/>
		<path class="st0" d="M-70.59,372.17h4.88v17.25h-4.88V372.17z"/>
		<path class="st0" d="M-45.82,372.17v17.25h-4.02l-7.61-9.19v9.19h-4.78v-17.25h4.02l7.61,9.19v-9.19H-45.82z"/>
		<path class="st0" d="M-30.82,380.42h4.31v7.15c-0.99,0.71-2.12,1.25-3.4,1.63s-2.56,0.57-3.84,0.57c-1.81,0-3.43-0.38-4.88-1.15
			c-1.45-0.76-2.58-1.83-3.4-3.19c-0.82-1.36-1.23-2.91-1.23-4.63c0-1.73,0.41-3.27,1.23-4.63c0.82-1.36,1.96-2.43,3.43-3.19
			c1.46-0.76,3.11-1.15,4.95-1.15c1.61,0,3.06,0.27,4.34,0.81s2.35,1.32,3.2,2.34l-3.1,2.81c-1.17-1.28-2.56-1.92-4.19-1.92
			c-1.48,0-2.67,0.45-3.57,1.34c-0.9,0.9-1.36,2.09-1.36,3.59c0,0.95,0.21,1.8,0.62,2.55c0.41,0.75,0.99,1.33,1.72,1.75
			s1.58,0.63,2.54,0.63c0.94,0,1.82-0.19,2.64-0.57V380.42z"/>
		<path class="st0" d="M-12.5,388.62c-1.44-0.76-2.57-1.83-3.39-3.19c-0.82-1.36-1.23-2.91-1.23-4.63c0-1.73,0.41-3.27,1.23-4.63
			c0.82-1.36,1.95-2.43,3.39-3.19c1.44-0.76,3.06-1.15,4.87-1.15c1.58,0,3,0.28,4.26,0.84c1.27,0.56,2.32,1.36,3.15,2.42l-3.1,2.81
			c-1.12-1.35-2.47-2.02-4.07-2.02c-0.94,0-1.77,0.21-2.5,0.62c-0.73,0.41-1.3,0.99-1.7,1.74c-0.4,0.75-0.6,1.61-0.6,2.58
			c0,0.97,0.2,1.83,0.6,2.58c0.4,0.75,0.97,1.33,1.7,1.74c0.73,0.41,1.56,0.62,2.5,0.62c1.59,0,2.95-0.67,4.07-2.02l3.1,2.81
			c-0.84,1.05-1.89,1.86-3.15,2.41c-1.26,0.56-2.69,0.84-4.26,0.84C-9.44,389.76-11.06,389.38-12.5,388.62z"/>
		<path class="st0" d="M1.95,372.17h4.88v13.38h8.23v3.87H1.95V372.17z"/>
		<path class="st0" d="M18.79,387.67c-1.42-1.4-2.13-3.38-2.13-5.94v-9.56h4.88v9.41c0,2.76,1.09,4.14,3.28,4.14
			c2.17,0,3.25-1.38,3.25-4.14v-9.41h4.81v9.56c0,2.56-0.71,4.54-2.13,5.94c-1.42,1.4-3.41,2.09-5.98,2.09
			S20.22,389.07,18.79,387.67z"/>
		<path class="st0" d="M51.75,382.04c0.56,0.73,0.84,1.61,0.84,2.65c0,1.51-0.61,2.68-1.82,3.5c-1.22,0.82-2.97,1.23-5.27,1.23
			h-9.31v-17.25H45c2.2,0,3.88,0.41,5.03,1.22c1.15,0.81,1.72,1.91,1.72,3.29c0,0.82-0.2,1.56-0.6,2.21
			c-0.4,0.65-0.97,1.16-1.71,1.54C50.42,380.77,51.19,381.31,51.75,382.04z M41.01,375.69v3.33h3.35c1.64,0,2.46-0.56,2.46-1.68
			c0-1.1-0.82-1.65-2.46-1.65H41.01z M47.66,384.15c0-1.17-0.85-1.75-2.56-1.75h-4.09v3.5h4.09
			C46.81,385.9,47.66,385.31,47.66,384.15z"/>
		<path class="st0" d="M-143.6,411.61c0.56,0.73,0.84,1.61,0.84,2.65c0,1.51-0.61,2.68-1.82,3.5c-1.22,0.82-2.97,1.23-5.27,1.23
			h-9.31v-17.25h8.82c2.2,0,3.88,0.41,5.03,1.22c1.15,0.81,1.72,1.91,1.72,3.29c0,0.82-0.2,1.56-0.6,2.21
			c-0.4,0.65-0.97,1.16-1.71,1.54C-144.93,410.34-144.16,410.88-143.6,411.61z M-154.34,405.26v3.33h3.35
			c1.64,0,2.46-0.56,2.46-1.68c0-1.1-0.82-1.65-2.46-1.65H-154.34z M-147.69,413.71c0-1.17-0.85-1.75-2.56-1.75h-4.09v3.5h4.09
			C-148.54,415.46-147.69,414.88-147.69,413.71z"/>
		<path class="st0" d="M-128.67,415.64h-7.29l-1.35,3.35h-4.98l7.61-17.25h4.81l7.64,17.25h-5.08L-128.67,415.64z M-130.09,412.04
			l-2.22-5.52l-2.22,5.52H-130.09z"/>
		<path class="st0" d="M-113.31,414.4h-2.66v4.58h-4.88v-17.25h7.89c1.56,0,2.92,0.26,4.07,0.78c1.15,0.52,2.04,1.26,2.66,2.22
			c0.62,0.96,0.94,2.09,0.94,3.39c0,1.25-0.29,2.34-0.88,3.26s-1.42,1.66-2.5,2.18l3.72,5.42h-5.22L-113.31,414.4z M-111,406.25
			c-0.51-0.44-1.26-0.67-2.27-0.67h-2.71v5.05h2.71c1,0,1.76-0.22,2.27-0.65c0.51-0.44,0.76-1.06,0.76-1.86
			S-110.49,406.69-111,406.25z"/>
		<path class="st0" d="M-95.08,414.4h-2.66v4.58h-4.88v-17.25h7.89c1.56,0,2.92,0.26,4.07,0.78c1.15,0.52,2.04,1.26,2.66,2.22
			c0.62,0.96,0.94,2.09,0.94,3.39c0,1.25-0.29,2.34-0.88,3.26s-1.42,1.66-2.5,2.18l3.72,5.42h-5.22L-95.08,414.4z M-92.76,406.25
			c-0.51-0.44-1.26-0.67-2.27-0.67h-2.71v5.05h2.71c1,0,1.76-0.22,2.27-0.65c0.51-0.44,0.76-1.06,0.76-1.86
			S-92.26,406.69-92.76,406.25z"/>
		<path class="st0" d="M-84.39,401.74h4.88v17.25h-4.88V401.74z"/>
		<path class="st0" d="M-64.48,415.64h-7.29l-1.35,3.35h-4.98l7.61-17.25h4.81l7.64,17.25h-5.08L-64.48,415.64z M-65.91,412.04
			l-2.22-5.52l-2.22,5.52H-65.91z"/>
		<path class="st0" d="M-56.67,401.74h4.88v13.38h8.23v3.87h-13.11V401.74z"/>
	</g>
</g>
<g>
	<path class="st0" d="M315.22,360.49c-0.15,15.05-26.83,27.22-59.72,27.22c-32.89,0-59.56-12.18-59.72-27.22h-0.04v29.04
		c0,14.39,12.34,26.05,27.55,26.05h20.41c1.05,0,1.9,0.8,1.9,1.8l0.01,21.77c0,0.83,1.2,1.07,1.56,0.31
		c2.84-6.08,10.31-17.41,28.18-23.73c0.29-0.1,0.6-0.15,0.91-0.15h11.41c15.22,0,27.55-11.66,27.55-26.05L315.22,360.49
		L315.22,360.49z"/>
	<g>
		<path class="st3" d="M244.94,337.08c-2.57-5.59-1.63-11.88,1.89-16.44c-0.83-2.64-2.23-5.51-4.62-8.41
			c-0.23-0.28,0.15-0.69,0.49-0.52l9.35,4.56c0.27-0.14,0.54-0.3,0.83-0.43c0.29-0.13,0.58-0.25,0.87-0.36c0,0,4.36-1.48,7.05-1.04
			c5.64,0.44,10.88,3.83,13.4,9.31c3.69,8.05,0.14,17.56-7.95,21.23C258.18,348.67,248.63,345.13,244.94,337.08z"/>
		<path class="st3" d="M226.35,339.17c5.91,2.43,12.56,1.54,17.38-1.79c2.79,0.78,5.82,2.11,8.89,4.37c0.3,0.22,0.73-0.14,0.55-0.46
			l-4.82-8.85c0.15-0.26,0.31-0.51,0.45-0.78c0.14-0.27,0.27-0.55,0.39-0.83c0,0,1.56-4.12,1.1-6.67
			c-0.46-5.34-4.05-10.29-9.85-12.67c-8.51-3.49-18.56-0.13-22.44,7.52C214.09,326.64,217.84,335.67,226.35,339.17z"/>
		<ellipse class="st3" cx="231.63" cy="353.71" rx="18.41" ry="16.88"/>
		<path class="st3" d="M242.87,327.34l-11.5,1.9c-3.76-3.11-9.27-5.08-15.44-5.08c-11.32,0-20.49,6.61-20.49,14.77
			s9.17,14.77,20.49,14.77c4.44,0,8.91-1.06,12.73-3.26c3.4-1.96,6.35-4.87,7.38-8.65c0.01-0.02,0.01-0.04,0.01-0.06
			c0.24-0.91,0.37-1.86,0.37-2.8c0-1.14-0.19-2.24-0.53-3.3c2.45-3.62,5.33-5.94,7.44-7.29c0.29-0.19,0.33-0.49,0.2-0.72
			C243.42,327.43,243.18,327.29,242.87,327.34z"/>
		<path class="st3" d="M266.11,346.7c-2.36-5.67-7.73-9.49-13.63-10.36c-1.39-2.42-2.54-5.39-3.02-9.04
			c-0.05-0.36-0.62-0.39-0.74-0.04l-3.2,9.48c-0.3,0.08-0.6,0.15-0.9,0.25c-0.3,0.1-0.6,0.21-0.89,0.33c0,0-4.19,1.87-5.76,3.98
			c-3.66,4.08-4.83,9.98-2.51,15.55c3.4,8.16,13.02,12.5,21.49,9.7C265.41,363.76,269.52,354.86,266.11,346.7z"/>
		<path class="st3" d="M271.21,343.12v-7.72c0-0.32,0.49-0.4,0.63-0.11c1.97,4.13,4.63,6.97,7.15,8.89
			c7.43,2.25,12.69,7.82,12.69,14.33c0,8.5-8.96,15.4-20,15.4c-11.05,0-20-6.89-20-15.4C251.67,350.13,260.38,343.32,271.21,343.12z
			"/>
		<ellipse class="st3" cx="231.63" cy="300.68" rx="18.41" ry="16.88"/>
		<path class="st3" d="M242.87,327.04l-11.5-1.9c-3.76,3.11-9.27,5.08-15.44,5.08c-11.32,0-20.49-6.61-20.49-14.77
			s9.17-14.77,20.49-14.77c4.44,0,8.91,1.06,12.73,3.26c3.4,1.96,6.35,4.87,7.38,8.65c0.01,0.02,0.01,0.04,0.01,0.06
			c0.24,0.91,0.37,1.86,0.37,2.8c0,1.14-0.19,2.24-0.53,3.3c2.45,3.62,5.33,5.94,7.44,7.29
			C243.88,326.39,243.53,327.15,242.87,327.04z"/>
		<path class="st3" d="M271.21,311.26v7.72c0,0.32,0.49,0.4,0.63,0.11c1.97-4.13,4.63-6.97,7.15-8.89
			c7.43-2.25,12.69-7.82,12.69-14.33c0-8.5-8.96-15.4-20-15.4c-11.05,0-20,6.89-20,15.4C251.67,304.25,260.38,311.07,271.21,311.26z
			"/>
		<path class="st3" d="M266.11,307.68c-2.36,5.67-7.73,9.49-13.63,10.36c-1.39,2.42-2.54,5.39-3.02,9.04
			c-0.05,0.36-0.62,0.39-0.74,0.04l-3.2-9.48c-0.3-0.08-0.6-0.15-0.9-0.25c-0.3-0.1-0.6-0.21-0.89-0.33c0,0-4.19-1.87-5.76-3.98
			c-3.66-4.08-4.83-9.98-2.51-15.55c3.4-8.16,13.02-12.5,21.49-9.7C265.41,290.63,269.52,299.52,266.11,307.68z"/>
		<path class="st3" d="M285.03,324.26c-7.58,0.88-14.21,3.53-18.88,7.13l-8.8-5.66c-0.29-0.19-0.68,0.1-0.51,0.37
			c3.23,4.95,3.64,9.41,3.26,12.6c-0.87,2-1.22,4.1-0.95,6.21c1.24,9.6,16.78,15.2,32.31,13.39c15.54-1.8,25.98-11.28,23.89-20.74
			C313.32,328.41,300.56,322.45,285.03,324.26z"/>
		<path class="st3" d="M285.03,330.13c-7.58-0.88-14.21-3.53-18.88-7.13l-8.8,5.66c-0.29,0.19-0.68-0.1-0.51-0.37
			c3.23-4.95,3.64-9.41,3.26-12.6c-0.87-2-1.22-4.1-0.95-6.21c1.24-9.6,16.78-15.2,32.31-13.39c15.54,1.8,25.98,11.28,23.89,20.74
			C313.32,325.97,300.56,331.93,285.03,330.13z"/>
	</g>
	<g>
		<path class="st0" d="M333,339.05h7.37c1.71,0,3.22,0.32,4.54,0.96c1.32,0.64,2.34,1.54,3.07,2.72c0.73,1.17,1.09,2.55,1.09,4.12
			c0,1.57-0.36,2.95-1.09,4.12s-1.75,2.08-3.07,2.72c-1.32,0.64-2.83,0.96-4.54,0.96H333V339.05z M340.2,351.12
			c1.34,0,2.41-0.38,3.22-1.14c0.81-0.76,1.21-1.8,1.21-3.14s-0.41-2.38-1.21-3.14c-0.81-0.76-1.88-1.14-3.22-1.14h-2.78v8.55H340.2
			z"/>
		<path class="st0" d="M361.61,351.61h-6.59l-1.22,3.03h-4.5l6.88-15.58h4.34l6.9,15.58h-4.59L361.61,351.61z M360.32,348.36
			l-2-4.99l-2,4.99H360.32z"/>
		<path class="st0" d="M383.61,339.05l-6.68,15.58h-4.34l-6.66-15.58h4.76l4.23,10.15l4.32-10.15H383.61z"/>
		<path class="st0" d="M384.52,339.05h4.41v15.58h-4.41V339.05z"/>
		<path class="st0" d="M392.07,339.05h7.37c1.71,0,3.22,0.32,4.54,0.96c1.32,0.64,2.34,1.54,3.07,2.72
			c0.73,1.17,1.09,2.55,1.09,4.12c0,1.57-0.36,2.95-1.09,4.12s-1.75,2.08-3.07,2.72c-1.32,0.64-2.83,0.96-4.54,0.96h-7.37V339.05z
			 M399.26,351.12c1.34,0,2.41-0.38,3.22-1.14c0.81-0.76,1.21-1.8,1.21-3.14s-0.41-2.38-1.21-3.14c-0.81-0.76-1.88-1.14-3.22-1.14
			h-2.78v8.55H399.26z"/>
		<path class="st0" d="M416.94,339.05h4.41v12.09h7.44v3.5h-11.84V339.05z"/>
		<path class="st0" d="M441.14,351.61h-6.59l-1.22,3.03h-4.5l6.88-15.58h4.34l6.9,15.58h-4.59L441.14,351.61z M439.85,348.36
			l-2-4.99l-2,4.99H439.85z"/>
		<path class="st0" d="M455.01,350.49h-2.4v4.14h-4.41v-15.58h7.12c1.41,0,2.63,0.23,3.67,0.7c1.04,0.47,1.84,1.14,2.4,2
			c0.56,0.87,0.85,1.89,0.85,3.06c0,1.13-0.26,2.11-0.79,2.95c-0.53,0.84-1.28,1.5-2.26,1.97l3.36,4.9h-4.72L455.01,350.49z
			 M457.1,343.12c-0.46-0.4-1.14-0.6-2.05-0.6h-2.45v4.56h2.45c0.91,0,1.59-0.2,2.05-0.59c0.46-0.39,0.69-0.95,0.69-1.68
			C457.79,344.09,457.56,343.52,457.1,343.12z"/>
		<path class="st0" d="M471.48,350.49h-2.4v4.14h-4.41v-15.58h7.12c1.41,0,2.63,0.23,3.67,0.7c1.04,0.47,1.84,1.14,2.4,2
			c0.56,0.87,0.85,1.89,0.85,3.06c0,1.13-0.26,2.11-0.79,2.95c-0.53,0.84-1.28,1.5-2.26,1.97l3.36,4.9h-4.72L471.48,350.49z
			 M473.58,343.12c-0.46-0.4-1.14-0.6-2.05-0.6h-2.45v4.56h2.45c0.91,0,1.59-0.2,2.05-0.59c0.46-0.39,0.69-0.95,0.69-1.68
			C474.27,344.09,474.04,343.52,473.58,343.12z"/>
		<path class="st0" d="M493.66,351.23v3.41h-12.51v-15.58h12.22v3.41h-7.86v2.63h6.92v3.29h-6.92v2.85H493.66z"/>
		<path class="st0" d="M506.55,351.61h-6.59l-1.22,3.03h-4.5l6.88-15.58h4.34l6.9,15.58h-4.59L506.55,351.61z M505.26,348.36
			l-2-4.99l-2,4.99H505.26z"/>
	</g>
	<g>
		<path class="st0" d="M381.09,366c0.83,0.37,1.47,0.91,1.92,1.6c0.45,0.69,0.67,1.51,0.67,2.44c0,0.93-0.23,1.75-0.67,2.43
			c-0.45,0.69-1.09,1.21-1.92,1.59c-0.83,0.37-1.8,0.56-2.93,0.56H376v3.25h-3.51v-12.42h5.68
			C379.29,365.45,380.26,365.63,381.09,366z M379.58,371.38c0.37-0.31,0.55-0.76,0.55-1.34c0-0.58-0.18-1.03-0.55-1.35
			c-0.37-0.32-0.91-0.48-1.63-0.48H376v3.64h1.95C378.67,371.85,379.22,371.69,379.58,371.38z"/>
		<path class="st0" d="M387,377.74c-0.95-0.25-1.72-0.58-2.31-0.99l1.15-2.59c0.56,0.37,1.2,0.66,1.93,0.89s1.46,0.34,2.17,0.34
			c1.35,0,2.02-0.34,2.02-1.01c0-0.36-0.19-0.62-0.58-0.79c-0.38-0.17-1-0.35-1.85-0.54c-0.93-0.2-1.72-0.42-2.34-0.65
			s-1.17-0.6-1.61-1.11c-0.45-0.51-0.67-1.19-0.67-2.06c0-0.76,0.21-1.44,0.62-2.05c0.41-0.61,1.03-1.09,1.85-1.45
			c0.82-0.35,1.83-0.53,3.03-0.53c0.82,0,1.62,0.09,2.41,0.28c0.79,0.18,1.49,0.45,2.09,0.81l-1.08,2.61
			c-1.18-0.64-2.33-0.96-3.44-0.96c-0.7,0-1.21,0.1-1.53,0.31s-0.48,0.48-0.48,0.81s0.19,0.58,0.57,0.75
			c0.38,0.17,0.99,0.34,1.83,0.51c0.95,0.2,1.73,0.42,2.35,0.65s1.16,0.6,1.61,1.1c0.46,0.5,0.68,1.19,0.68,2.05
			c0,0.75-0.21,1.42-0.62,2.02c-0.41,0.6-1.04,1.09-1.86,1.45c-0.83,0.36-1.83,0.54-3.02,0.54
			C388.92,378.11,387.95,377.99,387,377.74z"/>
		<path class="st0" d="M397.04,365.45h3.51v12.42h-3.51V365.45z"/>
		<path class="st0" d="M405.75,377.29c-1.04-0.55-1.85-1.32-2.44-2.3c-0.59-0.98-0.89-2.09-0.89-3.34s0.29-2.35,0.89-3.34
			c0.59-0.98,1.4-1.75,2.44-2.3s2.2-0.83,3.5-0.83c1.14,0,2.16,0.2,3.07,0.6s1.67,0.98,2.27,1.74l-2.24,2.02
			c-0.8-0.97-1.78-1.46-2.93-1.46c-0.67,0-1.28,0.15-1.8,0.44c-0.53,0.3-0.93,0.71-1.22,1.25c-0.29,0.54-0.43,1.16-0.43,1.85
			s0.14,1.32,0.43,1.85c0.29,0.54,0.7,0.96,1.22,1.25c0.53,0.3,1.13,0.44,1.8,0.44c1.15,0,2.12-0.49,2.93-1.46l2.24,2.02
			c-0.6,0.76-1.36,1.34-2.27,1.74c-0.91,0.4-1.93,0.6-3.07,0.6C407.95,378.11,406.78,377.84,405.75,377.29z"/>
		<path class="st0" d="M418.61,377.28c-1.05-0.56-1.87-1.32-2.47-2.31c-0.6-0.98-0.9-2.09-0.9-3.32s0.3-2.34,0.9-3.32
			c0.6-0.98,1.42-1.75,2.47-2.31c1.05-0.56,2.23-0.83,3.54-0.83c1.31,0,2.49,0.28,3.54,0.83c1.05,0.56,1.87,1.33,2.47,2.31
			c0.6,0.98,0.9,2.09,0.9,3.32s-0.3,2.34-0.9,3.32c-0.6,0.98-1.42,1.75-2.47,2.31c-1.05,0.56-2.23,0.83-3.54,0.83
			C420.84,378.11,419.66,377.84,418.61,377.28z M423.85,374.76c0.51-0.29,0.91-0.71,1.21-1.25c0.3-0.54,0.44-1.16,0.44-1.85
			s-0.15-1.32-0.44-1.85s-0.7-0.96-1.21-1.25c-0.51-0.29-1.08-0.44-1.7-0.44c-0.63,0-1.2,0.15-1.7,0.44
			c-0.51,0.3-0.91,0.71-1.21,1.25c-0.3,0.54-0.44,1.16-0.44,1.85s0.15,1.32,0.44,1.85c0.29,0.54,0.7,0.96,1.21,1.25
			c0.51,0.3,1.08,0.44,1.7,0.44C422.78,375.2,423.34,375.06,423.85,374.76z M422.79,361.74h3.37l-3.34,2.7h-2.41L422.79,361.74z"/>
		<path class="st0" d="M430.9,365.45h3.51v9.63h5.93v2.79h-9.44V365.45z"/>
		<path class="st0" d="M444.25,377.28c-1.05-0.56-1.87-1.32-2.47-2.31c-0.6-0.98-0.9-2.09-0.9-3.32s0.3-2.34,0.9-3.32
			c0.6-0.98,1.42-1.75,2.47-2.31c1.05-0.56,2.23-0.83,3.54-0.83c1.31,0,2.49,0.28,3.54,0.83c1.05,0.56,1.87,1.33,2.47,2.31
			c0.6,0.98,0.9,2.09,0.9,3.32s-0.3,2.34-0.9,3.32c-0.6,0.98-1.42,1.75-2.47,2.31c-1.05,0.56-2.23,0.83-3.54,0.83
			C446.47,378.11,445.3,377.84,444.25,377.28z M449.49,374.76c0.51-0.29,0.91-0.71,1.21-1.25c0.3-0.54,0.44-1.16,0.44-1.85
			s-0.15-1.32-0.44-1.85s-0.7-0.96-1.21-1.25c-0.51-0.29-1.08-0.44-1.7-0.44c-0.63,0-1.2,0.15-1.7,0.44
			c-0.51,0.3-0.91,0.71-1.21,1.25c-0.3,0.54-0.44,1.16-0.44,1.85s0.15,1.32,0.44,1.85c0.29,0.54,0.7,0.96,1.21,1.25
			c0.51,0.3,1.08,0.44,1.7,0.44C448.41,375.2,448.98,375.06,449.49,374.76z"/>
		<path class="st0" d="M464.86,371.39h3.11v5.15c-0.71,0.51-1.53,0.9-2.45,1.17c-0.92,0.27-1.84,0.41-2.77,0.41
			c-1.3,0-2.47-0.27-3.51-0.82c-1.04-0.55-1.86-1.32-2.45-2.3c-0.59-0.98-0.89-2.09-0.89-3.34s0.29-2.35,0.89-3.34
			c0.59-0.98,1.41-1.75,2.47-2.3c1.05-0.55,2.24-0.83,3.57-0.83c1.16,0,2.2,0.2,3.12,0.59c0.92,0.39,1.69,0.95,2.31,1.69l-2.24,2.02
			c-0.84-0.92-1.84-1.38-3.02-1.38c-1.06,0-1.92,0.32-2.57,0.97c-0.65,0.65-0.98,1.51-0.98,2.58c0,0.69,0.15,1.3,0.44,1.84
			c0.29,0.54,0.71,0.96,1.24,1.26s1.14,0.45,1.83,0.45c0.67,0,1.31-0.14,1.9-0.41V371.39z"/>
		<path class="st0" d="M472.92,377.28c-1.05-0.56-1.87-1.32-2.47-2.31c-0.6-0.98-0.9-2.09-0.9-3.32s0.3-2.34,0.9-3.32
			c0.6-0.98,1.42-1.75,2.47-2.31c1.05-0.56,2.23-0.83,3.54-0.83c1.31,0,2.49,0.28,3.54,0.83c1.05,0.56,1.87,1.33,2.47,2.31
			c0.6,0.98,0.9,2.09,0.9,3.32s-0.3,2.34-0.9,3.32c-0.6,0.98-1.42,1.75-2.47,2.31c-1.05,0.56-2.23,0.83-3.54,0.83
			C475.15,378.11,473.97,377.84,472.92,377.28z M478.17,374.76c0.51-0.29,0.91-0.71,1.21-1.25c0.3-0.54,0.44-1.16,0.44-1.85
			s-0.15-1.32-0.44-1.85s-0.7-0.96-1.21-1.25c-0.51-0.29-1.08-0.44-1.7-0.44c-0.63,0-1.2,0.15-1.7,0.44
			c-0.51,0.3-0.91,0.71-1.21,1.25c-0.3,0.54-0.44,1.16-0.44,1.85s0.15,1.32,0.44,1.85c0.29,0.54,0.7,0.96,1.21,1.25
			c0.51,0.3,1.08,0.44,1.7,0.44C477.09,375.2,477.66,375.06,478.17,374.76z"/>
	</g>
</g>
<g>
	<g>
		<g>
			<path class="st0" d="M148.86,71.24c0-23.03-18.57-41.7-41.57-41.94H82.9v26.35h24.39c8.43,0.24,15.2,7.1,15.2,15.58
				c0,8.48-6.77,15.34-15.2,15.58v0.07h-0.44l-36.52-0.05v0.02v26.26v0.09l36.96,0.05c8.43,0.24,15.2,7.1,15.2,15.58
				c0,8.48-6.77,15.34-15.2,15.58v0.07H82.9v26.28h24.39c22.99-0.24,41.57-18.91,41.57-41.94c0-11.17-4.4-21.29-11.52-28.81
				C144.47,92.53,148.86,82.41,148.86,71.24z"/>
		</g>
	</g>
	<polygon class="st0" points="69.09,55.44 69.09,29.16 10.04,29.16 10.04,29.18 10.04,55.44 10.04,86.87 10,86.87 10,113.15 
		10.04,113.15 10.04,144.56 10,144.56 10,170.84 10.04,170.84 37.71,170.84 69.05,170.84 69.05,144.56 37.71,144.56 37.71,113.15 
		56.98,113.15 56.98,86.87 37.71,86.87 37.71,55.44 	"/>
</g>
<g>
	<g>
		<g>
			<path class="st0" d="M182.5,93.39c-0.17,1.02-0.25,2.39-0.25,4.1c-0.56,0.09-1.28,0.14-2.18,0.14c-0.6,0-1.51-0.02-2.74-0.07
				c-1.22-0.05-2.14-0.07-2.76-0.07c-0.45,0-1.13,0.02-2.03,0.07c-0.9,0.05-1.57,0.07-2,0.07v-0.79c1.28,0,1.91-0.74,1.91-2.21V83.3
				c0-1.01-0.09-1.62-0.27-1.85c-0.23-0.24-0.83-0.36-1.82-0.36v-0.79c0.45,0,1.13,0.02,2.03,0.07c0.9,0.05,1.58,0.07,2.03,0.07
				c0.62,0,1.53-0.02,2.74-0.07c1.21-0.05,2.12-0.07,2.74-0.07c0.95,0,1.72,0.05,2.32,0.14c-0.21,0.66-0.36,1.96-0.45,3.9h-0.74
				c0-0.56-0.09-1.37-0.27-2.43c-0.84-0.27-2.13-0.41-3.87-0.41c-0.92,0-1.64,0.04-2.16,0.11c-0.08,0.51-0.11,1.15-0.11,1.9v4.76
				h3.18c0.83,0,1.35-0.14,1.59-0.41c0.23-0.27,0.35-0.84,0.35-1.71h0.79v5.77h-0.79c0-1.04-0.11-1.7-0.32-1.96
				c-0.26-0.34-0.86-0.51-1.82-0.49h-2.97v4.89c0,0.77,0.04,1.42,0.11,1.96c0.53,0.08,1.23,0.11,2.1,0.11
				c2.06,0,3.55-0.13,4.47-0.41c0.11-0.36,0.26-1.24,0.47-2.64H182.5z"/>
			<path class="st0" d="M200.35,87.92c0,2.84-0.87,5.17-2.6,6.98c-1.73,1.82-4.01,2.73-6.84,2.73c-0.33,0-0.82-0.02-1.46-0.07
				c-0.65-0.05-1.13-0.07-1.46-0.07c-0.35,0-0.85,0.02-1.51,0.07c-0.66,0.05-1.15,0.07-1.46,0.07v-0.79
				c0.45-0.09,0.76-0.24,0.92-0.46c0.17-0.22,0.25-0.55,0.25-1V83.14c0-0.84-0.11-1.39-0.34-1.64c-0.23-0.26-0.76-0.38-1.6-0.38
				v-0.81c0.47,0,1.18,0.02,2.14,0.07c0.96,0.05,1.68,0.07,2.16,0.07c0.48,0,1.2-0.02,2.15-0.07c0.95-0.05,1.67-0.07,2.15-0.07
				c2.25,0,4.07,0.71,5.44,2.12C199.67,83.83,200.35,85.67,200.35,87.92z M197.99,88.67c0-2.26-0.54-4.01-1.62-5.24
				c-1.14-1.29-2.82-1.93-5.05-1.93c-0.41,0-1.38,0.04-2.93,0.13c-0.06,0.53-0.09,1.21-0.09,2.07v10.55c0,0.91,0.03,1.6,0.09,2.07
				c0.75,0.1,1.44,0.16,2.07,0.16C195.48,96.48,197.99,93.88,197.99,88.67z"/>
			<path class="st0" d="M208.32,97.63c-0.36,0-0.9-0.02-1.62-0.07c-0.72-0.05-1.25-0.07-1.6-0.07c-0.03,0-1.07,0.05-3.13,0.14v-0.79
				c0.99,0,1.59-0.11,1.79-0.34c0.2-0.23,0.3-0.85,0.3-1.87V83.3c0-1.01-0.11-1.63-0.32-1.86c-0.21-0.23-0.8-0.35-1.78-0.35v-0.79
				c0.33,0,0.84,0.02,1.54,0.07c0.7,0.05,1.23,0.07,1.59,0.07c-0.05,0,1.03-0.05,3.22-0.14v0.79c-0.99,0-1.6,0.12-1.81,0.35
				c-0.22,0.23-0.33,0.85-0.33,1.86v11.33c0,1.02,0.1,1.64,0.32,1.87c0.21,0.23,0.82,0.34,1.82,0.34V97.63z"/>
			<path class="st0" d="M220.54,91.73c0,1.89-0.64,3.41-1.91,4.55c-1.28,1.14-2.87,1.71-4.77,1.71c-1.17,0-2.45-0.32-3.83-0.95
				c0.1-1.05,0.15-2.32,0.15-3.81h0.79v1.07c-0.03,1.66,1.21,2.48,3.73,2.48c1.11,0,2.04-0.35,2.78-1.05
				c0.75-0.7,1.12-1.59,1.12-2.69c0-1.6-0.76-2.61-2.27-3.01c-1.39-0.25-2.79-0.51-4.2-0.76c-1.51-0.55-2.27-1.82-2.27-3.8
				c0-1.56,0.51-2.87,1.54-3.94c1.03-1.06,2.32-1.6,3.89-1.6c1.1,0,2.54,0.38,4.32,1.13c-0.23,1.01-0.34,2.15-0.34,3.42h-0.79
				c0-1.25-0.26-2.12-0.77-2.64c-0.51-0.51-1.39-0.77-2.64-0.77c-0.98,0-1.78,0.34-2.41,1.01c-0.63,0.68-0.95,1.51-0.95,2.5
				c0,1.44,0.76,2.39,2.27,2.84c1.41,0.3,2.83,0.6,4.26,0.9C219.79,88.9,220.54,90.03,220.54,91.73z"/>
			<path class="st0" d="M238.49,88.41c0,2.58-0.77,4.8-2.32,6.64c-1.65,1.95-3.74,2.93-6.26,2.93c-2.49,0-4.46-0.92-5.9-2.75
				c-1.32-1.68-1.98-3.8-1.98-6.35c0-2.58,0.74-4.7,2.21-6.35c1.55-1.73,3.59-2.59,6.13-2.59c2.57,0,4.56,0.76,5.99,2.29
				C237.78,83.76,238.49,85.82,238.49,88.41z M236.08,89.18c0-2.31-0.42-4.17-1.26-5.56c-1.04-1.71-2.64-2.57-4.8-2.57
				c-1.94,0-3.39,0.71-4.35,2.14c-0.83,1.22-1.24,2.84-1.24,4.86c0,2.33,0.44,4.29,1.33,5.88c1.1,1.97,2.71,2.95,4.84,2.95
				c1.95,0,3.4-0.84,4.35-2.52C235.7,93.01,236.08,91.28,236.08,89.18z"/>
			<path class="st0" d="M257.54,81.07c-0.93,0.08-1.46,0.14-1.6,0.2c-0.38,0.2-0.56,0.68-0.56,1.46v14.3c0,0.04,0.03,0.36,0.09,0.95
				l-1.82-0.36l-10.66-14.44v11.99c0,0.76,0.19,1.24,0.59,1.44c0.17,0.08,0.7,0.14,1.6,0.2v0.79c-0.29,0-0.72-0.02-1.32-0.06
				c-0.59-0.04-1.04-0.06-1.34-0.06c0.15,0-0.74,0.04-2.66,0.11v-0.79c0.89-0.06,1.41-0.13,1.58-0.2c0.33-0.2,0.5-0.68,0.5-1.44
				V82.74c0-0.75-0.12-1.22-0.35-1.4c-0.23-0.18-0.75-0.27-1.54-0.27v-0.79c0.72,0.09,1.37,0.13,1.94,0.13
				c0.57,0,1.22-0.05,1.94-0.13l10.41,14.66V82.74c0-0.77-0.17-1.25-0.52-1.44c-0.17-0.09-0.7-0.16-1.6-0.23v-0.79
				c0.3,0,0.75,0.02,1.35,0.07c0.6,0.05,1.04,0.07,1.33,0.07c-0.02,0,0.87-0.05,2.66-0.13V81.07z"/>
			<path class="st0" d="M282.55,91.88c0,1.71-0.62,3.11-1.86,4.18c-1.24,1.08-2.72,1.61-4.45,1.61c-0.29,0-0.72-0.03-1.31-0.09
				c-0.59-0.06-1.02-0.09-1.31-0.09c-0.63,0-1.44,0.06-2.43,0.18v-0.79c0.44-0.12,0.73-0.33,0.88-0.63
				c0.12-0.23,0.18-0.59,0.18-1.08V83.31c0-0.9-0.1-1.48-0.29-1.74c-0.24-0.32-0.79-0.47-1.64-0.47v-0.79
				c0.41,0,1.03,0.02,1.88,0.06c0.85,0.04,1.48,0.06,1.9,0.06c0.42,0,1.05-0.02,1.88-0.06c0.83-0.04,1.46-0.06,1.88-0.06
				c1.2,0,2.14,0.28,2.81,0.83c0.75,0.6,1.13,1.49,1.13,2.66c0,0.98-0.35,1.85-1.04,2.62c-0.65,0.71-1.47,1.18-2.48,1.42
				c1.29,0.03,2.31,0.38,3.06,1.06C282.15,89.62,282.55,90.61,282.55,91.88z M279.55,84.29c0-1.97-1.1-2.95-3.31-2.95
				c-0.68,0-1.25,0.09-1.73,0.27c-0.08,0.41-0.11,0.96-0.11,1.67v4.19c0.42,0.06,0.94,0.09,1.55,0.09
				C278.35,87.56,279.55,86.47,279.55,84.29z M280.23,92.3c0-2.51-1.46-3.77-4.37-3.77h-1.46v7.81c0.72,0.15,1.38,0.23,1.98,0.23
				c1.23,0,2.19-0.41,2.88-1.24C279.91,94.56,280.23,93.55,280.23,92.3z"/>
			<path class="st0" d="M300.58,97.63c-0.33,0-0.83-0.02-1.49-0.06c-0.66-0.04-1.16-0.06-1.49-0.06c0.06,0-0.92,0.04-2.95,0.11
				v-0.79c1.28,0.02,1.91-0.26,1.91-0.83c0-0.23-0.21-0.88-0.63-1.96c-0.29-0.71-0.56-1.41-0.83-2.12h-6.26
				c-0.98,2.48-1.46,3.85-1.46,4.12c0,0.35,0.24,0.57,0.72,0.68c0.08,0.01,0.47,0.05,1.17,0.11v0.79c-0.29,0-0.71-0.02-1.28-0.06
				c-0.57-0.04-1-0.06-1.28-0.06c0.18,0-0.68,0.04-2.57,0.11v-0.79c0.68-0.12,1.07-0.22,1.19-0.29c0.23-0.13,0.46-0.47,0.72-1.01
				c2.85-6.49,4.89-11.61,6.1-15.36h0.72l5.34,14.08c0.36,0.93,0.62,1.51,0.77,1.73c0.39,0.57,0.92,0.86,1.6,0.86V97.63z
				 M294.68,90.82l-2.71-7.26l-2.7,7.26H294.68z"/>
			<path class="st0" d="M315.98,97.63c-0.59-0.09-1.26-0.14-2.03-0.14c-0.18,0-0.52,0.05-1.01,0.14c-0.77-1.26-1.77-2.77-3.02-4.53
				c-1.05-1.49-2.11-2.97-3.18-4.44l0.11-0.41h1.55c2.23-0.48,3.34-1.66,3.34-3.54c0-1.07-0.3-1.9-0.89-2.51
				c-0.59-0.61-1.42-0.91-2.48-0.91c-0.82,0-1.56,0.11-2.22,0.32c-0.09,0.29-0.13,0.67-0.13,1.15v11.87c0,1.02,0.1,1.64,0.32,1.87
				c0.21,0.23,0.81,0.34,1.8,0.34v0.79c-0.35,0-0.88-0.02-1.6-0.07c-0.72-0.05-1.25-0.07-1.6-0.07c-0.05,0-1.09,0.05-3.13,0.14
				v-0.79c0.99,0,1.59-0.11,1.79-0.34c0.2-0.23,0.3-0.85,0.3-1.87V83.3c0-1.01-0.1-1.63-0.32-1.86c-0.21-0.23-0.8-0.35-1.78-0.35
				v-0.79c0.41,0,1.04,0.02,1.9,0.07c0.86,0.05,1.51,0.07,1.95,0.07c0.42,0,1.06-0.02,1.93-0.07s1.51-0.07,1.95-0.07
				c1.29,0,2.33,0.3,3.13,0.9c0.89,0.68,1.33,1.64,1.33,2.88c0,1.22-0.42,2.26-1.26,3.13c-0.78,0.83-1.79,1.37-3.02,1.64l5,7.3
				c0.24,0.35,0.66,0.57,1.26,0.68V97.63z"/>
			<path class="st0" d="M329.72,91.88c0,1.71-0.62,3.11-1.86,4.18c-1.24,1.08-2.72,1.61-4.45,1.61c-0.29,0-0.72-0.03-1.31-0.09
				c-0.59-0.06-1.02-0.09-1.31-0.09c-0.63,0-1.44,0.06-2.43,0.18v-0.79c0.44-0.12,0.73-0.33,0.88-0.63
				c0.12-0.23,0.18-0.59,0.18-1.08V83.31c0-0.9-0.1-1.48-0.29-1.74c-0.24-0.32-0.79-0.47-1.64-0.47v-0.79
				c0.41,0,1.03,0.02,1.88,0.06c0.85,0.04,1.48,0.06,1.9,0.06c0.42,0,1.05-0.02,1.88-0.06c0.83-0.04,1.46-0.06,1.88-0.06
				c1.2,0,2.14,0.28,2.81,0.83c0.75,0.6,1.13,1.49,1.13,2.66c0,0.98-0.35,1.85-1.04,2.62c-0.65,0.71-1.47,1.18-2.48,1.42
				c1.29,0.03,2.31,0.38,3.06,1.06C329.32,89.62,329.72,90.61,329.72,91.88z M326.72,84.29c0-1.97-1.1-2.95-3.31-2.95
				c-0.68,0-1.25,0.09-1.73,0.27c-0.08,0.41-0.11,0.96-0.11,1.67v4.19c0.42,0.06,0.94,0.09,1.55,0.09
				C325.52,87.56,326.72,86.47,326.72,84.29z M327.4,92.3c0-2.51-1.46-3.77-4.37-3.77h-1.46v7.81c0.72,0.15,1.38,0.23,1.98,0.23
				c1.23,0,2.19-0.41,2.88-1.24C327.07,94.56,327.4,93.55,327.4,92.3z"/>
			<path class="st0" d="M347.75,97.63c-0.33,0-0.83-0.02-1.49-0.06c-0.66-0.04-1.16-0.06-1.49-0.06c0.06,0-0.92,0.04-2.95,0.11
				v-0.79c1.28,0.02,1.91-0.26,1.91-0.83c0-0.23-0.21-0.88-0.63-1.96c-0.29-0.71-0.56-1.41-0.83-2.12h-6.26
				c-0.98,2.48-1.46,3.85-1.46,4.12c0,0.35,0.24,0.57,0.72,0.68c0.08,0.01,0.47,0.05,1.17,0.11v0.79c-0.29,0-0.71-0.02-1.28-0.06
				c-0.57-0.04-1-0.06-1.28-0.06c0.18,0-0.68,0.04-2.57,0.11v-0.79c0.68-0.12,1.07-0.22,1.19-0.29c0.23-0.13,0.46-0.47,0.72-1.01
				c2.85-6.49,4.89-11.61,6.1-15.36h0.72l5.34,14.08c0.36,0.93,0.62,1.51,0.77,1.73c0.39,0.57,0.92,0.86,1.6,0.86V97.63z
				 M341.85,90.82l-2.71-7.26l-2.7,7.26H341.85z"/>
		</g>
	</g>
	<g>
		<g>
			<path class="st0" d="M177.85,117.3c-0.1,0.61-0.15,1.43-0.15,2.46c-0.33,0.05-0.77,0.08-1.31,0.08c-0.36,0-0.91-0.01-1.64-0.04
				c-0.73-0.03-1.29-0.04-1.66-0.04c-0.27,0-0.68,0.01-1.22,0.04c-0.54,0.03-0.94,0.04-1.2,0.04v-0.47c0.77,0,1.15-0.44,1.15-1.32
				v-6.8c0-0.6-0.05-0.97-0.16-1.11c-0.14-0.14-0.5-0.22-1.09-0.22v-0.47c0.27,0,0.68,0.01,1.22,0.04c0.54,0.03,0.95,0.04,1.22,0.04
				c0.37,0,0.92-0.01,1.64-0.04c0.73-0.03,1.27-0.04,1.64-0.04c0.57,0,1.03,0.03,1.39,0.08c-0.13,0.4-0.22,1.18-0.27,2.34h-0.45
				c0-0.33-0.05-0.82-0.16-1.46c-0.5-0.16-1.28-0.24-2.32-0.24c-0.55,0-0.98,0.02-1.3,0.07c-0.05,0.31-0.07,0.69-0.07,1.14v2.86
				h1.91c0.5,0,0.81-0.08,0.95-0.24c0.14-0.16,0.21-0.5,0.21-1.03h0.47v3.46h-0.47c0-0.62-0.06-1.02-0.19-1.18
				c-0.15-0.21-0.52-0.3-1.09-0.29h-1.78v2.93c0,0.46,0.02,0.85,0.07,1.18c0.32,0.05,0.74,0.07,1.26,0.07
				c1.24,0,2.13-0.08,2.68-0.24c0.06-0.22,0.16-0.74,0.28-1.58H177.85z"/>
			<path class="st0" d="M188.56,114.01c0,1.7-0.52,3.1-1.56,4.19s-2.41,1.64-4.1,1.64c-0.2,0-0.49-0.01-0.88-0.04
				c-0.39-0.03-0.68-0.04-0.88-0.04c-0.21,0-0.51,0.01-0.91,0.04c-0.4,0.03-0.69,0.04-0.88,0.04v-0.47
				c0.27-0.05,0.45-0.15,0.55-0.28c0.1-0.13,0.15-0.33,0.15-0.6v-7.34c0-0.5-0.07-0.83-0.2-0.99c-0.14-0.15-0.45-0.23-0.96-0.23
				v-0.49c0.28,0,0.71,0.01,1.28,0.04c0.58,0.03,1.01,0.04,1.3,0.04c0.29,0,0.72-0.01,1.29-0.04c0.57-0.03,1-0.04,1.29-0.04
				c1.35,0,2.44,0.42,3.26,1.27C188.15,111.56,188.56,112.66,188.56,114.01z M187.14,114.47c0-1.36-0.32-2.41-0.97-3.14
				c-0.68-0.77-1.69-1.16-3.03-1.16c-0.24,0-0.83,0.03-1.76,0.08c-0.04,0.32-0.05,0.73-0.05,1.24v6.33c0,0.55,0.02,0.96,0.05,1.24
				c0.45,0.06,0.86,0.09,1.24,0.09C185.64,119.15,187.14,117.59,187.14,114.47z"/>
			<path class="st0" d="M199.36,109.91c-0.55,0.04-0.87,0.08-0.97,0.12c-0.22,0.12-0.32,0.41-0.32,0.88v5.47
				c0,1.15-0.34,2.05-1.02,2.7c-0.68,0.65-1.6,0.97-2.76,0.97c-1.29,0-2.22-0.26-2.78-0.79s-0.85-1.43-0.85-2.7v-5.34
				c0-0.6-0.06-0.98-0.19-1.11c-0.13-0.14-0.48-0.21-1.07-0.21v-0.47c0.2,0,0.51,0.01,0.93,0.04c0.42,0.03,0.74,0.04,0.95,0.04
				c-0.02,0,0.63-0.03,1.93-0.08v0.47c-0.59,0-0.96,0.07-1.08,0.21c-0.13,0.14-0.19,0.51-0.19,1.11v5.18c0,0.96,0.21,1.65,0.64,2.07
				c0.42,0.41,1.12,0.62,2.08,0.62c1.05,0,1.8-0.33,2.23-0.99c0.36-0.54,0.54-1.37,0.54-2.49v-4.72c0-0.46-0.11-0.75-0.32-0.86
				c-0.1-0.05-0.41-0.1-0.93-0.13v-0.47c0.16,0,0.42,0.01,0.78,0.04c0.36,0.03,0.64,0.04,0.82,0.04c-0.04,0,0.5-0.03,1.59-0.08
				V109.91z"/>
			<path class="st0" d="M208.91,118.5l-0.28,0.68c-0.91,0.59-1.91,0.88-3.01,0.88c-1.63,0-2.94-0.5-3.92-1.5
				c-0.98-1-1.47-2.32-1.47-3.95c0-1.53,0.48-2.81,1.43-3.84c0.95-1.03,2.18-1.54,3.7-1.54c0.93,0,2.09,0.22,3.49,0.66
				c-0.1,0.52-0.2,1.27-0.31,2.26h-0.41l0.01-0.69c0.02-0.55-0.32-0.97-1-1.26c-0.51-0.22-1.1-0.32-1.76-0.32
				c-1.18,0-2.11,0.45-2.78,1.35c-0.6,0.81-0.91,1.83-0.91,3.05c0,1.42,0.37,2.59,1.11,3.5c0.79,0.99,1.88,1.49,3.27,1.49
				c0.96,0,1.87-0.31,2.72-0.93L208.91,118.5z"/>
			<path class="st0" d="M219.7,119.84c-0.2,0-0.5-0.01-0.89-0.03c-0.4-0.02-0.69-0.03-0.89-0.03c0.04,0-0.55,0.02-1.77,0.07v-0.47
				c0.77,0.01,1.15-0.16,1.15-0.5c0-0.14-0.13-0.53-0.38-1.18c-0.17-0.42-0.34-0.85-0.5-1.27h-3.76c-0.59,1.49-0.88,2.31-0.88,2.47
				c0,0.21,0.14,0.34,0.43,0.41c0.04,0.01,0.28,0.03,0.7,0.07v0.47c-0.17,0-0.43-0.01-0.77-0.03c-0.34-0.02-0.6-0.03-0.77-0.03
				c0.11,0-0.41,0.02-1.54,0.07v-0.47c0.41-0.07,0.64-0.13,0.72-0.18c0.14-0.08,0.28-0.28,0.43-0.61c1.71-3.89,2.93-6.96,3.66-9.22
				h0.43l3.2,8.45c0.22,0.56,0.37,0.91,0.46,1.04c0.23,0.34,0.55,0.51,0.96,0.51V119.84z M216.16,115.76l-1.62-4.36l-1.62,4.36
				H216.16z"/>
			<path class="st0" d="M229.31,118.5l-0.28,0.68c-0.91,0.59-1.91,0.88-3.01,0.88c-1.63,0-2.94-0.5-3.92-1.5
				c-0.98-1-1.47-2.32-1.47-3.95c0-1.53,0.48-2.81,1.43-3.84c0.95-1.03,2.18-1.54,3.7-1.54c0.93,0,2.09,0.22,3.49,0.66
				c-0.1,0.52-0.2,1.27-0.31,2.26h-0.41l0.01-0.69c0.02-0.55-0.32-0.97-1-1.26c-0.51-0.22-1.1-0.32-1.76-0.32
				c-1.18,0-2.11,0.45-2.78,1.35c-0.6,0.81-0.91,1.83-0.91,3.05c0,1.42,0.37,2.59,1.11,3.5c0.79,0.99,1.88,1.49,3.27,1.49
				c0.96,0,1.87-0.31,2.72-0.93L229.31,118.5z"/>
			<path class="st0" d="M234.14,119.84c-0.22,0-0.54-0.01-0.97-0.04c-0.43-0.03-0.75-0.04-0.96-0.04c-0.02,0-0.64,0.03-1.88,0.08
				v-0.47c0.59,0,0.95-0.07,1.07-0.2c0.12-0.14,0.18-0.51,0.18-1.12v-6.8c0-0.6-0.06-0.98-0.19-1.11c-0.13-0.14-0.48-0.21-1.07-0.21
				v-0.47c0.2,0,0.51,0.01,0.93,0.04c0.42,0.03,0.74,0.04,0.95,0.04c-0.03,0,0.62-0.03,1.93-0.08v0.47c-0.59,0-0.96,0.07-1.09,0.21
				c-0.13,0.14-0.2,0.51-0.2,1.11v6.8c0,0.61,0.06,0.99,0.19,1.12c0.13,0.14,0.49,0.2,1.09,0.2V119.84z"/>
			<path class="st0" d="M244.95,114.31c0,1.55-0.46,2.88-1.39,3.99c-0.99,1.17-2.24,1.76-3.76,1.76c-1.5,0-2.68-0.55-3.54-1.65
				c-0.79-1.01-1.19-2.28-1.19-3.81c0-1.55,0.44-2.82,1.32-3.81c0.93-1.04,2.15-1.55,3.68-1.55c1.54,0,2.74,0.46,3.59,1.37
				C244.52,111.52,244.95,112.75,244.95,114.31z M243.5,114.77c0-1.39-0.25-2.5-0.76-3.34c-0.62-1.03-1.58-1.54-2.88-1.54
				c-1.16,0-2.03,0.43-2.61,1.28c-0.5,0.73-0.74,1.7-0.74,2.92c0,1.4,0.27,2.57,0.8,3.53c0.66,1.18,1.63,1.77,2.91,1.77
				c1.17,0,2.04-0.5,2.61-1.51C243.28,117.07,243.5,116.03,243.5,114.77z"/>
			<path class="st0" d="M256.38,109.91c-0.56,0.05-0.88,0.09-0.96,0.12c-0.23,0.12-0.34,0.41-0.34,0.88v8.58
				c0,0.03,0.02,0.22,0.05,0.57l-1.09-0.22l-6.4-8.66v7.19c0,0.46,0.12,0.75,0.35,0.86c0.1,0.05,0.42,0.09,0.96,0.12v0.47
				c-0.17,0-0.43-0.01-0.79-0.03c-0.36-0.02-0.62-0.03-0.8-0.03c0.09,0-0.44,0.02-1.59,0.07v-0.47c0.53-0.04,0.85-0.08,0.95-0.12
				c0.2-0.12,0.3-0.41,0.3-0.86v-7.46c0-0.45-0.07-0.73-0.21-0.84c-0.14-0.11-0.45-0.16-0.93-0.16v-0.47
				c0.43,0.05,0.82,0.08,1.16,0.08c0.34,0,0.73-0.03,1.16-0.08l6.24,8.8v-7.32c0-0.46-0.1-0.75-0.31-0.86
				c-0.1-0.05-0.42-0.1-0.96-0.13v-0.47c0.18,0,0.45,0.01,0.81,0.04c0.36,0.03,0.63,0.04,0.8,0.04c-0.01,0,0.52-0.03,1.59-0.08
				V109.91z"/>
			<path class="st0" d="M272.38,109.69c-2.31,2.99-3.46,5.12-3.46,6.38v1.99c0,0.6,0.06,0.97,0.18,1.09
				c0.14,0.15,0.5,0.23,1.09,0.22v0.47c-0.21,0-0.53-0.01-0.96-0.03c-0.43-0.02-0.76-0.03-0.97-0.03c-0.05,0-0.67,0.02-1.88,0.07
				v-0.47c0.59,0.01,0.96-0.06,1.09-0.22c0.11-0.13,0.16-0.49,0.16-1.09v-2.19c0-0.28-0.23-0.86-0.69-1.76
				c-0.32-0.6-0.65-1.21-0.97-1.81c-0.33-0.66-0.62-1.13-0.85-1.41c-0.43-0.54-0.88-0.79-1.34-0.76v-0.46
				c0.26-0.07,0.52-0.14,0.77-0.22c0.32-0.08,0.58-0.12,0.8-0.12c0.36,0,0.94,0.78,1.74,2.35c0.47,0.99,0.94,1.98,1.41,2.97
				c0.84-1.47,1.32-2.32,1.45-2.57c0.54-0.98,0.99-1.86,1.34-2.65h1.09V109.69z"/>
			<path class="st0" d="M289.55,114.01c0,1.7-0.52,3.1-1.56,4.19s-2.41,1.64-4.1,1.64c-0.2,0-0.49-0.01-0.88-0.04
				c-0.39-0.03-0.68-0.04-0.88-0.04c-0.21,0-0.51,0.01-0.91,0.04c-0.4,0.03-0.69,0.04-0.88,0.04v-0.47
				c0.27-0.05,0.45-0.15,0.55-0.28c0.1-0.13,0.15-0.33,0.15-0.6v-7.34c0-0.5-0.07-0.83-0.2-0.99c-0.14-0.15-0.45-0.23-0.96-0.23
				v-0.49c0.28,0,0.71,0.01,1.28,0.04c0.58,0.03,1.01,0.04,1.3,0.04s0.72-0.01,1.29-0.04c0.57-0.03,1-0.04,1.29-0.04
				c1.35,0,2.44,0.42,3.26,1.27C289.14,111.56,289.55,112.66,289.55,114.01z M288.13,114.47c0-1.36-0.32-2.41-0.97-3.14
				c-0.68-0.77-1.69-1.16-3.03-1.16c-0.24,0-0.83,0.03-1.76,0.08c-0.04,0.32-0.05,0.73-0.05,1.24v6.33c0,0.55,0.02,0.96,0.05,1.24
				c0.45,0.06,0.86,0.09,1.24,0.09C286.63,119.15,288.13,117.59,288.13,114.47z"/>
			<path class="st0" d="M297.89,117.3c-0.1,0.61-0.15,1.43-0.15,2.46c-0.33,0.05-0.77,0.08-1.31,0.08c-0.36,0-0.91-0.01-1.64-0.04
				c-0.73-0.03-1.29-0.04-1.66-0.04c-0.27,0-0.68,0.01-1.22,0.04c-0.54,0.03-0.94,0.04-1.2,0.04v-0.47c0.77,0,1.15-0.44,1.15-1.32
				v-6.8c0-0.6-0.05-0.97-0.16-1.11c-0.14-0.14-0.5-0.22-1.09-0.22v-0.47c0.27,0,0.68,0.01,1.22,0.04c0.54,0.03,0.95,0.04,1.22,0.04
				c0.37,0,0.92-0.01,1.64-0.04c0.72-0.03,1.27-0.04,1.64-0.04c0.57,0,1.03,0.03,1.39,0.08c-0.13,0.4-0.22,1.18-0.27,2.34h-0.45
				c0-0.33-0.05-0.82-0.16-1.46c-0.5-0.16-1.28-0.24-2.32-0.24c-0.55,0-0.98,0.02-1.3,0.07c-0.05,0.31-0.07,0.69-0.07,1.14v2.86
				h1.91c0.5,0,0.81-0.08,0.95-0.24c0.14-0.16,0.21-0.5,0.21-1.03h0.47v3.46h-0.47c0-0.62-0.06-1.02-0.19-1.18
				c-0.15-0.21-0.52-0.3-1.09-0.29h-1.78v2.93c0,0.46,0.02,0.85,0.07,1.18c0.32,0.05,0.74,0.07,1.26,0.07
				c1.24,0,2.13-0.08,2.68-0.24c0.06-0.22,0.16-0.74,0.28-1.58H297.89z"/>
			<path class="st0" d="M307.31,119.84c-0.35-0.05-0.76-0.08-1.22-0.08c-0.11,0-0.31,0.03-0.61,0.08c-0.46-0.76-1.06-1.66-1.81-2.72
				c-0.63-0.89-1.27-1.78-1.91-2.66l0.07-0.24h0.93c1.34-0.29,2-1,2-2.12c0-0.64-0.18-1.14-0.53-1.51
				c-0.35-0.36-0.85-0.55-1.49-0.55c-0.49,0-0.94,0.06-1.33,0.19c-0.05,0.17-0.08,0.4-0.08,0.69v7.12c0,0.61,0.06,0.99,0.19,1.12
				c0.13,0.14,0.49,0.2,1.08,0.2v0.47c-0.21,0-0.53-0.01-0.96-0.04c-0.43-0.03-0.75-0.04-0.96-0.04c-0.03,0-0.65,0.03-1.88,0.08
				v-0.47c0.59,0,0.95-0.07,1.07-0.2c0.12-0.14,0.18-0.51,0.18-1.12v-6.8c0-0.6-0.06-0.98-0.19-1.11c-0.13-0.14-0.48-0.21-1.07-0.21
				v-0.47c0.24,0,0.62,0.01,1.14,0.04c0.52,0.03,0.91,0.04,1.17,0.04c0.25,0,0.64-0.01,1.16-0.04c0.52-0.03,0.91-0.04,1.17-0.04
				c0.77,0,1.4,0.18,1.88,0.54c0.53,0.41,0.8,0.98,0.8,1.73c0,0.73-0.25,1.36-0.76,1.88c-0.47,0.5-1.07,0.82-1.81,0.99l3,4.38
				c0.14,0.21,0.4,0.34,0.76,0.41V119.84z"/>
			<path class="st0" d="M315.53,117.3c-0.1,0.61-0.15,1.43-0.15,2.46c-0.33,0.05-0.77,0.08-1.31,0.08c-0.36,0-0.91-0.01-1.64-0.04
				c-0.73-0.03-1.29-0.04-1.66-0.04c-0.27,0-0.68,0.01-1.22,0.04c-0.54,0.03-0.94,0.04-1.2,0.04v-0.47c0.77,0,1.15-0.44,1.15-1.32
				v-6.8c0-0.6-0.05-0.97-0.16-1.11c-0.14-0.14-0.5-0.22-1.09-0.22v-0.47c0.27,0,0.68,0.01,1.22,0.04c0.54,0.03,0.95,0.04,1.22,0.04
				c0.37,0,0.92-0.01,1.64-0.04c0.72-0.03,1.27-0.04,1.64-0.04c0.57,0,1.03,0.03,1.39,0.08c-0.13,0.4-0.22,1.18-0.27,2.34h-0.45
				c0-0.33-0.05-0.82-0.16-1.46c-0.5-0.16-1.28-0.24-2.32-0.24c-0.55,0-0.98,0.02-1.3,0.07c-0.05,0.31-0.07,0.69-0.07,1.14v2.86
				h1.91c0.5,0,0.81-0.08,0.95-0.24c0.14-0.16,0.21-0.5,0.21-1.03h0.47v3.46h-0.47c0-0.62-0.06-1.02-0.19-1.18
				c-0.15-0.21-0.52-0.3-1.09-0.29h-1.78v2.93c0,0.46,0.02,0.85,0.07,1.18c0.32,0.05,0.74,0.07,1.26,0.07
				c1.24,0,2.13-0.08,2.68-0.24c0.06-0.22,0.16-0.74,0.28-1.58H315.53z"/>
			<path class="st0" d="M325.32,118.5l-0.28,0.68c-0.91,0.59-1.91,0.88-3.01,0.88c-1.63,0-2.94-0.5-3.92-1.5
				c-0.98-1-1.47-2.32-1.47-3.95c0-1.53,0.48-2.81,1.43-3.84c0.95-1.03,2.18-1.54,3.7-1.54c0.93,0,2.09,0.22,3.49,0.66
				c-0.1,0.52-0.2,1.27-0.31,2.26h-0.41l0.01-0.69c0.02-0.55-0.32-0.97-1-1.26c-0.51-0.22-1.1-0.32-1.76-0.32
				c-1.18,0-2.11,0.45-2.78,1.35c-0.6,0.81-0.91,1.83-0.91,3.05c0,1.42,0.37,2.59,1.11,3.5c0.79,0.99,1.88,1.49,3.27,1.49
				c0.96,0,1.87-0.31,2.72-0.93L325.32,118.5z"/>
			<path class="st0" d="M336.72,119.84c-0.21,0-0.52-0.01-0.95-0.04c-0.43-0.03-0.75-0.04-0.97-0.04c-0.01,0-0.64,0.03-1.89,0.08
				v-0.47c0.59,0,0.95-0.07,1.08-0.21c0.13-0.14,0.19-0.51,0.19-1.11v-3.42h-5.3v3.42c0,0.61,0.06,0.99,0.18,1.12
				c0.12,0.14,0.48,0.2,1.09,0.2v0.47c-0.22,0-0.54-0.01-0.97-0.04c-0.43-0.03-0.75-0.04-0.97-0.04c-0.02,0-0.64,0.03-1.88,0.08
				v-0.47c0.59,0,0.96-0.07,1.09-0.22c0.11-0.13,0.16-0.5,0.16-1.11v-6.8c0-0.6-0.06-0.98-0.18-1.11c-0.12-0.14-0.48-0.21-1.07-0.21
				v-0.47c0.21,0,0.52,0.01,0.94,0.04c0.42,0.03,0.73,0.04,0.94,0.04c-0.03,0,0.62-0.03,1.93-0.08v0.47c-0.59,0-0.96,0.07-1.08,0.21
				c-0.13,0.14-0.19,0.51-0.19,1.11v2.73h5.3v-2.73c0-0.61-0.06-0.99-0.18-1.12c-0.12-0.13-0.48-0.2-1.09-0.2v-0.47
				c0.21,0,0.52,0.01,0.95,0.04c0.42,0.03,0.74,0.04,0.95,0.04c-0.04,0,0.6-0.03,1.92-0.08v0.47c-0.59,0-0.95,0.07-1.07,0.2
				c-0.12,0.14-0.18,0.51-0.18,1.12v6.8c0,0.6,0.06,0.98,0.18,1.11c0.12,0.14,0.48,0.21,1.07,0.21V119.84z"/>
			<path class="st0" d="M347.54,114.31c0,1.55-0.46,2.88-1.39,3.99c-0.99,1.17-2.24,1.76-3.76,1.76c-1.5,0-2.68-0.55-3.54-1.65
				c-0.79-1.01-1.19-2.28-1.19-3.81c0-1.55,0.44-2.82,1.32-3.81c0.93-1.04,2.15-1.55,3.68-1.55c1.54,0,2.74,0.46,3.59,1.37
				C347.12,111.52,347.54,112.75,347.54,114.31z M346.1,114.77c0-1.39-0.25-2.5-0.76-3.34c-0.62-1.03-1.58-1.54-2.88-1.54
				c-1.16,0-2.03,0.43-2.61,1.28c-0.5,0.73-0.74,1.7-0.74,2.92c0,1.4,0.27,2.57,0.8,3.53c0.66,1.18,1.63,1.77,2.91,1.77
				c1.17,0,2.04-0.5,2.61-1.51C345.87,117.07,346.1,116.03,346.1,114.77z"/>
			<g>
				<polygon class="st0" points="244.91,105.51 242.3,107.39 242.03,107.19 242.03,107.11 243.3,105.52 244.78,105.34 				"/>
			</g>
		</g>
	</g>
</g>
</svg>
