<?xml version="1.0" encoding="utf-8"?>
<!-- Generator: Adobe Illustrator 24.0.0, SVG Export Plug-In . SVG Version: 6.00 Build 0)  -->
<svg version="1.1" id="Capa_1" xmlns="http://www.w3.org/2000/svg" xmlns:xlink="http://www.w3.org/1999/xlink" x="0px" y="0px"
	 viewBox="0 0 358.11 200" style="enable-background:new 0 0 358.11 200;" xml:space="preserve">
<style type="text/css">
	.st0{fill:#FFFFFF;}
	.st1{fill:none;stroke:#FFFFFF;stroke-width:3;stroke-miterlimit:10;}
	.st2{fill:#CCB079;}
</style>
<g>
	<g>
		<g>
			<g>
				<path class="st0" d="M205.79,79.76v29.72h-5.96V90.15l-7.96,19.33h-4.51l-8-19.33v19.33h-5.96V79.76h6.77l9.45,22.1l9.45-22.1
					H205.79z"/>
				<path class="st0" d="M219.75,84.57v7.45h10v4.73h-10v7.88h11.28v4.85h-17.24V79.72h17.24v4.85H219.75z"/>
				<path class="st0" d="M257.2,81.59c2.37,1.22,4.2,2.96,5.49,5.22c1.29,2.26,1.94,4.87,1.94,7.85c0,2.98-0.65,5.58-1.94,7.81
					c-1.29,2.23-3.12,3.95-5.49,5.17c-2.37,1.22-5.12,1.83-8.24,1.83h-10.39V79.76h10.39C252.08,79.76,254.83,80.37,257.2,81.59z
					 M255.98,101.86c1.7-1.7,2.55-4.1,2.55-7.19c0-3.09-0.85-5.51-2.55-7.26c-1.7-1.75-4.12-2.62-7.24-2.62h-4.21v19.63h4.21
					C251.87,104.41,254.28,103.56,255.98,101.86z"/>
				<path class="st0" d="M277.18,104.75h9.79v4.73h-15.75V79.76h5.96V104.75z"/>
				<path class="st0" d="M311.11,103.81h-11.84l-1.96,5.66h-6.26l10.69-29.76h6.94l10.69,29.76h-6.3L311.11,103.81z M309.5,99.05
					l-4.3-12.43l-4.3,12.43H309.5z"/>
				<path class="st0" d="M346.49,96.75c1.08,1.36,1.62,2.92,1.62,4.68c0,1.59-0.39,2.99-1.17,4.19c-0.78,1.21-1.91,2.15-3.38,2.83
					c-1.48,0.68-3.22,1.02-5.24,1.02H325.5V79.76h12.26c2.01,0,3.75,0.33,5.22,0.98c1.46,0.65,2.57,1.56,3.32,2.72
					c0.75,1.16,1.13,2.48,1.13,3.96c0,1.73-0.46,3.18-1.38,4.34c-0.92,1.16-2.15,1.99-3.68,2.47
					C344.04,94.55,345.41,95.38,346.49,96.75z M331.46,92.02h5.45c1.42,0,2.51-0.32,3.28-0.96c0.77-0.64,1.15-1.55,1.15-2.75
					c0-1.19-0.38-2.11-1.15-2.77c-0.77-0.65-1.86-0.98-3.28-0.98h-5.45V92.02z M340.85,103.6c0.81-0.68,1.21-1.65,1.21-2.9
					c0-1.28-0.43-2.28-1.28-3c-0.85-0.72-2-1.09-3.45-1.09h-5.87v8h6C338.91,104.62,340.04,104.28,340.85,103.6z"/>
			</g>
		</g>
	</g>
	<g>
		<g>
			<g>
				<path class="st0" d="M174.2,117.21c-0.3,0-0.55,0.06-0.75,0.19c-0.2,0.12-0.29,0.31-0.29,0.56c0,0.25,0.1,0.44,0.29,0.58
					c0.2,0.13,0.61,0.28,1.25,0.43c0.64,0.15,1.11,0.37,1.44,0.65c0.32,0.28,0.48,0.69,0.48,1.23c0,0.54-0.2,0.98-0.61,1.32
					c-0.41,0.34-0.94,0.51-1.61,0.51c-0.97,0-1.83-0.33-2.58-1l0.66-0.79c0.63,0.54,1.28,0.82,1.95,0.82c0.34,0,0.6-0.07,0.8-0.22
					c0.2-0.15,0.3-0.34,0.3-0.58s-0.09-0.43-0.28-0.56c-0.19-0.13-0.51-0.25-0.96-0.36c-0.46-0.11-0.8-0.21-1.04-0.3
					c-0.24-0.09-0.45-0.21-0.63-0.36c-0.37-0.28-0.55-0.7-0.55-1.28c0-0.57,0.21-1.02,0.63-1.33c0.42-0.31,0.93-0.47,1.55-0.47
					c0.4,0,0.79,0.06,1.18,0.2c0.39,0.13,0.73,0.31,1.01,0.55l-0.56,0.79c-0.18-0.17-0.43-0.3-0.75-0.41
					C174.81,117.26,174.5,117.21,174.2,117.21z"/>
				<path class="st0" d="M180.92,120.43v-2.55h0.99v4.72h-0.99v-0.86c-0.16,0.29-0.38,0.52-0.66,0.68
					c-0.28,0.17-0.58,0.25-0.91,0.25c-0.53,0-0.96-0.16-1.29-0.49c-0.33-0.33-0.49-0.8-0.49-1.41v-2.89h0.99v2.59
					c0,0.87,0.36,1.3,1.08,1.3c0.34,0,0.64-0.11,0.9-0.34C180.8,121.2,180.92,120.87,180.92,120.43z"/>
				<path class="st0" d="M187.7,122.66c-0.66,0-1.22-0.22-1.69-0.67c-0.47-0.45-0.71-1.03-0.71-1.75c0-0.72,0.25-1.31,0.74-1.76
					c0.49-0.45,1.1-0.68,1.81-0.68c0.71,0,1.31,0.25,1.8,0.74l-0.59,0.72c-0.41-0.35-0.82-0.53-1.23-0.53
					c-0.41,0-0.77,0.14-1.08,0.41c-0.3,0.27-0.46,0.63-0.46,1.06c0,0.43,0.15,0.8,0.45,1.1c0.3,0.3,0.67,0.45,1.11,0.45
					c0.44,0,0.86-0.2,1.25-0.6l0.59,0.64C189.11,122.38,188.45,122.66,187.7,122.66z"/>
				<path class="st0" d="M194.48,121.96c-0.47,0.47-1.06,0.71-1.77,0.71c-0.71,0-1.3-0.24-1.77-0.71c-0.47-0.47-0.71-1.05-0.71-1.73
					c0-0.68,0.24-1.25,0.71-1.72c0.47-0.47,1.06-0.71,1.77-0.71c0.71,0,1.3,0.24,1.77,0.71c0.47,0.47,0.71,1.05,0.71,1.72
					C195.19,120.91,194.95,121.49,194.48,121.96z M191.63,121.35c0.28,0.29,0.64,0.43,1.07,0.43c0.43,0,0.79-0.14,1.07-0.43
					c0.28-0.29,0.42-0.66,0.42-1.11c0-0.46-0.14-0.83-0.42-1.11c-0.28-0.29-0.64-0.43-1.07-0.43c-0.43,0-0.79,0.14-1.07,0.43
					c-0.28,0.29-0.42,0.66-0.42,1.11C191.21,120.69,191.35,121.06,191.63,121.35z"/>
				<path class="st0" d="M197.22,120.04v2.55h-0.99v-4.72h0.99v0.86c0.16-0.29,0.38-0.52,0.66-0.68c0.28-0.17,0.58-0.25,0.91-0.25
					c0.53,0,0.96,0.16,1.29,0.49c0.33,0.33,0.49,0.8,0.49,1.41v2.89h-0.99V120c0-0.87-0.36-1.3-1.08-1.3c-0.34,0-0.64,0.11-0.9,0.34
					C197.34,119.27,197.22,119.6,197.22,120.04z"/>
				<path class="st0" d="M203.04,117.48v0.39h1.24v0.8h-1.24v3.92h-0.99v-3.92h-0.59v-0.8h0.59v-0.36c0-0.5,0.15-0.89,0.45-1.18
					c0.3-0.29,0.66-0.44,1.08-0.44c0.42,0,0.81,0.16,1.16,0.47l-0.41,0.7c-0.2-0.21-0.4-0.31-0.61-0.31c-0.21,0-0.38,0.07-0.5,0.2
					C203.1,117.08,203.04,117.26,203.04,117.48z"/>
				<path class="st0" d="M205.22,116.94c-0.12-0.12-0.19-0.27-0.19-0.44c0-0.17,0.06-0.32,0.19-0.44c0.12-0.12,0.27-0.19,0.44-0.19
					c0.17,0,0.32,0.06,0.44,0.19c0.12,0.12,0.19,0.27,0.19,0.44c0,0.17-0.06,0.32-0.19,0.44c-0.12,0.12-0.27,0.19-0.44,0.19
					C205.49,117.12,205.34,117.06,205.22,116.94z M206.15,122.59h-0.99v-4.72h0.99V122.59z"/>
				<path class="st0" d="M211.32,122.59h-0.9v-0.63c-0.39,0.47-0.91,0.7-1.57,0.7c-0.49,0-0.9-0.14-1.22-0.42
					c-0.32-0.28-0.48-0.65-0.48-1.11c0-0.46,0.17-0.81,0.51-1.04c0.34-0.23,0.81-0.35,1.39-0.35h1.29v-0.18
					c0-0.63-0.35-0.94-1.05-0.94c-0.44,0-0.89,0.16-1.37,0.48l-0.44-0.62c0.57-0.46,1.22-0.68,1.95-0.68c0.56,0,1.01,0.14,1.36,0.42
					c0.35,0.28,0.53,0.72,0.53,1.33V122.59z M210.33,120.84v-0.4h-1.12c-0.72,0-1.07,0.22-1.07,0.67c0,0.23,0.09,0.41,0.27,0.53
					c0.18,0.12,0.42,0.18,0.74,0.18s0.59-0.09,0.83-0.27C210.21,121.38,210.33,121.14,210.33,120.84z"/>
				<path class="st0" d="M213.61,120.04v2.55h-0.99v-4.72h0.99v0.86c0.16-0.29,0.38-0.52,0.66-0.68c0.28-0.17,0.58-0.25,0.91-0.25
					c0.53,0,0.96,0.16,1.29,0.49c0.33,0.33,0.49,0.8,0.49,1.41v2.89h-0.99V120c0-0.87-0.36-1.3-1.08-1.3c-0.34,0-0.64,0.11-0.9,0.34
					C213.73,119.27,213.61,119.6,213.61,120.04z"/>
				<path class="st0" d="M218.1,118.74v-0.85h3.69v0.9l-2.65,2.94h2.79v0.86h-4.01v-0.97l2.58-2.88H218.1z"/>
				<path class="st0" d="M226.79,122.59h-0.9v-0.63c-0.39,0.47-0.91,0.7-1.57,0.7c-0.49,0-0.9-0.14-1.22-0.42
					c-0.32-0.28-0.48-0.65-0.48-1.11c0-0.46,0.17-0.81,0.51-1.04c0.34-0.23,0.81-0.35,1.39-0.35h1.29v-0.18
					c0-0.63-0.35-0.94-1.05-0.94c-0.44,0-0.89,0.16-1.37,0.48l-0.44-0.62c0.57-0.46,1.22-0.68,1.95-0.68c0.56,0,1.01,0.14,1.36,0.42
					c0.35,0.28,0.53,0.72,0.53,1.33V122.59z M225.79,120.84v-0.4h-1.12c-0.72,0-1.07,0.22-1.07,0.67c0,0.23,0.09,0.41,0.27,0.53
					c0.18,0.12,0.42,0.18,0.74,0.18s0.59-0.09,0.83-0.27C225.68,121.38,225.79,121.14,225.79,120.84z"/>
				<path class="st0" d="M234.81,120.67h-3.7c0.02,0.34,0.18,0.62,0.47,0.83c0.29,0.21,0.62,0.31,0.99,0.31
					c0.59,0,1.04-0.19,1.35-0.56l0.57,0.62c-0.51,0.53-1.17,0.79-1.99,0.79c-0.66,0-1.23-0.22-1.69-0.66
					c-0.46-0.44-0.7-1.03-0.7-1.77c0-0.74,0.24-1.33,0.71-1.77c0.47-0.44,1.03-0.66,1.67-0.66c0.64,0,1.19,0.19,1.64,0.58
					c0.45,0.39,0.67,0.92,0.67,1.6V120.67z M231.12,119.89h2.71c0-0.4-0.12-0.7-0.37-0.91c-0.25-0.21-0.55-0.32-0.92-0.32
					c-0.36,0-0.69,0.11-0.98,0.33C231.26,119.21,231.12,119.51,231.12,119.89z"/>
				<path class="st0" d="M239.18,121.18c0,0.45-0.16,0.81-0.49,1.08c-0.33,0.27-0.74,0.4-1.25,0.4c-0.34,0-0.7-0.06-1.07-0.19
					c-0.37-0.12-0.7-0.3-0.98-0.52l0.48-0.77c0.55,0.41,1.08,0.62,1.6,0.62c0.22,0,0.4-0.05,0.53-0.16c0.13-0.1,0.2-0.24,0.2-0.39
					c0-0.24-0.31-0.45-0.94-0.64c-0.05-0.02-0.08-0.03-0.11-0.04c-0.98-0.27-1.47-0.71-1.47-1.33c0-0.44,0.17-0.79,0.51-1.05
					c0.34-0.26,0.78-0.39,1.33-0.39c0.54,0,1.06,0.16,1.54,0.48l-0.37,0.74c-0.38-0.25-0.8-0.38-1.25-0.38
					c-0.24,0-0.43,0.04-0.58,0.13c-0.15,0.09-0.22,0.21-0.22,0.39c0,0.15,0.08,0.27,0.23,0.34c0.11,0.05,0.26,0.1,0.45,0.15
					c0.19,0.05,0.36,0.09,0.51,0.14c0.15,0.05,0.29,0.1,0.43,0.16c0.14,0.06,0.29,0.14,0.45,0.25
					C239.02,120.4,239.18,120.73,239.18,121.18z"/>
				<path class="st0" d="M243.55,120.04v2.55h-0.99v-4.72h0.99v0.86c0.16-0.29,0.38-0.52,0.66-0.68c0.28-0.17,0.58-0.25,0.91-0.25
					c0.53,0,0.96,0.16,1.29,0.49c0.33,0.33,0.49,0.8,0.49,1.41v2.89h-0.99V120c0-0.87-0.36-1.3-1.08-1.3c-0.34,0-0.64,0.11-0.9,0.34
					C243.68,119.27,243.55,119.6,243.55,120.04z"/>
				<path class="st0" d="M251.5,120.43v-2.55h0.99v4.72h-0.99v-0.86c-0.16,0.29-0.38,0.52-0.66,0.68c-0.28,0.17-0.58,0.25-0.91,0.25
					c-0.53,0-0.96-0.16-1.29-0.49c-0.33-0.33-0.49-0.8-0.49-1.41v-2.89h0.99v2.59c0,0.87,0.36,1.3,1.08,1.3
					c0.34,0,0.64-0.11,0.9-0.34C251.37,121.2,251.5,120.87,251.5,120.43z"/>
				<path class="st0" d="M258.23,120.67h-3.7c0.02,0.34,0.18,0.62,0.47,0.83c0.29,0.21,0.62,0.31,0.99,0.31
					c0.59,0,1.04-0.19,1.35-0.56l0.57,0.62c-0.51,0.53-1.17,0.79-1.99,0.79c-0.66,0-1.23-0.22-1.69-0.66
					c-0.46-0.44-0.7-1.03-0.7-1.77c0-0.74,0.24-1.33,0.71-1.77c0.47-0.44,1.03-0.66,1.67-0.66c0.64,0,1.19,0.19,1.64,0.58
					c0.45,0.39,0.67,0.92,0.67,1.6V120.67z M254.53,119.89h2.71c0-0.4-0.12-0.7-0.37-0.91c-0.25-0.21-0.55-0.32-0.92-0.32
					c-0.36,0-0.69,0.11-0.98,0.33C254.67,119.21,254.53,119.51,254.53,119.89z"/>
				<path class="st0" d="M262.59,121.18c0,0.45-0.16,0.81-0.49,1.08c-0.33,0.27-0.74,0.4-1.25,0.4c-0.34,0-0.7-0.06-1.07-0.19
					c-0.37-0.12-0.7-0.3-0.98-0.52l0.48-0.77c0.55,0.41,1.08,0.62,1.6,0.62c0.22,0,0.4-0.05,0.53-0.16c0.13-0.1,0.2-0.24,0.2-0.39
					c0-0.24-0.31-0.45-0.94-0.64c-0.05-0.02-0.08-0.03-0.11-0.04c-0.98-0.27-1.47-0.71-1.47-1.33c0-0.44,0.17-0.79,0.51-1.05
					c0.34-0.26,0.78-0.39,1.33-0.39c0.54,0,1.06,0.16,1.54,0.48l-0.37,0.74c-0.38-0.25-0.8-0.38-1.25-0.38
					c-0.24,0-0.43,0.04-0.58,0.13c-0.15,0.09-0.22,0.21-0.22,0.39c0,0.15,0.08,0.27,0.23,0.34c0.11,0.05,0.26,0.1,0.45,0.15
					c0.19,0.05,0.36,0.09,0.51,0.14c0.15,0.05,0.29,0.1,0.43,0.16c0.14,0.06,0.29,0.14,0.45,0.25
					C262.43,120.4,262.59,120.73,262.59,121.18z"/>
				<path class="st0" d="M264.85,118.67v2.39c0,0.22,0.06,0.4,0.18,0.54c0.12,0.13,0.28,0.2,0.5,0.2c0.21,0,0.42-0.1,0.61-0.31
					l0.41,0.7c-0.35,0.31-0.73,0.47-1.16,0.47c-0.42,0-0.78-0.15-1.08-0.44c-0.3-0.29-0.45-0.69-0.45-1.18v-2.37h-0.59v-0.8h0.59
					v-1.48h0.99v1.48h1.24v0.8H264.85z"/>
				<path class="st0" d="M269.72,118.81c-0.49,0-0.86,0.16-1.11,0.48c-0.25,0.32-0.37,0.75-0.37,1.29v2.02h-0.99v-4.72h0.99v0.95
					c0.16-0.3,0.38-0.54,0.65-0.73s0.57-0.29,0.87-0.29l0.01,1C269.76,118.81,269.74,118.81,269.72,118.81z"/>
				<path class="st0" d="M274.54,121.96c-0.47,0.47-1.06,0.71-1.77,0.71c-0.71,0-1.3-0.24-1.77-0.71c-0.47-0.47-0.71-1.05-0.71-1.73
					c0-0.68,0.24-1.25,0.71-1.72c0.47-0.47,1.06-0.71,1.77-0.71c0.71,0,1.3,0.24,1.77,0.71c0.47,0.47,0.71,1.05,0.71,1.72
					C275.25,120.91,275.01,121.49,274.54,121.96z M271.7,121.35c0.28,0.29,0.64,0.43,1.07,0.43c0.43,0,0.79-0.14,1.07-0.43
					c0.28-0.29,0.42-0.66,0.42-1.11c0-0.46-0.14-0.83-0.42-1.11c-0.28-0.29-0.64-0.43-1.07-0.43c-0.43,0-0.79,0.14-1.07,0.43
					c-0.28,0.29-0.42,0.66-0.42,1.11C271.28,120.69,271.42,121.06,271.7,121.35z"/>
				<path class="st0" d="M279.62,120.04v2.55h-0.99v-4.72h0.99v0.86c0.14-0.29,0.36-0.52,0.64-0.68c0.29-0.17,0.6-0.25,0.93-0.25
					c0.75,0,1.25,0.31,1.52,0.92c0.47-0.61,1.05-0.92,1.75-0.92c0.53,0,0.96,0.16,1.29,0.49c0.33,0.33,0.49,0.8,0.49,1.41v2.89
					h-0.99V120c0-0.87-0.36-1.3-1.08-1.3c-0.34,0-0.63,0.11-0.88,0.32c-0.25,0.22-0.38,0.53-0.39,0.94v2.63h-0.99V120
					c0-0.45-0.08-0.78-0.24-0.99c-0.16-0.21-0.41-0.32-0.75-0.32s-0.64,0.11-0.9,0.34C279.75,119.27,279.62,119.6,279.62,120.04z"/>
				<path class="st0" d="M291.92,120.67h-3.7c0.02,0.34,0.18,0.62,0.47,0.83c0.29,0.21,0.62,0.31,0.99,0.31
					c0.59,0,1.04-0.19,1.35-0.56l0.57,0.62c-0.51,0.53-1.17,0.79-1.99,0.79c-0.66,0-1.23-0.22-1.69-0.66
					c-0.46-0.44-0.7-1.03-0.7-1.77c0-0.74,0.24-1.33,0.71-1.77c0.47-0.44,1.03-0.66,1.67-0.66s1.19,0.19,1.64,0.58
					c0.45,0.39,0.67,0.92,0.67,1.6V120.67z M288.22,119.89h2.71c0-0.4-0.12-0.7-0.37-0.91c-0.25-0.21-0.55-0.32-0.92-0.32
					c-0.36,0-0.69,0.11-0.98,0.33C288.37,119.21,288.22,119.51,288.22,119.89z"/>
				<path class="st0" d="M292.93,122.82v-4.94h0.99v4.98c0,0.5-0.15,0.89-0.45,1.18c-0.3,0.29-0.66,0.44-1.08,0.44
					c-0.42,0-0.81-0.16-1.16-0.47l0.46-0.75c0.2,0.19,0.4,0.29,0.61,0.29c0.2,0,0.36-0.06,0.47-0.2
					C292.87,123.23,292.93,123.05,292.93,122.82z M292.97,116.94c-0.12-0.12-0.19-0.27-0.19-0.44c0-0.17,0.06-0.32,0.19-0.44
					c0.12-0.12,0.27-0.19,0.44-0.19c0.17,0,0.32,0.06,0.44,0.19c0.12,0.12,0.19,0.27,0.19,0.44c0,0.17-0.06,0.32-0.19,0.44
					c-0.12,0.12-0.27,0.19-0.44,0.19C293.24,117.12,293.09,117.06,292.97,116.94z"/>
				<path class="st0" d="M299.21,121.96c-0.47,0.47-1.06,0.71-1.77,0.71c-0.71,0-1.3-0.24-1.77-0.71c-0.47-0.47-0.71-1.05-0.71-1.73
					c0-0.68,0.24-1.25,0.71-1.72c0.47-0.47,1.06-0.71,1.77-0.71c0.71,0,1.3,0.24,1.77,0.71c0.47,0.47,0.71,1.05,0.71,1.72
					C299.92,120.91,299.69,121.49,299.21,121.96z M296.37,121.35c0.28,0.29,0.64,0.43,1.07,0.43c0.43,0,0.79-0.14,1.07-0.43
					c0.28-0.29,0.42-0.66,0.42-1.11c0-0.46-0.14-0.83-0.42-1.11c-0.28-0.29-0.64-0.43-1.07-0.43c-0.43,0-0.79,0.14-1.07,0.43
					c-0.28,0.29-0.42,0.66-0.42,1.11C295.95,120.69,296.09,121.06,296.37,121.35z"/>
				<path class="st0" d="M303.43,118.81c-0.49,0-0.86,0.16-1.11,0.48c-0.25,0.32-0.37,0.75-0.37,1.29v2.02h-0.99v-4.72h0.99v0.95
					c0.16-0.3,0.38-0.54,0.65-0.73s0.57-0.29,0.87-0.29l0.01,1C303.47,118.81,303.45,118.81,303.43,118.81z"/>
				<path class="st0" d="M309.21,118.81c-0.49,0-0.86,0.16-1.11,0.48c-0.25,0.32-0.37,0.75-0.37,1.29v2.02h-0.99v-4.72h0.99v0.95
					c0.16-0.3,0.38-0.54,0.65-0.73s0.57-0.29,0.87-0.29l0.01,1C309.24,118.81,309.23,118.81,309.21,118.81z"/>
				<path class="st0" d="M314.56,120.67h-3.7c0.02,0.34,0.18,0.62,0.47,0.83c0.29,0.21,0.62,0.31,0.99,0.31
					c0.59,0,1.04-0.19,1.35-0.56l0.57,0.62c-0.51,0.53-1.17,0.79-1.99,0.79c-0.66,0-1.23-0.22-1.69-0.66
					c-0.46-0.44-0.7-1.03-0.7-1.77c0-0.74,0.24-1.33,0.71-1.77c0.47-0.44,1.03-0.66,1.67-0.66c0.64,0,1.19,0.19,1.64,0.58
					c0.45,0.39,0.67,0.92,0.67,1.6V120.67z M310.86,119.89h2.71c0-0.4-0.12-0.7-0.37-0.91c-0.25-0.21-0.55-0.32-0.92-0.32
					c-0.36,0-0.69,0.11-0.98,0.33C311,119.21,310.86,119.51,310.86,119.89z"/>
				<path class="st0" d="M318.92,121.18c0,0.45-0.16,0.81-0.49,1.08c-0.33,0.27-0.74,0.4-1.25,0.4c-0.34,0-0.7-0.06-1.07-0.19
					c-0.37-0.12-0.7-0.3-0.98-0.52l0.48-0.77c0.55,0.41,1.08,0.62,1.6,0.62c0.22,0,0.4-0.05,0.53-0.16c0.13-0.1,0.2-0.24,0.2-0.39
					c0-0.24-0.31-0.45-0.94-0.64c-0.05-0.02-0.08-0.03-0.11-0.04c-0.98-0.27-1.47-0.71-1.47-1.33c0-0.44,0.17-0.79,0.51-1.05
					c0.34-0.26,0.78-0.39,1.33-0.39c0.54,0,1.06,0.16,1.54,0.48l-0.37,0.74c-0.38-0.25-0.8-0.38-1.25-0.38
					c-0.24,0-0.43,0.04-0.58,0.13c-0.15,0.09-0.22,0.21-0.22,0.39c0,0.15,0.08,0.27,0.23,0.34c0.11,0.05,0.26,0.1,0.45,0.15
					c0.19,0.05,0.36,0.09,0.51,0.14c0.15,0.05,0.29,0.1,0.43,0.16c0.14,0.06,0.29,0.14,0.45,0.25
					C318.76,120.4,318.92,120.73,318.92,121.18z"/>
				<path class="st0" d="M323.26,120.43v-2.55h0.99v4.72h-0.99v-0.86c-0.16,0.29-0.38,0.52-0.66,0.68
					c-0.28,0.17-0.58,0.25-0.91,0.25c-0.53,0-0.96-0.16-1.29-0.49c-0.33-0.33-0.49-0.8-0.49-1.41v-2.89h0.99v2.59
					c0,0.87,0.36,1.3,1.08,1.3c0.34,0,0.64-0.11,0.9-0.34C323.13,121.2,323.26,120.87,323.26,120.43z"/>
				<path class="st0" d="M326.59,122.59h-0.99v-6.58h0.99V122.59z"/>
				<path class="st0" d="M329.16,118.67v2.39c0,0.22,0.06,0.4,0.18,0.54c0.12,0.13,0.28,0.2,0.5,0.2c0.21,0,0.42-0.1,0.61-0.31
					l0.41,0.7c-0.35,0.31-0.73,0.47-1.16,0.47c-0.42,0-0.78-0.15-1.08-0.44c-0.3-0.29-0.45-0.69-0.45-1.18v-2.37h-0.59v-0.8h0.59
					v-1.48h0.99v1.48h1.24v0.8H329.16z"/>
				<path class="st0" d="M335.38,122.59h-0.9v-0.63c-0.39,0.47-0.91,0.7-1.57,0.7c-0.49,0-0.9-0.14-1.22-0.42
					c-0.32-0.28-0.48-0.65-0.48-1.11c0-0.46,0.17-0.81,0.51-1.04c0.34-0.23,0.81-0.35,1.39-0.35h1.29v-0.18
					c0-0.63-0.35-0.94-1.05-0.94c-0.44,0-0.89,0.16-1.37,0.48l-0.44-0.62c0.57-0.46,1.22-0.68,1.95-0.68c0.56,0,1.01,0.14,1.36,0.42
					c0.35,0.28,0.53,0.72,0.53,1.33V122.59z M334.39,120.84v-0.4h-1.12c-0.72,0-1.07,0.22-1.07,0.67c0,0.23,0.09,0.41,0.27,0.53
					c0.18,0.12,0.42,0.18,0.74,0.18c0.32,0,0.59-0.09,0.83-0.27C334.27,121.38,334.39,121.14,334.39,120.84z"/>
				<path class="st0" d="M337.04,121.99c-0.44-0.45-0.67-1.04-0.67-1.77c0-0.73,0.23-1.32,0.68-1.76c0.46-0.44,1-0.66,1.63-0.66
					c0.63,0,1.14,0.27,1.52,0.8v-2.59h0.99v6.58h-0.99v-0.71c-0.37,0.52-0.9,0.78-1.61,0.78C338,122.66,337.48,122.44,337.04,121.99
					z M337.37,120.26c0,0.45,0.15,0.82,0.43,1.1c0.29,0.28,0.63,0.43,1.02,0.43c0.39,0,0.72-0.14,0.99-0.43
					c0.27-0.29,0.41-0.65,0.41-1.1c0-0.45-0.14-0.82-0.41-1.13c-0.27-0.3-0.61-0.45-1-0.45c-0.4,0-0.74,0.15-1.02,0.45
					C337.51,119.43,337.37,119.8,337.37,120.26z"/>
				<path class="st0" d="M346.5,121.96c-0.47,0.47-1.06,0.71-1.77,0.71c-0.71,0-1.3-0.24-1.77-0.71c-0.47-0.47-0.71-1.05-0.71-1.73
					c0-0.68,0.24-1.25,0.71-1.72c0.47-0.47,1.06-0.71,1.77-0.71c0.71,0,1.3,0.24,1.77,0.71c0.47,0.47,0.71,1.05,0.71,1.72
					C347.2,120.91,346.97,121.49,346.5,121.96z M343.65,121.35c0.28,0.29,0.64,0.43,1.07,0.43c0.43,0,0.79-0.14,1.07-0.43
					c0.28-0.29,0.42-0.66,0.42-1.11c0-0.46-0.14-0.83-0.42-1.11c-0.28-0.29-0.64-0.43-1.07-0.43c-0.43,0-0.79,0.14-1.07,0.43
					c-0.28,0.29-0.42,0.66-0.42,1.11C343.23,120.69,343.37,121.06,343.65,121.35z"/>
			</g>
		</g>
	</g>
</g>
<g>
	<path class="st1" d="M127.54,119.31c-1.63-4.9-5.48-8.78-10.36-10.47V52c0-9.29-3.77-17.7-9.86-23.79
		c-6.09-6.09-14.5-9.86-23.8-9.86c-18.58,0-33.65,15.06-33.65,33.65v89.74c0,18.58,15.06,33.65,33.65,33.65
		c18.59,0,33.66-15.06,33.66-33.65v-1.4c4.66-1.6,8.38-5.23,10.13-9.82c0.7-1.84,1.08-3.84,1.08-5.93
		C128.39,122.74,128.09,120.97,127.54,119.31z"/>
	<g>
		<path class="st1" d="M5,96.87c0,18.58,15.07,33.65,33.66,33.65h11.21v-11.21H38.66c-12.39,0-22.44-10.05-22.44-22.44
			c0-12.39,10.05-22.44,22.44-22.44h11.21V63.23H38.66C20.07,63.23,5,78.29,5,96.87z"/>
		<path class="st1" d="M128.39,63.23h-11.21v11.21h11.21c12.39,0,22.44,10.05,22.44,22.44c0,6.19-2.51,11.8-6.57,15.86
			c-4.06,4.06-9.67,6.57-15.86,6.57h-0.85c-1.63-4.9-5.48-8.78-10.36-10.47c-1.71-0.59-3.55-0.91-5.45-0.91
			c-2.03,0-3.97,0.36-5.77,1.02c-4.72,1.75-8.44,5.57-10.04,10.36c-0.56,1.66-0.86,3.43-0.86,5.28c0,2.09,0.39,4.09,1.09,5.93
			c1.71,4.49,5.3,8.04,9.81,9.7c1.8,0.67,3.74,1.03,5.77,1.03c1.91,0,3.75-0.32,5.45-0.92c4.66-1.6,8.38-5.23,10.13-9.82h1.08
			c9.3,0,17.7-3.77,23.79-9.86c6.09-6.09,9.86-14.5,9.86-23.79C162.04,78.29,146.97,63.23,128.39,63.23z M111.73,130.04
			c-3.01,0-5.45-2.44-5.45-5.45s2.44-5.45,5.45-5.45c3.01,0,5.45,2.44,5.45,5.45S114.74,130.04,111.73,130.04z"/>
	</g>
	<path class="st1" d="M96.15,130.52c-0.7-1.84-1.09-3.84-1.09-5.93c0-1.85,0.3-3.62,0.86-5.28c1.59-4.79,5.31-8.61,10.04-10.36V52
		c0-6.19-2.51-11.8-6.56-15.86c-4.06-4.06-9.67-6.57-15.87-6.57c-12.39,0-22.43,10.05-22.43,22.44v89.74
		c0,12.39,10.04,22.43,22.43,22.43c12.4,0,22.44-10.04,22.44-22.43v-1.52C101.45,138.57,97.85,135.01,96.15,130.52z"/>
	<path class="st1" d="M105.96,140.23c-4.51-1.66-8.1-5.22-9.81-9.7c-0.7-1.84-1.09-3.84-1.09-5.93c0-1.85,0.3-3.62,0.86-5.28
		c1.59-4.79,5.31-8.61,10.04-10.36c0,0,0,0,0,0V96.87H61.09v44.87c0,12.39,10.04,22.43,22.43,22.43c12.39,0,22.43-10.04,22.43-22.43
		L105.96,140.23C105.96,140.23,105.96,140.23,105.96,140.23z"/>
	<path class="st1" d="M127.54,119.31c-1.63-4.9-5.48-8.78-10.36-10.47c-1.71-0.59-3.55-0.91-5.45-0.91c-2.03,0-3.97,0.36-5.77,1.02
		c-4.72,1.75-8.44,5.57-10.04,10.36c-0.56,1.66-0.86,3.43-0.86,5.28c0,2.09,0.39,4.09,1.09,5.93c1.71,4.49,5.3,8.04,9.81,9.7
		c1.8,0.67,3.74,1.03,5.77,1.03c1.91,0,3.75-0.32,5.45-0.92c4.66-1.6,8.38-5.23,10.13-9.82c0.7-1.84,1.08-3.84,1.08-5.93
		C128.39,122.74,128.09,120.97,127.54,119.31z M111.73,130.04c-3.01,0-5.45-2.44-5.45-5.45c0-3.01,2.44-5.45,5.45-5.45
		c3.01,0,5.45,2.44,5.45,5.45C117.18,127.6,114.74,130.04,111.73,130.04z"/>
</g>
<g>
	<g>
		<path class="st2" d="M463.63,194.31l-41.73-31.64c-5.95-4.51-9.5-11.66-9.5-19.12V27.62l51.23-20.04l51.15,20.04v115.93
			c0,7.46-3.55,14.6-9.49,19.11L463.63,194.31z M415.56,29.78v113.77c0,6.48,3.08,12.69,8.25,16.6l39.82,30.19l39.76-30.19
			c5.16-3.92,8.24-10.12,8.24-16.6V29.78l-47.99-18.8L415.56,29.78z"/>
	</g>
	<g>
		<path class="st0" d="M422.54,56.51 M429.13,127.61v10.25c0,4.69,2.03,9.16,5.43,11.99l28.9,20.24l28.86-20.24
			c3.4-2.83,5.42-7.31,5.42-11.99v-10.26h6.5l0.09,10.26c0,6.68-2.96,13.09-7.92,17.16l-0.2,0.15l-32.74,22.96l-32.99-23.11
			c-4.97-4.07-7.93-10.48-7.93-17.17v-10.25H429.13z M422.54,56.51V37.44l40.92-16.67l40.86,16.67l0,19.07h-6.59V41.87l-34.27-13.98
			l-34.33,13.98v14.64L422.54,56.51"/>
	</g>
	<g>
		<rect x="436.28" y="33.98" class="st0" width="6.59" height="22.53"/>
	</g>
	<g>
		<rect x="460.26" y="24.33" class="st0" width="6.59" height="32.18"/>
	</g>
	<g>
		<rect x="460.26" y="153.65" class="st0" width="6.59" height="16.27"/>
	</g>
	<g>
		<g>
			<rect x="466.95" y="94.18" class="st2" width="6.85" height="22.43"/>
		</g>
	</g>
	<g>
		<g>
			<rect x="466.95" y="64.92" class="st2" width="6.85" height="7.2"/>
		</g>
	</g>
	<g>
		<g>
			<g>
				<rect x="422.54" y="66.33" class="st0" width="6.75" height="58.22"/>
			</g>
		</g>
		<g>
			<g>
				<polygon class="st0" points="436.38,92.46 430.13,92.46 436.42,107.03 				"/>
			</g>
		</g>
		<g>
			<g>
				<polygon class="st0" points="422.54,66.33 442.87,66.33 436.27,59.62 429.17,59.62 				"/>
			</g>
		</g>
		<g>
			<polygon class="st0" points="439.1,96.72 442.87,93.01 442.87,66.33 436.23,66.33 436.23,124.55 442.87,124.55 442.87,105.57 			
				"/>
		</g>
	</g>
	<g>
		<rect x="446.55" y="133.01" width="34.06" height="2.11"/>
	</g>
	<g>
		<rect x="446.55" y="152.04" width="34.06" height="2.11"/>
	</g>
	<g>
		<path class="st0" d="M463.63,194.31l-41.73-31.64c-5.95-4.51-9.5-11.66-9.5-19.12V27.62l51.23-20.04l51.15,20.04v115.93
			c0,7.46-3.55,14.6-9.49,19.11L463.63,194.31z M415.56,29.78v113.77c0,6.48,3.08,12.69,8.25,16.6l39.82,30.19l39.76-30.19
			c5.16-3.92,8.24-10.12,8.24-16.6V29.78l-47.99-18.8L415.56,29.78z"/>
	</g>
	<g>
		<g>
			<rect x="436.28" y="127.61" class="st0" width="6.59" height="29.39"/>
		</g>
		<g>
			<rect x="484.46" y="127.61" class="st0" width="6.59" height="29.61"/>
		</g>
		<g>
			<rect x="484.46" y="33.98" class="st0" width="6.59" height="22.53"/>
		</g>
		<g>
			<rect x="460.26" y="153.65" class="st0" width="6.59" height="16.27"/>
		</g>
	</g>
	<g>
		<g>
			<g>
				<rect x="453.35" y="110.76" class="st0" width="6.85" height="7.2"/>
			</g>
		</g>
		<g>
			<g>
				<rect x="466.95" y="95.52" class="st0" width="6.85" height="22.43"/>
			</g>
		</g>
		<g>
			<g>
				<rect x="466.95" y="66.59" class="st0" width="6.85" height="7.06"/>
			</g>
		</g>
		<g>
			<g>
				<rect x="453.35" y="66.59" class="st0" width="6.85" height="18.18"/>
			</g>
		</g>
		<g>
			<g>
				<polygon class="st0" points="473.79,95.52 460.19,81.85 453.25,84.77 467.06,98.55 				"/>
			</g>
		</g>
		<g>
			<g>
				<polygon class="st0" points="453.35,117.96 473.8,117.96 467.28,124.58 460.02,124.65 				"/>
			</g>
		</g>
		<g>
			<g>
				<polygon class="st0" points="453.35,66.59 473.8,66.59 467.28,59.91 460.02,59.83 				"/>
			</g>
		</g>
	</g>
	<g>
		<g>
			<rect x="484.46" y="66.59" class="st0" width="6.59" height="51.27"/>
		</g>
		<g>
			<g>
				<rect x="497.73" y="66.59" class="st0" width="6.59" height="7.02"/>
			</g>
		</g>
		<g>
			<g>
				<rect x="497.73" y="110.85" class="st0" width="6.59" height="7.02"/>
			</g>
		</g>
		<g>
			<g>
				<polygon class="st0" points="484.46,117.89 504.32,117.89 497.99,124.58 490.93,124.65 				"/>
			</g>
		</g>
		<g>
			<g>
				<polygon class="st0" points="484.45,66.59 504.32,66.59 497.98,59.91 490.93,59.83 				"/>
			</g>
		</g>
	</g>
	<g>
		<g>
			<g>
				<path class="st0" d="M450.08,147.26v0.71h-2.71v-9.25h0.66v8.54H450.08z"/>
			</g>
			<g>
				<polygon class="st0" points="450.48,148.36 446.98,148.36 446.98,138.32 448.42,138.32 448.42,146.86 450.48,146.86 				"/>
			</g>
		</g>
		<g>
			<g>
				<path class="st0" d="M453.49,139.43v3.55h1.53v0.73h-1.53v3.55h2.17v0.71h-2.82v-9.25h2.72v0.71H453.49z"/>
			</g>
			<g>
				<polygon class="st0" points="456.05,148.36 452.43,148.36 452.43,138.32 455.95,138.32 455.95,139.83 453.88,139.83 
					453.88,142.59 455.41,142.59 455.41,144.1 453.88,144.1 453.88,146.86 456.05,146.86 				"/>
			</g>
		</g>
		<g>
			<g>
				<path class="st0" d="M458.3,140.36c0-0.99,0.73-1.78,1.64-1.78c0.91,0,1.64,0.79,1.64,1.78v5.96c0,0.99-0.73,1.78-1.64,1.78
					c-0.91,0-1.64-0.79-1.64-1.78V140.36z M458.96,146.33c0,0.59,0.44,1.07,0.98,1.07c0.54,0,0.98-0.48,0.98-1.07v-5.96
					c0-0.59-0.44-1.07-0.98-1.07c-0.54,0-0.98,0.48-0.98,1.07V146.33z"/>
			</g>
			<g>
				<path class="st0" d="M459.94,148.5c-1.12,0-2.03-0.98-2.03-2.18v-5.96c0-1.2,0.91-2.18,2.03-2.18c1.12,0,2.03,0.98,2.03,2.18
					v5.96C461.97,147.53,461.06,148.5,459.94,148.5z M459.94,139.69c-0.32,0-0.59,0.3-0.59,0.67v5.96c0,0.37,0.26,0.67,0.59,0.67
					c0.32,0,0.59-0.3,0.59-0.67v-5.96C460.53,139.99,460.26,139.69,459.94,139.69z"/>
			</g>
		</g>
		<g>
			<g>
				<path class="st0" d="M464.67,138.72h0.79l2,7.02h0.03v-7.02h0.66v9.25h-0.66l-2.14-7.4h-0.03v7.4h-0.66V138.72z"/>
			</g>
			<g>
				<path class="st0" d="M468.54,148.36h-1.35l-1.48-5.1v5.1h-1.45v-10.04h1.49l1.34,4.68v-4.68h1.45V148.36z M467.37,146.13
					l0.38,1.32v-1.32H467.37z M465.06,140.17h0.4l-0.3-1.06h-0.1V140.17z"/>
			</g>
		</g>
		<g>
			<g>
				<path class="st0" d="M471.95,139.43v3.55h1.53v0.73h-1.53v3.55h2.17v0.71h-2.82v-9.25h2.72v0.71H471.95z"/>
			</g>
			<g>
				<polygon class="st0" points="474.52,148.36 470.9,148.36 470.9,138.32 474.41,138.32 474.41,139.83 472.35,139.83 
					472.35,142.59 473.87,142.59 473.87,144.1 472.35,144.1 472.35,146.86 474.52,146.86 				"/>
			</g>
		</g>
		<g>
			<g>
				<path class="st0" d="M477.08,142.13c0,0-0.38-0.49-0.38-1.15v-0.62c0-0.99,0.73-1.78,1.64-1.78c0.91,0,1.64,0.79,1.64,1.78v1.15
					l-0.66,0.08v-1.23c0-0.59-0.44-1.07-0.98-1.07c-0.54,0-0.98,0.48-0.98,1.07v0.62c0,0.4,0.23,0.69,0.23,0.69l2,2.59
					c0,0,0.39,0.51,0.39,1.18v0.89c0,0.99-0.73,1.78-1.64,1.78c-0.91,0-1.64-0.79-1.64-1.78v-1.36l0.66-0.08v1.44
					c0,0.59,0.44,1.07,0.98,1.07c0.54,0,0.98-0.48,0.98-1.07v-0.89c0-0.4-0.24-0.71-0.24-0.71L477.08,142.13z"/>
			</g>
			<g>
				<path class="st0" d="M478.34,148.5c-1.12,0-2.03-0.98-2.03-2.18v-1.71l1.45-0.18v1.89c0,0.37,0.26,0.67,0.59,0.67
					c0.32,0,0.59-0.3,0.59-0.67v-0.89c0-0.25-0.16-0.47-0.16-0.48l-2-2.59c-0.02-0.02-0.46-0.61-0.46-1.39v-0.62
					c0-1.2,0.91-2.18,2.03-2.18s2.03,0.98,2.03,2.18v1.5l-1.45,0.18v-1.68c0-0.37-0.26-0.67-0.59-0.67c-0.32,0-0.59,0.3-0.59,0.67
					v0.62c0,0.25,0.14,0.44,0.14,0.44l2.01,2.59c0.02,0.03,0.47,0.62,0.47,1.42v0.89C480.38,147.53,479.46,148.5,478.34,148.5z"/>
			</g>
		</g>
	</g>
	<g>
		<g>
			<rect x="446.55" y="133.01" class="st0" width="34.06" height="2.11"/>
		</g>
	</g>
	<g>
		<g>
			<rect x="446.55" y="152.04" class="st0" width="34.06" height="2.11"/>
		</g>
	</g>
	<g>
		<path class="st0" d="M536.42,64.68h-2.66v4.58h-4.88V52.01h7.89c1.56,0,2.92,0.26,4.07,0.78c1.15,0.52,2.04,1.26,2.66,2.22
			c0.62,0.96,0.94,2.09,0.94,3.39c0,1.25-0.29,2.34-0.88,3.27s-1.42,1.66-2.5,2.18l3.72,5.42h-5.22L536.42,64.68z M538.74,56.52
			c-0.51-0.44-1.26-0.67-2.27-0.67h-2.71v5.05h2.71c1,0,1.76-0.22,2.27-0.65c0.51-0.44,0.76-1.06,0.76-1.86
			C539.5,57.59,539.25,56.97,538.74,56.52z"/>
		<path class="st0" d="M547.12,52.01H552v17.25h-4.88V52.01z"/>
		<path class="st0" d="M559.25,68.45c-1.45-0.77-2.6-1.84-3.42-3.2c-0.83-1.36-1.24-2.9-1.24-4.61s0.42-3.24,1.24-4.61
			c0.83-1.36,1.97-2.43,3.42-3.2c1.45-0.77,3.09-1.16,4.92-1.16s3.46,0.39,4.92,1.16c1.45,0.77,2.6,1.84,3.42,3.2
			c0.83,1.36,1.24,2.9,1.24,4.61s-0.42,3.24-1.24,4.61c-0.83,1.36-1.97,2.43-3.42,3.2s-3.09,1.16-4.92,1.16
			S560.71,69.22,559.25,68.45z M566.53,64.95c0.71-0.41,1.27-0.99,1.68-1.74c0.41-0.75,0.62-1.61,0.62-2.57s-0.21-1.83-0.62-2.58
			c-0.41-0.75-0.97-1.33-1.68-1.74c-0.71-0.41-1.49-0.62-2.37-0.62s-1.66,0.21-2.37,0.62c-0.71,0.41-1.27,0.99-1.68,1.74
			c-0.41,0.75-0.62,1.61-0.62,2.58s0.21,1.83,0.62,2.57c0.41,0.75,0.97,1.33,1.68,1.74c0.71,0.41,1.49,0.62,2.37,0.62
			S565.83,65.36,566.53,64.95z"/>
		<path class="st0" d="M591.89,61.88c0.56,0.73,0.84,1.61,0.84,2.65c0,1.51-0.61,2.68-1.82,3.5c-1.22,0.82-2.97,1.23-5.27,1.23
			h-9.31V52.01h8.82c2.2,0,3.88,0.41,5.03,1.22c1.15,0.81,1.72,1.91,1.72,3.29c0,0.82-0.2,1.56-0.6,2.21
			c-0.4,0.65-0.97,1.16-1.71,1.54C590.56,60.61,591.33,61.15,591.89,61.88z M581.15,55.54v3.33h3.35c1.64,0,2.46-0.56,2.46-1.68
			c0-1.1-0.82-1.65-2.46-1.65H581.15z M587.8,63.99c0-1.17-0.85-1.75-2.56-1.75h-4.09v3.5h4.09
			C586.94,65.74,587.8,65.16,587.8,63.99z"/>
		<path class="st0" d="M606.82,65.91h-7.29l-1.35,3.35h-4.98l7.61-17.25h4.81l7.64,17.25h-5.08L606.82,65.91z M605.39,62.31
			l-2.22-5.52l-2.22,5.52H605.39z"/>
		<path class="st0" d="M630.21,69.26l-0.05-9.14l-4.43,7.44h-2.17l-4.41-7.2v8.9h-4.51V52.01h4.02l6.06,9.96l5.91-9.96h4.02
			l0.05,17.25H630.21z"/>
		<path class="st0" d="M653.71,61.88c0.56,0.73,0.84,1.61,0.84,2.65c0,1.51-0.61,2.68-1.82,3.5c-1.22,0.82-2.97,1.23-5.27,1.23
			h-9.31V52.01h8.82c2.2,0,3.88,0.41,5.03,1.22c1.15,0.81,1.72,1.91,1.72,3.29c0,0.82-0.2,1.56-0.6,2.21
			c-0.4,0.65-0.97,1.16-1.71,1.54C652.38,60.61,653.15,61.15,653.71,61.88z M642.97,55.54v3.33h3.35c1.64,0,2.46-0.56,2.46-1.68
			c0-1.1-0.82-1.65-2.46-1.65H642.97z M649.62,63.99c0-1.17-0.85-1.75-2.56-1.75h-4.09v3.5h4.09
			C648.77,65.74,649.62,65.16,649.62,63.99z"/>
		<path class="st0" d="M668.64,65.91h-7.29L660,69.26h-4.98l7.61-17.25h4.81l7.64,17.25H670L668.64,65.91z M667.22,62.31L665,56.79
			l-2.22,5.52H667.22z"/>
		<path class="st0" d="M530.88,98.66c-1.31-0.34-2.38-0.8-3.2-1.38l1.6-3.6c0.77,0.51,1.67,0.92,2.69,1.23
			c1.02,0.31,2.02,0.47,3.01,0.47c1.87,0,2.81-0.47,2.81-1.41c0-0.49-0.27-0.86-0.8-1.1c-0.53-0.24-1.39-0.49-2.58-0.75
			c-1.3-0.28-2.38-0.58-3.25-0.9c-0.87-0.32-1.62-0.83-2.24-1.54c-0.62-0.71-0.94-1.66-0.94-2.86c0-1.05,0.29-2,0.86-2.85
			c0.57-0.85,1.43-1.52,2.58-2.01c1.14-0.49,2.54-0.74,4.2-0.74c1.13,0,2.25,0.13,3.35,0.38c1.1,0.25,2.07,0.63,2.91,1.12l-1.5,3.62
			c-1.64-0.89-3.24-1.33-4.78-1.33c-0.97,0-1.67,0.14-2.12,0.43c-0.44,0.29-0.67,0.66-0.67,1.12c0,0.46,0.26,0.81,0.79,1.04
			c0.53,0.23,1.37,0.47,2.54,0.71c1.31,0.28,2.4,0.58,3.27,0.9s1.61,0.83,2.24,1.53c0.63,0.7,0.95,1.65,0.95,2.85
			c0,1.04-0.29,1.97-0.86,2.81s-1.44,1.51-2.59,2.01c-1.15,0.5-2.55,0.75-4.19,0.75C533.55,99.18,532.19,99,530.88,98.66z"/>
		<path class="st0" d="M556.78,82.36c1.15,0.52,2.04,1.26,2.66,2.22c0.62,0.96,0.94,2.09,0.94,3.39c0,1.3-0.31,2.42-0.94,3.38
			c-0.63,0.95-1.51,1.69-2.66,2.21c-1.15,0.52-2.51,0.78-4.07,0.78h-3.01v4.51h-4.88V81.58h7.89
			C554.27,81.58,555.63,81.84,556.78,82.36z M554.68,89.83c0.51-0.44,0.76-1.06,0.76-1.86c0-0.8-0.25-1.43-0.76-1.87
			c-0.51-0.44-1.26-0.67-2.27-0.67h-2.71v5.05h2.71C553.42,90.48,554.17,90.26,554.68,89.83z"/>
		<path class="st0" d="M566.77,98.02c-1.45-0.77-2.6-1.84-3.42-3.2c-0.83-1.36-1.24-2.9-1.24-4.61c0-1.71,0.42-3.24,1.24-4.61
			c0.83-1.36,1.97-2.43,3.42-3.2c1.45-0.77,3.09-1.16,4.92-1.16s3.46,0.39,4.92,1.16c1.45,0.77,2.6,1.84,3.42,3.2
			c0.83,1.36,1.24,2.9,1.24,4.61c0,1.71-0.42,3.24-1.24,4.61c-0.83,1.36-1.97,2.43-3.42,3.2c-1.45,0.77-3.09,1.16-4.92,1.16
			S568.22,98.79,566.77,98.02z M574.05,94.52c0.71-0.41,1.27-0.99,1.68-1.74c0.41-0.75,0.62-1.61,0.62-2.58
			c0-0.97-0.21-1.83-0.62-2.58c-0.41-0.75-0.97-1.33-1.68-1.74c-0.71-0.41-1.49-0.62-2.37-0.62s-1.66,0.21-2.37,0.62
			c-0.71,0.41-1.27,0.99-1.68,1.74c-0.41,0.75-0.62,1.61-0.62,2.58c0,0.97,0.21,1.83,0.62,2.58c0.41,0.75,0.97,1.33,1.68,1.74
			c0.71,0.41,1.49,0.62,2.37,0.62S573.34,94.93,574.05,94.52z"/>
		<path class="st0" d="M591.37,94.25h-2.66v4.58h-4.88V81.58h7.89c1.56,0,2.92,0.26,4.07,0.78c1.15,0.52,2.04,1.26,2.66,2.22
			c0.62,0.96,0.94,2.09,0.94,3.39c0,1.25-0.29,2.34-0.88,3.27c-0.58,0.93-1.42,1.66-2.5,2.18l3.72,5.42h-5.22L591.37,94.25z
			 M593.69,86.09c-0.51-0.44-1.26-0.67-2.27-0.67h-2.71v5.05h2.71c1,0,1.76-0.22,2.27-0.65c0.51-0.44,0.76-1.06,0.76-1.86
			C594.45,87.16,594.2,86.54,593.69,86.09z"/>
		<path class="st0" d="M605.49,85.45h-5.3v-3.87h15.45v3.87h-5.27v13.38h-4.88V85.45z"/>
		<path class="st0" d="M617.47,81.58h4.88v17.25h-4.88V81.58z"/>
		<path class="st0" d="M642.23,81.58v17.25h-4.02l-7.61-9.19v9.19h-4.78V81.58h4.02l7.61,9.19v-9.19H642.23z"/>
		<path class="st0" d="M657.24,89.84h4.31v7.15c-0.99,0.71-2.12,1.25-3.4,1.63s-2.56,0.57-3.84,0.57c-1.81,0-3.43-0.38-4.88-1.15
			c-1.45-0.76-2.58-1.83-3.4-3.19c-0.82-1.36-1.23-2.91-1.23-4.63c0-1.73,0.41-3.27,1.23-4.63c0.82-1.36,1.96-2.43,3.43-3.19
			c1.46-0.76,3.11-1.15,4.95-1.15c1.61,0,3.06,0.27,4.34,0.81s2.35,1.32,3.2,2.34l-3.1,2.81c-1.17-1.28-2.56-1.92-4.19-1.92
			c-1.48,0-2.67,0.45-3.57,1.34c-0.9,0.9-1.36,2.09-1.36,3.59c0,0.95,0.21,1.8,0.62,2.55c0.41,0.75,0.99,1.33,1.72,1.75
			s1.58,0.63,2.54,0.63c0.94,0,1.82-0.19,2.64-0.57V89.84z"/>
		<path class="st0" d="M675.56,98.03c-1.44-0.76-2.57-1.83-3.39-3.19c-0.82-1.36-1.23-2.91-1.23-4.63c0-1.73,0.41-3.27,1.23-4.63
			c0.82-1.36,1.95-2.43,3.39-3.19c1.44-0.76,3.06-1.15,4.87-1.15c1.58,0,3,0.28,4.26,0.84c1.27,0.56,2.32,1.36,3.15,2.42l-3.1,2.81
			c-1.12-1.35-2.47-2.02-4.07-2.02c-0.94,0-1.77,0.21-2.5,0.62c-0.73,0.41-1.3,0.99-1.7,1.74c-0.4,0.75-0.6,1.61-0.6,2.58
			c0,0.97,0.2,1.83,0.6,2.58c0.4,0.75,0.97,1.33,1.7,1.74c0.73,0.41,1.56,0.62,2.5,0.62c1.59,0,2.95-0.67,4.07-2.02l3.1,2.81
			c-0.84,1.05-1.89,1.86-3.15,2.41c-1.26,0.56-2.69,0.84-4.26,0.84C678.62,99.18,676.99,98.79,675.56,98.03z"/>
		<path class="st0" d="M690.01,81.58h4.88v13.38h8.23v3.87h-13.11V81.58z"/>
		<path class="st0" d="M706.85,97.08c-1.42-1.4-2.13-3.38-2.13-5.94v-9.56h4.88V91c0,2.76,1.09,4.14,3.28,4.14
			c2.17,0,3.25-1.38,3.25-4.14v-9.41h4.81v9.56c0,2.56-0.71,4.54-2.13,5.94c-1.42,1.4-3.41,2.09-5.98,2.09
			S708.27,98.48,706.85,97.08z"/>
		<path class="st0" d="M739.81,91.45c0.56,0.73,0.84,1.61,0.84,2.65c0,1.51-0.61,2.68-1.82,3.5c-1.22,0.82-2.97,1.23-5.27,1.23
			h-9.31V81.58h8.82c2.2,0,3.88,0.41,5.03,1.22c1.15,0.81,1.72,1.91,1.72,3.29c0,0.82-0.2,1.56-0.6,2.21
			c-0.4,0.65-0.97,1.16-1.71,1.54C738.47,90.18,739.25,90.72,739.81,91.45z M729.06,85.11v3.33h3.35c1.64,0,2.46-0.56,2.46-1.68
			c0-1.1-0.82-1.65-2.46-1.65H729.06z M735.72,93.56c0-1.17-0.85-1.75-2.56-1.75h-4.09v3.5h4.09
			C734.86,95.31,735.72,94.73,735.72,93.56z"/>
		<path class="st0" d="M544.46,121.02c0.56,0.73,0.84,1.61,0.84,2.65c0,1.51-0.61,2.68-1.82,3.5c-1.22,0.82-2.97,1.23-5.27,1.23
			h-9.31v-17.25h8.82c2.2,0,3.88,0.41,5.03,1.22c1.15,0.81,1.72,1.91,1.72,3.29c0,0.82-0.2,1.56-0.6,2.21
			c-0.4,0.65-0.97,1.16-1.71,1.54C543.13,119.75,543.9,120.29,544.46,121.02z M533.71,114.68V118h3.35c1.64,0,2.46-0.56,2.46-1.68
			c0-1.1-0.82-1.65-2.46-1.65H533.71z M540.37,123.13c0-1.17-0.85-1.75-2.56-1.75h-4.09v3.5h4.09
			C539.51,124.88,540.37,124.29,540.37,123.13z"/>
		<path class="st0" d="M559.39,125.05h-7.29l-1.35,3.35h-4.98l7.61-17.25h4.81l7.64,17.25h-5.08L559.39,125.05z M557.96,121.45
			l-2.22-5.52l-2.22,5.52H557.96z"/>
		<path class="st0" d="M574.74,123.82h-2.66v4.58h-4.88v-17.25h7.89c1.56,0,2.92,0.26,4.07,0.78c1.15,0.52,2.04,1.26,2.66,2.22
			c0.62,0.96,0.94,2.09,0.94,3.39c0,1.25-0.29,2.34-0.88,3.26s-1.42,1.66-2.5,2.18l3.72,5.42h-5.22L574.74,123.82z M577.06,115.66
			c-0.51-0.44-1.26-0.67-2.27-0.67h-2.71v5.05h2.71c1,0,1.76-0.22,2.27-0.65c0.51-0.44,0.76-1.06,0.76-1.86
			S577.56,116.1,577.06,115.66z"/>
		<path class="st0" d="M592.97,123.82h-2.66v4.58h-4.88v-17.25h7.89c1.56,0,2.92,0.26,4.07,0.78c1.15,0.52,2.04,1.26,2.66,2.22
			c0.62,0.96,0.94,2.09,0.94,3.39c0,1.25-0.29,2.34-0.88,3.26s-1.42,1.66-2.5,2.18l3.72,5.42h-5.22L592.97,123.82z M595.29,115.66
			c-0.51-0.44-1.26-0.67-2.27-0.67h-2.71v5.05h2.71c1,0,1.76-0.22,2.27-0.65c0.51-0.44,0.76-1.06,0.76-1.86
			S595.8,116.1,595.29,115.66z"/>
		<path class="st0" d="M603.67,111.15h4.88v17.25h-4.88V111.15z"/>
		<path class="st0" d="M623.58,125.05h-7.29l-1.35,3.35h-4.98l7.61-17.25h4.81l7.64,17.25h-5.08L623.58,125.05z M622.15,121.45
			l-2.22-5.52l-2.22,5.52H622.15z"/>
		<path class="st0" d="M631.39,111.15h4.88v13.38h8.23v3.87h-13.11V111.15z"/>
	</g>
</g>
</svg>
