<?xml version="1.0" encoding="utf-8"?>
<!-- Generator: Adobe Illustrator 24.0.0, SVG Export Plug-In . SVG Version: 6.00 Build 0)  -->
<svg version="1.1" xmlns="http://www.w3.org/2000/svg" xmlns:xlink="http://www.w3.org/1999/xlink" x="0px" y="0px"
	 viewBox="0 0 750 500" style="enable-background:new 0 0 750 500;" xml:space="preserve">
<style type="text/css">
	.st0{fill:#323247;}
	.st1{font-family:'Montserrat-Black';}
	.st2{font-size:25.4399px;}
	.st3{fill:#B83D5D;}
	.st4{fill:#E3B5AA;}
	.st5{fill:#D78F97;}
	.st6{fill:none;stroke:#C87E84;stroke-width:0.5;stroke-miterlimit:10;}
	.st7{fill:#C87E84;}
	.st8{fill:none;stroke:#B83D5D;stroke-miterlimit:10;}
	.st9{fill:#36364F;}
	.st10{fill:none;stroke:#FFFFFF;stroke-width:4;stroke-miterlimit:10;}
	.st11{fill:#9A304F;}
	.st12{fill:#C33E5D;}
	.st13{fill:#EBA154;}
	.st14{opacity:0.5;fill:#D9751F;}
	.st15{fill:none;stroke:#DC831E;stroke-width:3;stroke-miterlimit:10;}
	.st16{fill:#FFFFFF;}
	.st17{font-family:'Montserrat-Bold';}
	.st18{font-size:44.386px;}
	.st19{fill:#80ABBD;}
	.st20{fill:#4B7195;}
	.st21{opacity:0.4;fill:#5A93A0;}
	.st22{opacity:0.4;fill:#A3D5E6;}
	.st23{fill:#47547C;}
	.st24{opacity:0.5;fill:#2B2B3F;}
	.st25{fill:none;stroke:#FD783D;stroke-miterlimit:10;stroke-dasharray:4;}
	.st26{fill:#49496B;}
	.st27{font-size:18.4267px;}
	.st28{fill:#64648E;}
	.st29{fill:none;stroke:#FD783D;stroke-miterlimit:10;}
	.st30{fill:none;stroke:#FD783D;stroke-miterlimit:10;stroke-dasharray:3.8274,3.8274;}
	.st31{fill:none;stroke:#FD783D;stroke-miterlimit:10;stroke-dasharray:4.1156,4.1156;}
	.st32{fill:none;stroke:#FD783D;stroke-miterlimit:10;stroke-dasharray:3.8948,3.8948;}
	.st33{font-size:15.6111px;}
	.st34{font-size:13.8438px;}
	.st35{fill:#54B3CD;}
	.st36{fill:none;stroke:#FD783D;stroke-miterlimit:10;stroke-dasharray:3.3763,3.3763;}
	.st37{fill:none;stroke:#FD783D;stroke-miterlimit:10;stroke-dasharray:3.8091,3.8091;}
	.st38{fill:none;stroke:#FD783D;stroke-miterlimit:10;stroke-dasharray:4.057,4.057;}
	.st39{font-size:26.4103px;}
	.st40{fill:#FD783D;}
	.st41{fill:none;stroke:#FD783D;stroke-miterlimit:10;stroke-dasharray:5.071,5.071;}
	.st42{fill:none;stroke:#FD783D;stroke-miterlimit:10;stroke-dasharray:3.7405,3.7405;}
	.st43{fill:none;stroke:#FD783D;stroke-miterlimit:10;stroke-dasharray:3.3959,3.3959;}
	.st44{fill:#0C8068;}
	.st45{fill:none;stroke:#0A6D53;stroke-miterlimit:10;}
	.st46{opacity:0.5;fill:#0A6D53;}
	.st47{fill:#159A7A;}
	.st48{fill:none;stroke:#0C8068;stroke-miterlimit:10;}
	.st49{opacity:0.5;fill:#0C8068;}
	.st50{fill:#DC831E;}
</style>
<g id="BACKGROUND">
</g>
<g id="OBJECTS">
	<g>
		<text transform="matrix(1 0 0 1 312.2244 315.8676)" class="st0 st1 st2">&lt;/&gt;</text>
	</g>
	<g>
		<path class="st3" d="M466.06,221.79c-1.49,32.66-33.6,57.69-57.65,59.21c-31.78,2-54.49-26.66-57.65-59.21
			c-2.74-28.19,7.27-27.77,14.73-39.53c9.04-14.24,25.88-22.11,42.92-22.11C440.25,160.15,468.07,177.84,466.06,221.79z"/>
		<rect x="386.06" y="277.95" class="st4" width="44.69" height="55.94"/>
		<g>
			<g>
				<path class="st4" d="M458.6,245.32c7.97-12.1,18.11-12.63,22.35,1.68c4.23,14.31-9.74,26.08-21.12,21.73
					C448.44,264.38,458.6,245.32,458.6,245.32z"/>
				<path class="st5" d="M468.01,245.63c5.34-0.98,8.08,14.93-3.63,15.46l2.41-5.55l-2.26-4.62L468.01,245.63z"/>
				<path class="st6" d="M462.62,263.27c6.83-7.27,1.9-12.35,1.9-12.35s6.5-13.32,9.1-3.11"/>
			</g>
		</g>
		<g>
			<g>
				<path class="st4" d="M357.84,245.32c-7.97-12.1-18.11-12.63-22.35,1.68c-4.23,14.31,9.74,26.08,21.12,21.73
					C367.99,264.38,357.84,245.32,357.84,245.32z"/>
				<path class="st5" d="M348.43,245.63c-5.34-0.98-8.08,14.93,3.63,15.46l-2.41-5.55l2.26-4.62L348.43,245.63z"/>
				<path class="st6" d="M353.81,263.27c-6.83-7.27-1.9-12.35-1.9-12.35s-6.5-13.32-9.1-3.11"/>
			</g>
		</g>
		<path class="st7" d="M430.75,279.18v20.81c-16.06,21.76-44.69,14.69-44.69,14.69l0.5-35.5H430.75z"/>
		<path class="st4" d="M408.41,303.03L408.41,303.03c-26.68,0-48.3-21.62-48.3-48.3v-35.3c0-18.02,14.61-32.62,32.62-32.62h31.35
			c18.02,0,32.62,14.61,32.62,32.62v35.3C456.71,281.4,435.08,303.03,408.41,303.03z"/>
		<path class="st8" d="M415.84,261.04c0,4.1-3.33,7.43-7.43,7.43c-4.1,0-7.43-3.33-7.43-7.43"/>
		<path class="st3" d="M365.21,188.97c0,0-8.46-14.02,2.14-26.39C367.34,162.58,374.96,176.68,365.21,188.97z"/>
		<path class="st3" d="M369.51,185.64c0,0-11.78,11.38-26.2,3.81C343.31,189.45,355.35,178.88,369.51,185.64z"/>
		<path class="st9" d="M389.22,243.71c0,3.99-1.7,7.23-3.8,7.23s-3.8-3.24-3.8-7.23c0-3.99,1.7-7.23,3.8-7.23
			S389.22,239.71,389.22,243.71z"/>
		
			<ellipse transform="matrix(0.2622 -0.965 0.965 0.2622 48.261 549.4594)" class="st10" cx="383.46" cy="243.17" rx="19.42" ry="19.42"/>
		<path class="st9" d="M435.18,243.71c0,3.99-1.7,7.23-3.8,7.23s-3.8-3.24-3.8-7.23c0-3.99,1.7-7.23,3.8-7.23
			S435.18,239.71,435.18,243.71z"/>
		
			<ellipse transform="matrix(0.2669 -0.9637 0.9637 0.2669 83.3288 595.8837)" class="st10" cx="433.35" cy="243.17" rx="19.42" ry="19.42"/>
		<path class="st3" d="M366.09,200.59c0,0,30.68-16.18,51.07-4.45c20.39,11.72,22.68,35.94,42.82,29.67c0,0,15.29-6.73-1.53-30.18
			s-28.33-28.04-50.23-22.94S372.08,181.76,366.09,200.59z"/>
		<path class="st11" d="M364.92,200.36c0,0,10.13-13.43,24.31-16.98c14.18-3.55,29.86,13.89,29.86,13.89
			S382.76,192.09,364.92,200.36z"/>
		<path class="st3" d="M360.18,217.25c0,0,3.42,24.93,0,40.14C360.18,257.39,355.19,218.74,360.18,217.25z"/>
		<path class="st3" d="M456.35,217.25c0,0-3.42,24.93,0,40.14C456.35,257.39,461.35,218.74,456.35,217.25z"/>
		<path class="st3" d="M394.08,215.31c-5.27-2.52-14.64-5.29-23.33,0.89c-1.46,1.04-0.9,3.33,0.86,3.63
			c2.79,0.48,6.78,0.98,11.31,0.95c3.52-0.02,7.68-0.89,10.79-1.69C395.54,218.63,395.79,216.12,394.08,215.31z"/>
		<path class="st3" d="M444.98,215.31c-5.27-2.52-14.64-5.29-23.33,0.89c-1.46,1.04-0.9,3.33,0.86,3.63
			c2.79,0.48,6.78,0.98,11.31,0.95c3.52-0.02,7.68-0.89,10.79-1.69C446.43,218.63,446.68,216.12,444.98,215.31z"/>
		<g>
			<g>
				<path class="st12" d="M424.74,278.49c-0.5,0.89-1.09,1.83-1.9,2.76c-2.58,3.11-6.97,6.09-14.48,6.23l-0.01,0.03l-0.55-0.01
					l-0.02-0.04c-7.04-0.14-11.38-2.79-14-5.71c-1.01-1.1-1.78-2.26-2.34-3.31c-1.25-2.4-1.58-4.29-1.58-4.29l36.47,0.07
					C426.34,274.22,426.03,276.1,424.74,278.49z"/>
			</g>
			<path class="st9" d="M424.74,278.49c-0.5,0.89-1.09,1.83-1.9,2.76c-8.37-3.68-18.44-4.45-29.06,0.5
				c-1.01-1.1-1.78-2.26-2.34-3.31c-1.25-2.4-1.58-4.29-1.58-4.29l36.47,0.07C426.34,274.22,426.03,276.1,424.74,278.49z"/>
		</g>
		<path class="st13" d="M563.43,472.85l-326.96,0.34c0,0,6.1-12.76,14.88-29.67c0.65-1.25,1.32-2.53,2-3.83
			c11.99-22.87,28.12-51.76,40.71-67.43c14.5-18.04,48.76-30.9,72.03-37.93c13.56-4.09,23.38-6.2,23.38-6.2h37.56
			c0,0,8.82,1.89,21.28,5.58c23.25,6.87,58.01,20.97,74.13,38.55c3.54,3.86,6.87,8.53,9.99,13.71
			C552.27,418.94,563.43,472.85,563.43,472.85z"/>
		<path class="st14" d="M563.43,472.85l-326.96,0.34c0,0,6.1-12.76,14.88-29.67c163.16,47.96,249.14-30.64,268.76-51.92
			c3.17-3.44,7.57-5.5,12.24-5.63l0.08,0C552.27,418.94,563.43,472.85,563.43,472.85z"/>
		<line class="st10" x1="403.28" y1="246.47" x2="413.53" y2="246.47"/>
		<path class="st4" d="M448.31,333.7c-40.47,44.53-82.22,0.63-82.22,0.63c13.56-4.1,23.38-6.21,23.38-6.21h37.56
			C427.03,328.12,435.85,330.02,448.31,333.7z"/>
		<g>
			<line class="st15" x1="319.04" y1="422.46" x2="319.04" y2="473.25"/>
			<line class="st15" x1="319.04" y1="454.83" x2="305.41" y2="437.45"/>
		</g>
		<g>
			<line class="st15" x1="496.84" y1="422.46" x2="496.84" y2="473.25"/>
			<line class="st15" x1="496.84" y1="454.83" x2="508.95" y2="439.39"/>
		</g>
		<path class="st15" d="M364.15,353.66c0,0,50.18,34.27,84.16-1.66"/>
		<text transform="matrix(1 0 0 1 451.7164 424.131)" class="st16 st17 st18">x</text>
		<path class="st3" d="M364.93,179.59c11.27-47.36,124.15-42.15,103.15,50.06c-6.29,27.62-52.3-62.79-92.01-40.61
			c-2.97,1.66-6.67,1.23-9.15-1.09l0,0C364.64,185.82,364.2,182.63,364.93,179.59z"/>
	</g>
	<g>
		<g>
			<path class="st19" d="M426.93,472.88c-0.03,0.01-0.07,0.02-0.11,0.02c-0.27,0.03-0.55,0.04-0.83,0.04H207
				c-2.91,0-5.5-1.35-7.19-3.47c-1.26-1.57-2.01-3.57-2.01-5.74l-0.03-0.1l-34.1-96.35c-2.61-7.36,2.85-15.09,10.66-15.09h142.18
				c4.8,0,9.07,3.02,10.67,7.54l36.75,103.82c0.04,0.12,0.06,0.18,0.06,0.18h62.21C431.91,463.73,432.54,472.27,426.93,472.88z"/>
			
				<ellipse transform="matrix(0.9456 -0.3252 0.3252 0.9456 -121.713 103.2589)" class="st16" cx="248.03" cy="415.71" rx="16.49" ry="20.02"/>
			<path class="st20" d="M426.2,463.73h-62.21c0,0-0.02-0.06-0.05-0.18l-36.76-103.82c-1.6-4.52-5.87-7.53-10.67-7.53h-4.75
				c0,0,10.62,0.69,13.28,10.2c2.66,9.5,38.95,110.35,38.95,110.35l2.68,0.2h59.31c0.29,0,0.57-0.01,0.84-0.04
				C432.55,472.38,431.95,463.73,426.2,463.73z"/>
		</g>
		<path class="st21" d="M426.93,472.88c-0.03,0.01-0.07,0.02-0.11,0.02c-0.27,0.03-0.55,0.04-0.83,0.04H207
			c-2.91,0-5.5-1.35-7.19-3.47c129.44,11.12,116.7-117.28,116.7-117.28c4.8,0,9.07,3.02,10.67,7.54l36.75,103.82
			c0.04,0.12,0.06,0.18,0.06,0.18h61.23C425.88,466.76,426.46,469.81,426.93,472.88z"/>
	</g>
	<g>
		<g>
			<g>
				<g>
					<path class="st20" d="M166.53,409.33v3.22c-5.83,0.67-7.25,5.59-7.25,11.59v1.98c0,6,1.43,10.92,7.25,11.59v3.21H55.14
						c-4.57,0-8.27-3.7-8.27-8.27v-15.03c0-4.57,3.7-8.29,8.27-8.29H166.53z"/>
					<path class="st16" d="M164.8,434.42c0.67,1.58-0.56,3.3-2.26,3.3l-106.45,0.08v-25.32l106.45,0.08c0.62,0,1.18,0.23,1.6,0.6
						c0.74,0.62,1.08,1.69,0.67,2.7c-0.88,2.11-0.85,5.04-0.85,8.29v1.98C163.95,429.38,163.91,432.31,164.8,434.42z"/>
					<path class="st22" d="M164.13,413.16c-2.05,0.11-96.11,4.97-102.56,14.12c-1.75,2.48-3.73,3.86-5.49,4.14v-18.93l106.45,0.08
						C163.16,412.55,163.71,412.79,164.13,413.16z"/>
				</g>
				<path class="st20" d="M61.57,440.93h-9.36c-2.95,0-5.34-2.39-5.34-5.34v-20.9c0-2.95,2.39-5.34,5.34-5.34h9.36V440.93z"/>
				<path class="st22" d="M164.8,434.42c0.67,1.58-0.56,3.3-2.26,3.3l-21.25,0.02c16.88-1.92,15.83-15.79,15.83-15.79
					c0.19-0.67-13.34-8.8-13.11-9.41l18.53,0.02c0.62,0,1.18,0.23,1.6,0.6c0.74,0.62,1.08,1.69,0.67,2.7
					c-0.88,2.11-0.85,5.04-0.85,8.29v1.98C163.95,429.38,163.91,432.31,164.8,434.42z"/>
			</g>
			<g>
				<rect x="61.75" y="423.29" class="st22" width="102.19" height="2.28"/>
				<rect x="61.75" y="418.15" class="st22" width="102.19" height="2.28"/>
				<rect x="61.75" y="429.83" class="st22" width="102.19" height="2.28"/>
			</g>
			<polygon class="st12" points="131.03,433.07 125.6,427.65 120.16,433.07 120.16,418.15 131.03,418.15 			"/>
		</g>
		<g>
			<g>
				<g>
					<path class="st12" d="M178.45,440.82v3.22c-5.83,0.67-7.25,5.59-7.25,11.59v1.98c0,6,1.43,10.92,7.25,11.59v3.21H67.06
						c-4.57,0-8.27-3.7-8.27-8.27v-15.03c0-4.57,3.7-8.29,8.27-8.29H178.45z"/>
					<path class="st16" d="M176.71,465.9c0.67,1.58-0.56,3.3-2.26,3.3L68,469.28v-25.32l106.45,0.08c0.62,0,1.18,0.23,1.6,0.6
						c0.74,0.62,1.08,1.69,0.67,2.7c-0.88,2.11-0.85,5.04-0.85,8.29v1.98C175.86,460.87,175.83,463.8,176.71,465.9z"/>
					<path class="st22" d="M176.05,444.64c-2.05,0.11-96.11,4.97-102.56,14.12c-1.75,2.48-3.73,3.86-5.49,4.14v-18.93l106.45,0.08
						C175.07,444.04,175.63,444.27,176.05,444.64z"/>
				</g>
				<path class="st12" d="M73.49,472.42h-9.36c-2.95,0-5.34-2.39-5.34-5.34v-20.9c0-2.95,2.39-5.34,5.34-5.34h9.36V472.42z"/>
				<path class="st22" d="M176.71,465.9c0.67,1.58-0.56,3.3-2.26,3.3l-21.25,0.02c16.88-1.92,15.83-15.79,15.83-15.79
					c0.19-0.67-13.34-8.8-13.11-9.41l18.53,0.02c0.62,0,1.18,0.23,1.6,0.6c0.74,0.62,1.08,1.69,0.67,2.7
					c-0.88,2.11-0.85,5.04-0.85,8.29v1.98C175.86,460.87,175.83,463.8,176.71,465.9z"/>
			</g>
			<g>
				<rect x="73.67" y="454.77" class="st22" width="102.19" height="2.28"/>
				<rect x="73.67" y="449.63" class="st22" width="102.19" height="2.28"/>
				<rect x="73.67" y="461.31" class="st22" width="102.19" height="2.28"/>
			</g>
			<polygon class="st12" points="164.68,466.54 158.94,460.81 153.2,466.54 153.2,450.78 164.68,450.78 			"/>
		</g>
	</g>
	<g>
		<path class="st23" d="M717.85,486.14v2.31c0,7.06-5.73,12.78-12.79,12.78H51.02c-5.95,0-10.95-4.06-12.38-9.55
			c0-0.01,0-0.02-0.01-0.03c-0.26-1.03-0.4-2.1-0.4-3.2v-2.31c0-7.06,5.72-12.78,12.79-12.78h654.04
			C712.12,473.36,717.85,479.08,717.85,486.14z"/>
		<path class="st24" d="M717.85,486.14v2.31c0,7.06-5.73,12.78-12.79,12.78H51.02c-5.95,0-10.95-4.06-12.38-9.55
			c0-0.01,0-0.02-0.01-0.03c-0.27-2.05-0.4-3.2-0.4-3.2c366.75,12.78,666.83-15.09,666.83-15.09
			C712.12,473.36,717.85,479.08,717.85,486.14z"/>
	</g>
	<g>
		<path class="st13" d="M701.54,135.73c0-0.08,0.01-0.16,0.01-0.24c0-0.08-0.01-0.16-0.01-0.23c1.2-0.55,2.4-1.19,3.59-1.96
			c1.27-0.87,2.56-1.88,3.76-3.04l-0.26-1.02c-0.25-1.16-0.7-2.27-1.1-3.38c-0.23-0.54-0.5-1.07-0.76-1.6
			c-0.24-0.55-0.53-1.06-0.85-1.56l-0.54-0.89c-1.63,0.01-3.29,0.22-4.8,0.5c-1.36,0.28-2.68,0.69-3.91,1.16l-0.33-0.33
			c0.46-1.24,0.87-2.55,1.15-3.91c0.29-1.51,0.5-3.16,0.51-4.8l-0.89-0.54c-0.5-0.32-1.02-0.61-1.56-0.85
			c-0.53-0.26-1.06-0.53-1.61-0.76c-1.11-0.41-2.22-0.85-3.37-1.1l-1.02-0.26c-1.15,1.2-2.16,2.48-3.04,3.76
			c-0.77,1.18-1.4,2.38-1.96,3.59c-0.07,0-0.16-0.02-0.23-0.02c-0.08,0-0.16,0.02-0.24,0.02c-0.54-1.21-1.19-2.41-1.96-3.59
			c-0.86-1.28-1.88-2.56-3.03-3.76l-1.02,0.26c-1.17,0.25-2.27,0.7-3.38,1.1c-0.54,0.23-1.07,0.5-1.61,0.76
			c-0.54,0.24-1.05,0.53-1.56,0.85l-0.89,0.54c0.02,1.63,0.23,3.29,0.51,4.8c0.28,1.36,0.69,2.67,1.16,3.91
			c-0.11,0.11-0.23,0.22-0.33,0.33c-1.24-0.47-2.55-0.87-3.91-1.16c-1.51-0.28-3.17-0.49-4.8-0.5l-0.55,0.89
			c-0.31,0.5-0.6,1.01-0.85,1.56c-0.25,0.53-0.52,1.06-0.75,1.6c-0.42,1.11-0.85,2.23-1.1,3.38l-0.26,1.02
			c1.2,1.16,2.48,2.16,3.76,3.04c1.18,0.77,2.38,1.4,3.58,1.96c0,0.07-0.01,0.15-0.01,0.23c0,0.08,0.01,0.16,0.01,0.24
			c-1.2,0.54-2.4,1.19-3.58,1.96c-1.28,0.86-2.56,1.88-3.76,3.03l0.26,1.02c0.25,1.16,0.69,2.27,1.1,3.38
			c0.23,0.54,0.5,1.07,0.75,1.61c0.25,0.54,0.54,1.05,0.85,1.55l0.55,0.9c1.62-0.01,3.29-0.22,4.8-0.5
			c1.36-0.28,2.67-0.69,3.91-1.16c0.1,0.11,0.22,0.23,0.33,0.33c-0.47,1.24-0.87,2.55-1.16,3.91c-0.28,1.51-0.49,3.17-0.51,4.8
			l0.89,0.55c0.51,0.31,1.02,0.6,1.56,0.84c0.54,0.26,1.07,0.53,1.61,0.76c1.11,0.42,2.22,0.85,3.38,1.1l1.02,0.26
			c1.14-1.2,2.16-2.48,3.03-3.76c0.77-1.18,1.42-2.38,1.96-3.59c0.08,0.01,0.16,0.02,0.24,0.02c0.07,0,0.16-0.01,0.23-0.02
			c0.55,1.21,1.19,2.41,1.96,3.59c0.87,1.28,1.88,2.56,3.04,3.76l1.02-0.26c1.16-0.25,2.26-0.69,3.37-1.1
			c0.55-0.23,1.08-0.5,1.61-0.76c0.54-0.24,1.06-0.53,1.56-0.84l0.89-0.55c-0.01-1.62-0.22-3.29-0.51-4.8
			c-0.27-1.36-0.69-2.67-1.15-3.91c0.11-0.1,0.22-0.22,0.33-0.33c1.23,0.47,2.55,0.87,3.91,1.16c1.51,0.28,3.16,0.49,4.8,0.5
			l0.54-0.9c0.32-0.5,0.61-1.01,0.85-1.55c0.26-0.54,0.53-1.07,0.76-1.61c0.41-1.11,0.85-2.23,1.1-3.38l0.26-1.02
			c-1.2-1.14-2.49-2.16-3.76-3.03C703.94,136.92,702.74,136.27,701.54,135.73z M684.3,143.74c-4.56,0-8.25-3.69-8.25-8.25
			c0-4.56,3.69-8.25,8.25-8.25c4.56,0,8.25,3.69,8.25,8.25C692.55,140.05,688.85,143.74,684.3,143.74z"/>
		<polyline class="st25" points="660.64,148.23 604.95,148.23 604.95,203.07 620.41,203.07 		"/>
		<g>
			<rect x="621.74" y="232.42" class="st16" width="30.61" height="5.47"/>
			<rect x="621.74" y="242.55" class="st16" width="47.07" height="5.47"/>
			<rect x="621.74" y="252.67" class="st16" width="16.03" height="5.47"/>
			<rect x="644.31" y="252.67" class="st13" width="16.03" height="5.47"/>
			<rect x="666.08" y="252.67" class="st13" width="23.02" height="5.47"/>
			<rect x="675.12" y="242.55" class="st13" width="13.98" height="5.47"/>
			<rect x="658.49" y="232.42" class="st13" width="30.61" height="5.47"/>
		</g>
		<rect x="699.29" y="196.99" class="st16" width="1.02" height="60.98"/>
	</g>
	<g>
		<rect x="622.21" y="199.23" class="st16" width="31.48" height="5.63"/>
		<rect x="622.21" y="209.64" class="st16" width="48.4" height="5.63"/>
		<rect x="622.21" y="220.05" class="st16" width="16.48" height="5.63"/>
		<rect x="645.43" y="220.05" class="st13" width="16.48" height="5.63"/>
		<rect x="667.81" y="220.05" class="st13" width="23.67" height="5.63"/>
		<rect x="677.11" y="209.64" class="st13" width="14.38" height="5.63"/>
		<rect x="660" y="199.23" class="st13" width="31.48" height="5.63"/>
	</g>
	<g>
		<g>
			<rect x="492.11" y="94.37" class="st26" width="90.59" height="178.02"/>
			<rect x="502.43" y="132.23" class="st16" width="68.02" height="7.22"/>
			<rect x="502.43" y="148.23" class="st16" width="45.02" height="7.22"/>
			<rect x="554.14" y="148.23" class="st13" width="16.31" height="7.22"/>
			<rect x="528.3" y="164.22" class="st13" width="42.15" height="7.22"/>
			<rect x="502.43" y="164.22" class="st16" width="19.74" height="7.22"/>
			<rect x="502.43" y="180.22" class="st16" width="35.95" height="7.22"/>
			<rect x="543.92" y="180.22" class="st13" width="26.53" height="7.22"/>
			<rect x="522.17" y="196.22" class="st13" width="48.28" height="7.22"/>
			<rect x="502.43" y="196.22" class="st16" width="14.59" height="7.22"/>
			<rect x="502.43" y="212.21" class="st16" width="29.19" height="7.22"/>
			<rect x="536.44" y="212.21" class="st13" width="34.01" height="7.22"/>
			<g>
				<g>
					<path class="st13" d="M568.44,254.84v2.03l-7.44,2.83v-1.95l5.21-1.89l-5.21-1.91v-1.94L568.44,254.84z"/>
				</g>
				<g>
					<path class="st13" d="M547.28,252.01v1.94l-5.21,1.91l5.21,1.89v1.95l-7.44-2.83v-2.03L547.28,252.01z"/>
				</g>
				<g>
					<path class="st13" d="M556.08,246.53h2.33l-5.53,15.78h-2.33L556.08,246.53z"/>
				</g>
			</g>
			<g>
				<g>
					<path class="st13" d="M534.26,115.92v2.66l-9.76,3.71v-2.56l6.83-2.48l-6.83-2.5v-2.54L534.26,115.92z"/>
				</g>
				<g>
					<path class="st13" d="M516.32,112.21v2.54l-6.83,2.5l6.83,2.48v2.56l-9.76-3.71v-2.66L516.32,112.21z"/>
				</g>
			</g>
		</g>
		<text transform="matrix(1 0 0 1 492.7012 79.8665)" class="st16 st1 st27">HTML</text>
	</g>
	<g>
		<g>
			<g>
				<path class="st28" d="M72.92,276.75c-1.88-1.84-4.05-3.34-6.41-4.42c-0.04-0.02-0.09-0.04-0.13-0.06
					c-3.32-1.5-6.98-2.22-10.68-2.01c-2.53,0.13-5.08,0.7-7.54,1.74c-0.15,0.06-0.31,0.13-0.46,0.2c-4.41,1.97-7.89,5.18-10.21,9.03
					c-3.7,6.16-4.45,13.96-1.3,21.01c5.11,11.46,18.59,16.62,30.04,11.51c10.5-4.68,15.71-16.4,12.58-27.14
					c-0.28-0.98-0.64-1.95-1.07-2.9C76.55,281.02,74.9,278.68,72.92,276.75z M63.4,307.38c-7.95,3.54-17.3-0.04-20.84-7.99
					c-2.11-4.73-1.69-9.95,0.66-14.15c0.02-0.03,0.03-0.06,0.05-0.1c1.6-2.82,4.09-5.18,7.27-6.6c0.6-0.27,1.2-0.49,1.82-0.68
					c0.06-0.02,0.13-0.04,0.19-0.06c3.16-0.92,6.43-0.81,9.41,0.19c0.01,0,0.02,0.01,0.04,0.01c2.55,0.86,4.88,2.36,6.72,4.41
					c1.08,1.19,1.98,2.57,2.67,4.12c0.43,0.96,0.75,1.94,0.97,2.93C74,296.66,70.39,304.26,63.4,307.38z"/>
			</g>
			<path class="st13" d="M66.51,272.33c2.35,1.08,4.53,2.57,6.41,4.42c1.98,1.94,3.63,4.28,4.83,6.96c0.43,0.95,0.78,1.92,1.07,2.9
				l-6.45,2.86c-0.22-0.99-0.55-1.97-0.97-2.93c-0.69-1.54-1.6-2.92-2.67-4.12c-1.84-2.05-4.17-3.55-6.72-4.41L61.96,278l0,0
				l4.42-5.74"/>
			<line class="st13" x1="66.51" y1="272.33" x2="61.99" y2="278.01"/>
			<path class="st3" d="M61.99,278.01L61.96,278c-2.98-1-6.25-1.11-9.41-0.19c-0.06,0.02-0.13,0.04-0.19,0.06l-4.19-5.88
				c2.46-1.03,5.01-1.6,7.54-1.74c3.7-0.2,7.36,0.51,10.68,2.01"/>
		</g>
		<g>
			<g>
				<line class="st29" x1="58.78" y1="315.71" x2="58.78" y2="317.71"/>
				<line class="st30" x1="58.78" y1="321.54" x2="58.78" y2="350.25"/>
				<polyline class="st29" points="58.78,352.16 58.78,354.16 60.78,354.16 				"/>
				<line class="st31" x1="64.9" y1="354.16" x2="120.46" y2="354.16"/>
				<polyline class="st29" points="122.52,354.16 124.52,354.16 124.52,352.16 				"/>
				<line class="st32" x1="124.52" y1="348.27" x2="124.52" y2="319.06"/>
				<line class="st29" x1="124.52" y1="317.11" x2="124.52" y2="315.11"/>
			</g>
		</g>
		<g>
			<rect x="100.53" y="83.3" class="st26" width="192.85" height="229.92"/>
			<rect x="100.53" y="72.1" class="st28" width="192.85" height="29.18"/>
			<g>
				<g>
					<path class="st13" d="M271.06,297.4v1.89l-6.93,2.64v-1.82l4.85-1.76l-4.85-1.78v-1.81L271.06,297.4z"/>
				</g>
				<g>
					<path class="st13" d="M251.34,294.76v1.81l-4.85,1.78l4.85,1.76v1.82l-6.93-2.64v-1.89L251.34,294.76z"/>
				</g>
				<text transform="matrix(1 0 0 1 254.9062 302.7985)" class="st13 st17 st33">/</text>
			</g>
			<g>
				<g>
					<path class="st13" d="M146.22,119.88v2.36l-8.65,3.29v-2.27l6.05-2.2l-6.05-2.22v-2.25L146.22,119.88z"/>
				</g>
				<g>
					<path class="st13" d="M130.32,116.59v2.25l-6.05,2.22l6.05,2.2v2.27l-8.65-3.29v-2.36L130.32,116.59z"/>
				</g>
			</g>
			<text transform="matrix(1 0 0 1 112.2289 92.8727)" class="st16 st17 st34">WEB DEVELOPING</text>
			<g>
				<g>
					<rect x="133.87" y="139.55" class="st35" width="56.69" height="10.38"/>
					<rect x="198.54" y="139.55" class="st13" width="28.34" height="10.38"/>
					<rect x="233.41" y="139.55" class="st16" width="39.04" height="10.38"/>
					<rect x="133.87" y="158.09" class="st35" width="26.46" height="10.38"/>
					<rect x="167.52" y="158.09" class="st13" width="45.19" height="10.38"/>
					<rect x="220.08" y="158.09" class="st16" width="52.37" height="10.38"/>
					<rect x="133.87" y="176.62" class="st35" width="34.83" height="10.38"/>
					<rect x="174.36" y="176.62" class="st13" width="65.51" height="10.38"/>
					<rect x="246.89" y="176.62" class="st16" width="25.56" height="10.38"/>
					<rect x="133.87" y="195.16" class="st35" width="43.91" height="10.38"/>
					<rect x="184.26" y="195.16" class="st13" width="42.62" height="10.38"/>
					<rect x="233.41" y="195.16" class="st16" width="39.04" height="10.38"/>
					<rect x="133.87" y="213.69" class="st35" width="19.26" height="10.38"/>
					<rect x="159.6" y="213.69" class="st13" width="38.16" height="10.38"/>
					<rect x="203.7" y="213.69" class="st16" width="68.75" height="10.38"/>
					<rect x="133.87" y="232.22" class="st35" width="55.07" height="10.38"/>
					<rect x="195.78" y="232.22" class="st13" width="16.93" height="10.38"/>
					<rect x="220.08" y="232.22" class="st16" width="52.37" height="10.38"/>
					<rect x="133.87" y="250.76" class="st35" width="71.71" height="10.38"/>
					<rect x="211.62" y="250.76" class="st13" width="29.34" height="10.38"/>
					<rect x="246.89" y="250.76" class="st16" width="25.56" height="10.38"/>
					<rect x="133.87" y="269.29" class="st35" width="21.96" height="10.38"/>
					<rect x="162.21" y="269.29" class="st13" width="26.73" height="10.38"/>
					<rect x="195.78" y="269.29" class="st16" width="76.67" height="10.38"/>
				</g>
				<rect x="280.03" y="139.55" class="st16" width="2.11" height="140.12"/>
				<circle class="st16" cx="116.04" cy="144.74" r="5.19"/>
				<circle class="st16" cx="116.04" cy="163.28" r="5.19"/>
				<circle class="st16" cx="116.04" cy="181.81" r="5.19"/>
				<circle class="st16" cx="116.04" cy="200.35" r="5.19"/>
				<circle class="st16" cx="116.04" cy="218.88" r="5.19"/>
				<circle class="st16" cx="116.04" cy="237.41" r="5.19"/>
				<circle class="st16" cx="116.04" cy="255.95" r="5.19"/>
				<circle class="st16" cx="116.04" cy="274.48" r="5.19"/>
			</g>
			<path class="st3" d="M284.79,88.3c0,2.92-2.37,5.29-5.29,5.29c-2.92,0-5.29-2.37-5.29-5.29c0-2.92,2.37-5.29,5.29-5.29
				C282.42,83,284.79,85.37,284.79,88.3z"/>
		</g>
		<path class="st16" d="M271.7,88.19c0,2.95-2.39,5.33-5.33,5.33c-2.95,0-5.33-2.39-5.33-5.33c0-2.95,2.39-5.33,5.33-5.33
			C269.31,82.86,271.7,85.24,271.7,88.19z"/>
	</g>
	<g>
		<rect x="319.04" y="110.33" class="st23" width="18.68" height="5.23"/>
		<rect x="319.04" y="101.01" class="st28" width="57.15" height="5.23"/>
		<g>
			<g>
				<line class="st29" x1="352.06" y1="116.56" x2="352.06" y2="118.56"/>
				<line class="st36" x1="352.06" y1="121.94" x2="352.06" y2="133.76"/>
				<polyline class="st29" points="352.06,135.44 352.06,137.44 354.06,137.44 				"/>
				<line class="st37" x1="357.87" y1="137.44" x2="416.91" y2="137.44"/>
				<polyline class="st29" points="418.82,137.44 420.82,137.44 420.82,135.44 				"/>
				<line class="st38" x1="420.82" y1="131.39" x2="420.82" y2="125.3"/>
				<line class="st29" x1="420.82" y1="123.27" x2="420.82" y2="121.27"/>
			</g>
		</g>
		<text transform="matrix(1 0 0 1 319.0419 87.1904)" class="st16 st1 st27">CSS</text>
		<g>
			<g>
				<path class="st28" d="M435.97,99.96c-0.19-0.68-0.44-1.35-0.74-2.01c-0.83-1.86-1.98-3.48-3.35-4.83
					c-1.3-1.28-2.82-2.31-4.45-3.06c-0.03-0.02-0.06-0.03-0.09-0.04c-2.3-1.05-4.84-1.54-7.41-1.4c-1.76,0.1-3.52,0.49-5.23,1.21
					c-0.1,0.05-0.21,0.09-0.32,0.14c-3.06,1.37-5.47,3.59-7.08,6.26c-2,3.32-2.75,7.32-1.97,11.23c0.22,1.13,0.58,2.25,1.06,3.34
					c3.54,7.95,12.9,11.53,20.84,7.98c4.85-2.16,8.07-6.48,9.05-11.33C436.78,105.02,436.7,102.45,435.97,99.96z M425.28,114.37
					c-5.51,2.46-12-0.03-14.46-5.54c-0.2-0.45-0.37-0.91-0.51-1.37c-0.85-2.89-0.44-5.93,0.96-8.44c0.01-0.02,0.02-0.05,0.03-0.07
					c1.11-1.96,2.83-3.59,5.04-4.58c0.42-0.18,0.83-0.34,1.26-0.46c0.04-0.02,0.08-0.03,0.13-0.04c2.19-0.65,4.46-0.56,6.53,0.12
					c0.01,0,0.01,0.01,0.02,0.01c1.77,0.6,3.39,1.64,4.66,3.06c0.75,0.83,1.37,1.78,1.85,2.86c0.3,0.67,0.52,1.35,0.68,2.03
					c0.42,1.86,0.34,3.75-0.18,5.51C430.44,110.43,428.32,113.01,425.28,114.37z"/>
			</g>
			<path class="st3" d="M436.29,107.45h-4.97c0.52-1.76,0.6-3.66,0.18-5.51c-0.16-0.68-0.38-1.36-0.68-2.03
				c-0.48-1.08-1.1-2.03-1.85-2.86c-1.28-1.42-2.89-2.46-4.66-3.06c-0.01,0-0.01-0.01-0.02-0.01c-2.07-0.69-4.34-0.77-6.53-0.12
				c-0.05,0.01-0.09,0.02-0.13,0.04c-0.43,0.12-0.85,0.28-1.26,0.46c-2.21,0.99-3.93,2.62-5.04,4.58c-0.01,0.02-0.03,0.05-0.03,0.07
				c-1.41,2.5-1.82,5.55-0.96,8.44h-4.97c-0.78-3.91-0.03-7.92,1.97-11.23c1.6-2.68,4.02-4.9,7.08-6.26
				c0.1-0.05,0.22-0.09,0.32-0.14c1.71-0.71,3.48-1.11,5.23-1.21c2.57-0.14,5.11,0.35,7.41,1.4c0.03,0.01,0.06,0.02,0.09,0.04
				c1.63,0.75,3.14,1.78,4.45,3.06c1.37,1.35,2.52,2.97,3.35,4.83c0.29,0.66,0.54,1.33,0.74,2.01
				C436.7,102.45,436.78,105.02,436.29,107.45z"/>
		</g>
		<rect x="341.47" y="110.33" class="st28" width="34.73" height="5.23"/>
	</g>
	<g>
		<text transform="matrix(1 0 0 1 48.6607 94.3712)" class="st0 st1 st39">{ }</text>
		<g>
			<rect x="48.51" y="123.95" class="st16" width="20.54" height="9.8"/>
			<rect x="48.51" y="141.07" class="st16" width="20.54" height="9.8"/>
			<rect x="48.51" y="158.2" class="st13" width="20.54" height="9.8"/>
			<rect x="48.51" y="175.32" class="st13" width="20.54" height="9.8"/>
			<rect x="48.51" y="192.44" class="st13" width="20.54" height="9.8"/>
			<rect x="48.51" y="209.57" class="st13" width="20.54" height="9.8"/>
			<rect x="48.51" y="226.69" class="st13" width="20.54" height="9.8"/>
		</g>
	</g>
	<g>
		<path class="st0" d="M649.49,316.69c0-0.07,0.01-0.13,0.01-0.2c0-0.07-0.01-0.13-0.01-0.2c1.02-0.47,2.06-1.01,3.07-1.67
			c1.09-0.75,2.19-1.61,3.21-2.6l-0.22-0.87c-0.21-0.99-0.6-1.94-0.94-2.89c-0.2-0.46-0.43-0.92-0.65-1.37
			c-0.2-0.47-0.45-0.91-0.73-1.33l-0.46-0.77c-1.4,0.01-2.81,0.19-4.1,0.43c-1.17,0.24-2.3,0.59-3.35,0.99l-0.28-0.28
			c0.39-1.06,0.75-2.18,0.98-3.35c0.25-1.29,0.43-2.71,0.44-4.1l-0.77-0.46c-0.43-0.28-0.87-0.52-1.34-0.73
			c-0.45-0.22-0.91-0.45-1.38-0.65c-0.95-0.35-1.9-0.73-2.88-0.94l-0.87-0.22c-0.99,1.02-1.85,2.12-2.6,3.21
			c-0.66,1.01-1.2,2.04-1.67,3.07c-0.06,0-0.13-0.02-0.2-0.02c-0.07,0-0.13,0.02-0.2,0.02c-0.46-1.03-1.01-2.06-1.67-3.07
			c-0.74-1.09-1.61-2.19-2.59-3.21l-0.87,0.22c-1,0.21-1.94,0.6-2.89,0.94c-0.46,0.2-0.92,0.43-1.38,0.65
			c-0.46,0.2-0.9,0.45-1.34,0.73l-0.77,0.46c0.02,1.4,0.2,2.81,0.44,4.1c0.24,1.17,0.59,2.29,0.99,3.35c-0.1,0.1-0.2,0.19-0.28,0.28
			c-1.06-0.4-2.18-0.75-3.35-0.99c-1.29-0.24-2.71-0.42-4.1-0.43l-0.47,0.77c-0.27,0.43-0.52,0.86-0.73,1.33
			c-0.21,0.45-0.44,0.91-0.64,1.37c-0.36,0.95-0.73,1.9-0.94,2.89l-0.22,0.87c1.02,0.99,2.12,1.85,3.21,2.6
			c1.01,0.66,2.04,1.2,3.06,1.67c0,0.06-0.01,0.12-0.01,0.2c0,0.07,0.01,0.13,0.01,0.2c-1.02,0.46-2.06,1.01-3.06,1.67
			c-1.09,0.74-2.19,1.61-3.21,2.59l0.22,0.87c0.21,0.99,0.59,1.94,0.94,2.89c0.2,0.46,0.43,0.92,0.64,1.38
			c0.21,0.46,0.46,0.9,0.73,1.33l0.47,0.77c1.39-0.01,2.81-0.19,4.1-0.43c1.17-0.24,2.29-0.59,3.35-0.99
			c0.09,0.1,0.19,0.2,0.28,0.28c-0.4,1.06-0.75,2.18-0.99,3.35c-0.24,1.29-0.42,2.71-0.44,4.1l0.77,0.47
			c0.44,0.27,0.87,0.52,1.34,0.72c0.46,0.22,0.92,0.45,1.38,0.65c0.95,0.36,1.9,0.73,2.89,0.94l0.87,0.22
			c0.98-1.02,1.85-2.12,2.59-3.21c0.66-1.01,1.21-2.04,1.67-3.07c0.07,0.01,0.13,0.02,0.2,0.02c0.06,0,0.13-0.01,0.2-0.02
			c0.47,1.03,1.01,2.06,1.67,3.07c0.75,1.09,1.61,2.19,2.6,3.21l0.87-0.22c0.99-0.21,1.93-0.59,2.88-0.94
			c0.47-0.2,0.93-0.43,1.38-0.65c0.46-0.2,0.91-0.45,1.34-0.72l0.77-0.47c-0.01-1.39-0.19-2.81-0.44-4.1
			c-0.23-1.17-0.59-2.29-0.98-3.35c0.1-0.09,0.19-0.19,0.28-0.28c1.05,0.4,2.18,0.75,3.35,0.99c1.29,0.24,2.71,0.42,4.1,0.43
			l0.46-0.77c0.28-0.43,0.53-0.86,0.73-1.33c0.22-0.46,0.45-0.92,0.65-1.38c0.35-0.95,0.73-1.9,0.94-2.89l0.22-0.87
			c-1.02-0.98-2.13-1.85-3.21-2.59C651.55,317.7,650.51,317.15,649.49,316.69z M634.74,323.54c-3.9,0-7.06-3.16-7.06-7.06
			c0-3.9,3.16-7.06,7.06-7.06c3.9,0,7.06,3.16,7.06,7.06C641.8,320.38,638.64,323.54,634.74,323.54z"/>
		<g>
			<g>
				<rect x="575.32" y="290.48" class="st3" width="9.32" height="41.97"/>
				<rect x="561.58" y="308.97" class="st28" width="9.99" height="23.48"/>
				<rect x="547.74" y="316.48" class="st40" width="9.99" height="15.96"/>
			</g>
			<g>
				<g>
					<line class="st29" x1="545.97" y1="325.76" x2="543.97" y2="325.76"/>
					<line class="st41" x1="538.9" y1="325.76" x2="531.3" y2="325.76"/>
					<polyline class="st29" points="528.76,325.76 526.76,325.76 526.76,327.76 					"/>
					<line class="st42" x1="526.76" y1="331.5" x2="526.76" y2="359.56"/>
					<polyline class="st29" points="526.76,361.43 526.76,363.43 528.76,363.43 					"/>
					<line class="st43" x1="532.16" y1="363.43" x2="544.04" y2="363.43"/>
					<line class="st29" x1="545.74" y1="363.43" x2="547.74" y2="363.43"/>
				</g>
			</g>
			<g>
				<rect x="550.9" y="361.56" class="st16" width="26.43" height="4.72"/>
				<rect x="550.9" y="370.3" class="st16" width="18.28" height="4.72"/>
				<rect x="550.9" y="379.04" class="st16" width="23.14" height="4.72"/>
				<rect x="578.83" y="379.04" class="st13" width="5.4" height="4.72"/>
				<rect x="589.18" y="379.04" class="st13" width="19.87" height="4.72"/>
				<rect x="575.04" y="370.3" class="st13" width="34.01" height="4.72"/>
				<rect x="582.63" y="361.56" class="st13" width="26.43" height="4.72"/>
			</g>
		</g>
		<g>
			<rect x="682.28" y="313.92" class="st3" width="17.41" height="8.31"/>
			<rect x="682.28" y="328.44" class="st3" width="17.41" height="8.31"/>
			<rect x="682.28" y="342.96" class="st3" width="17.41" height="8.31"/>
			<rect x="682.28" y="357.48" class="st3" width="17.41" height="8.31"/>
			<rect x="682.28" y="372" class="st16" width="17.41" height="8.31"/>
			<rect x="682.28" y="386.52" class="st16" width="17.41" height="8.31"/>
			<rect x="682.28" y="401.04" class="st16" width="17.41" height="8.31"/>
		</g>
	</g>
	<g>
		<g>
			<path class="st44" d="M623.77,433.16c-6.51,0.49-11.96-1.06-16.51-3.88c-18.37-11.37-22.2-43.43-22.47-45.84
				c0.16,0.74,1.97,4.66,21.07,17.51c1.59,1.07,3.04,2.16,4.37,3.26c0,0,0.02,0.02,0.07,0.05
				C626.94,418.04,623.77,433.16,623.77,433.16z"/>
			<path class="st45" d="M584.78,383.3c0,0,17.15,42.09,36.18,46.53"/>
			<path class="st46" d="M623.77,433.16c-6.51,0.49-11.96-1.06-16.51-3.88c3.66-8.65,2.97-25.07,2.97-25.07s0.02,0.02,0.07,0.05
				C626.94,418.04,623.77,433.16,623.77,433.16z"/>
		</g>
		<g>
			<path class="st44" d="M672.53,385.79c-0.07,0.45-0.33,2-0.84,4.29c0,0,0,0,0,0.01c-2.71,12.14-12.49,44.8-38.81,41.52
				c0,0-0.44-2.8,0.44-7c1.3-6.16,5.49-15.34,18.22-23.04C670.42,390.15,672.33,386.48,672.53,385.79z"/>
			<path class="st45" d="M671.68,388.38c0,0-13.51,35-36.94,42.13"/>
			<path class="st46" d="M671.68,390.08C671.68,390.08,671.68,390.08,671.68,390.08c-2.71,12.14-12.49,44.8-38.81,41.53
				c0,0-0.44-2.8,0.44-7h0.03C655.24,425.79,671.68,390.08,671.68,390.08z"/>
		</g>
		<g>
			<path class="st47" d="M631.46,432.78c-0.65,1.13-10.26-2.86-14.59-14.42h0c-2.6-6.94-3.29-16.61,1-29.54
				c11.29-33.94,6.64-40.34,6.5-40.52c0.23,0.11,10.04,4.98,16.36,16.83c0,0,0.01,0.02,0.03,0.05
				C647.71,378.25,650.42,399.79,631.46,432.78z"/>
			<path class="st48" d="M624.36,348.3c0,0,14.72,18.57,9.11,53.89c-5.6,35.32-2.01,30.58-2.01,30.58"/>
			<path class="st49" d="M631.46,432.78c-0.65,1.13-10.26-2.86-14.59-14.42c24.23,6.88,23.86-53.22,23.86-53.22s0.01,0.02,0.03,0.05
				C647.71,378.25,650.42,399.79,631.46,432.78z"/>
		</g>
		<path class="st44" d="M584.77,383.3c0,0,0,0.04,0.01,0.12C584.77,383.34,584.77,383.3,584.77,383.3z"/>
		<path class="st13" d="M650.09,432.27v27.13c0,7.94-6.43,14.37-14.37,14.37h-12.76c-5.2,0-9.75-2.76-12.27-6.89h0
			c-1.33-2.18-2.09-4.74-2.09-7.48v-27.13H650.09z"/>
		<path class="st13" d="M651.59,428.75h-44.51c-0.59,0-1.06,0.47-1.06,1.06v1.4c0,0.58,0.47,1.06,1.06,1.06h44.51
			c0.58,0,1.06-0.47,1.06-1.06v-1.4C652.65,429.23,652.18,428.75,651.59,428.75z"/>
		<path class="st50" d="M650.09,432.27v27.13c0,7.94-6.43,14.37-14.37,14.37h-12.76c-5.2,0-9.75-2.76-12.27-6.89
			c30.39,9.55,36.99-12.8,35.82-21.67c-1.17-8.86-12.12-12.94-12.12-12.94H650.09z"/>
	</g>
</g>
</svg>
