<?xml version="1.0" encoding="utf-8"?>
<!-- Generator: Adobe Illustrator 24.0.0, SVG Export Plug-In . SVG Version: 6.00 Build 0)  -->
<svg version="1.1" id="Capa_1" xmlns="http://www.w3.org/2000/svg" xmlns:xlink="http://www.w3.org/1999/xlink" x="0px" y="0px"
	 viewBox="0 0 358.11 200" style="enable-background:new 0 0 358.11 200;" xml:space="preserve">
<style type="text/css">
	.st0{fill:#FFFFFF;}
	.st1{fill:none;stroke:#FFFFFF;stroke-width:3;stroke-miterlimit:10;}
	.st2{fill:#CCB079;}
</style>
<g>
	<g>
		<g>
			<g>
				<path class="st0" d="M-174.21,79.76v29.72h-5.96V90.15l-7.96,19.33h-4.51l-8-19.33v19.33h-5.96V79.76h6.77l9.45,22.1l9.45-22.1
					H-174.21z"/>
				<path class="st0" d="M-160.25,84.57v7.45h10v4.73h-10v7.88h11.28v4.85h-17.24V79.72h17.24v4.85H-160.25z"/>
				<path class="st0" d="M-122.8,81.59c2.37,1.22,4.2,2.96,5.49,5.22c1.29,2.26,1.94,4.87,1.94,7.85c0,2.98-0.65,5.58-1.94,7.81
					c-1.29,2.23-3.12,3.95-5.49,5.17c-2.37,1.22-5.12,1.83-8.24,1.83h-10.39V79.76h10.39C-127.92,79.76-125.17,80.37-122.8,81.59z
					 M-124.02,101.86c1.7-1.7,2.55-4.1,2.55-7.19c0-3.09-0.85-5.51-2.55-7.26c-1.7-1.75-4.12-2.62-7.24-2.62h-4.21v19.63h4.21
					C-128.13,104.41-125.72,103.56-124.02,101.86z"/>
				<path class="st0" d="M-102.82,104.75h9.79v4.73h-15.75V79.76h5.96V104.75z"/>
				<path class="st0" d="M-68.89,103.81h-11.84l-1.96,5.66h-6.26l10.69-29.76h6.94l10.69,29.76h-6.3L-68.89,103.81z M-70.5,99.05
					l-4.3-12.43l-4.3,12.43H-70.5z"/>
				<path class="st0" d="M-33.51,96.75c1.08,1.36,1.62,2.92,1.62,4.68c0,1.59-0.39,2.99-1.17,4.19c-0.78,1.21-1.91,2.15-3.38,2.83
					c-1.48,0.68-3.22,1.02-5.24,1.02H-54.5V79.76h12.26c2.01,0,3.75,0.33,5.22,0.98c1.46,0.65,2.57,1.56,3.32,2.72
					c0.75,1.16,1.13,2.48,1.13,3.96c0,1.73-0.46,3.18-1.38,4.34c-0.92,1.16-2.15,1.99-3.68,2.47
					C-35.96,94.55-34.59,95.38-33.51,96.75z M-48.54,92.02h5.45c1.42,0,2.51-0.32,3.28-0.96c0.77-0.64,1.15-1.55,1.15-2.75
					c0-1.19-0.38-2.11-1.15-2.77c-0.77-0.65-1.86-0.98-3.28-0.98h-5.45V92.02z M-39.15,103.6c0.81-0.68,1.21-1.65,1.21-2.9
					c0-1.28-0.43-2.28-1.28-3c-0.85-0.72-2-1.09-3.45-1.09h-5.87v8h6C-41.09,104.62-39.96,104.28-39.15,103.6z"/>
			</g>
		</g>
	</g>
	<g>
		<g>
			<g>
				<path class="st0" d="M-205.8,117.21c-0.3,0-0.55,0.06-0.75,0.19c-0.2,0.12-0.29,0.31-0.29,0.56c0,0.25,0.1,0.44,0.29,0.58
					c0.2,0.13,0.61,0.28,1.25,0.43c0.64,0.15,1.11,0.37,1.44,0.65c0.32,0.28,0.48,0.69,0.48,1.23c0,0.54-0.2,0.98-0.61,1.32
					c-0.41,0.34-0.94,0.51-1.61,0.51c-0.97,0-1.83-0.33-2.58-1l0.66-0.79c0.63,0.54,1.28,0.82,1.95,0.82c0.34,0,0.6-0.07,0.8-0.22
					c0.2-0.15,0.3-0.34,0.3-0.58s-0.09-0.43-0.28-0.56c-0.19-0.13-0.51-0.25-0.96-0.36c-0.46-0.11-0.8-0.21-1.04-0.3
					c-0.24-0.09-0.45-0.21-0.63-0.36c-0.37-0.28-0.55-0.7-0.55-1.28c0-0.57,0.21-1.02,0.63-1.33c0.42-0.31,0.93-0.47,1.55-0.47
					c0.4,0,0.79,0.06,1.18,0.2c0.39,0.13,0.73,0.31,1.01,0.55l-0.56,0.79c-0.18-0.17-0.43-0.3-0.75-0.41
					C-205.19,117.26-205.5,117.21-205.8,117.21z"/>
				<path class="st0" d="M-199.08,120.43v-2.55h0.99v4.72h-0.99v-0.86c-0.16,0.29-0.38,0.52-0.66,0.68
					c-0.28,0.17-0.58,0.25-0.91,0.25c-0.53,0-0.96-0.16-1.29-0.49c-0.33-0.33-0.49-0.8-0.49-1.41v-2.89h0.99v2.59
					c0,0.87,0.36,1.3,1.08,1.3c0.34,0,0.64-0.11,0.9-0.34C-199.2,121.2-199.08,120.87-199.08,120.43z"/>
				<path class="st0" d="M-192.3,122.66c-0.66,0-1.22-0.22-1.69-0.67c-0.47-0.45-0.71-1.03-0.71-1.75c0-0.72,0.25-1.31,0.74-1.76
					c0.49-0.45,1.1-0.68,1.81-0.68c0.71,0,1.31,0.25,1.8,0.74l-0.59,0.72c-0.41-0.35-0.82-0.53-1.23-0.53
					c-0.41,0-0.77,0.14-1.08,0.41c-0.3,0.27-0.46,0.63-0.46,1.06c0,0.43,0.15,0.8,0.45,1.1c0.3,0.3,0.67,0.45,1.11,0.45
					c0.44,0,0.86-0.2,1.25-0.6l0.59,0.64C-190.89,122.38-191.55,122.66-192.3,122.66z"/>
				<path class="st0" d="M-185.52,121.96c-0.47,0.47-1.06,0.71-1.77,0.71c-0.71,0-1.3-0.24-1.77-0.71
					c-0.47-0.47-0.71-1.05-0.71-1.73c0-0.68,0.24-1.25,0.71-1.72c0.47-0.47,1.06-0.71,1.77-0.71c0.71,0,1.3,0.24,1.77,0.71
					c0.47,0.47,0.71,1.05,0.71,1.72C-184.81,120.91-185.05,121.49-185.52,121.96z M-188.37,121.35c0.28,0.29,0.64,0.43,1.07,0.43
					c0.43,0,0.79-0.14,1.07-0.43c0.28-0.29,0.42-0.66,0.42-1.11c0-0.46-0.14-0.83-0.42-1.11c-0.28-0.29-0.64-0.43-1.07-0.43
					c-0.43,0-0.79,0.14-1.07,0.43c-0.28,0.29-0.42,0.66-0.42,1.11C-188.79,120.69-188.65,121.06-188.37,121.35z"/>
				<path class="st0" d="M-182.78,120.04v2.55h-0.99v-4.72h0.99v0.86c0.16-0.29,0.38-0.52,0.66-0.68c0.28-0.17,0.58-0.25,0.91-0.25
					c0.53,0,0.96,0.16,1.29,0.49c0.33,0.33,0.49,0.8,0.49,1.41v2.89h-0.99V120c0-0.87-0.36-1.3-1.08-1.3c-0.34,0-0.64,0.11-0.9,0.34
					C-182.66,119.27-182.78,119.6-182.78,120.04z"/>
				<path class="st0" d="M-176.96,117.48v0.39h1.24v0.8h-1.24v3.92h-0.99v-3.92h-0.59v-0.8h0.59v-0.36c0-0.5,0.15-0.89,0.45-1.18
					c0.3-0.29,0.66-0.44,1.08-0.44c0.42,0,0.81,0.16,1.16,0.47l-0.41,0.7c-0.2-0.21-0.4-0.31-0.61-0.31c-0.21,0-0.38,0.07-0.5,0.2
					C-176.9,117.08-176.96,117.26-176.96,117.48z"/>
				<path class="st0" d="M-174.78,116.94c-0.12-0.12-0.19-0.27-0.19-0.44c0-0.17,0.06-0.32,0.19-0.44c0.12-0.12,0.27-0.19,0.44-0.19
					c0.17,0,0.32,0.06,0.44,0.19c0.12,0.12,0.19,0.27,0.19,0.44c0,0.17-0.06,0.32-0.19,0.44c-0.12,0.12-0.27,0.19-0.44,0.19
					C-174.51,117.12-174.66,117.06-174.78,116.94z M-173.85,122.59h-0.99v-4.72h0.99V122.59z"/>
				<path class="st0" d="M-168.68,122.59h-0.9v-0.63c-0.39,0.47-0.91,0.7-1.57,0.7c-0.49,0-0.9-0.14-1.22-0.42
					c-0.32-0.28-0.48-0.65-0.48-1.11c0-0.46,0.17-0.81,0.51-1.04c0.34-0.23,0.81-0.35,1.39-0.35h1.29v-0.18
					c0-0.63-0.35-0.94-1.05-0.94c-0.44,0-0.89,0.16-1.37,0.48l-0.44-0.62c0.57-0.46,1.22-0.68,1.95-0.68c0.56,0,1.01,0.14,1.36,0.42
					c0.35,0.28,0.53,0.72,0.53,1.33V122.59z M-169.67,120.84v-0.4h-1.12c-0.72,0-1.07,0.22-1.07,0.67c0,0.23,0.09,0.41,0.27,0.53
					c0.18,0.12,0.42,0.18,0.74,0.18s0.59-0.09,0.83-0.27C-169.79,121.38-169.67,121.14-169.67,120.84z"/>
				<path class="st0" d="M-166.39,120.04v2.55h-0.99v-4.72h0.99v0.86c0.16-0.29,0.38-0.52,0.66-0.68c0.28-0.17,0.58-0.25,0.91-0.25
					c0.53,0,0.96,0.16,1.29,0.49c0.33,0.33,0.49,0.8,0.49,1.41v2.89h-0.99V120c0-0.87-0.36-1.3-1.08-1.3c-0.34,0-0.64,0.11-0.9,0.34
					C-166.27,119.27-166.39,119.6-166.39,120.04z"/>
				<path class="st0" d="M-161.9,118.74v-0.85h3.69v0.9l-2.65,2.94h2.79v0.86h-4.01v-0.97l2.58-2.88H-161.9z"/>
				<path class="st0" d="M-153.21,122.59h-0.9v-0.63c-0.39,0.47-0.91,0.7-1.57,0.7c-0.49,0-0.9-0.14-1.22-0.42
					c-0.32-0.28-0.48-0.65-0.48-1.11c0-0.46,0.17-0.81,0.51-1.04c0.34-0.23,0.81-0.35,1.39-0.35h1.29v-0.18
					c0-0.63-0.35-0.94-1.05-0.94c-0.44,0-0.89,0.16-1.37,0.48l-0.44-0.62c0.57-0.46,1.22-0.68,1.95-0.68c0.56,0,1.01,0.14,1.36,0.42
					c0.35,0.28,0.53,0.72,0.53,1.33V122.59z M-154.21,120.84v-0.4h-1.12c-0.72,0-1.07,0.22-1.07,0.67c0,0.23,0.09,0.41,0.27,0.53
					c0.18,0.12,0.42,0.18,0.74,0.18s0.59-0.09,0.83-0.27C-154.32,121.38-154.21,121.14-154.21,120.84z"/>
				<path class="st0" d="M-145.19,120.67h-3.7c0.02,0.34,0.18,0.62,0.47,0.83c0.29,0.21,0.62,0.31,0.99,0.31
					c0.59,0,1.04-0.19,1.35-0.56l0.57,0.62c-0.51,0.53-1.17,0.79-1.99,0.79c-0.66,0-1.23-0.22-1.69-0.66
					c-0.46-0.44-0.7-1.03-0.7-1.77c0-0.74,0.24-1.33,0.71-1.77c0.47-0.44,1.03-0.66,1.67-0.66c0.64,0,1.19,0.19,1.64,0.58
					c0.45,0.39,0.67,0.92,0.67,1.6V120.67z M-148.88,119.89h2.71c0-0.4-0.12-0.7-0.37-0.91c-0.25-0.21-0.55-0.32-0.92-0.32
					c-0.36,0-0.69,0.11-0.98,0.33C-148.74,119.21-148.88,119.51-148.88,119.89z"/>
				<path class="st0" d="M-140.82,121.18c0,0.45-0.16,0.81-0.49,1.08c-0.33,0.27-0.74,0.4-1.25,0.4c-0.34,0-0.7-0.06-1.07-0.19
					c-0.37-0.12-0.7-0.3-0.98-0.52l0.48-0.77c0.55,0.41,1.08,0.62,1.6,0.62c0.22,0,0.4-0.05,0.53-0.16c0.13-0.1,0.2-0.24,0.2-0.39
					c0-0.24-0.31-0.45-0.94-0.64c-0.05-0.02-0.08-0.03-0.11-0.04c-0.98-0.27-1.47-0.71-1.47-1.33c0-0.44,0.17-0.79,0.51-1.05
					c0.34-0.26,0.78-0.39,1.33-0.39c0.54,0,1.06,0.16,1.54,0.48l-0.37,0.74c-0.38-0.25-0.8-0.38-1.25-0.38
					c-0.24,0-0.43,0.04-0.58,0.13c-0.15,0.09-0.22,0.21-0.22,0.39c0,0.15,0.08,0.27,0.23,0.34c0.11,0.05,0.26,0.1,0.45,0.15
					c0.19,0.05,0.36,0.09,0.51,0.14c0.15,0.05,0.29,0.1,0.43,0.16c0.14,0.06,0.29,0.14,0.45,0.25
					C-140.98,120.4-140.82,120.73-140.82,121.18z"/>
				<path class="st0" d="M-136.45,120.04v2.55h-0.99v-4.72h0.99v0.86c0.16-0.29,0.38-0.52,0.66-0.68c0.28-0.17,0.58-0.25,0.91-0.25
					c0.53,0,0.96,0.16,1.29,0.49c0.33,0.33,0.49,0.8,0.49,1.41v2.89h-0.99V120c0-0.87-0.36-1.3-1.08-1.3c-0.34,0-0.64,0.11-0.9,0.34
					C-136.32,119.27-136.45,119.6-136.45,120.04z"/>
				<path class="st0" d="M-128.5,120.43v-2.55h0.99v4.72h-0.99v-0.86c-0.16,0.29-0.38,0.52-0.66,0.68
					c-0.28,0.17-0.58,0.25-0.91,0.25c-0.53,0-0.96-0.16-1.29-0.49c-0.33-0.33-0.49-0.8-0.49-1.41v-2.89h0.99v2.59
					c0,0.87,0.36,1.3,1.08,1.3c0.34,0,0.64-0.11,0.9-0.34C-128.63,121.2-128.5,120.87-128.5,120.43z"/>
				<path class="st0" d="M-121.77,120.67h-3.7c0.02,0.34,0.18,0.62,0.47,0.83c0.29,0.21,0.62,0.31,0.99,0.31
					c0.59,0,1.04-0.19,1.35-0.56l0.57,0.62c-0.51,0.53-1.17,0.79-1.99,0.79c-0.66,0-1.23-0.22-1.69-0.66
					c-0.46-0.44-0.7-1.03-0.7-1.77c0-0.74,0.24-1.33,0.71-1.77c0.47-0.44,1.03-0.66,1.67-0.66c0.64,0,1.19,0.19,1.64,0.58
					c0.45,0.39,0.67,0.92,0.67,1.6V120.67z M-125.47,119.89h2.71c0-0.4-0.12-0.7-0.37-0.91c-0.25-0.21-0.55-0.32-0.92-0.32
					c-0.36,0-0.69,0.11-0.98,0.33C-125.33,119.21-125.47,119.51-125.47,119.89z"/>
				<path class="st0" d="M-117.41,121.18c0,0.45-0.16,0.81-0.49,1.08c-0.33,0.27-0.74,0.4-1.25,0.4c-0.34,0-0.7-0.06-1.07-0.19
					c-0.37-0.12-0.7-0.3-0.98-0.52l0.48-0.77c0.55,0.41,1.08,0.62,1.6,0.62c0.22,0,0.4-0.05,0.53-0.16c0.13-0.1,0.2-0.24,0.2-0.39
					c0-0.24-0.31-0.45-0.94-0.64c-0.05-0.02-0.08-0.03-0.11-0.04c-0.98-0.27-1.47-0.71-1.47-1.33c0-0.44,0.17-0.79,0.51-1.05
					c0.34-0.26,0.78-0.39,1.33-0.39c0.54,0,1.06,0.16,1.54,0.48l-0.37,0.74c-0.38-0.25-0.8-0.38-1.25-0.38
					c-0.24,0-0.43,0.04-0.58,0.13c-0.15,0.09-0.22,0.21-0.22,0.39c0,0.15,0.08,0.27,0.23,0.34c0.11,0.05,0.26,0.1,0.45,0.15
					c0.19,0.05,0.36,0.09,0.51,0.14c0.15,0.05,0.29,0.1,0.43,0.16c0.14,0.06,0.29,0.14,0.45,0.25
					C-117.57,120.4-117.41,120.73-117.41,121.18z"/>
				<path class="st0" d="M-115.15,118.67v2.39c0,0.22,0.06,0.4,0.18,0.54c0.12,0.13,0.28,0.2,0.5,0.2c0.21,0,0.42-0.1,0.61-0.31
					l0.41,0.7c-0.35,0.31-0.73,0.47-1.16,0.47c-0.42,0-0.78-0.15-1.08-0.44c-0.3-0.29-0.45-0.69-0.45-1.18v-2.37h-0.59v-0.8h0.59
					v-1.48h0.99v1.48h1.24v0.8H-115.15z"/>
				<path class="st0" d="M-110.28,118.81c-0.49,0-0.86,0.16-1.11,0.48c-0.25,0.32-0.37,0.75-0.37,1.29v2.02h-0.99v-4.72h0.99v0.95
					c0.16-0.3,0.38-0.54,0.65-0.73s0.57-0.29,0.87-0.29l0.01,1C-110.24,118.81-110.26,118.81-110.28,118.81z"/>
				<path class="st0" d="M-105.46,121.96c-0.47,0.47-1.06,0.71-1.77,0.71c-0.71,0-1.3-0.24-1.77-0.71
					c-0.47-0.47-0.71-1.05-0.71-1.73c0-0.68,0.24-1.25,0.71-1.72c0.47-0.47,1.06-0.71,1.77-0.71c0.71,0,1.3,0.24,1.77,0.71
					c0.47,0.47,0.71,1.05,0.71,1.72C-104.75,120.91-104.99,121.49-105.46,121.96z M-108.3,121.35c0.28,0.29,0.64,0.43,1.07,0.43
					c0.43,0,0.79-0.14,1.07-0.43c0.28-0.29,0.42-0.66,0.42-1.11c0-0.46-0.14-0.83-0.42-1.11c-0.28-0.29-0.64-0.43-1.07-0.43
					c-0.43,0-0.79,0.14-1.07,0.43c-0.28,0.29-0.42,0.66-0.42,1.11C-108.72,120.69-108.58,121.06-108.3,121.35z"/>
				<path class="st0" d="M-100.38,120.04v2.55h-0.99v-4.72h0.99v0.86c0.14-0.29,0.36-0.52,0.64-0.68c0.29-0.17,0.6-0.25,0.93-0.25
					c0.75,0,1.25,0.31,1.52,0.92c0.47-0.61,1.05-0.92,1.75-0.92c0.53,0,0.96,0.16,1.29,0.49c0.33,0.33,0.49,0.8,0.49,1.41v2.89
					h-0.99V120c0-0.87-0.36-1.3-1.08-1.3c-0.34,0-0.63,0.11-0.88,0.32c-0.25,0.22-0.38,0.53-0.39,0.94v2.63h-0.99V120
					c0-0.45-0.08-0.78-0.24-0.99c-0.16-0.21-0.41-0.32-0.75-0.32s-0.64,0.11-0.9,0.34C-100.25,119.27-100.38,119.6-100.38,120.04z"
					/>
				<path class="st0" d="M-88.08,120.67h-3.7c0.02,0.34,0.18,0.62,0.47,0.83c0.29,0.21,0.62,0.31,0.99,0.31
					c0.59,0,1.04-0.19,1.35-0.56l0.57,0.62c-0.51,0.53-1.17,0.79-1.99,0.79c-0.66,0-1.23-0.22-1.69-0.66
					c-0.46-0.44-0.7-1.03-0.7-1.77c0-0.74,0.24-1.33,0.71-1.77c0.47-0.44,1.03-0.66,1.67-0.66c0.64,0,1.19,0.19,1.64,0.58
					c0.45,0.39,0.67,0.92,0.67,1.6V120.67z M-91.78,119.89h2.71c0-0.4-0.12-0.7-0.37-0.91c-0.25-0.21-0.55-0.32-0.92-0.32
					c-0.36,0-0.69,0.11-0.98,0.33C-91.63,119.21-91.78,119.51-91.78,119.89z"/>
				<path class="st0" d="M-87.07,122.82v-4.94h0.99v4.98c0,0.5-0.15,0.89-0.45,1.18c-0.3,0.29-0.66,0.44-1.08,0.44
					c-0.42,0-0.81-0.16-1.16-0.47l0.46-0.75c0.2,0.19,0.4,0.29,0.61,0.29c0.2,0,0.36-0.06,0.47-0.2
					C-87.13,123.23-87.07,123.05-87.07,122.82z M-87.03,116.94c-0.12-0.12-0.19-0.27-0.19-0.44c0-0.17,0.06-0.32,0.19-0.44
					c0.12-0.12,0.27-0.19,0.44-0.19c0.17,0,0.32,0.06,0.44,0.19c0.12,0.12,0.19,0.27,0.19,0.44c0,0.17-0.06,0.32-0.19,0.44
					c-0.12,0.12-0.27,0.19-0.44,0.19C-86.76,117.12-86.91,117.06-87.03,116.94z"/>
				<path class="st0" d="M-80.79,121.96c-0.47,0.47-1.06,0.71-1.77,0.71c-0.71,0-1.3-0.24-1.77-0.71c-0.47-0.47-0.71-1.05-0.71-1.73
					c0-0.68,0.24-1.25,0.71-1.72c0.47-0.47,1.06-0.71,1.77-0.71c0.71,0,1.3,0.24,1.77,0.71c0.47,0.47,0.71,1.05,0.71,1.72
					C-80.08,120.91-80.31,121.49-80.79,121.96z M-83.63,121.35c0.28,0.29,0.64,0.43,1.07,0.43c0.43,0,0.79-0.14,1.07-0.43
					c0.28-0.29,0.42-0.66,0.42-1.11c0-0.46-0.14-0.83-0.42-1.11c-0.28-0.29-0.64-0.43-1.07-0.43c-0.43,0-0.79,0.14-1.07,0.43
					c-0.28,0.29-0.42,0.66-0.42,1.11C-84.05,120.69-83.91,121.06-83.63,121.35z"/>
				<path class="st0" d="M-76.57,118.81c-0.49,0-0.86,0.16-1.11,0.48c-0.25,0.32-0.37,0.75-0.37,1.29v2.02h-0.99v-4.72h0.99v0.95
					c0.16-0.3,0.38-0.54,0.65-0.73c0.27-0.19,0.57-0.29,0.87-0.29l0.01,1C-76.53,118.81-76.55,118.81-76.57,118.81z"/>
				<path class="st0" d="M-70.79,118.81c-0.49,0-0.86,0.16-1.11,0.48c-0.25,0.32-0.37,0.75-0.37,1.29v2.02h-0.99v-4.72h0.99v0.95
					c0.16-0.3,0.38-0.54,0.65-0.73c0.27-0.19,0.57-0.29,0.87-0.29l0.01,1C-70.76,118.81-70.77,118.81-70.79,118.81z"/>
				<path class="st0" d="M-65.44,120.67h-3.7c0.02,0.34,0.18,0.62,0.47,0.83c0.29,0.21,0.62,0.31,0.99,0.31
					c0.59,0,1.04-0.19,1.35-0.56l0.57,0.62c-0.51,0.53-1.17,0.79-1.99,0.79c-0.66,0-1.23-0.22-1.69-0.66
					c-0.46-0.44-0.7-1.03-0.7-1.77c0-0.74,0.24-1.33,0.71-1.77c0.47-0.44,1.03-0.66,1.67-0.66s1.19,0.19,1.64,0.58
					c0.45,0.39,0.67,0.92,0.67,1.6V120.67z M-69.14,119.89h2.71c0-0.4-0.12-0.7-0.37-0.91c-0.25-0.21-0.55-0.32-0.92-0.32
					c-0.36,0-0.69,0.11-0.98,0.33C-69,119.21-69.14,119.51-69.14,119.89z"/>
				<path class="st0" d="M-61.08,121.18c0,0.45-0.16,0.81-0.49,1.08c-0.33,0.27-0.74,0.4-1.25,0.4c-0.34,0-0.7-0.06-1.07-0.19
					c-0.37-0.12-0.7-0.3-0.98-0.52l0.48-0.77c0.55,0.41,1.08,0.62,1.6,0.62c0.22,0,0.4-0.05,0.53-0.16c0.13-0.1,0.2-0.24,0.2-0.39
					c0-0.24-0.31-0.45-0.94-0.64c-0.05-0.02-0.08-0.03-0.11-0.04c-0.98-0.27-1.47-0.71-1.47-1.33c0-0.44,0.17-0.79,0.51-1.05
					c0.34-0.26,0.78-0.39,1.33-0.39c0.54,0,1.06,0.16,1.54,0.48l-0.37,0.74c-0.38-0.25-0.8-0.38-1.25-0.38
					c-0.24,0-0.43,0.04-0.58,0.13c-0.15,0.09-0.22,0.21-0.22,0.39c0,0.15,0.08,0.27,0.23,0.34c0.11,0.05,0.26,0.1,0.45,0.15
					c0.19,0.05,0.36,0.09,0.51,0.14c0.15,0.05,0.29,0.1,0.43,0.16c0.14,0.06,0.29,0.14,0.45,0.25
					C-61.24,120.4-61.08,120.73-61.08,121.18z"/>
				<path class="st0" d="M-56.74,120.43v-2.55h0.99v4.72h-0.99v-0.86c-0.16,0.29-0.38,0.52-0.66,0.68
					c-0.28,0.17-0.58,0.25-0.91,0.25c-0.53,0-0.96-0.16-1.29-0.49c-0.33-0.33-0.49-0.8-0.49-1.41v-2.89h0.99v2.59
					c0,0.87,0.36,1.3,1.08,1.3c0.34,0,0.64-0.11,0.9-0.34C-56.87,121.2-56.74,120.87-56.74,120.43z"/>
				<path class="st0" d="M-53.41,122.59h-0.99v-6.58h0.99V122.59z"/>
				<path class="st0" d="M-50.84,118.67v2.39c0,0.22,0.06,0.4,0.18,0.54c0.12,0.13,0.28,0.2,0.5,0.2c0.21,0,0.42-0.1,0.61-0.31
					l0.41,0.7c-0.35,0.31-0.73,0.47-1.16,0.47c-0.42,0-0.78-0.15-1.08-0.44c-0.3-0.29-0.45-0.69-0.45-1.18v-2.37h-0.59v-0.8h0.59
					v-1.48h0.99v1.48h1.24v0.8H-50.84z"/>
				<path class="st0" d="M-44.62,122.59h-0.9v-0.63c-0.39,0.47-0.91,0.7-1.57,0.7c-0.49,0-0.9-0.14-1.22-0.42
					c-0.32-0.28-0.48-0.65-0.48-1.11c0-0.46,0.17-0.81,0.51-1.04c0.34-0.23,0.81-0.35,1.39-0.35h1.29v-0.18
					c0-0.63-0.35-0.94-1.05-0.94c-0.44,0-0.89,0.16-1.37,0.48l-0.44-0.62c0.57-0.46,1.22-0.68,1.95-0.68c0.56,0,1.01,0.14,1.36,0.42
					c0.35,0.28,0.53,0.72,0.53,1.33V122.59z M-45.61,120.84v-0.4h-1.12c-0.72,0-1.07,0.22-1.07,0.67c0,0.23,0.09,0.41,0.27,0.53
					c0.18,0.12,0.42,0.18,0.74,0.18c0.32,0,0.59-0.09,0.83-0.27C-45.73,121.38-45.61,121.14-45.61,120.84z"/>
				<path class="st0" d="M-42.96,121.99c-0.44-0.45-0.67-1.04-0.67-1.77c0-0.73,0.23-1.32,0.68-1.76c0.46-0.44,1-0.66,1.63-0.66
					c0.63,0,1.14,0.27,1.52,0.8v-2.59h0.99v6.58h-0.99v-0.71c-0.37,0.52-0.9,0.78-1.61,0.78C-42,122.66-42.52,122.44-42.96,121.99z
					 M-42.63,120.26c0,0.45,0.15,0.82,0.43,1.1c0.29,0.28,0.63,0.43,1.02,0.43c0.39,0,0.72-0.14,0.99-0.43
					c0.27-0.29,0.41-0.65,0.41-1.1c0-0.45-0.14-0.82-0.41-1.13c-0.27-0.3-0.61-0.45-1-0.45c-0.4,0-0.74,0.15-1.02,0.45
					C-42.49,119.43-42.63,119.8-42.63,120.26z"/>
				<path class="st0" d="M-33.5,121.96c-0.47,0.47-1.06,0.71-1.77,0.71c-0.71,0-1.3-0.24-1.77-0.71c-0.47-0.47-0.71-1.05-0.71-1.73
					c0-0.68,0.24-1.25,0.71-1.72c0.47-0.47,1.06-0.71,1.77-0.71c0.71,0,1.3,0.24,1.77,0.71c0.47,0.47,0.71,1.05,0.71,1.72
					C-32.8,120.91-33.03,121.49-33.5,121.96z M-36.35,121.35c0.28,0.29,0.64,0.43,1.07,0.43c0.43,0,0.79-0.14,1.07-0.43
					c0.28-0.29,0.42-0.66,0.42-1.11c0-0.46-0.14-0.83-0.42-1.11c-0.28-0.29-0.64-0.43-1.07-0.43c-0.43,0-0.79,0.14-1.07,0.43
					c-0.28,0.29-0.42,0.66-0.42,1.11C-36.77,120.69-36.63,121.06-36.35,121.35z"/>
			</g>
		</g>
	</g>
</g>
<g>
	<path class="st1" d="M-252.46,119.31c-1.63-4.9-5.48-8.78-10.36-10.47V52c0-9.29-3.77-17.7-9.86-23.79
		c-6.09-6.09-14.5-9.86-23.8-9.86c-18.58,0-33.65,15.06-33.65,33.65v89.74c0,18.58,15.06,33.65,33.65,33.65
		c18.59,0,33.66-15.06,33.66-33.65v-1.4c4.66-1.6,8.38-5.23,10.13-9.82c0.7-1.84,1.08-3.84,1.08-5.93
		C-251.61,122.74-251.91,120.97-252.46,119.31z"/>
	<g>
		<path class="st1" d="M-375,96.87c0,18.58,15.07,33.65,33.66,33.65h11.21v-11.21h-11.21c-12.39,0-22.44-10.05-22.44-22.44
			c0-12.39,10.05-22.44,22.44-22.44h11.21V63.23h-11.21C-359.93,63.23-375,78.29-375,96.87z"/>
		<path class="st1" d="M-251.61,63.23h-11.21v11.21h11.21c12.39,0,22.44,10.05,22.44,22.44c0,6.19-2.51,11.8-6.57,15.86
			c-4.06,4.06-9.67,6.57-15.86,6.57h-0.85c-1.63-4.9-5.48-8.78-10.36-10.47c-1.71-0.59-3.55-0.91-5.45-0.91
			c-2.03,0-3.97,0.36-5.77,1.02c-4.72,1.75-8.44,5.57-10.04,10.36c-0.56,1.66-0.86,3.43-0.86,5.28c0,2.09,0.39,4.09,1.09,5.93
			c1.71,4.49,5.3,8.04,9.81,9.7c1.8,0.67,3.74,1.03,5.77,1.03c1.91,0,3.75-0.32,5.45-0.92c4.66-1.6,8.38-5.23,10.13-9.82h1.08
			c9.3,0,17.7-3.77,23.79-9.86c6.09-6.09,9.86-14.5,9.86-23.79C-217.96,78.29-233.03,63.23-251.61,63.23z M-268.27,130.04
			c-3.01,0-5.45-2.44-5.45-5.45s2.44-5.45,5.45-5.45c3.01,0,5.45,2.44,5.45,5.45S-265.26,130.04-268.27,130.04z"/>
	</g>
	<path class="st1" d="M-283.85,130.52c-0.7-1.84-1.09-3.84-1.09-5.93c0-1.85,0.3-3.62,0.86-5.28c1.59-4.79,5.31-8.61,10.04-10.36V52
		c0-6.19-2.51-11.8-6.56-15.86c-4.06-4.06-9.67-6.57-15.87-6.57c-12.39,0-22.43,10.05-22.43,22.44v89.74
		c0,12.39,10.04,22.43,22.43,22.43c12.4,0,22.44-10.04,22.44-22.43v-1.52C-278.55,138.57-282.15,135.01-283.85,130.52z"/>
	<path class="st1" d="M-274.04,140.23c-4.51-1.66-8.1-5.22-9.81-9.7c-0.7-1.84-1.09-3.84-1.09-5.93c0-1.85,0.3-3.62,0.86-5.28
		c1.59-4.79,5.31-8.61,10.04-10.36c0,0,0,0,0,0V96.87h-44.87v44.87c0,12.39,10.04,22.43,22.43,22.43
		c12.39,0,22.43-10.04,22.43-22.43L-274.04,140.23C-274.04,140.23-274.04,140.23-274.04,140.23z"/>
	<path class="st1" d="M-252.46,119.31c-1.63-4.9-5.48-8.78-10.36-10.47c-1.71-0.59-3.55-0.91-5.45-0.91c-2.03,0-3.97,0.36-5.77,1.02
		c-4.72,1.75-8.44,5.57-10.04,10.36c-0.56,1.66-0.86,3.43-0.86,5.28c0,2.09,0.39,4.09,1.09,5.93c1.71,4.49,5.3,8.04,9.81,9.7
		c1.8,0.67,3.74,1.03,5.77,1.03c1.91,0,3.75-0.32,5.45-0.92c4.66-1.6,8.38-5.23,10.13-9.82c0.7-1.84,1.08-3.84,1.08-5.93
		C-251.61,122.74-251.91,120.97-252.46,119.31z M-268.27,130.04c-3.01,0-5.45-2.44-5.45-5.45c0-3.01,2.44-5.45,5.45-5.45
		c3.01,0,5.45,2.44,5.45,5.45C-262.82,127.6-265.26,130.04-268.27,130.04z"/>
</g>
<g>
	<g>
		<path class="st2" d="M66.16,194.31l-41.73-31.64c-5.95-4.51-9.5-11.66-9.5-19.12V27.62L66.16,7.58l51.15,20.04v115.93
			c0,7.46-3.55,14.6-9.49,19.11L66.16,194.31z M18.1,29.78v113.77c0,6.48,3.08,12.69,8.25,16.6l39.82,30.19l39.76-30.19
			c5.16-3.92,8.24-10.12,8.24-16.6V29.78l-47.99-18.8L18.1,29.78z"/>
	</g>
	<g>
		<path class="st0" d="M25.07,56.51 M31.66,127.61v10.25c0,4.69,2.03,9.16,5.43,11.99l28.9,20.24l28.86-20.24
			c3.4-2.83,5.42-7.31,5.42-11.99v-10.26h6.5l0.09,10.26c0,6.68-2.96,13.09-7.92,17.16l-0.2,0.15l-32.74,22.96L33,155.03
			c-4.97-4.07-7.93-10.48-7.93-17.17v-10.25H31.66z M25.07,56.51V37.44l40.92-16.67l40.86,16.67l0,19.07h-6.59V41.87L65.99,27.89
			L31.66,41.87v14.64L25.07,56.51"/>
	</g>
	<g>
		<rect x="38.82" y="33.98" class="st0" width="6.59" height="22.53"/>
	</g>
	<g>
		<rect x="62.8" y="24.33" class="st0" width="6.59" height="32.18"/>
	</g>
	<g>
		<rect x="62.8" y="153.65" class="st0" width="6.59" height="16.27"/>
	</g>
	<g>
		<g>
			<rect x="69.48" y="94.18" class="st2" width="6.85" height="22.43"/>
		</g>
	</g>
	<g>
		<g>
			<rect x="69.48" y="64.92" class="st2" width="6.85" height="7.2"/>
		</g>
	</g>
	<g>
		<g>
			<g>
				<rect x="25.07" y="66.33" class="st0" width="6.75" height="58.22"/>
			</g>
		</g>
		<g>
			<g>
				<polygon class="st0" points="38.92,92.46 32.66,92.46 38.95,107.03 				"/>
			</g>
		</g>
		<g>
			<g>
				<polygon class="st0" points="25.07,66.33 45.4,66.33 38.8,59.62 31.7,59.62 				"/>
			</g>
		</g>
		<g>
			<polygon class="st0" points="41.64,96.72 45.4,93.01 45.4,66.33 38.76,66.33 38.76,124.55 45.4,124.55 45.4,105.57 			"/>
		</g>
	</g>
	<g>
		<rect x="49.08" y="133.01" width="34.06" height="2.11"/>
	</g>
	<g>
		<rect x="49.08" y="152.04" width="34.06" height="2.11"/>
	</g>
	<g>
		<path class="st0" d="M66.16,194.31l-41.73-31.64c-5.95-4.51-9.5-11.66-9.5-19.12V27.62L66.16,7.58l51.15,20.04v115.93
			c0,7.46-3.55,14.6-9.49,19.11L66.16,194.31z M18.1,29.78v113.77c0,6.48,3.08,12.69,8.25,16.6l39.82,30.19l39.76-30.19
			c5.16-3.92,8.24-10.12,8.24-16.6V29.78l-47.99-18.8L18.1,29.78z"/>
	</g>
	<g>
		<g>
			<rect x="38.82" y="127.61" class="st0" width="6.59" height="29.39"/>
		</g>
		<g>
			<rect x="86.99" y="127.61" class="st0" width="6.59" height="29.61"/>
		</g>
		<g>
			<rect x="86.99" y="33.98" class="st0" width="6.59" height="22.53"/>
		</g>
		<g>
			<rect x="62.8" y="153.65" class="st0" width="6.59" height="16.27"/>
		</g>
	</g>
	<g>
		<g>
			<g>
				<rect x="55.89" y="110.76" class="st0" width="6.85" height="7.2"/>
			</g>
		</g>
		<g>
			<g>
				<rect x="69.48" y="95.52" class="st0" width="6.85" height="22.43"/>
			</g>
		</g>
		<g>
			<g>
				<rect x="69.48" y="66.59" class="st0" width="6.85" height="7.06"/>
			</g>
		</g>
		<g>
			<g>
				<rect x="55.88" y="66.59" class="st0" width="6.85" height="18.18"/>
			</g>
		</g>
		<g>
			<g>
				<polygon class="st0" points="76.32,95.52 62.72,81.85 55.78,84.77 69.6,98.55 				"/>
			</g>
		</g>
		<g>
			<g>
				<polygon class="st0" points="55.89,117.96 76.33,117.96 69.81,124.58 62.55,124.65 				"/>
			</g>
		</g>
		<g>
			<g>
				<polygon class="st0" points="55.88,66.59 76.33,66.59 69.81,59.91 62.55,59.83 				"/>
			</g>
		</g>
	</g>
	<g>
		<g>
			<rect x="86.99" y="66.59" class="st0" width="6.59" height="51.27"/>
		</g>
		<g>
			<g>
				<rect x="100.26" y="66.59" class="st0" width="6.59" height="7.02"/>
			</g>
		</g>
		<g>
			<g>
				<rect x="100.26" y="110.85" class="st0" width="6.59" height="7.02"/>
			</g>
		</g>
		<g>
			<g>
				<polygon class="st0" points="86.99,117.89 106.85,117.89 100.52,124.58 93.47,124.65 				"/>
			</g>
		</g>
		<g>
			<g>
				<polygon class="st0" points="86.98,66.59 106.85,66.59 100.52,59.91 93.46,59.83 				"/>
			</g>
		</g>
	</g>
	<g>
		<g>
			<g>
				<path class="st0" d="M52.61,147.26v0.71H49.9v-9.25h0.66v8.54H52.61z"/>
			</g>
			<g>
				<polygon class="st0" points="53.01,148.36 49.51,148.36 49.51,138.32 50.95,138.32 50.95,146.86 53.01,146.86 				"/>
			</g>
		</g>
		<g>
			<g>
				<path class="st0" d="M56.02,139.43v3.55h1.53v0.73h-1.53v3.55h2.17v0.71h-2.82v-9.25h2.72v0.71H56.02z"/>
			</g>
			<g>
				<polygon class="st0" points="58.58,148.36 54.97,148.36 54.97,138.32 58.48,138.32 58.48,139.83 56.41,139.83 56.41,142.59 
					57.94,142.59 57.94,144.1 56.41,144.1 56.41,146.86 58.58,146.86 				"/>
			</g>
		</g>
		<g>
			<g>
				<path class="st0" d="M60.83,140.36c0-0.99,0.73-1.78,1.64-1.78c0.91,0,1.64,0.79,1.64,1.78v5.96c0,0.99-0.73,1.78-1.64,1.78
					c-0.91,0-1.64-0.79-1.64-1.78V140.36z M61.49,146.33c0,0.59,0.44,1.07,0.98,1.07c0.54,0,0.98-0.48,0.98-1.07v-5.96
					c0-0.59-0.44-1.07-0.98-1.07c-0.54,0-0.98,0.48-0.98,1.07V146.33z"/>
			</g>
			<g>
				<path class="st0" d="M62.47,148.5c-1.12,0-2.03-0.98-2.03-2.18v-5.96c0-1.2,0.91-2.18,2.03-2.18c1.12,0,2.03,0.98,2.03,2.18
					v5.96C64.51,147.53,63.59,148.5,62.47,148.5z M62.47,139.69c-0.32,0-0.59,0.3-0.59,0.67v5.96c0,0.37,0.26,0.67,0.59,0.67
					c0.32,0,0.59-0.3,0.59-0.67v-5.96C63.06,139.99,62.8,139.69,62.47,139.69z"/>
			</g>
		</g>
		<g>
			<g>
				<path class="st0" d="M67.2,138.72h0.79l2,7.02h0.03v-7.02h0.66v9.25h-0.66l-2.14-7.4h-0.03v7.4H67.2V138.72z"/>
			</g>
			<g>
				<path class="st0" d="M71.07,148.36h-1.35l-1.48-5.1v5.1H66.8v-10.04h1.49l1.34,4.68v-4.68h1.45V148.36z M69.9,146.13l0.38,1.32
					v-1.32H69.9z M67.59,140.17H68l-0.3-1.06h-0.1V140.17z"/>
			</g>
		</g>
		<g>
			<g>
				<path class="st0" d="M74.48,139.43v3.55h1.53v0.73h-1.53v3.55h2.17v0.71h-2.82v-9.25h2.72v0.71H74.48z"/>
			</g>
			<g>
				<polygon class="st0" points="77.05,148.36 73.43,148.36 73.43,138.32 76.95,138.32 76.95,139.83 74.88,139.83 74.88,142.59 
					76.41,142.59 76.41,144.1 74.88,144.1 74.88,146.86 77.05,146.86 				"/>
			</g>
		</g>
		<g>
			<g>
				<path class="st0" d="M79.62,142.13c0,0-0.38-0.49-0.38-1.15v-0.62c0-0.99,0.73-1.78,1.64-1.78c0.91,0,1.64,0.79,1.64,1.78v1.15
					l-0.66,0.08v-1.23c0-0.59-0.44-1.07-0.98-1.07c-0.54,0-0.98,0.48-0.98,1.07v0.62c0,0.4,0.23,0.69,0.23,0.69l2,2.59
					c0,0,0.39,0.51,0.39,1.18v0.89c0,0.99-0.73,1.78-1.64,1.78c-0.91,0-1.64-0.79-1.64-1.78v-1.36l0.66-0.08v1.44
					c0,0.59,0.44,1.07,0.98,1.07c0.54,0,0.98-0.48,0.98-1.07v-0.89c0-0.4-0.24-0.71-0.24-0.71L79.62,142.13z"/>
			</g>
			<g>
				<path class="st0" d="M80.88,148.5c-1.12,0-2.03-0.98-2.03-2.18v-1.71l1.45-0.18v1.89c0,0.37,0.26,0.67,0.59,0.67
					c0.32,0,0.59-0.3,0.59-0.67v-0.89c0-0.25-0.16-0.47-0.16-0.48l-2-2.59c-0.02-0.02-0.46-0.61-0.46-1.39v-0.62
					c0-1.2,0.91-2.18,2.03-2.18c1.12,0,2.03,0.98,2.03,2.18v1.5l-1.45,0.18v-1.68c0-0.37-0.26-0.67-0.59-0.67
					c-0.32,0-0.59,0.3-0.59,0.67v0.62c0,0.25,0.14,0.44,0.14,0.44l2.01,2.59c0.02,0.03,0.47,0.62,0.47,1.42v0.89
					C82.91,147.53,82,148.5,80.88,148.5z"/>
			</g>
		</g>
	</g>
	<g>
		<g>
			<rect x="49.08" y="133.01" class="st0" width="34.06" height="2.11"/>
		</g>
	</g>
	<g>
		<g>
			<rect x="49.08" y="152.04" class="st0" width="34.06" height="2.11"/>
		</g>
	</g>
	<g>
		<path class="st0" d="M138.96,64.68h-2.66v4.58h-4.88V52.01h7.89c1.56,0,2.92,0.26,4.07,0.78c1.15,0.52,2.04,1.26,2.66,2.22
			c0.62,0.96,0.94,2.09,0.94,3.39c0,1.25-0.29,2.34-0.88,3.27s-1.42,1.66-2.5,2.18l3.72,5.42h-5.22L138.96,64.68z M141.27,56.52
			c-0.51-0.44-1.26-0.67-2.27-0.67h-2.71v5.05h2.71c1,0,1.76-0.22,2.27-0.65c0.51-0.44,0.76-1.06,0.76-1.86
			C142.04,57.59,141.78,56.97,141.27,56.52z"/>
		<path class="st0" d="M149.65,52.01h4.88v17.25h-4.88V52.01z"/>
		<path class="st0" d="M161.78,68.45c-1.45-0.77-2.6-1.84-3.42-3.2c-0.83-1.36-1.24-2.9-1.24-4.61s0.42-3.24,1.24-4.61
			c0.83-1.36,1.97-2.43,3.42-3.2c1.45-0.77,3.09-1.16,4.92-1.16s3.46,0.39,4.92,1.16c1.45,0.77,2.6,1.84,3.42,3.2
			c0.83,1.36,1.24,2.9,1.24,4.61s-0.42,3.24-1.24,4.61c-0.83,1.36-1.97,2.43-3.42,3.2s-3.09,1.16-4.92,1.16
			S163.24,69.22,161.78,68.45z M169.07,64.95c0.71-0.41,1.27-0.99,1.68-1.74c0.41-0.75,0.62-1.61,0.62-2.57s-0.21-1.83-0.62-2.58
			c-0.41-0.75-0.97-1.33-1.68-1.74c-0.71-0.41-1.49-0.62-2.37-0.62s-1.66,0.21-2.37,0.62c-0.71,0.41-1.27,0.99-1.68,1.74
			c-0.41,0.75-0.62,1.61-0.62,2.58s0.21,1.83,0.62,2.57c0.41,0.75,0.97,1.33,1.68,1.74c0.71,0.41,1.49,0.62,2.37,0.62
			S168.36,65.36,169.07,64.95z"/>
		<path class="st0" d="M194.42,61.88c0.56,0.73,0.84,1.61,0.84,2.65c0,1.51-0.61,2.68-1.82,3.5c-1.22,0.82-2.97,1.23-5.27,1.23
			h-9.31V52.01h8.82c2.2,0,3.88,0.41,5.03,1.22c1.15,0.81,1.72,1.91,1.72,3.29c0,0.82-0.2,1.56-0.6,2.21
			c-0.4,0.65-0.97,1.16-1.71,1.54C193.09,60.61,193.86,61.15,194.42,61.88z M183.68,55.54v3.33h3.35c1.64,0,2.46-0.56,2.46-1.68
			c0-1.1-0.82-1.65-2.46-1.65H183.68z M190.33,63.99c0-1.17-0.85-1.75-2.56-1.75h-4.09v3.5h4.09
			C189.48,65.74,190.33,65.16,190.33,63.99z"/>
		<path class="st0" d="M209.35,65.91h-7.29l-1.35,3.35h-4.98l7.61-17.25h4.81l7.64,17.25h-5.08L209.35,65.91z M207.93,62.31
			l-2.22-5.52l-2.22,5.52H207.93z"/>
		<path class="st0" d="M232.74,69.26l-0.05-9.14l-4.43,7.44h-2.17l-4.41-7.2v8.9h-4.51V52.01h4.02l6.06,9.96l5.91-9.96h4.02
			l0.05,17.25H232.74z"/>
		<path class="st0" d="M256.24,61.88c0.56,0.73,0.84,1.61,0.84,2.65c0,1.51-0.61,2.68-1.82,3.5c-1.22,0.82-2.97,1.23-5.27,1.23
			h-9.31V52.01h8.82c2.2,0,3.88,0.41,5.03,1.22c1.15,0.81,1.72,1.91,1.72,3.29c0,0.82-0.2,1.56-0.6,2.21
			c-0.4,0.65-0.97,1.16-1.71,1.54C254.91,60.61,255.69,61.15,256.24,61.88z M245.5,55.54v3.33h3.35c1.64,0,2.46-0.56,2.46-1.68
			c0-1.1-0.82-1.65-2.46-1.65H245.5z M252.15,63.99c0-1.17-0.85-1.75-2.56-1.75h-4.09v3.5h4.09
			C251.3,65.74,252.15,65.16,252.15,63.99z"/>
		<path class="st0" d="M271.18,65.91h-7.29l-1.35,3.35h-4.98l7.61-17.25h4.81l7.64,17.25h-5.08L271.18,65.91z M269.75,62.31
			l-2.22-5.52l-2.22,5.52H269.75z"/>
		<path class="st0" d="M133.41,98.66c-1.31-0.34-2.38-0.8-3.2-1.38l1.6-3.6c0.77,0.51,1.67,0.92,2.69,1.23
			c1.02,0.31,2.02,0.47,3.01,0.47c1.87,0,2.81-0.47,2.81-1.41c0-0.49-0.27-0.86-0.8-1.1c-0.53-0.24-1.39-0.49-2.58-0.75
			c-1.3-0.28-2.38-0.58-3.25-0.9c-0.87-0.32-1.62-0.83-2.24-1.54c-0.62-0.71-0.94-1.66-0.94-2.86c0-1.05,0.29-2,0.86-2.85
			c0.57-0.85,1.43-1.52,2.58-2.01c1.14-0.49,2.54-0.74,4.2-0.74c1.13,0,2.25,0.13,3.35,0.38c1.1,0.25,2.07,0.63,2.91,1.12l-1.5,3.62
			c-1.64-0.89-3.24-1.33-4.78-1.33c-0.97,0-1.67,0.14-2.12,0.43c-0.44,0.29-0.67,0.66-0.67,1.12c0,0.46,0.26,0.81,0.79,1.04
			c0.53,0.23,1.37,0.47,2.54,0.71c1.31,0.28,2.4,0.58,3.27,0.9s1.61,0.83,2.24,1.53c0.63,0.7,0.95,1.65,0.95,2.85
			c0,1.04-0.29,1.97-0.86,2.81s-1.44,1.51-2.59,2.01c-1.15,0.5-2.55,0.75-4.19,0.75C136.08,99.18,134.73,99,133.41,98.66z"/>
		<path class="st0" d="M159.31,82.36c1.15,0.52,2.04,1.26,2.66,2.22c0.62,0.96,0.94,2.09,0.94,3.39c0,1.3-0.31,2.42-0.94,3.38
			c-0.63,0.95-1.51,1.69-2.66,2.21c-1.15,0.52-2.51,0.78-4.07,0.78h-3.01v4.51h-4.88V81.58h7.89
			C156.8,81.58,158.16,81.84,159.31,82.36z M157.21,89.83c0.51-0.44,0.76-1.06,0.76-1.86c0-0.8-0.25-1.43-0.76-1.87
			c-0.51-0.44-1.26-0.67-2.27-0.67h-2.71v5.05h2.71C155.95,90.48,156.7,90.26,157.21,89.83z"/>
		<path class="st0" d="M169.3,98.02c-1.45-0.77-2.6-1.84-3.42-3.2c-0.83-1.36-1.24-2.9-1.24-4.61c0-1.71,0.42-3.24,1.24-4.61
			c0.83-1.36,1.97-2.43,3.42-3.2c1.45-0.77,3.09-1.16,4.92-1.16s3.46,0.39,4.92,1.16c1.45,0.77,2.6,1.84,3.42,3.2
			c0.83,1.36,1.24,2.9,1.24,4.61c0,1.71-0.42,3.24-1.24,4.61c-0.83,1.36-1.97,2.43-3.42,3.2c-1.45,0.77-3.09,1.16-4.92,1.16
			S170.75,98.79,169.3,98.02z M176.58,94.52c0.71-0.41,1.27-0.99,1.68-1.74c0.41-0.75,0.62-1.61,0.62-2.58
			c0-0.97-0.21-1.83-0.62-2.58c-0.41-0.75-0.97-1.33-1.68-1.74c-0.71-0.41-1.49-0.62-2.37-0.62s-1.66,0.21-2.37,0.62
			c-0.71,0.41-1.27,0.99-1.68,1.74c-0.41,0.75-0.62,1.61-0.62,2.58c0,0.97,0.21,1.83,0.62,2.58c0.41,0.75,0.97,1.33,1.68,1.74
			c0.71,0.41,1.49,0.62,2.37,0.62S175.88,94.93,176.58,94.52z"/>
		<path class="st0" d="M193.9,94.25h-2.66v4.58h-4.88V81.58h7.89c1.56,0,2.92,0.26,4.07,0.78c1.15,0.52,2.04,1.26,2.66,2.22
			c0.62,0.96,0.94,2.09,0.94,3.39c0,1.25-0.29,2.34-0.88,3.27c-0.58,0.93-1.42,1.66-2.5,2.18l3.72,5.42h-5.22L193.9,94.25z
			 M196.22,86.09c-0.51-0.44-1.26-0.67-2.27-0.67h-2.71v5.05h2.71c1,0,1.76-0.22,2.27-0.65c0.51-0.44,0.76-1.06,0.76-1.86
			C196.98,87.16,196.73,86.54,196.22,86.09z"/>
		<path class="st0" d="M208.02,85.45h-5.3v-3.87h15.45v3.87h-5.27v13.38h-4.88V85.45z"/>
		<path class="st0" d="M220,81.58h4.88v17.25H220V81.58z"/>
		<path class="st0" d="M244.76,81.58v17.25h-4.02l-7.61-9.19v9.19h-4.78V81.58h4.02l7.61,9.19v-9.19H244.76z"/>
		<path class="st0" d="M259.77,89.84h4.31v7.15c-0.99,0.71-2.12,1.25-3.4,1.63s-2.56,0.57-3.84,0.57c-1.81,0-3.43-0.38-4.88-1.15
			c-1.45-0.76-2.58-1.83-3.4-3.19c-0.82-1.36-1.23-2.91-1.23-4.63c0-1.73,0.41-3.27,1.23-4.63c0.82-1.36,1.96-2.43,3.43-3.19
			c1.46-0.76,3.11-1.15,4.95-1.15c1.61,0,3.06,0.27,4.34,0.81s2.35,1.32,3.2,2.34l-3.1,2.81c-1.17-1.28-2.56-1.92-4.19-1.92
			c-1.48,0-2.67,0.45-3.57,1.34c-0.9,0.9-1.36,2.09-1.36,3.59c0,0.95,0.21,1.8,0.62,2.55c0.41,0.75,0.99,1.33,1.72,1.75
			s1.58,0.63,2.54,0.63c0.94,0,1.82-0.19,2.64-0.57V89.84z"/>
		<path class="st0" d="M278.09,98.03c-1.44-0.76-2.57-1.83-3.39-3.19c-0.82-1.36-1.23-2.91-1.23-4.63c0-1.73,0.41-3.27,1.23-4.63
			c0.82-1.36,1.95-2.43,3.39-3.19c1.44-0.76,3.06-1.15,4.87-1.15c1.58,0,3,0.28,4.26,0.84c1.27,0.56,2.32,1.36,3.15,2.42l-3.1,2.81
			c-1.12-1.35-2.47-2.02-4.07-2.02c-0.94,0-1.77,0.21-2.5,0.62c-0.73,0.41-1.3,0.99-1.7,1.74c-0.4,0.75-0.6,1.61-0.6,2.58
			c0,0.97,0.2,1.83,0.6,2.58c0.4,0.75,0.97,1.33,1.7,1.74c0.73,0.41,1.56,0.62,2.5,0.62c1.59,0,2.95-0.67,4.07-2.02l3.1,2.81
			c-0.84,1.05-1.89,1.86-3.15,2.41c-1.26,0.56-2.69,0.84-4.26,0.84C281.15,99.18,279.53,98.79,278.09,98.03z"/>
		<path class="st0" d="M292.54,81.58h4.88v13.38h8.23v3.87h-13.11V81.58z"/>
		<path class="st0" d="M309.38,97.08c-1.42-1.4-2.13-3.38-2.13-5.94v-9.56h4.88V91c0,2.76,1.09,4.14,3.28,4.14
			c2.17,0,3.25-1.38,3.25-4.14v-9.41h4.81v9.56c0,2.56-0.71,4.54-2.13,5.94c-1.42,1.4-3.41,2.09-5.98,2.09S310.8,98.48,309.38,97.08
			z"/>
		<path class="st0" d="M342.34,91.45c0.56,0.73,0.84,1.61,0.84,2.65c0,1.51-0.61,2.68-1.82,3.5c-1.22,0.82-2.97,1.23-5.27,1.23
			h-9.31V81.58h8.82c2.2,0,3.88,0.41,5.03,1.22c1.15,0.81,1.72,1.91,1.72,3.29c0,0.82-0.2,1.56-0.6,2.21
			c-0.4,0.65-0.97,1.16-1.71,1.54C341.01,90.18,341.78,90.72,342.34,91.45z M331.6,85.11v3.33h3.35c1.64,0,2.46-0.56,2.46-1.68
			c0-1.1-0.82-1.65-2.46-1.65H331.6z M338.25,93.56c0-1.17-0.85-1.75-2.56-1.75h-4.09v3.5h4.09
			C337.39,95.31,338.25,94.73,338.25,93.56z"/>
		<path class="st0" d="M146.99,121.02c0.56,0.73,0.84,1.61,0.84,2.65c0,1.51-0.61,2.68-1.82,3.5c-1.22,0.82-2.97,1.23-5.27,1.23
			h-9.31v-17.25h8.82c2.2,0,3.88,0.41,5.03,1.22c1.15,0.81,1.72,1.91,1.72,3.29c0,0.82-0.2,1.56-0.6,2.21
			c-0.4,0.65-0.97,1.16-1.71,1.54C145.66,119.75,146.43,120.29,146.99,121.02z M136.25,114.68V118h3.35c1.64,0,2.46-0.56,2.46-1.68
			c0-1.1-0.82-1.65-2.46-1.65H136.25z M142.9,123.13c0-1.17-0.85-1.75-2.56-1.75h-4.09v3.5h4.09
			C142.04,124.88,142.9,124.29,142.9,123.13z"/>
		<path class="st0" d="M161.92,125.05h-7.29l-1.35,3.35h-4.98l7.61-17.25h4.81l7.64,17.25h-5.08L161.92,125.05z M160.49,121.45
			l-2.22-5.52l-2.22,5.52H160.49z"/>
		<path class="st0" d="M177.27,123.82h-2.66v4.58h-4.88v-17.25h7.89c1.56,0,2.92,0.26,4.07,0.78c1.15,0.52,2.04,1.26,2.66,2.22
			c0.62,0.96,0.94,2.09,0.94,3.39c0,1.25-0.29,2.34-0.88,3.26s-1.42,1.66-2.5,2.18l3.72,5.42h-5.22L177.27,123.82z M179.59,115.66
			c-0.51-0.44-1.26-0.67-2.27-0.67h-2.71v5.05h2.71c1,0,1.76-0.22,2.27-0.65c0.51-0.44,0.76-1.06,0.76-1.86
			S180.1,116.1,179.59,115.66z"/>
		<path class="st0" d="M195.51,123.82h-2.66v4.58h-4.88v-17.25h7.89c1.56,0,2.92,0.26,4.07,0.78c1.15,0.52,2.04,1.26,2.66,2.22
			c0.62,0.96,0.94,2.09,0.94,3.39c0,1.25-0.29,2.34-0.88,3.26s-1.42,1.66-2.5,2.18l3.72,5.42h-5.22L195.51,123.82z M197.82,115.66
			c-0.51-0.44-1.26-0.67-2.27-0.67h-2.71v5.05h2.71c1,0,1.76-0.22,2.27-0.65c0.51-0.44,0.76-1.06,0.76-1.86
			S198.33,116.1,197.82,115.66z"/>
		<path class="st0" d="M206.2,111.15h4.88v17.25h-4.88V111.15z"/>
		<path class="st0" d="M226.11,125.05h-7.29l-1.35,3.35h-4.98l7.61-17.25h4.81l7.64,17.25h-5.08L226.11,125.05z M224.68,121.45
			l-2.22-5.52l-2.22,5.52H224.68z"/>
		<path class="st0" d="M233.92,111.15h4.88v13.38h8.23v3.87h-13.11V111.15z"/>
	</g>
</g>
</svg>
