<?xml version="1.0" encoding="utf-8"?>
<!-- Generator: Adobe Illustrator 24.0.0, SVG Export Plug-In . SVG Version: 6.00 Build 0)  -->
<svg version="1.1" id="Capa_1" xmlns="http://www.w3.org/2000/svg" xmlns:xlink="http://www.w3.org/1999/xlink" x="0px" y="0px"
	 viewBox="0 0 633.89 595.28" style="enable-background:new 0 0 633.89 595.28;" xml:space="preserve">
<style type="text/css">
	.st0{fill:#FFFFFF;}
	.st1{fill:#C7E5EF;}
	.st2{fill:url(#SVGID_1_);}
	.st3{fill:#186B3A;}
	.st4{fill:#FDFBFC;}
	.st5{clip-path:url(#SVGID_3_);}
	.st6{fill:#F8D4AC;}
	.st7{fill:#CEA06E;}
	.st8{fill:#ECB98C;}
	.st9{fill:#34536F;}
	.st10{fill:#253E54;}
	.st11{fill:#C2E1DB;}
	.st12{fill:#9BD2D9;}
	.st13{fill:#254351;}
	.st14{fill:#5C5C5C;}
	.st15{fill:#3B3A3A;}
	.st16{fill:#FDFDFD;}
	.st17{fill:#DBDBDB;}
	.st18{fill:#2E2D2E;}
	.st19{fill:none;stroke:#000000;stroke-width:2;stroke-miterlimit:10;}
	.st20{fill:#EFBC2E;}
	.st21{fill:#2A2B2B;}
	.st22{fill:#3D4039;}
	.st23{fill:#D6E3DD;}
	.st24{fill:#C7C6C7;stroke:#3D4039;stroke-width:0.1;stroke-miterlimit:10;}
	.st25{fill:#E59C0D;}
	.st26{fill:#F39317;}
	.st27{fill:#E27F08;}
	.st28{fill:#F7D878;}
	.st29{fill:#111111;}
	.st30{fill:#E1EAF0;}
	.st31{fill:none;stroke:#E27F08;stroke-miterlimit:10;}
	.st32{fill:#444443;}
	.st33{opacity:0.57;clip-path:url(#XMLID_50_);}
	.st34{opacity:0.56;clip-path:url(#XMLID_51_);}
	.st35{opacity:0.25;fill:url(#SVGID_4_);}
	.st36{opacity:0.25;fill:url(#SVGID_5_);}
	.st37{opacity:0.5;fill:url(#SVGID_6_);}
</style>
<path class="st0" d="M579.45,256.19L358.42,35.16c-22.88-22.88-59.99-22.88-82.87,0L54.53,256.19c-22.88,22.88-22.88,59.99,0,82.87
	l221.03,221.03c22.88,22.88,59.99,22.88,82.87,0l221.03-221.03C602.33,316.17,602.33,279.07,579.45,256.19z"/>
<path class="st1" d="M37.5,293.59c-1.12,16.31,4.56,33,17.02,45.46l221.03,221.03c22.88,22.88,59.99,22.88,82.87,0l221.03-221.03
	c11.44-11.44,17.16-26.44,17.16-41.43 M596.61,297.62c0-15-5.72-29.99-17.16-41.44L358.42,35.16c-22.88-22.88-59.99-22.88-82.87,0
	L54.53,256.19c-10.42,10.42-16.09,23.78-17.02,37.41 M481.54,348.66L368.03,462.17c-22.88,22.88-59.99,22.88-82.87,0L152.44,329.45
	c-22.88-22.88-22.88-59.99,0-82.87l113.51-113.51c22.88-22.88,59.99-22.88,82.87,0l132.72,132.72
	C504.42,288.68,504.42,325.78,481.54,348.66z"/>
<linearGradient id="SVGID_1_" gradientUnits="userSpaceOnUse" x1="306.916" y1="231.0806" x2="306.916" y2="115.9122">
	<stop  offset="0" style="stop-color:#FFFFFF"/>
	<stop  offset="0.9643" style="stop-color:#3497CB"/>
</linearGradient>
<path class="st2" d="M173.93,225.1l92.02-92.02c22.88-22.88,59.99-22.88,82.87,0l98.01,98.01H167.01L173.93,225.1z"/>
<g>
	<path class="st3" d="M167.01,233.92h285.32l-22.95-13.77h-10.71v-9.18h-5.35l-2.29-6.12h-6.12l-12.24-10.71l-5.35-3.82l0.76-9.18
		h-16.83l-3.06-7.65h-9.94l-6.88-9.18h-11.47l-9.94-11.47h-7.65l-1.53,6.88l-6.88,1.53c0,0-2.29-5.35-4.21-5.35
		s-5.74-3.06-5.74-3.06l-9.94,6.12l-6.12-6.12h-8.41l-3.06,6.12l-6.12,6.88l-9.94,11.47l-10.71,8.41l-16.83,3.06l-13,4.59
		l-3.06,7.65l-8.41,7.65l-13.17,0.76l-5.19-0.76L167.01,233.92z"/>
	<path class="st4" d="M413.32,210.97l-2.29-6.12h-6.12l-12.24-10.71l-5.35-3.82l0.76-9.18h-16.83l-3.06-7.65h-9.94l-6.88-9.18
		h-11.47l-9.94-11.47h-7.65l-1.53,6.88l-6.88,1.53c0,0-2.29-5.35-4.21-5.35s-5.74-3.06-5.74-3.06v20.65l-13.77,5.1v7.14v4.08
		l-19.89-2.55c0,0-2.04,6.37,0,7.39c2.04,1.02,3.31,6.12,3.31,6.12l-8.16,0.51l-8.41-1.02l-2.8-1.27c0,0-5.86,1.78-5.86,3.06
		c0,1.27,0,5.1,0,5.1l-12.49,7.65l-8.41,9.18c0,0,13.51,2.29,14.53,2.55c1.02,0.25,15.04,0,15.04,0l-0.51-14.28l14.79-1.02
		c0,0,2.04,6.12,2.04,8.67c0,2.55-0.51,10.96-0.51,10.96h12.49l9.18-13.77c0,0,4.59-5.35,3.82-6.88c-0.76-1.53-5.86-12.24-6.63-13
		c-0.76-0.76-1.02-3.82-1.02-3.82l2.55-5.35l11.47,0.25c0,0-1.53,15.81-1.27,16.57c0.25,0.76,19.63,0.51,19.63,0.51l0.25,9.94
		l34.17,4.08l9.69,8.41l4.08,6.12h16.83l1.27-9.18l-3.31-7.14l-3.82-3.31l0.51-3.57l14.79,0.76l8.92-2.04"/>
</g>
<g>
	<defs>
		<path id="SVGID_2_" d="M481.54,348.66L368.03,462.17c-22.88,22.88-59.99,22.88-82.87,0L152.44,329.45
			c-22.88-22.88-22.88-59.99,0-82.87l113.51-113.51c22.88-22.88,59.99-22.88,82.87,0l132.72,132.72
			C504.42,288.68,504.42,325.78,481.54,348.66z"/>
	</defs>
	<clipPath id="SVGID_3_">
		<use xlink:href="#SVGID_2_"  style="overflow:visible;"/>
	</clipPath>
	<g class="st5">
		<path class="st6" d="M254.81,337.01L254.81,337.01c-3.04-2.69-3.32-7.38-0.62-10.42l8.74-9.85c2.69-3.04,7.38-3.32,10.42-0.62l0,0
			c3.04,2.69,3.32,7.38,0.62,10.42l-8.74,9.85C262.53,339.42,257.85,339.7,254.81,337.01z"/>
		<path class="st7" d="M345.16,303.55l-31.71,1.96c-0.63,0.04-1.17-0.44-1.21-1.07l-1.68-27.09c-0.04-0.63,0.44-1.17,1.07-1.21
			l31.71-1.96c0.63-0.04,1.17,0.44,1.21,1.07l1.68,27.09C346.27,302.97,345.79,303.51,345.16,303.55z"/>
		<path class="st6" d="M382.86,310.58l-14.97-39.84l-8.93-1.97l-24.7,27.14l-34.87,9.61l-10.71,20.03l14.03,21.03l14.94,5.51
			l36.74-7.69c6.03-2.71,14.11-9.99,17.04-12.56c4.34-3.82,7.23-9.04,8-14.77c0.38-2.84,0.07-4.32,0.07-4.32L382.86,310.58z"/>
		<path class="st8" d="M256.03,271.35l8.35-1.09c0,0,0.18-0.18,0.5-0.49c5.97-5.71,13.84-9.02,22.09-9.34
			c6.22-0.24,14.68,0.09,19.55,3.02c0,0,1.22,4.7-1.39,9.51l4.9,7.72l63.31,39.64c1.85,1.16,3.28,2.9,4.02,4.96
			c0.77,2.13,0.95,4.26-1.07,7.23c0,0-1.19,2.87-6.24,3.1c-1.8,0.08-3.59-0.4-5.12-1.36l-53.8-32.79l50.17,31.64
			c2.36,1.49,4.01,4.6,3.96,7.39c-0.06,3.01-0.06,3.01-2.42,6.24c0,0-4.34,4.83-10.55,1.63l-47.55-29.59l42.35,27.41
			c2.61,1.69,4,4.77,3.46,7.82c-0.19,1.07-0.62,2.18-1.41,3.2c0,0-2.69,6.28-11.47,2.24l-44.77-27.59l34.42,21.76
			c1.99,1.29,3.21,3.48,3.24,5.85c0.03,2.4-0.24,4.38-2.6,6.52c0,0-4.96,6.3-12.73,0.34l-53.67-36.61l-9.29-5.7
			c0,0-3.61-2.01-4.24-10.11c0,0-0.51-3.41,0.1-4.5l-5.45,0.05L256.03,271.35z"/>
		<path class="st6" d="M351.82,260.94c-5.54-2.57-13.55-5.24-24.57-6.64c-0.02,0-0.05,0-0.07,0c0,0-0.01,0-0.01,0
			c-6.58,0.41-12.87,2.86-18,7.02c-2.53,2.05-5.47,4.43-8.4,6.79c0,0-10.49,6.78-11.32,10.7c0,0-0.44,0.7-0.66,2.22
			c-1.12,7.63,7.23,13.04,13.79,8.99c2.36-1.46,5.14-3.55,8.38-6.52l10.74-7.26c0,0-7.53,6.05,16.75,22.31
			c0,0,15.27,3.33,28.13,16.38l6.09,1.52l4.17-8.61l-11.94-32.67C362.59,268.87,357.89,263.76,351.82,260.94z"/>
		<path class="st6" d="M269.82,343.83L269.82,343.83c-3.04-2.69-3.32-7.38-0.62-10.42L274,328c2.69-3.04,7.38-3.32,10.42-0.62l0,0
			c3.04,2.69,3.32,7.38,0.62,10.42l-4.8,5.41C277.55,346.24,272.86,346.52,269.82,343.83z"/>
		<path class="st6" d="M280.66,353.84L280.66,353.84c-3.08-2.74-3.37-7.5-0.63-10.58l4.88-5.5c2.74-3.08,7.5-3.37,10.58-0.63h0
			c3.08,2.74,3.37,7.5,0.63,10.58l-4.88,5.5C288.5,356.3,283.74,356.58,280.66,353.84z"/>
		<path class="st6" d="M291.93,363.76L291.93,363.76c-3.1-2.75-3.39-7.54-0.64-10.65l4.91-5.53c2.75-3.1,7.54-3.39,10.65-0.64v0
			c3.1,2.75,3.39,7.54,0.64,10.65l-4.91,5.53C299.82,366.23,295.03,366.52,291.93,363.76z"/>
		<polygon class="st9" points="234.37,247.55 223.49,276.85 210.97,310.56 210.92,310.67 129.89,280.51 129.89,208.74 		"/>
		<polygon class="st10" points="223.49,276.85 210.97,310.56 129.89,280.43 129.89,242.08 		"/>
		<path class="st11" d="M231.71,249.89l-21.28,57.28c-1.37,3.7,0.53,7.85,4.23,9.22l17.91,6.66c3.7,1.37,7.85-0.53,9.22-4.23
			l21.28-57.28c1.37-3.7-0.53-7.85-4.23-9.22l-17.91-6.66C237.24,244.29,233.09,246.19,231.71,249.89z"/>
		<path class="st12" d="M253.27,287.94l-11.47,30.88c-1.37,3.7-5.52,5.6-9.22,4.23l-17.91-6.66c-2.68-1-4.41-3.45-4.64-6.14
			c-0.09-1.02,0.04-2.07,0.41-3.08l11.48-30.9L253.27,287.94z"/>
		<circle class="st13" cx="253.39" cy="260.39" r="4.32"/>
		<polygon class="st14" points="492.5,200.74 492.5,274.22 415.73,307.98 415.68,307.86 401.23,274.94 388.67,246.32 		"/>
		<polygon class="st15" points="492.5,234.88 492.5,274.14 415.68,307.86 401.23,274.94 		"/>
		<path class="st16" d="M391.46,248.5l24.56,55.95c1.59,3.61-0.07,7.87-3.69,9.45l-17.5,7.68c-3.61,1.59-7.87-0.07-9.45-3.69
			l-24.56-55.95c-1.59-3.61,0.07-7.87,3.69-9.45l17.5-7.68C385.62,243.23,389.87,244.89,391.46,248.5z"/>
		<path class="st17" d="M372.14,287.73l13.24,30.17c1.59,3.61,5.84,5.27,9.45,3.69l17.5-7.68c2.62-1.15,4.2-3.7,4.28-6.4
			c0.03-1.02-0.16-2.06-0.59-3.05l-13.25-30.18L372.14,287.73z"/>
		<circle class="st18" cx="370.42" cy="260.23" r="4.32"/>
	</g>
</g>
<path class="st19" d="M481.54,348.66L368.03,462.17c-22.88,22.88-59.99,22.88-82.87,0L152.44,329.45
	c-22.88-22.88-22.88-59.99,0-82.87l113.51-113.51c22.88-22.88,59.99-22.88,82.87,0l132.72,132.72
	C504.42,288.68,504.42,325.78,481.54,348.66z"/>
<g id="XMLID_145_">
	<path id="XMLID_662_" class="st20" d="M398.83,409.86c0,0-0.04,0.76-0.18,1.85c-0.31,2.55-1.08,6.89-2.82,7.3
		c0,0-3.6,0.78-4.29,0.36c0,0,0.28-12.12-9.65-15.24c-5.88-1.84-17.31-1.91-19,15.72c0,0-67.19-1.62-71.73-0.88
		c0,0-1.76-0.32-1.4-3.07c0,0,0.03-0.59-0.03-1.55c-0.23-3.68-1.81-12.81-11.62-14.89c0,0-14.07-3.24-17.06,12.58
		c-0.14,0.74-0.26,1.53-0.34,2.35c-0.1,0.82-0.15,1.69-0.19,2.6c0,0-5.4,1.25-7.62-0.57c0,0-5.58,0.03-5.68-0.26L247,414.6
		c0,0,0.06-0.06,0.15-0.18c0.5-0.61,2-2.59,0.7-2.74c0,0-1.04-4.61-0.35-9.55c0.75-5.37,3.53-11.13,11.9-11.8
		c0,0,20.18-4.08,25.71-6.91c10.05-5.15,27.08-15.9,52.04-14.51c10.78,0.61,28.57,0.38,42.98,4.25c0,0,0.67,0.86,0.97,2.06
		c0,0,9.98,10.55,10.55,11.09c0.48,0.44,0.95,0.88,1.39,1.33c0.69,0.69,1.32,1.38,1.84,2.1c1.67,2.31,2.29,4.98,0.54,9.01
		C395.43,398.75,399.95,406.23,398.83,409.86z"/>
	<g id="XMLID_141_">
		<g id="XMLID_139_">
			<g>
				<path id="XMLID_65_" class="st21" d="M263.98,417.62l-3.45-0.64c0,0-1.32-17.62,14.51-17.91c6.02-0.11,16.19,3.92,14.77,19.03
					c0,0-1.35,2.57-4.09,2.97c0,0,7.83-13.56-7.27-18.77C273.13,400.48,262.62,404.43,263.98,417.62z"/>
				<path id="XMLID_64_" class="st21" d="M365.04,419.67l-2.22,0.11c0,0-1.2-15.77,13.92-16.93c6.01-0.46,16.02,4.58,14.81,16.51
					c0,0-0.22-1.2-2.03-0.63c0,0,0.09-8.36-8.85-11.98C375.44,404.64,365.27,406.67,365.04,419.67z"/>
			</g>
		</g>
		<g id="XMLID_22_">
			<g id="XMLID_585_">
				
					<ellipse id="XMLID_610_" transform="matrix(0.0465 -0.9989 0.9989 0.0465 -150.4884 670.0032)" class="st22" cx="275.71" cy="413.83" rx="12.18" ry="12.57"/>
				
					<ellipse id="XMLID_607_" transform="matrix(0.0464 -0.9989 0.9989 0.0464 -151.1227 669.829)" class="st23" cx="275.27" cy="414.07" rx="8.96" ry="9.08"/>
				<path id="XMLID_604_" class="st22" d="M281.64,414.12c-0.16,3.47-3.08,6.16-6.53,6c-3.44-0.16-6.1-3.11-5.94-6.58
					c0.16-3.47,3.08-6.16,6.53-6C279.15,407.7,281.81,410.65,281.64,414.12z"/>
				<path id="XMLID_603_" class="st23" d="M283.06,415.62l0.26-2.38l-4.9-0.26c-0.03-0.09-0.06-0.18-0.09-0.26l3.84-2.85l-1.49-1.87
					l-3.64,3.24c-0.08-0.05-0.16-0.09-0.25-0.13l0.77-4.84l-2.38-0.24l-0.33,4.82c-0.12,0.02-0.24,0.05-0.36,0.09l-3-3.88
					l-1.81,1.57l3.19,3.46c-0.15,0.21-0.28,0.43-0.37,0.67l-4.83-0.42l-0.08,2.39l4.84,0c0.02,0.08,0.05,0.15,0.08,0.22l-3.83,3.17
					l1.63,1.76l3.48-3.45c0.13,0.08,0.27,0.14,0.41,0.2l-1.02,4.79l2.36,0.42l0.66-5.06c0.09-0.02,0.18-0.05,0.27-0.08l-0.06,0.04
					l2.82,4.09l1.92-1.42l-3.17-3.83c0.13-0.19,0.25-0.39,0.33-0.6L283.06,415.62z"/>
				<g id="XMLID_586_">
					<path id="XMLID_599_" class="st24" d="M274.84,412.22c-0.02,0.38-0.34,0.67-0.71,0.65c-0.38-0.02-0.67-0.34-0.65-0.71
						c0.02-0.38,0.34-0.67,0.71-0.65C274.57,411.52,274.86,411.84,274.84,412.22z"/>
					<path id="XMLID_595_" class="st24" d="M277.76,412.68c-0.02,0.38-0.34,0.67-0.71,0.65c-0.38-0.02-0.67-0.34-0.65-0.71
						c0.02-0.38,0.34-0.67,0.71-0.65C277.48,411.98,277.77,412.3,277.76,412.68z"/>
					<path id="XMLID_591_" class="st24" d="M277.24,415.56c-0.02,0.38-0.34,0.67-0.71,0.65c-0.38-0.02-0.67-0.34-0.65-0.71
						c0.02-0.38,0.34-0.67,0.71-0.65C276.96,414.87,277.25,415.18,277.24,415.56z"/>
					<path id="XMLID_587_" class="st24" d="M274.29,415.1c-0.02,0.38-0.34,0.67-0.71,0.65c-0.38-0.02-0.67-0.34-0.65-0.71
						c0.02-0.38,0.34-0.67,0.71-0.65S274.31,414.72,274.29,415.1z"/>
				</g>
			</g>
			<g id="XMLID_373_">
				<path id="XMLID_398_" class="st22" d="M389.96,417.95c-0.31,6.72-6.19,11.91-13.13,11.58c-6.94-0.32-12.31-6.03-11.99-12.75
					c0.31-6.72,6.19-11.91,13.13-11.58C384.9,405.53,390.27,411.24,389.96,417.95z"/>
				
					<ellipse id="XMLID_395_" transform="matrix(0.0466 -0.9989 0.9989 0.0466 -57.7425 774.7231)" class="st23" cx="376.97" cy="417.61" rx="8.96" ry="9.08"/>
				<path id="XMLID_392_" class="st22" d="M383.34,417.66c-0.16,3.47-3.08,6.16-6.53,6c-3.44-0.16-6.1-3.11-5.94-6.58
					c0.16-3.47,3.08-6.16,6.53-6C380.84,411.24,383.5,414.19,383.34,417.66z"/>
				<path id="XMLID_391_" class="st23" d="M384.76,419.17l0.26-2.38l-4.9-0.26c-0.03-0.09-0.06-0.18-0.09-0.26l3.84-2.85l-1.49-1.87
					l-3.64,3.24c-0.08-0.05-0.16-0.09-0.25-0.13l0.77-4.84l-2.38-0.24l-0.33,4.82c-0.12,0.02-0.24,0.05-0.36,0.09l-3-3.88
					l-1.81,1.57l3.19,3.46c-0.15,0.21-0.28,0.43-0.37,0.67l-4.83-0.42l-0.08,2.39l4.84,0c0.02,0.08,0.05,0.15,0.08,0.22l-3.83,3.17
					l1.63,1.76l3.48-3.45c0.13,0.08,0.27,0.14,0.41,0.2l-1.02,4.79l2.36,0.42l0.66-5.06c0.09-0.02,0.18-0.05,0.27-0.08l-0.06,0.04
					l2.82,4.09l1.92-1.42l-3.17-3.83c0.13-0.19,0.25-0.39,0.33-0.6L384.76,419.17z"/>
				<g id="XMLID_374_">
					<path id="XMLID_387_" class="st24" d="M376.54,415.76c-0.02,0.38-0.34,0.67-0.71,0.65c-0.38-0.02-0.67-0.34-0.65-0.71
						c0.02-0.38,0.34-0.67,0.71-0.65C376.27,415.06,376.56,415.38,376.54,415.76z"/>
					<path id="XMLID_383_" class="st24" d="M379.45,416.22c-0.02,0.38-0.34,0.67-0.71,0.65c-0.38-0.02-0.67-0.34-0.65-0.71
						c0.02-0.38,0.34-0.67,0.71-0.65C379.18,415.53,379.47,415.85,379.45,416.22z"/>
					<path id="XMLID_379_" class="st24" d="M378.93,419.1c-0.02,0.38-0.34,0.67-0.71,0.65c-0.38-0.02-0.67-0.34-0.65-0.71
						c0.02-0.38,0.34-0.67,0.71-0.65C378.66,418.41,378.95,418.73,378.93,419.1z"/>
					<path id="XMLID_375_" class="st24" d="M375.99,418.64c-0.02,0.38-0.34,0.67-0.71,0.65c-0.38-0.02-0.67-0.34-0.65-0.71
						c0.02-0.38,0.34-0.67,0.71-0.65C375.72,417.95,376.01,418.26,375.99,418.64z"/>
				</g>
			</g>
		</g>
	</g>
	<g id="XMLID_143_">
		<path id="XMLID_659_" class="st25" d="M393.05,387.64c-0.01,0-0.02,0-0.03,0c-1.51,0.17-6.98-1.19-6.98-1.19
			c-3.07-0.1-6.73-0.12-10.83-0.09c-22.9,0.19-59.45,2.18-83.16,3.61c-13.71,0.83-23.13,1.47-23.13,1.47
			c-6.87,4.9-21.38,10.71-21.38,10.71l-0.05-0.03c0.75-5.37,3.53-11.13,11.9-11.8c0,0,3.51-0.71,8.01-1.74
			c6.28-1.44,14.47-3.52,17.7-5.17c10.05-5.15,27.08-15.9,52.04-14.51c10.78,0.61,28.57,0.38,42.98,4.25c0,0,0.67,0.86,0.97,2.06
			c0,0,0,0,0,0.01c0.25,0.26,8.74,9.25,10.32,10.85c0.11,0.12,0.19,0.19,0.23,0.23C392.14,386.75,392.61,387.19,393.05,387.64z"/>
		<path id="XMLID_653_" class="st26" d="M334.27,392.56c-0.05,1.01-2.21,1.74-4.82,1.61c-2.62-0.12-4.7-1.04-4.65-2.05
			c0.05-1.01,2.21-1.74,4.82-1.61C332.23,390.63,334.32,391.55,334.27,392.56z"/>
		<path id="XMLID_650_" class="st26" d="M371.84,390.83c-0.05,1.01-2.21,1.74-4.82,1.61c-2.62-0.12-4.7-1.04-4.65-2.05
			c0.05-1.01,2.21-1.74,4.82-1.61C369.8,388.89,371.88,389.81,371.84,390.83z"/>
		<path id="XMLID_647_" class="st26" d="M386.07,395.98c-0.08,1.68-1.5,2.97-3.18,2.9c-1.68-0.08-2.97-1.5-2.9-3.18
			c0.08-1.68,1.5-2.97,3.18-2.9C384.85,392.88,386.15,394.3,386.07,395.98z"/>
		<path id="XMLID_641_" class="st20" d="M293,381.96c0,0-14.58,7.47-8.51,7.75l7.55,0.26C292.05,389.97,291.73,385.46,293,381.96z"
			/>
		<path id="XMLID_635_" class="st23" d="M395.43,398.75c-2.54,0.2-10.41-7.45-10.41-7.45c-2.98-3.93,9.57-1.61,9.57-1.61l0.3,0.05
			C396.55,392.05,397.18,394.71,395.43,398.75z"/>
		<path id="XMLID_626_" class="st23" d="M306.71,376.11c3.68-1.28,19.3-6.41,29.58-4.79c0.33,0.05,0.55,0.38,0.47,0.71
			c-0.55,2.31-2.56,10.65-3.7,14.2c-0.21,0.64-0.78,1.08-1.45,1.12l-26.43,1.43l-1.55-4.18l2-7.41
			C305.81,376.68,306.21,376.28,306.71,376.11z"/>
		<path id="XMLID_13_" class="st23" d="M306.71,376.11c3.68-1.28,19.3-6.41,29.58-4.79c0.33,0.05,0.55,0.38,0.47,0.71
			c-0.55,2.31-2.56,10.65-3.7,14.2c-0.21,0.64-0.78,1.08-1.45,1.12l-26.43,1.43l-1.55-4.18l2-7.41
			C305.81,376.68,306.21,376.28,306.71,376.11z"/>
		<path id="XMLID_196_" class="st23" d="M306.71,376.11c3.68-1.28,19.3-6.41,29.58-4.79c0.33,0.05,0.55,0.38,0.47,0.71
			c-0.55,2.31-2.56,10.65-3.7,14.2c-0.21,0.64-0.78,1.08-1.45,1.12l-26.43,1.43l-1.55-4.18l2-7.41
			C305.81,376.68,306.21,376.28,306.71,376.11z"/>
		<path id="XMLID_199_" class="st23" d="M306.71,376.11c3.68-1.28,19.3-6.41,29.58-4.79c0.33,0.05,0.55,0.38,0.47,0.71
			c-0.55,2.31-2.56,10.65-3.7,14.2c-0.21,0.64-0.78,1.08-1.45,1.12l-26.43,1.43l-1.55-4.18l2-7.41
			C305.81,376.68,306.21,376.28,306.71,376.11z"/>
		<path id="XMLID_620_" class="st26" d="M260.72,414.39c-0.1,0.82-0.15,1.69-0.19,2.6c0,0-5.4,1.25-7.62-0.57
			c0,0-5.58,0.03-5.68-0.26L247,414.6c0,0,11.56,0.19,13.47-0.2C260.56,414.38,260.64,414.38,260.72,414.39z"/>
		<path id="XMLID_617_" class="st26" d="M252.53,413.14c0,0-3.72,1.56-5.38,1.28c0.5-0.61,2-2.59,0.7-2.74c0,0,1.58-8.53,5.17-9.07
			C253.02,402.6,255.42,413.03,252.53,413.14z"/>
		<path id="XMLID_614_" class="st27" d="M252.53,413.14c-0.69-2.29,0.49-10.54,0.49-10.54S255.42,413.03,252.53,413.14z"/>
		<path id="XMLID_574_" class="st25" d="M364.06,406.62c-1.58-0.07-2.37-3.43-2.37-3.43c0.32-3.31-3.02-2.7-4.29-3.05
			c-20.46-5.54-56.87-0.34-64.57-0.22c-0.63,0.01-6.04,2.07-6.04,2.19c-3.44-4.11-8.97-5.27-12.45-5.04
			c-14.88,0.99-13.43,14.88-13.43,14.88s0.05,0.03,0.13,0.09c2.98-15.81,17.06-12.58,17.06-12.58c8.07,1.72,11.9,8.6,11.62,14.89
			c0.03-0.24,7.01,1.15,7.77,1l37.43,0.97l20.51,0.54c0,0,3.32,0.7,5.17-3.82c0.09-0.21,0.17-0.43,0.25-0.67c0,0,1.44-2.61,3.4-5.1
			C364.28,406.85,364.22,406.62,364.06,406.62z"/>
		<path id="XMLID_571_" class="st28" d="M297.83,413.46c0,0,29.7-6.09,53.12-1.92L297.83,413.46z"/>
		<path id="XMLID_568_" class="st20" d="M256.83,398.09c0,0,10.91,5.98,27.91-9.2l-15.82,2.55
			C268.92,391.44,262.16,395.61,256.83,398.09z"/>
		<path id="XMLID_565_" class="st26" d="M391.43,386.08c-0.14-0.05-0.29-0.12-0.44-0.2c-7.6-3.62-9.82-10.44-9.88-10.66
			C381.36,375.49,389.85,384.47,391.43,386.08z"/>
		<path id="XMLID_493_" class="st29" d="M366.96,370.77c0,0,2.18-1.76,2.55,0.47L366.96,370.77z"/>
		
			<rect id="XMLID_492_" x="370.34" y="366.07" transform="matrix(0.7968 0.6042 -0.6042 0.7968 297.9442 -148.951)" class="st29" width="0.22" height="4.94"/>
		<path id="XMLID_407_" class="st26" d="M398.65,411.7c-0.31,2.55-1.08,6.89-2.82,7.3c0,0-3.6,0.78-4.29,0.36
			c0,0,0.28-12.12-9.65-15.24c-5.88-1.84-17.31-1.91-19,15.72c0,0-67.19-1.62-71.73-0.88c0,0-1.76-0.32-1.4-3.07
			c0,0,0.03-0.79-0.04-1.74c0,0,60.53-5.94,70.89-1.12c0,0,5.87-14.37,20.43-11c0,0,5.77,0.98,9.55,6.38c0,0,5.01,4.5,7.91,3.33
			C398.56,411.72,398.6,411.71,398.65,411.7z"/>
		<path id="XMLID_363_" class="st28" d="M269.95,389.92c0,0,15.23-3.04,19.28-5.93c0,0-9.76,5.73-4.77,5.39
			c27.77-1.89,90.87-3.22,90.88-3.07c0.16,3.3-106.67,5.17-106.67,5.17S270.33,390.99,269.95,389.92z"/>
		<path id="XMLID_638_" class="st27" d="M380.13,373.16c0,0-4.09,0.65-5.13,1.44c-0.27,0.21-0.62,0.27-0.95,0.17
			c-2.27-0.68-9.59-2.75-17.24-3.6C356.81,371.17,369.62,371.33,380.13,373.16z"/>
		<path id="XMLID_310_" class="st30" d="M268.92,391.44l-0.15,0.15c-0.06,0.06-0.11,0.12-0.17,0.17
			c-6.56,6.44-16.17,5.77-16.17,5.77s-0.09-3.09,2.78-5.41c0.82-0.66,1.88-1.26,3.24-1.7c0.25-0.09,0.51-0.16,0.78-0.23
			c0,0,3.68-0.58,8.18-1.62l0.06,0.02C267.47,388.6,272.16,389.85,268.92,391.44z"/>
		<path id="XMLID_401_" class="st27" d="M360.61,413.03c-1.85,4.52-5.17,3.82-5.17,3.82l-20.51-0.54l-37.43-0.97
			c-0.76,0.15-1.39,0.19-1.93,0.14l-2.03-1.66c0,0,53.68-5.72,66.75-0.9C360.4,412.97,360.51,413,360.61,413.03z"/>
		<path id="XMLID_656_" class="st31" d="M368.65,403.23c-1.51,0.74-3.06,2.35-4.38,4.02c-1.96,2.49-3.4,5.1-3.4,5.1
			c-0.08,0.24-0.16,0.46-0.25,0.67c-1.85,4.52-5.17,3.82-5.17,3.82l-20.51-0.54l-37.43-0.97c-0.76,0.15-1.39,0.19-1.93,0.14
			c-3.25-0.26-2.66-3.56-2.66-3.56c-1.47-3.51-1.95-7.55-1.97-11.2c-0.04-5.9,1.09-10.79,1.09-10.79
			c4.63-0.84,25.19-1.77,44.71-2.49c19.78-0.73,38.5-1.24,38.5-1.24C377.34,397.47,368.65,403.23,368.65,403.23z"/>
		<path id="XMLID_404_" class="st31" d="M336.63,387.63c0,0-3.82,23.43-1.79,28.39"/>
	</g>
	<g id="XMLID_137_">
		<path id="XMLID_644_" class="st32" d="M375.25,386.22c0,0.04-0.01,0.09-0.04,0.14c-10.69,0.09-24.35,0.57-38.29,1.2
			c-15.93,0.73-32.22,1.65-44.87,2.41l-0.01-0.02c0,0-0.26-8.49,2.77-9.9c0,0,20.69-11.73,45.96-10.02
			c8.3,0.56,31.97,1.37,32.69,6.11C373.47,376.14,375.3,384.44,375.25,386.22z"/>
		<path id="XMLID_629_" class="st23" d="M343.81,372.68c-0.66,3.4-2.66,13.76-2.65,14.45l25.18-0.57c0,0,5.01-6.39,3.94-10.83
			c-0.13-0.54-16.64-3.91-25.14-4.12C344.5,371.59,343.94,372.04,343.81,372.68z"/>
		<path id="XMLID_623_" class="st23" d="M296.04,381.23c1.6-1.31,5.48-2.85,7.48-3.57c0.31-0.11,0.62,0.15,0.56,0.48
			c-0.33,1.76-1.27,6.57-1.73,6.87c0,0-5.04,1.35-6.97,0.15C295.39,385.16,294.91,382.16,296.04,381.23z"/>
		<path id="XMLID_372_" class="st21" d="M302.79,382.42c0,0,1.96,3.81,0.07,5.38c0,0-5.49,0.69-5.55-3.03
			C297.3,384.77,297.69,381.47,302.79,382.42z"/>
		<g id="XMLID_219_">
			<defs>
				<path id="XMLID_215_" d="M343.81,372.68c-0.66,3.4-2.66,13.76-2.65,14.45l25.18-0.57c0,0,5.01-6.39,3.94-10.83
					c-0.13-0.54-16.64-3.91-25.14-4.12C344.5,371.59,343.94,372.04,343.81,372.68z"/>
			</defs>
			<clipPath id="XMLID_50_">
				<use xlink:href="#XMLID_215_"  style="overflow:visible;"/>
			</clipPath>
			<g id="XMLID_18_" class="st33">
				
					<rect id="XMLID_23_" x="352.13" y="365.63" transform="matrix(0.7458 0.6662 -0.6662 0.7458 342.1171 -139.1183)" class="st0" width="2.43" height="26.17"/>
				
					<rect id="XMLID_20_" x="356.63" y="368.16" transform="matrix(0.7458 0.6662 -0.6662 0.7458 345.3272 -142.474)" class="st0" width="5.43" height="26.17"/>
			</g>
		</g>
		<path id="XMLID_205_" class="st23" d="M306.71,376.11c3.68-1.28,19.3-6.41,29.58-4.79c0.33,0.05,0.55,0.38,0.47,0.71
			c-0.55,2.31-2.56,10.65-3.7,14.2c-0.21,0.64-0.78,1.08-1.45,1.12l-26.43,1.43l-1.55-4.18l2-7.41
			C305.81,376.68,306.21,376.28,306.71,376.11z"/>
		<g id="XMLID_217_">
			<defs>
				<path id="XMLID_214_" d="M306.71,376.11c3.68-1.28,19.3-6.41,29.58-4.79c0.33,0.05,0.55,0.38,0.47,0.71
					c-0.55,2.31-2.56,10.65-3.7,14.2c-0.21,0.64-0.78,1.08-1.45,1.12l-26.43,1.43l-1.55-4.18l2-7.41
					C305.81,376.68,306.21,376.28,306.71,376.11z"/>
			</defs>
			<clipPath id="XMLID_51_">
				<use xlink:href="#XMLID_214_"  style="overflow:visible;"/>
			</clipPath>
			<g id="XMLID_190_" class="st34">
				
					<rect id="XMLID_192_" x="316.56" y="364.2" transform="matrix(0.78 0.6258 -0.6258 0.78 307.7724 -115.1596)" class="st0" width="2.19" height="31.79"/>
				
					<rect id="XMLID_191_" x="321.44" y="365.99" transform="matrix(0.78 0.6258 -0.6258 0.78 310.6604 -119.8033)" class="st0" width="8.52" height="31.79"/>
			</g>
		</g>
	</g>
</g>
<g>
	<path d="M204.79,438.79l12.94-13.38l5.69,5.5c1.43,1.38,2.35,2.51,2.77,3.38s0.52,1.8,0.32,2.79c-0.21,0.99-0.69,1.88-1.46,2.67
		c-0.97,1-2.07,1.55-3.29,1.63s-2.5-0.36-3.84-1.32c0.25,0.91,0.37,1.75,0.36,2.52c-0.01,0.78-0.2,2-0.56,3.66l-0.89,4.19
		l-3.23-3.13l0.86-4.8c0.31-1.71,0.47-2.83,0.48-3.34c0.01-0.52-0.08-0.97-0.27-1.34s-0.59-0.87-1.21-1.47l-0.55-0.53l-5.4,5.59
		L204.79,438.79z M214.97,433.68l2,1.93c1.3,1.25,2.16,1.98,2.59,2.18c0.43,0.2,0.86,0.26,1.3,0.17c0.44-0.09,0.86-0.34,1.25-0.74
		c0.44-0.45,0.67-0.93,0.69-1.44c0.03-0.51-0.14-1.01-0.51-1.51c-0.19-0.24-0.83-0.89-1.93-1.95l-2.11-2.04L214.97,433.68z"/>
	<path d="M218.19,451.75l12.94-13.38l2.7,2.61l-12.94,13.38L218.19,451.75z"/>
	<path d="M229.33,449.73c1.32-1.36,2.63-2.31,3.93-2.84c0.96-0.39,1.97-0.6,3.02-0.63c1.05-0.03,2.02,0.12,2.9,0.47
		c1.17,0.45,2.31,1.21,3.4,2.26c1.97,1.91,2.96,4.04,2.96,6.41s-1.05,4.64-3.16,6.82c-2.09,2.16-4.31,3.28-6.67,3.37
		c-2.35,0.08-4.51-0.82-6.48-2.73c-1.99-1.92-2.98-4.06-2.98-6.41C226.24,454.1,227.27,451.86,229.33,449.73z M232.2,452.33
		c-1.47,1.52-2.23,3-2.28,4.46s0.45,2.71,1.53,3.75s2.34,1.51,3.78,1.4c1.44-0.11,2.91-0.94,4.41-2.49c1.48-1.53,2.25-3,2.31-4.41
		c0.06-1.41-0.47-2.65-1.58-3.72c-1.11-1.08-2.38-1.56-3.8-1.46C235.15,449.97,233.69,450.8,232.2,452.33z"/>
	<path d="M250.98,457.57l5.35,5.17c1.06,1.02,1.81,1.83,2.24,2.42c0.44,0.59,0.72,1.23,0.86,1.9c0.14,0.68,0.12,1.38-0.05,2.11
		c-0.18,0.73-0.54,1.38-1.1,1.96c-0.61,0.63-1.33,1.04-2.18,1.24c-0.84,0.2-1.68,0.15-2.51-0.15c0.59,1.03,0.82,2.04,0.71,3.03
		c-0.12,1-0.55,1.88-1.29,2.65c-0.59,0.61-1.3,1.06-2.14,1.36c-0.84,0.3-1.67,0.39-2.49,0.26c-0.82-0.13-1.63-0.5-2.43-1.12
		c-0.5-0.39-1.61-1.41-3.35-3.06l-4.55-4.41L250.98,457.57z M246.38,467.73l-3.46,3.58l2.5,2.42c0.97,0.94,1.62,1.51,1.93,1.71
		c0.47,0.32,0.97,0.45,1.5,0.42c0.53-0.04,1.02-0.3,1.48-0.77c0.39-0.4,0.62-0.84,0.7-1.3c0.08-0.47-0.01-0.94-0.25-1.43
		c-0.24-0.48-0.98-1.32-2.21-2.51L246.38,467.73z M251.53,462.41l-2.99,3.09l1.77,1.71c1.05,1.02,1.72,1.64,2.01,1.85
		c0.52,0.39,1.03,0.58,1.55,0.58c0.52-0.01,0.99-0.23,1.41-0.66c0.4-0.41,0.61-0.86,0.63-1.34s-0.17-0.96-0.56-1.45
		c-0.24-0.29-0.99-1.05-2.27-2.28L251.53,462.41z"/>
	<path d="M263.59,495.67l-2.94-2.84l1.77-4.17l-5.35-5.17l-4.04,1.97l-2.87-2.77l18.16-8.34l2.86,2.76L263.59,495.67z
		 M263.74,485.56l2.96-6.75l-6.61,3.22L263.74,485.56z"/>
	<path d="M264.99,497.02l12.94-13.38l4.04,3.91l-6.4,11.48l11.23-6.81l4.05,3.92l-12.94,13.38l-2.51-2.43l10.19-10.53l-12.85,7.96
		l-2.6-2.52l7.54-13.09l-10.19,10.53L264.99,497.02z"/>
	<path d="M293.55,498.74l5.35,5.17c1.06,1.02,1.81,1.83,2.24,2.42c0.44,0.59,0.72,1.23,0.86,1.9c0.14,0.68,0.12,1.38-0.05,2.11
		c-0.18,0.73-0.54,1.38-1.1,1.96c-0.61,0.63-1.33,1.04-2.18,1.24c-0.84,0.2-1.68,0.15-2.51-0.15c0.59,1.03,0.82,2.04,0.71,3.03
		c-0.12,1-0.55,1.88-1.29,2.65c-0.59,0.61-1.3,1.06-2.14,1.36c-0.84,0.3-1.67,0.39-2.49,0.26c-0.82-0.13-1.63-0.5-2.43-1.12
		c-0.5-0.39-1.61-1.41-3.35-3.06l-4.55-4.41L293.55,498.74z M288.95,508.9l-3.46,3.58l2.5,2.42c0.97,0.94,1.62,1.51,1.93,1.71
		c0.47,0.32,0.97,0.45,1.5,0.42c0.53-0.04,1.02-0.3,1.48-0.77c0.39-0.4,0.62-0.84,0.7-1.3c0.08-0.47-0.01-0.94-0.25-1.43
		c-0.24-0.48-0.98-1.32-2.21-2.51L288.95,508.9z M294.09,503.58l-2.99,3.09l1.77,1.71c1.05,1.02,1.72,1.64,2.01,1.85
		c0.52,0.39,1.03,0.58,1.55,0.58c0.52-0.01,0.99-0.23,1.41-0.66c0.4-0.41,0.61-0.86,0.63-1.34s-0.17-0.96-0.56-1.46
		c-0.24-0.29-0.99-1.05-2.27-2.28L294.09,503.58z"/>
	<path d="M305.92,537.41l-2.86-2.93l1.89-4.12l-5.2-5.32l-4.1,1.85l-2.79-2.85l18.39-7.82l2.78,2.84L305.92,537.41z M306.36,527.31
		l3.15-6.66l-6.7,3.03L306.36,527.31z"/>
	<path d="M324.33,534.99l-0.62-3.51l6.9-1.22l0.62,3.51L324.33,534.99z"/>
	<path d="M345.25,533.05l-10.61-15.3l11.34-7.87l1.79,2.59l-8.25,5.73l2.35,3.39l7.68-5.33l1.79,2.58l-7.68,5.33l2.89,4.16
		l8.55-5.93l1.79,2.58L345.25,533.05z"/>
	<path d="M363.77,507.68l3.43-1.68c1,1.85,1.37,3.59,1.12,5.2c-0.26,1.61-1.11,3.11-2.55,4.49c-1.79,1.71-3.84,2.5-6.16,2.38
		c-2.32-0.12-4.49-1.24-6.51-3.35c-2.14-2.24-3.23-4.53-3.26-6.88s0.9-4.42,2.78-6.22c1.65-1.57,3.45-2.37,5.41-2.38
		c1.16-0.01,2.41,0.38,3.75,1.16l-2.07,3.21c-0.83-0.54-1.69-0.78-2.58-0.7s-1.7,0.46-2.42,1.16c-1,0.95-1.46,2.09-1.4,3.4
		c0.06,1.31,0.86,2.77,2.4,4.37c1.63,1.7,3.09,2.62,4.39,2.75c1.3,0.14,2.44-0.26,3.42-1.2c0.72-0.69,1.12-1.51,1.2-2.47
		S364.48,508.88,363.77,507.68z"/>
	<path d="M360.58,494.43l2.72-2.6l6.97,7.29c1.11,1.16,1.86,1.87,2.25,2.15c0.64,0.44,1.34,0.62,2.1,0.53
		c0.76-0.08,1.51-0.49,2.27-1.22c0.77-0.74,1.2-1.45,1.29-2.14c0.09-0.69-0.04-1.3-0.4-1.84c-0.36-0.54-1.05-1.33-2.07-2.4
		l-7.12-7.44l2.72-2.6l6.76,7.06c1.55,1.62,2.56,2.83,3.05,3.63c0.49,0.81,0.76,1.63,0.8,2.47c0.04,0.84-0.13,1.71-0.53,2.61
		s-1.13,1.87-2.2,2.88c-1.29,1.23-2.4,2.01-3.35,2.35c-0.95,0.34-1.84,0.46-2.68,0.35s-1.57-0.36-2.19-0.76
		c-0.92-0.6-2.09-1.65-3.53-3.16L360.58,494.43z"/>
	<path d="M399.16,483.28l-2.95,2.83l-4.1-1.93l-5.38,5.14l1.81,4.12l-2.88,2.76l-7.63-18.46l2.87-2.75L399.16,483.28z
		 M389.07,482.74l-6.63-3.22l2.96,6.73L389.07,482.74z"/>
	<path d="M387.73,468.45l4.96-4.75c1.12-1.07,2.05-1.8,2.81-2.19c1.01-0.52,2.08-0.76,3.21-0.7c1.13,0.05,2.25,0.37,3.37,0.95
		c1.12,0.58,2.28,1.5,3.48,2.76c1.06,1.11,1.84,2.19,2.33,3.26c0.6,1.3,0.88,2.55,0.83,3.75c-0.03,0.91-0.33,1.88-0.88,2.9
		c-0.42,0.76-1.13,1.62-2.13,2.58l-5.11,4.89L387.73,468.45z M392.62,468.13l8.53,8.91l2.03-1.94c0.76-0.73,1.26-1.29,1.52-1.7
		c0.33-0.53,0.52-1.07,0.56-1.61s-0.14-1.2-0.53-1.98c-0.39-0.78-1.09-1.69-2.08-2.73c-1-1.04-1.85-1.75-2.57-2.13
		c-0.72-0.38-1.39-0.57-2.02-0.57c-0.63,0-1.25,0.19-1.86,0.57c-0.46,0.28-1.25,0.95-2.35,2L392.62,468.13z"/>
	<path d="M407.27,462.79c-1.31-1.37-2.21-2.72-2.69-4.04c-0.35-0.98-0.52-1.99-0.51-3.04s0.2-2.01,0.58-2.88
		c0.5-1.16,1.3-2.26,2.39-3.31c1.98-1.9,4.16-2.8,6.52-2.71s4.6,1.23,6.69,3.42c2.08,2.17,3.11,4.44,3.11,6.79
		c-0.01,2.36-1,4.48-2.97,6.37c-2,1.91-4.17,2.83-6.52,2.74C411.52,466.05,409.32,464.93,407.27,462.79z M409.98,460.02
		c1.46,1.52,2.91,2.34,4.37,2.45c1.46,0.11,2.72-0.35,3.81-1.38c1.08-1.04,1.6-2.28,1.55-3.72c-0.05-1.44-0.82-2.95-2.32-4.51
		c-1.48-1.54-2.91-2.37-4.32-2.48c-1.4-0.11-2.66,0.37-3.78,1.44c-1.12,1.07-1.65,2.32-1.61,3.74
		C407.74,456.99,408.5,458.47,409.98,460.02z"/>
	<path d="M428.81,454.9l-12.87-13.45l5.72-5.47c1.44-1.38,2.6-2.25,3.48-2.64s1.82-0.45,2.8-0.21s1.85,0.76,2.62,1.56
		c0.97,1.01,1.47,2.13,1.5,3.35s-0.45,2.49-1.47,3.79c0.92-0.22,1.76-0.31,2.53-0.26s1.99,0.28,3.64,0.7l4.15,1.05l-3.25,3.11
		l-4.76-1.05c-1.7-0.38-2.81-0.58-3.32-0.61c-0.52-0.03-0.97,0.05-1.35,0.22c-0.38,0.17-0.89,0.56-1.51,1.16l-0.55,0.53l5.37,5.62
		L428.81,454.9z M424.1,444.54l2.01-1.92c1.3-1.25,2.06-2.08,2.28-2.5c0.22-0.42,0.29-0.85,0.22-1.3c-0.07-0.44-0.3-0.87-0.69-1.27
		c-0.43-0.45-0.9-0.7-1.41-0.75s-1.02,0.1-1.53,0.45c-0.25,0.18-0.92,0.8-2.03,1.85l-2.12,2.03L424.1,444.54z"/>
</g>
<g>
	<linearGradient id="SVGID_4_" gradientUnits="userSpaceOnUse" x1="36.8954" y1="426.689" x2="596.8335" y2="426.689">
		<stop  offset="0" style="stop-color:#FFFFFF"/>
		<stop  offset="0.1221" style="stop-color:#D7D7D7;stop-opacity:0.9084"/>
		<stop  offset="0.367" style="stop-color:#8B8B8B;stop-opacity:0.7248"/>
		<stop  offset="0.586" style="stop-color:#4F4F4F;stop-opacity:0.5605"/>
		<stop  offset="0.7711" style="stop-color:#242424;stop-opacity:0.4217"/>
		<stop  offset="0.9149" style="stop-color:#0A0A0A;stop-opacity:0.3138"/>
		<stop  offset="1" style="stop-color:#000000;stop-opacity:0.25"/>
	</linearGradient>
	<path class="st35" d="M37.5,293.59c-1.71,2.11,0.73,14.08,0.73,14.08c0.81,12.46,8.82,21.19,11.11,25.45
		c2.29,4.26,16.75,17.5,16.75,17.5c63.51,63.77,127.01,127.55,190.52,191.32c9.7,9.74,19.52,19.58,31.29,26.68
		c23.28,14.06,51.06,11.01,70.48-8.4L579.4,339.2c11.44-11.44,17.16-26.44,17.16-41.43c1.57-5.77-4.37-31.71-2.59-17.55
		c1.09,8.69-4.46,15.91-9.02,22.7c-11.43,17.01-23.31,33.32-38.04,47.65c-12.09,11.7-24.19,23.39-36.28,35.09
		c-15.67,15.15-31.34,30.31-47,45.46c-15.96,15.44-31.92,30.88-47.89,46.32c-12.98,12.55-25.95,25.1-38.93,37.65
		c-6.71,6.49-13.42,12.98-20.13,19.47c-0.31,0.3-0.63,0.61-0.94,0.91c-10.22,9.89-24.38,17.84-38.87,18.21
		c-4.1,0.11-8.22-0.39-12.28-1.63c-18.1-5.49-31.21-21.41-44.34-34.06c-11.45-11.03-22.9-22.06-34.35-33.09
		c-22.9-22.06-45.8-44.12-68.7-66.18c-21.07-20.3-42.13-40.59-63.2-60.89c-6.7-6.46-13.5-12.91-19.5-20.05
		c-5.84-6.94-10.63-14.67-15.91-22.03c-5.23-7.31-11.48-13.82-17.78-20.19c-0.76-0.77-1.52-1.56-2.25-2.36
		c-0.27-0.3-0.53-0.62-0.78-0.93C37.9,292.72,37.81,293.21,37.5,293.59z"/>
</g>
<g>
	<linearGradient id="SVGID_5_" gradientUnits="userSpaceOnUse" x1="121.8496" y1="199.0625" x2="462.6158" y2="199.0625">
		<stop  offset="0" style="stop-color:#000000;stop-opacity:0.25"/>
		<stop  offset="0.3152" style="stop-color:#020202;stop-opacity:0.4864"/>
		<stop  offset="0.4524" style="stop-color:#090909;stop-opacity:0.5893"/>
		<stop  offset="0.555" style="stop-color:#161616;stop-opacity:0.6663"/>
		<stop  offset="0.6405" style="stop-color:#282828;stop-opacity:0.7304"/>
		<stop  offset="0.7153" style="stop-color:#3F3F3F;stop-opacity:0.7865"/>
		<stop  offset="0.7826" style="stop-color:#5C5C5C;stop-opacity:0.8369"/>
		<stop  offset="0.8443" style="stop-color:#7E7E7E;stop-opacity:0.8832"/>
		<stop  offset="0.9017" style="stop-color:#A6A6A6;stop-opacity:0.9263"/>
		<stop  offset="0.9534" style="stop-color:#D1D1D1;stop-opacity:0.965"/>
		<stop  offset="1" style="stop-color:#FFFFFF"/>
	</linearGradient>
	<path class="st36" d="M497.63,296.04c7.65,0,12.9-7.96,9.63-14.87c-3.03-6.4-7.2-12.4-12.5-17.69L351.41,120.58
		c-24.74-24.66-64.77-24.66-89.5,0l-122.6,122.21c-8.97,8.94-14.69,19.91-17.15,31.42c-1.82,8.51,4.5,16.59,13.19,16.82h0
		c-0.82-15.98,4.88-32.24,17.09-44.45l113.51-113.51c22.88-22.88,59.99-22.88,82.87,0l132.72,132.72
		C490.12,274.38,495.48,284.96,497.63,296.04L497.63,296.04z"/>
</g>
<g>
	<path d="M90.81,267.56l2.31,3.42c-1.64,0.88-2.53,1.88-2.68,3c-0.07,0.54,0.02,1.01,0.26,1.39c0.25,0.38,0.55,0.6,0.92,0.65
		c0.37,0.05,0.73-0.03,1.09-0.24c0.48-0.28,1.54-1.17,3.2-2.68c1.53-1.41,2.49-2.26,2.88-2.55c0.96-0.73,1.85-1.22,2.67-1.47
		c0.82-0.25,1.69-0.32,2.61-0.2c1.79,0.23,3.18,1.04,4.19,2.43c1.01,1.39,1.38,3.07,1.12,5.06c-0.2,1.55-0.76,2.85-1.67,3.91
		c-0.91,1.05-2.23,1.88-3.97,2.49l-1.65-3.76c2.06-0.8,3.18-1.88,3.36-3.25c0.09-0.71-0.04-1.34-0.39-1.88
		c-0.35-0.54-0.8-0.84-1.34-0.91c-0.49-0.06-1.01,0.06-1.55,0.36c-0.54,0.3-1.4,1.01-2.58,2.13c-2.24,2.12-3.94,3.46-5.08,4.02
		c-1.14,0.56-2.24,0.77-3.28,0.63c-1.51-0.2-2.73-0.94-3.67-2.23c-0.93-1.29-1.29-2.78-1.07-4.48c0.14-1.09,0.53-2.09,1.16-3.01
		S89.33,268.54,90.81,267.56z"/>
	<path d="M89.64,260.5l1.22-3.97l21.02,6.43l-1.21,3.97L89.64,260.5z"/>
	<path d="M93.47,248.56l1.96-3.5l17.21-1.12l-12.61-7.08l2.05-3.65l19.17,10.75l-1.97,3.51l-17.17,1.14l12.57,7.06l-2.05,3.65
		L93.47,248.56z"/>
	<path d="M108.27,225.58l3.53-3.48c2.27-2.24,4.24-3.63,5.9-4.16s3.48-0.51,5.44,0.05s3.79,1.69,5.46,3.39
		c1.19,1.21,2.08,2.51,2.68,3.92c0.6,1.41,0.87,2.79,0.82,4.15c-0.05,1.36-0.36,2.58-0.93,3.64s-1.87,2.6-3.89,4.6l-3.58,3.53
		L108.27,225.58z M114.06,225.53l9.74,9.87l1.38-1.36c1.36-1.34,2.19-2.47,2.5-3.39c0.31-0.92,0.29-1.94-0.05-3.06
		c-0.34-1.12-1.04-2.22-2.1-3.3c-1.64-1.66-3.37-2.49-5.21-2.49c-1.65,0-3.4,0.92-5.25,2.74L114.06,225.53z"/>
	<path d="M123.3,210.75l2.96-2.92l15.44,15.64l-2.96,2.92L123.3,210.75z"/>
	<path d="M146.69,193.09l-0.12,4.04c-2.89-0.1-5.23,0.72-7,2.47c-1.49,1.47-2.25,3.23-2.26,5.26c-0.02,2.03,0.72,3.8,2.19,5.29
		c1.03,1.04,2.17,1.75,3.42,2.11c1.25,0.36,2.52,0.36,3.8,0.01c1.28-0.36,2.43-1.03,3.45-2.03c0.86-0.85,1.49-1.79,1.89-2.82
		c0.4-1.03,0.6-2.39,0.62-4.09l4.1,0.11c-0.04,2.27-0.36,4.13-0.96,5.58c-0.6,1.45-1.56,2.83-2.87,4.13
		c-2.43,2.4-5.18,3.59-8.25,3.58c-3.07-0.01-5.79-1.23-8.17-3.64c-1.54-1.56-2.55-3.29-3.04-5.2c-0.49-1.91-0.44-3.88,0.15-5.92
		c0.59-2.03,1.64-3.8,3.16-5.3c1.29-1.27,2.8-2.23,4.53-2.86S144.84,192.94,146.69,193.09z"/>
	<path d="M151.35,183.07l3.02-2.98l21.45,9.71l-3.09,3.05l-4.4-2.01l-6.38,6.3l1.91,4.48l-3.09,3.05L151.35,183.07z M156.97,185.71
		l3.2,7.44l4.19-4.13L156.97,185.71z"/>
	<path d="M161.15,173.4l8.65-8.53l2.9,2.94l-2.85,2.81l12.54,12.71l-3.02,2.98l-12.54-12.71l-2.78,2.74L161.15,173.4z"/>
	<path d="M178.83,155.17c2.21-2.18,4.91-3.26,8.08-3.23c3.17,0.03,5.9,1.2,8.17,3.5c2.25,2.28,3.37,4.99,3.36,8.12
		c-0.01,3.13-1.14,5.8-3.38,8.02c-2.35,2.32-5.1,3.43-8.26,3.34c-3.16-0.09-5.84-1.25-8.04-3.49c-1.48-1.5-2.47-3.23-2.99-5.2
		c-0.51-1.97-0.5-3.94,0.04-5.93C176.37,158.33,177.37,156.61,178.83,155.17z M181.68,158.12c-1.45,1.43-2.17,3.13-2.16,5.11
		s0.78,3.75,2.31,5.3c1.71,1.73,3.68,2.49,5.91,2.27c1.74-0.17,3.24-0.86,4.49-2.1c1.41-1.39,2.11-3.09,2.1-5.09
		c-0.01-2-0.76-3.75-2.23-5.25c-1.47-1.49-3.21-2.25-5.23-2.3C184.84,156.02,183.11,156.7,181.68,158.12z"/>
	<path d="M196.24,138.77l3.53-3.48c2.27-2.24,4.24-3.63,5.9-4.16s3.48-0.51,5.44,0.05s3.79,1.69,5.46,3.39
		c1.19,1.21,2.08,2.51,2.68,3.92s0.87,2.79,0.82,4.15s-0.36,2.58-0.93,3.64c-0.57,1.07-1.87,2.6-3.89,4.6l-3.58,3.53L196.24,138.77z
		 M202.03,138.73l9.74,9.87l1.38-1.36c1.36-1.34,2.19-2.47,2.5-3.39s0.29-1.94-0.05-3.06c-0.34-1.12-1.04-2.22-2.1-3.3
		c-1.64-1.66-3.37-2.49-5.21-2.49c-1.65,0-3.4,0.92-5.25,2.74L202.03,138.73z"/>
	<path d="M211.48,123.73l8.54-8.43l2.88,2.91l-5.58,5.51l2.79,2.83l5.58-5.51l2.82,2.86l-5.58,5.51l4.06,4.12l5.58-5.51l2.89,2.92
		l-8.54,8.43L211.48,123.73z"/>
	<path d="M245.99,95.1l-0.12,4.04c-2.89-0.1-5.23,0.72-7,2.47c-1.49,1.47-2.25,3.23-2.26,5.26c-0.02,2.03,0.72,3.8,2.19,5.29
		c1.03,1.04,2.17,1.75,3.42,2.11c1.25,0.36,2.52,0.36,3.8,0.01c1.28-0.36,2.43-1.03,3.45-2.03c0.86-0.85,1.49-1.79,1.89-2.82
		c0.4-1.03,0.6-2.39,0.62-4.09l4.1,0.11c-0.04,2.27-0.36,4.13-0.96,5.58s-1.56,2.83-2.87,4.13c-2.43,2.4-5.18,3.59-8.25,3.58
		c-3.07-0.01-5.79-1.23-8.17-3.64c-1.54-1.56-2.55-3.29-3.04-5.2c-0.49-1.91-0.44-3.88,0.14-5.92c0.59-2.03,1.64-3.8,3.16-5.3
		c1.29-1.27,2.8-2.23,4.53-2.86C242.34,95.19,244.14,94.95,245.99,95.1z"/>
	<path d="M246.54,88.67l3.23-2.75l5.37,6.32l5.59-4.75l-5.37-6.32l3.22-2.74l14.23,16.75l-3.22,2.74l-6.24-7.34l-5.59,4.75
		l6.24,7.34l-3.23,2.75L246.54,88.67z"/>
	<path d="M276.61,68.23c2.87-1.19,5.77-1.17,8.7,0.06s5.01,3.33,6.25,6.33c1.23,2.96,1.24,5.89,0.05,8.79
		c-1.19,2.9-3.24,4.95-6.15,6.15c-3.05,1.26-6.02,1.25-8.91-0.02c-2.89-1.27-4.93-3.36-6.13-6.26c-0.8-1.94-1.07-3.92-0.81-5.94
		s1.02-3.84,2.27-5.48C273.14,70.22,274.71,69.01,276.61,68.23z M278.13,72.03c-1.88,0.78-3.19,2.08-3.93,3.92
		c-0.74,1.84-0.69,3.76,0.14,5.78c0.93,2.25,2.47,3.69,4.62,4.33c1.68,0.5,3.32,0.42,4.95-0.25c1.83-0.76,3.12-2.07,3.86-3.93
		s0.71-3.76-0.09-5.7c-0.8-1.93-2.13-3.3-3.98-4.1C281.85,71.27,279.99,71.26,278.13,72.03z"/>
	<path d="M295.85,63.07l10.82-1.35l0.5,4.05l-6.7,0.83l0.49,3.96l6.7-0.83l0.5,3.99l-6.7,0.83l1.22,9.81l-4.12,0.51L295.85,63.07z"
		/>
	<path d="M313.82,61.63l11.96,0.93l-0.32,4.08l-7.82-0.61L317.33,70l7.82,0.61l-0.31,4.01l-7.82-0.61l-0.45,5.76l7.82,0.61
		l-0.32,4.1l-11.96-0.93L313.82,61.63z"/>
	<path d="M333.6,64.12l4.23,1.31c2.32,0.72,3.9,1.44,4.76,2.16c0.85,0.72,1.43,1.65,1.73,2.8c0.3,1.15,0.25,2.38-0.16,3.69
		c-0.43,1.38-1.12,2.43-2.07,3.15s-2.16,1.11-3.64,1.18l2.08,10.88l-4.37-1.36l-1.96-10.35l-0.37-0.11l-2.76,8.89l-4-1.24
		L333.6,64.12z M335.05,73.56l1.25,0.39c1.27,0.39,2.2,0.5,2.78,0.31c0.58-0.19,0.99-0.66,1.23-1.44c0.14-0.46,0.15-0.89,0.02-1.31
		s-0.37-0.75-0.73-1.03s-1.06-0.57-2.12-0.9l-1.1-0.34L335.05,73.56z"/>
	<path d="M353.54,71.46l10.37,6.03l-2.06,3.54l-6.78-3.94l-2,3.44l6.78,3.94l-2.02,3.47l-6.78-3.94l-2.91,5l6.78,3.94l-2.06,3.55
		l-10.37-6.03L353.54,71.46z"/>
	<path d="M376.39,92.01l-4.13-0.07c0.22-1.85-0.09-3.16-0.92-3.92c-0.41-0.37-0.84-0.56-1.29-0.58s-0.81,0.11-1.06,0.38
		c-0.25,0.27-0.39,0.61-0.43,1.02c-0.04,0.55,0.08,1.94,0.36,4.15c0.28,2.06,0.43,3.34,0.44,3.82c0.05,1.2-0.06,2.21-0.33,3.03
		c-0.27,0.82-0.71,1.57-1.34,2.25c-1.22,1.33-2.68,2.01-4.39,2.04s-3.31-0.63-4.79-1.99c-1.16-1.06-1.9-2.26-2.25-3.61
		s-0.26-2.91,0.23-4.68l4.03,0.8c-0.53,2.15-0.29,3.69,0.73,4.61c0.53,0.48,1.12,0.74,1.76,0.76c0.64,0.02,1.15-0.17,1.52-0.58
		c0.34-0.37,0.54-0.86,0.6-1.48c0.06-0.62-0.02-1.73-0.26-3.33c-0.45-3.06-0.58-5.21-0.38-6.47c0.2-1.25,0.66-2.27,1.37-3.05
		c1.03-1.13,2.34-1.7,3.93-1.72c1.59-0.02,3.02,0.54,4.28,1.69c0.81,0.74,1.41,1.63,1.8,2.68
		C376.27,88.83,376.44,90.24,376.39,92.01z"/>
	<path d="M387.97,99.48l3.53,3.48c2.27,2.24,3.68,4.19,4.23,5.85c0.55,1.65,0.55,3.47,0.02,5.44c-0.54,1.98-1.64,3.81-3.31,5.5
		c-1.19,1.21-2.48,2.12-3.88,2.73c-1.4,0.62-2.78,0.91-4.14,0.88s-2.58-0.32-3.65-0.88c-1.07-0.56-2.62-1.83-4.65-3.83l-3.58-3.53
		L387.97,99.48z M388.09,105.27l-9.74,9.87l1.38,1.36c1.36,1.34,2.5,2.16,3.42,2.45c0.92,0.29,1.94,0.26,3.06-0.09
		c1.12-0.35,2.21-1.07,3.27-2.15c1.64-1.66,2.45-3.41,2.42-5.24c-0.02-1.65-0.96-3.39-2.81-5.21L388.09,105.27z"/>
	<path d="M403.23,114.53l8.54,8.43l-2.88,2.91l-5.58-5.51l-2.79,2.83l5.58,5.51l-2.82,2.86l-5.58-5.51l-4.06,4.12l5.58,5.51
		l-2.89,2.92l-8.54-8.43L403.23,114.53z"/>
	<path d="M432.3,148.65l-4.04-0.07c0.06-2.9-0.79-5.22-2.57-6.96c-1.49-1.47-3.26-2.21-5.29-2.19c-2.03,0.01-3.79,0.77-5.26,2.26
		c-1.03,1.04-1.72,2.19-2.06,3.45c-0.34,1.26-0.33,2.52,0.04,3.8c0.37,1.28,1.07,2.42,2.08,3.42c0.86,0.85,1.81,1.47,2.85,1.85
		c1.03,0.38,2.4,0.57,4.1,0.57l-0.06,4.1c-2.27-0.01-4.13-0.31-5.59-0.89c-1.46-0.58-2.85-1.52-4.17-2.82
		c-2.43-2.4-3.66-5.13-3.69-8.21c-0.03-3.07,1.15-5.81,3.53-8.22c1.54-1.56,3.26-2.6,5.16-3.11s3.87-0.49,5.92,0.07
		c2.04,0.56,3.82,1.59,5.34,3.09c1.29,1.27,2.26,2.77,2.92,4.5C432.16,145,432.43,146.79,432.3,148.65z"/>
	<path d="M437.62,148.47l3.02,2.98l-5.82,5.9l5.22,5.15l5.82-5.9l3.01,2.97l-15.44,15.64l-3.01-2.97l6.77-6.86l-5.22-5.15
		l-6.77,6.86l-3.02-2.98L437.62,148.47z"/>
	<path d="M452.22,162.88l2.96,2.92l-15.44,15.64l-2.96-2.92L452.22,162.88z"/>
	<path d="M460.05,170.61l2.9,2.86l-7.14,14.49l14.43-7.3l2.9,2.86l-12.81,18.23l-2.88-2.84l8.07-11.53l-13.07,6.6l-2.62-2.59
		l6.46-13.13l-11.47,8.18l-2.9-2.86L460.05,170.61z"/>
	<path d="M462.71,204.1l15.44-15.64l2.46,2.43c1.43,1.41,2.38,2.53,2.86,3.37c0.69,1.17,0.98,2.37,0.87,3.59
		c-0.11,1.22-0.62,2.29-1.52,3.2c-0.59,0.6-1.25,1.01-1.98,1.25c-0.73,0.24-1.59,0.29-2.58,0.15c0.51,1.38,0.65,2.63,0.43,3.73
		c-0.22,1.1-0.78,2.11-1.69,3.03c-0.87,0.88-1.89,1.46-3.05,1.73s-2.29,0.24-3.36-0.11c-1.07-0.35-2.24-1.15-3.5-2.39L462.71,204.1z
		 M472.44,200.19l-3.96,4.01l0.75,0.74c1.24,1.22,2.22,1.89,2.96,2c0.74,0.11,1.4-0.13,1.99-0.72c0.67-0.67,0.94-1.45,0.82-2.34
		c-0.12-0.89-0.77-1.91-1.94-3.07L472.44,200.19z M478.32,194.24l-3.25,3.3l0.65,0.64c0.73,0.72,1.42,1.1,2.07,1.14
		c0.65,0.04,1.24-0.2,1.76-0.72c0.48-0.49,0.7-1.04,0.65-1.66c-0.05-0.62-0.42-1.26-1.1-1.94L478.32,194.24z"/>
	<path d="M498.56,207.83c2.21,2.18,3.33,4.86,3.34,8.04s-1.12,5.91-3.39,8.22c-2.25,2.28-4.95,3.44-8.08,3.47
		c-3.13,0.03-5.82-1.06-8.06-3.27c-2.35-2.32-3.5-5.05-3.45-8.21s1.17-5.85,3.38-8.08c1.48-1.5,3.2-2.51,5.16-3.06
		c1.96-0.54,3.94-0.55,5.93-0.04C495.37,205.41,497.1,206.39,498.56,207.83z M495.65,210.72c-1.45-1.43-3.16-2.13-5.14-2.09
		c-1.98,0.03-3.74,0.83-5.27,2.38c-1.71,1.73-2.44,3.71-2.19,5.94c0.19,1.74,0.91,3.23,2.16,4.46c1.41,1.39,3.12,2.07,5.12,2.03
		c2-0.04,3.74-0.81,5.22-2.3c1.47-1.49,2.21-3.24,2.23-5.26S497.09,212.13,495.65,210.72z"/>
	<path d="M509.27,219.18l3.16,3.11c1.73,1.7,2.81,3.07,3.23,4.1s0.51,2.13,0.25,3.28c-0.26,1.16-0.87,2.22-1.84,3.2
		c-1.01,1.03-2.11,1.64-3.28,1.85s-2.43,0-3.78-0.63l-3.16,10.61l-3.26-3.21l3.02-10.1l-0.27-0.27l-6.54,6.63l-2.98-2.94
		L509.27,219.18z M506.22,228.23l0.93,0.92c0.95,0.93,1.72,1.45,2.32,1.56c0.6,0.1,1.19-0.13,1.76-0.71
		c0.34-0.34,0.54-0.73,0.61-1.15c0.07-0.43,0.01-0.84-0.17-1.25c-0.19-0.4-0.68-1-1.47-1.78l-0.82-0.81L506.22,228.23z"/>
	<path d="M526.47,236.16l3.02,2.98l-9.42,21.58l-3.09-3.05l1.96-4.43l-6.38-6.3l-4.45,1.97l-3.09-3.05L526.47,236.16z
		 M523.91,241.81l-7.4,3.3l4.18,4.13L523.91,241.81z"/>
	<path d="M538.71,248.33l7.98,10.64l-19.06,4.52l4.39,5.85l-3.21,2.41L520.75,261l18.94-4.47l-4.29-5.72L538.71,248.33z"/>
	<path d="M555.16,275.24c1.1,2.91,1,5.81-0.31,8.7c-1.31,2.89-3.48,4.91-6.51,6.06c-3,1.14-5.93,1.07-8.79-0.21
		c-2.86-1.28-4.85-3.39-5.96-6.33c-1.17-3.08-1.08-6.05,0.28-8.9s3.5-4.83,6.44-5.94c1.96-0.75,3.95-0.96,5.96-0.63
		c2.01,0.33,3.81,1.14,5.41,2.44S554.43,273.32,555.16,275.24z M551.31,276.65c-0.72-1.9-1.99-3.25-3.8-4.04
		c-1.81-0.79-3.74-0.8-5.78-0.03c-2.27,0.86-3.76,2.36-4.46,4.49c-0.55,1.66-0.52,3.31,0.1,4.95c0.7,1.86,1.97,3.18,3.81,3.98
		c1.84,0.8,3.74,0.82,5.7,0.08c1.96-0.74,3.36-2.03,4.22-3.86S552.03,278.53,551.31,276.65z"/>
</g>
<g>
	
		<linearGradient id="SVGID_6_" gradientUnits="userSpaceOnUse" x1="36.8955" y1="595.1001" x2="596.8336" y2="595.1001" gradientTransform="matrix(-1 0 0 -1 633.729 764.0068)">
		<stop  offset="0" style="stop-color:#FFFFFF;stop-opacity:0.25"/>
		<stop  offset="1" style="stop-color:#FFFFFF"/>
	</linearGradient>
	<path class="st37" d="M596.23,302c1.71-2.11-0.73-14.08-0.73-14.08c-0.81-12.46-8.82-21.19-11.11-25.45
		c-2.29-4.26-16.75-17.5-16.75-17.5C504.14,181.2,440.63,117.43,377.12,53.65c-9.7-9.74-19.52-19.58-31.29-26.68
		c-23.28-14.06-51.06-11.01-70.48,8.4L54.32,256.4c-11.44,11.44-17.16,26.44-17.16,41.43c-1.57,5.77,4.37,31.71,2.59,17.55
		c-1.09-8.69,4.46-15.91,9.02-22.7c11.43-17.01,23.31-33.32,38.04-47.65c12.09-11.7,24.19-23.39,36.28-35.09
		c15.67-15.15,31.34-30.31,47-45.46c15.96-15.44,31.92-30.88,47.89-46.32c12.98-12.55,25.95-25.1,38.93-37.65
		c6.71-6.49,13.42-12.98,20.13-19.47c0.31-0.3,0.63-0.61,0.94-0.91c10.22-9.89,24.38-17.84,38.87-18.21
		c4.1-0.11,8.22,0.39,12.28,1.63c18.1,5.49,31.21,21.41,44.34,34.06c11.45,11.03,22.9,22.06,34.35,33.09
		c22.9,22.06,45.8,44.12,68.7,66.18c21.07,20.3,42.13,40.59,63.2,60.89c6.7,6.46,13.5,12.91,19.5,20.05
		c5.84,6.94,10.64,14.67,15.91,22.03c5.23,7.31,11.48,13.82,17.78,20.19c0.76,0.77,1.52,1.56,2.25,2.36
		c0.27,0.3,0.53,0.62,0.78,0.93C595.83,302.87,595.92,302.38,596.23,302z"/>
</g>
<path class="st19" d="M579.45,256.19L358.42,35.16c-22.88-22.88-59.99-22.88-82.87,0L54.53,256.19c-22.88,22.88-22.88,59.99,0,82.87
	l221.03,221.03c22.88,22.88,59.99,22.88,82.87,0l221.03-221.03C602.33,316.17,602.33,279.07,579.45,256.19z"/>
</svg>
