<svg id="Layer_1" enable-background="new 0 0 128 128" height="512" viewBox="0 0 128 128" width="512" xmlns="http://www.w3.org/2000/svg"><g><path d="m123.395 108.293h-8.995v-58.525c0-3.859-3.14-7-7-7h-22.262c.177-.527.337-1.06.47-1.602h2.518c1.309 0 2.373-1.064 2.373-2.373v-4.931c0-1.309-1.064-2.373-2.373-2.373h-2.518c-.485-1.976-1.265-3.854-2.325-5.603l1.784-1.784c.924-.926.924-2.431 0-3.355l-3.487-3.486c-.925-.926-2.431-.925-3.356 0l-1.784 1.783c-1.749-1.061-3.627-1.84-5.602-2.325v-2.518c0-1.309-1.065-2.373-2.374-2.373h-4.931c-1.309 0-2.373 1.064-2.373 2.373v2.518c-1.975.485-3.854 1.265-5.603 2.325l-1.784-1.783c-.924-.926-2.431-.926-3.356 0l-3.487 3.486c-.925.925-.925 2.43 0 3.356l1.783 1.783c-1.06 1.748-1.839 3.627-2.325 5.603h-2.518c-1.309 0-2.373 1.064-2.373 2.373v4.931c0 1.309 1.064 2.373 2.373 2.373h2.518c.133.542.293 1.075.47 1.602h-22.258c-3.86 0-7 3.141-7 7v58.525h-8.995c-.552 0-1 .447-1 1v3.934c0 3.83 3.116 6.945 6.945 6.945h102.898c3.83 0 6.946-3.115 6.946-6.945v-3.934c.001-.553-.447-1-.999-1zm-65.34-65.525c-1.43-1.76-2.29-4-2.29-6.439 0-5.644 4.591-10.235 10.235-10.235s10.235 4.592 10.235 10.235c0 2.439-.86 4.679-2.29 6.439z" fill="#e6e7e8"/><g><g fill="#0089ef"><path d="m62 43.563c3.348 0 6.345-1.472 8.403-3.796h-16.806c2.058 2.324 5.055 3.796 8.403 3.796z"/><path d="m103.401 39.767h-23.709c-.465 1.103-1.028 2.156-1.681 3.143l2.35 2.35c.536.536.536 1.406 0 1.942l-3.487 3.487c-.536.536-1.406.536-1.942 0l-2.35-2.35c-2.014 1.334-4.293 2.3-6.743 2.798v3.318c0 .758-.615 1.373-1.373 1.373h-4.931c-.758 0-1.373-.615-1.373-1.373v-3.318c-2.45-.497-4.729-1.464-6.743-2.798l-2.35 2.35c-.536.536-1.406.536-1.942 0l-3.487-3.487c-.536-.536-.536-1.406 0-1.942l2.35-2.35c-.654-.987-1.216-2.039-1.681-3.143h-23.71c-3.314 0-6 2.686-6 6v59.526h94.801v-59.526c.001-3.313-2.686-6-5.999-6z"/></g><path d="m100.372 48.604h-21.415l-2.084 2.084c-.536.536-1.406.536-1.942 0l-2.084-2.084h-.712c-1.905 1.189-4.023 2.07-6.298 2.532v3.318c0 .758-.615 1.373-1.373 1.373h-4.931c-.758 0-1.373-.615-1.373-1.373v-3.318c-2.275-.462-4.393-1.343-6.298-2.532h-.712l-2.084 2.084c-.536.536-1.406.536-1.942 0l-2.084-2.084h-21.412c-1.105 0-2 .896-2 2v54.689h80.745v-54.689c-.001-1.104-.896-2-2.001-2z" fill="#d4fbff"/><path d="m26.628 48.605h-3c-1.105 0-2 .895-2 2v54.688h3v-54.688c0-1.105.895-2 2-2z" fill="#fff"/><path d="m4.605 105.293v3.933c0 3.283 2.662 5.945 5.945 5.945h102.898c3.284 0 5.946-2.662 5.946-5.945v-3.933z" fill="#0089ef"/><path d="m4.605 105.293v3.933c0 3.283 2.662 5.945 5.945 5.945h102.898c3.284 0 5.946-2.662 5.946-5.945v-3.933z" fill="#0089ef"/><path d="m42.949 105.293v1.991c0 1.662 1.347 3.009 3.009 3.009h32.083c1.662 0 3.01-1.348 3.01-3.009v-1.991z" fill="#6dc9f7"/><g><g><path d="m54.382 94.931h15.236v5.152h-15.236z" fill="#0089ef"/><path d="m54.248 94.931h15.503c1.231 0 2.229-.998 2.229-2.229v-.67c0-1.231-.998-2.229-2.229-2.229h-15.503c-1.231 0-2.229.998-2.229 2.229v.67c0 1.231.998 2.229 2.229 2.229z" fill="#6dc9f7"/><path d="m52.61 77.401 9.39-12.996 9.39 12.996-1.772 12.401h-15.236z" fill="#d4fbff"/><circle cx="62" cy="79.482" fill="#6dc9f7" r="1.47"/></g><g fill="#0089ef"><g><circle cx="80.608" cy="59.425" r="2.349"/><circle cx="43.392" cy="59.425" r="2.349"/></g><path d="m75.256 74.749h4.135v4.135h-4.135z"/><path d="m44.609 74.749h4.135v4.135h-4.135z"/></g></g><g><path d="m85.5 34.793v-4.931c0-.758-.615-1.373-1.373-1.373h-3.318c-.497-2.45-1.464-4.729-2.798-6.743l2.35-2.35c.536-.536.536-1.406 0-1.942l-3.487-3.487c-.536-.536-1.406-.536-1.942 0l-2.35 2.35c-2.014-1.334-4.293-2.3-6.743-2.798v-3.318c0-.758-.615-1.373-1.373-1.373h-4.931c-.758 0-1.373.615-1.373 1.373v3.318c-2.45.497-4.729 1.464-6.743 2.798l-2.35-2.35c-.536-.536-1.406-.536-1.942 0l-3.487 3.487c-.536.536-.536 1.406 0 1.942l2.35 2.35c-1.334 2.014-2.3 4.293-2.798 6.743h-3.318c-.758 0-1.373.615-1.373 1.373v4.931c0 .758.615 1.373 1.373 1.373h3.318c.497 2.45 1.464 4.729 2.798 6.743l-2.35 2.35c-.536.536-.536 1.406 0 1.942l3.487 3.487c.536.536 1.406.536 1.942 0l2.35-2.35c2.014 1.334 4.293 2.3 6.743 2.798v3.318c0 .758.615 1.373 1.373 1.373h4.931c.758 0 1.373-.615 1.373-1.373v-3.318c2.45-.497 4.729-1.464 6.743-2.798l2.35 2.35c.536.536 1.406.536 1.942 0l3.487-3.487c.536-.536.536-1.406 0-1.942l-2.35-2.35c1.334-2.014 2.3-4.293 2.798-6.743h3.318c.758.001 1.373-.614 1.373-1.373zm-23.5 8.77c-6.205 0-11.235-5.03-11.235-11.235s5.03-11.235 11.235-11.235 11.235 5.03 11.235 11.235-5.03 11.235-11.235 11.235z" fill="#fa759e"/><g fill="#3a2c60"><path d="m102.375 81.53c-.552 0-1 .447-1 1v9.748c0 .553.448 1 1 1s1-.447 1-1v-9.748c0-.553-.448-1-1-1z"/><path d="m119.395 104.293h-8.995v-58.525c0-3.859-3.14-7-7-7h-22.261c.177-.526.337-1.059.47-1.601h2.518c1.309 0 2.373-1.065 2.373-2.374v-4.931c0-1.309-1.064-2.373-2.373-2.373h-2.518c-.485-1.976-1.265-3.854-2.325-5.603l1.783-1.783c.925-.926.925-2.431 0-3.356l-3.487-3.486c-.924-.926-2.431-.925-3.356 0l-1.784 1.783c-1.749-1.061-3.627-1.84-5.602-2.325v-2.518c0-1.309-1.065-2.373-2.374-2.373h-4.931c-1.309 0-2.373 1.064-2.373 2.373v2.518c-1.975.485-3.854 1.265-5.603 2.325l-1.784-1.783c-.924-.926-2.431-.926-3.356 0l-3.487 3.486c-.925.926-.925 2.431 0 3.356l1.783 1.783c-1.06 1.748-1.839 3.627-2.325 5.603h-2.518c-1.309 0-2.373 1.064-2.373 2.373v4.931c0 1.309 1.064 2.374 2.373 2.374h2.518c.133.542.293 1.074.47 1.601h-22.258c-3.86 0-7 3.141-7 7v58.525h-8.995c-.552 0-1 .447-1 1v3.934c0 3.83 3.116 6.945 6.945 6.945h102.898c3.83 0 6.946-3.115 6.946-6.945v-3.934c.001-.553-.447-1-.999-1zm-15.995-63.525c2.757 0 5 2.243 5 5v58.525h-5.028v-7.181c0-.553-.448-1-1-1s-1 .447-1 1v7.181h-78.745v-53.689c0-.552.449-1 1-1h21.001l1.791 1.791c.926.927 2.432.926 3.356 0l1.784-1.783c1.748 1.06 3.626 1.839 5.603 2.324v2.519c0 1.309 1.064 2.373 2.373 2.373h4.931c1.309 0 2.374-1.064 2.374-2.373v-2.519c1.976-.485 3.854-1.265 5.602-2.324l1.784 1.783c.925.927 2.432.926 3.356 0l1.791-1.791h21.001c.551 0 1 .448 1 1v27.341c0 .553.448 1 1 1s1-.447 1-1v-27.341c0-1.654-1.346-3-3-3h-19.059c.661-.926.583-2.221-.248-3.052l-1.784-1.783c.393-.648.734-1.32 1.049-2.002h23.068zm-63.527-5.601c-.206 0-.373-.168-.373-.374v-4.931c0-.206.167-.373.373-.373h3.318c.476 0 .885-.335.98-.801.464-2.284 1.356-4.435 2.651-6.39.263-.396.21-.924-.126-1.26l-2.35-2.35c-.146-.146-.146-.383 0-.528l3.487-3.486c.146-.146.382-.144.528 0l2.35 2.35c.336.337.863.389 1.259.127 1.957-1.297 4.107-2.188 6.39-2.651.466-.095.801-.505.801-.98v-3.318c0-.206.167-.373.373-.373h4.931c.206 0 .374.167.374.373v3.318c0 .476.335.886.801.98 2.283.463 4.432 1.354 6.39 2.651.397.262.923.21 1.259-.127l2.35-2.35c.146-.146.383-.144.528 0l3.487 3.486c.146.146.146.383 0 .528l-2.35 2.35c-.336.336-.389.863-.126 1.26 1.295 1.955 2.188 4.105 2.651 6.39.095.466.504.801.98.801h3.318c.206 0 .373.167.373.373v4.931c0 .206-.167.374-.373.374h-3.318c-.476 0-.885.335-.98.801-.464 2.283-1.356 4.434-2.652 6.391-.262.396-.209.923.127 1.259l2.35 2.35c.146.146.146.382 0 .527l-3.487 3.487c-.146.146-.383.144-.528 0l-2.35-2.35c-.336-.337-.863-.389-1.259-.127-1.955 1.295-4.105 2.188-6.39 2.652-.466.095-.801.504-.801.979v3.318c0 .206-.167.373-.374.373h-4.931c-.206 0-.373-.167-.373-.373v-3.318c0-.476-.335-.885-.801-.979-2.285-.465-4.436-1.357-6.391-2.652-.169-.111-.361-.166-.552-.166-.258 0-.514.1-.708.293l-2.35 2.35c-.146.144-.382.146-.528 0l-3.487-3.487c-.146-.146-.146-.382 0-.527l2.35-2.35c.336-.336.389-.862.127-1.259-1.296-1.957-2.188-4.107-2.652-6.391-.095-.466-.504-.801-.98-.801zm-24.273 10.601c0-2.757 2.243-5 5-5h23.068c.315.682.656 1.354 1.049 2.002l-1.784 1.783c-.831.83-.909 2.126-.248 3.052h-19.058c-1.654 0-3 1.346-3 3v53.688h-5.027zm102.795 63.459c0 2.727-2.219 4.945-4.946 4.945h-102.899c-2.727 0-4.945-2.219-4.945-4.945v-2.934h112.79z"/><path d="m70.746 88.975 1.634-11.433c.037-.257-.027-.518-.179-.728l-9.39-12.995c-.376-.52-1.245-.52-1.621 0l-9.39 12.995c-.152.21-.216.471-.179.728l1.634 11.433c-1.292.422-2.235 1.625-2.235 3.056v.67c0 1.478 1.005 2.715 2.363 3.096v4.285c0 .553.448 1 1 1h15.236c.552 0 1-.447 1-1v-4.285c1.358-.382 2.363-1.618 2.363-3.096v-.67c-.001-1.431-.943-2.634-2.236-3.056zm-8.746-9.962c.259 0 .47.211.47.47s-.211.47-.47.47-.47-.211-.47-.47.211-.47.47-.47zm-1-11.517v9.732c-.864.385-1.47 1.249-1.47 2.254 0 1.361 1.108 2.47 2.47 2.47s2.47-1.108 2.47-2.47c0-1.005-.606-1.869-1.47-2.254v-9.732l7.343 10.163-1.592 11.143h-13.502l-1.592-11.143zm7.618 31.586h-13.236v-3.151h13.236zm2.363-6.381c0 .678-.552 1.229-1.229 1.229h-15.503c-.678 0-1.229-.552-1.229-1.229v-.67c0-.678.552-1.229 1.229-1.229h15.503c.678 0 1.229.552 1.229 1.229z"/><path d="m80.607 56.077c-1.496 0-2.751.992-3.179 2.349h-30.856c-.428-1.356-1.683-2.349-3.179-2.349-1.847 0-3.349 1.502-3.349 3.349s1.502 3.349 3.349 3.349c1.496 0 2.751-.992 3.179-2.349h7.609c-4.786 2.623-8.104 7.578-8.454 13.323h-1.118c-.552 0-1 .447-1 1v4.136c0 .553.448 1 1 1h4.135c.552 0 1-.447 1-1v-4.136c0-.553-.448-1-1-1h-1.017c.517-7.431 6.713-13.323 14.273-13.323s13.756 5.892 14.273 13.323h-1.017c-.552 0-1 .447-1 1v4.136c0 .553.448 1 1 1h4.135c.552 0 1-.447 1-1v-4.136c0-.553-.448-1-1-1h-1.118c-.351-5.745-3.668-10.7-8.454-13.323h7.609c.428 1.356 1.683 2.349 3.179 2.349 1.847 0 3.349-1.502 3.349-3.349s-1.502-3.349-3.349-3.349zm-37.214 4.697c-.744 0-1.349-.605-1.349-1.349s.605-1.349 1.349-1.349 1.349.605 1.349 1.349-.606 1.349-1.349 1.349zm4.351 17.111h-2.135v-2.136h2.135zm30.647 0h-2.135v-2.136h2.135zm2.216-17.111c-.744 0-1.349-.605-1.349-1.349s.605-1.349 1.349-1.349 1.349.605 1.349 1.349-.604 1.349-1.349 1.349z"/><path d="m62 44.563c6.746 0 12.235-5.488 12.235-12.235s-5.489-12.235-12.235-12.235-12.235 5.488-12.235 12.235 5.489 12.235 12.235 12.235zm-5.779-3.795h11.558c-1.646 1.131-3.636 1.796-5.779 1.796-2.143-.001-4.133-.666-5.779-1.796zm5.779-18.675c5.644 0 10.235 4.592 10.235 10.235 0 2.439-.86 4.679-2.29 6.439h-15.89c-1.429-1.76-2.29-4-2.29-6.439 0-5.643 4.591-10.235 10.235-10.235z"/></g></g></g></g></svg>